<svg xmlns="http://www.w3.org/2000/svg" viewBox="0 0 521.95 706.09"><defs><style>.cls-1{fill:#7a7979;opacity:0.49;}.cls-2{fill:#fff;}.cls-3{fill:#606060;}.cls-4{fill:#494643;}.cls-5{fill:#cecccc;}.cls-6{fill:#54514e;}.cls-7{fill:#babebf;}.cls-8{fill:#42413d;}.cls-9{opacity:0.69;}.cls-10{fill:#232728;}.cls-11{fill:#424241;}.cls-12{fill:#e0e1e2;opacity:0.67;}.cls-13{fill:#66615d;}.cls-14{fill:#6d6a68;}.cls-15{fill:#a3d6e5;}.cls-16{fill:#222526;}.cls-17{fill:#22201e;}.cls-18{fill:#82827f;}</style></defs><title>tarjetilla</title><g id="Capa_2" data-name="Capa 2"><g id="Capa_1-2" data-name="Capa 1"><path class="cls-1" d="M27.57,0H419.26A102.69,102.69,0,0,1,522,102.69V678.52a27.57,27.57,0,0,1-27.57,27.57H27.57A27.57,27.57,0,0,1,0,678.52V27.57A27.57,27.57,0,0,1,27.57,0Z"/><path class="cls-2" d="M127.21,586.84,125,590.72v13h-7V561.3h7v18.38h.13l9.09-18.38h7.05l-9.8,18.93,9.8,23.54h-7.24Z"/><path class="cls-2" d="M144.51,561.3h7v42.47h-7Z"/><path class="cls-2" d="M179.48,603.77h-7.1l-1.22-7.71h-8.65l-1.22,7.71h-6.46L162,561.3h10.31ZM163.41,590.3h6.79l-3.33-21.48h-.13Z"/><path class="cls-2" d="M207.43,603.77c-.39-1.1-.64-1.76-.64-5.22v-6.68c0-3.94-1.41-5.4-4.61-5.4h-2.44v17.3h-7V561.3h10.63c7.3,0,10.44,3.21,10.44,9.76v3.34c0,4.37-1.48,7.16-4.61,8.56v.12c3.52,1.39,4.67,4.55,4.67,9v6.55a12,12,0,0,0,.77,5.16Zm-7.69-36.41v13h2.76c2.62,0,4.23-1.09,4.23-4.49v-4.19c0-3-1.09-4.37-3.59-4.37Z"/><path class="cls-2" d="M218.46,561.3h7v42.47h-7Z"/><path class="cls-2" d="M230.06,571.49c0-6.8,3.78-10.68,10.7-10.68s10.69,3.88,10.69,10.68v22.08c0,6.8-3.78,10.68-10.69,10.68s-10.7-3.88-10.7-10.68ZM237.11,594c0,3,1.4,4.18,3.65,4.18s3.65-1.15,3.65-4.18V571.06c0-3-1.41-4.18-3.65-4.18s-3.65,1.15-3.65,4.18Z"/><rect class="cls-2" x="85.98" y="623" width="369.56" height="42.76" rx="8.58"/><path class="cls-3" d="M119.11,632l7.38,21.62h-1.21L122,644.12h-7l-3.31,9.51h-1.22L117.93,632Zm2.5,10.9-3.09-9.06-3.1,9.06Z"/><path class="cls-3" d="M137.33,640.36l-5.58,13.27h-.6l-5.53-13.27H127l4.49,11,4.54-11Z"/><path class="cls-3" d="M136.83,651.75a1.16,1.16,0,0,1,.34.85,1.18,1.18,0,0,1-.34.86,1.08,1.08,0,0,1-.8.35,1.11,1.11,0,0,1-.81-.35,1.23,1.23,0,0,1-.34-.86,1.2,1.2,0,0,1,.34-.85,1.09,1.09,0,0,1,.81-.36A1.05,1.05,0,0,1,136.83,651.75Z"/><path class="cls-3" d="M149.53,643.12a5.4,5.4,0,0,1,7.41.54,6.31,6.31,0,0,1,0,8.51,5.39,5.39,0,0,1-8,0,6,6,0,0,1-1.66-4.24,19,19,0,0,1,1.87-7.28A78.17,78.17,0,0,1,154,632h1.52A79.23,79.23,0,0,0,149.53,643.12Zm.28,1.46a4.76,4.76,0,0,0-1.3,3.35,4.67,4.67,0,0,0,1.3,3.32,4.2,4.2,0,0,0,3.15,1.37,4.16,4.16,0,0,0,3.12-1.37,4.63,4.63,0,0,0,1.3-3.32,4.72,4.72,0,0,0-1.3-3.35A4.13,4.13,0,0,0,153,643.2,4.18,4.18,0,0,0,149.81,644.58Z"/><path class="cls-3" d="M182.8,653.63h-1.15v-2.71a7.89,7.89,0,0,1-.72.9,6.67,6.67,0,0,1-9.87,0,7.76,7.76,0,0,1,0-10.49,6.7,6.7,0,0,1,9.87,0,7.89,7.89,0,0,1,.72.9V632h1.15Zm-1.15-5.84v-2.4a6.07,6.07,0,0,0-1.58-3.14,5.52,5.52,0,0,0-8.16,0,6.19,6.19,0,0,0-1.69,4.35,6.08,6.08,0,0,0,1.69,4.32,5.53,5.53,0,0,0,8.16,0A6,6,0,0,0,181.65,647.79Z"/><path class="cls-3" d="M186.08,645.91a4.93,4.93,0,0,0,0,.69,6,6,0,0,0,1.69,4.32,5.53,5.53,0,0,0,8.16,0c.19-.21.37-.42.54-.65l1.22.46a6,6,0,0,1-.9,1.1,6.67,6.67,0,0,1-9.87,0,7.73,7.73,0,0,1,0-10.49,6.7,6.7,0,0,1,9.87,0,6.45,6.45,0,0,1,1.8,4.57Zm.22-1.24h10.95a5.92,5.92,0,0,0-1.36-2.42,5.54,5.54,0,0,0-8.17,0A6.24,6.24,0,0,0,186.3,644.67Z"/><path class="cls-3" d="M211.74,632c3.35,0,5.94,1,7.78,3a11.59,11.59,0,0,1,0,15.67c-1.84,2-4.43,2.94-7.78,3H208V632Zm-2.61,1.27v19.09h2.6a9.2,9.2,0,0,0,6.92-2.6,10.29,10.29,0,0,0,0-13.9,9.23,9.23,0,0,0-6.92-2.59Z"/><path class="cls-3" d="M226.54,636a1.14,1.14,0,0,1,.34.84,1.18,1.18,0,0,1-.34.87,1.07,1.07,0,0,1-.79.35,1.12,1.12,0,0,1-.82-.35,1.21,1.21,0,0,1-.33-.87,1.17,1.17,0,0,1,.33-.84,1.08,1.08,0,0,1,.82-.35A1,1,0,0,1,226.54,636Zm-.23,4.34v13.27h-1.14V640.36Z"/><path class="cls-3" d="M240.23,650.43l1.2.48a8.93,8.93,0,0,1-.74.91,6.68,6.68,0,0,1-9.88,0,7.76,7.76,0,0,1,0-10.49,6.71,6.71,0,0,1,9.88,0,8.93,8.93,0,0,1,.74.91l-1.2.48c-.13-.16-.26-.33-.41-.49a5.43,5.43,0,0,0-4.08-1.79,5.36,5.36,0,0,0-4.06,1.8,6.39,6.39,0,0,0,0,8.66,5.5,5.5,0,0,0,8.14,0C240,650.75,240.1,650.59,240.23,650.43Z"/><path class="cls-3" d="M245.26,636a1.14,1.14,0,0,1,.34.84,1.18,1.18,0,0,1-.34.87,1.07,1.07,0,0,1-.79.35,1.12,1.12,0,0,1-.82-.35,1.21,1.21,0,0,1-.33-.87,1.17,1.17,0,0,1,.33-.84,1.08,1.08,0,0,1,.82-.35A1,1,0,0,1,245.26,636Zm-.23,4.34v13.27h-1.14V640.36Z"/><path class="cls-3" d="M248.74,645.91a4.86,4.86,0,0,0-.05.69,6.08,6.08,0,0,0,1.69,4.32,5.53,5.53,0,0,0,8.16,0c.19-.21.38-.42.55-.65l1.22.46a6.16,6.16,0,0,1-.91,1.1,6.67,6.67,0,0,1-9.87,0,7.76,7.76,0,0,1,0-10.49,6.7,6.7,0,0,1,9.87,0,6.45,6.45,0,0,1,1.8,4.57Zm.21-1.24h11a5.94,5.94,0,0,0-1.37-2.42,5.52,5.52,0,0,0-8.16,0A6.26,6.26,0,0,0,249,644.67Z"/><path class="cls-3" d="M263.14,640.36h1.15v.32a3.52,3.52,0,0,1,5.16.05,3.39,3.39,0,0,1,.51.67,4.22,4.22,0,0,1,.53-.67,3.55,3.55,0,0,1,5.23,0,4,4,0,0,1,1.08,2.66v10.24h-1.15V643.39h0a2.65,2.65,0,0,0-.75-1.79,2.46,2.46,0,0,0-3.63,0,2.75,2.75,0,0,0-.76,2v10H269.4V643.39h0a2.71,2.71,0,0,0-.76-1.79,2.43,2.43,0,0,0-1.81-.8,2.39,2.39,0,0,0-1.8.8,2.71,2.71,0,0,0-.75,1.68v10.35h-1.15Z"/><path class="cls-3" d="M279.65,632h1.15v10.21a7.3,7.3,0,0,1,.72-.88,6.69,6.69,0,0,1,9.86,0,7.76,7.76,0,0,1,0,10.49,6.65,6.65,0,0,1-9.86,0,7.3,7.3,0,0,1-.72-.88v2.69h-1.15Zm1.15,13.32v2.53a5.83,5.83,0,0,0,1.57,3,5.53,5.53,0,0,0,8.16,0,6.08,6.08,0,0,0,1.68-4.32,6.18,6.18,0,0,0-1.68-4.35,5.52,5.52,0,0,0-8.16,0A5.92,5.92,0,0,0,280.8,645.33Z"/><path class="cls-3" d="M300.32,641.43a4.1,4.1,0,0,0-2.4,1.65,4.69,4.69,0,0,0-1.18,2.93v7.62h-1.15V640.36h1.15v2.87a5.15,5.15,0,0,1,2.95-3Z"/><path class="cls-3" d="M302.32,645.91a4.93,4.93,0,0,0,0,.69,6,6,0,0,0,1.69,4.32,5.53,5.53,0,0,0,8.16,0c.19-.21.37-.42.54-.65l1.23.46a6.65,6.65,0,0,1-.91,1.1,6.67,6.67,0,0,1-9.87,0,7.73,7.73,0,0,1,0-10.49,6.7,6.7,0,0,1,9.87,0,6.45,6.45,0,0,1,1.8,4.57Zm.22-1.24h10.95a5.92,5.92,0,0,0-1.36-2.42,5.54,5.54,0,0,0-8.17,0A6.36,6.36,0,0,0,302.54,644.67Z"/><path class="cls-3" d="M325.55,658.67h-1.27l3.29-7.5-4.75-10.81h1.28l4.1,9.26,4.11-9.26h1.28Z"/><path class="cls-3" d="M343.87,646.14v7.49h-1.15V632h5.34a6.61,6.61,0,0,1,3.95,2.07,7.4,7.4,0,0,1,0,10,6.19,6.19,0,0,1-4.69,2.07Zm0-12.89V644.9h3.45a5.14,5.14,0,0,0,3.87-1.7,5.83,5.83,0,0,0,1.61-4.14,5.76,5.76,0,0,0-1.61-4.11,5.14,5.14,0,0,0-3.87-1.7Z"/><path class="cls-3" d="M361.59,639.17a6.49,6.49,0,0,1,4.93,2.17,7.76,7.76,0,0,1,0,10.49,6.66,6.66,0,0,1-9.86,0,7.73,7.73,0,0,1,0-10.49A6.53,6.53,0,0,1,361.59,639.17Zm-4.08,3.08a6.15,6.15,0,0,0-1.69,4.35,6,6,0,0,0,1.69,4.32,5.53,5.53,0,0,0,8.15,0,6,6,0,0,0,1.69-4.32,6.15,6.15,0,0,0-1.69-4.35,5.51,5.51,0,0,0-8.15,0Z"/><path class="cls-3" d="M375.43,641.43a4.1,4.1,0,0,0-2.4,1.65,4.69,4.69,0,0,0-1.18,2.93v7.62H370.7V640.36h1.15v2.87a5.12,5.12,0,0,1,2.95-3Z"/><path class="cls-3" d="M378.44,640.36v-5.64h1.13v5.64h2.55v1.22h-2.55v12h-1.13v-12h-2.55v-1.22Z"/><path class="cls-3" d="M389,653.81a4.86,4.86,0,0,1-3.72-1.47,5.36,5.36,0,0,1-1.42-3.71v-8.29H385v8.18a4,4,0,0,0,1.15,2.87A3.7,3.7,0,0,0,389,652.6a3.63,3.63,0,0,0,2.72-1.2,4,4,0,0,0,1.15-2.88v-8.18H394v8.29a5.37,5.37,0,0,1-1.43,3.71A4.68,4.68,0,0,1,389,653.81Z"/><path class="cls-3" d="M408.58,651c-.22.28-.45.56-.69.82a6.67,6.67,0,0,1-9.87,0,7.76,7.76,0,0,1,0-10.49,6.72,6.72,0,0,1,9.87,0,7.89,7.89,0,0,1,.72.9v-1.88h1.15v10.3a7.17,7.17,0,0,1-2,5.11,6.69,6.69,0,0,1-9.88,0,8,8,0,0,1-.75-.92l1.21-.48a3.72,3.72,0,0,0,.41.48,5.5,5.5,0,0,0,8.14,0A6,6,0,0,0,408.58,651Zm0-5.67a6.07,6.07,0,0,0-1.57-3.08,5.52,5.52,0,0,0-8.16,0,6.19,6.19,0,0,0-1.69,4.35,6.12,6.12,0,0,0,1.69,4.33,5.53,5.53,0,0,0,8.16,0,6.06,6.06,0,0,0,1.57-3Z"/><path class="cls-3" d="M425.65,653.63H424.5v-2.71a7.89,7.89,0,0,1-.72.9,6.67,6.67,0,0,1-9.87,0,7.73,7.73,0,0,1,0-10.49,6.7,6.7,0,0,1,9.87,0,7.89,7.89,0,0,1,.72.9v-1.88h1.15Zm-1.15-5.84v-2.4a6.07,6.07,0,0,0-1.58-3.14,5.52,5.52,0,0,0-8.16,0,6.15,6.15,0,0,0-1.69,4.35,6,6,0,0,0,1.69,4.32,5.53,5.53,0,0,0,8.16,0A6,6,0,0,0,424.5,647.79Z"/><path class="cls-3" d="M429.66,632v21.62h-1.15V632Z"/><rect class="cls-2" x="266" y="559.83" width="168.84" height="49.72" rx="5.47"/><path class="cls-3" d="M294.35,595.22V574l-2.64,1.73-1.11-.81,5.17-3.78v24.11h5.52v1.45H288.71v-1.45Z"/><path class="cls-3" d="M310,584.25a7.05,7.05,0,0,1,9.26.63,7.17,7.17,0,0,1,0,10.06,7,7,0,0,1-10,0,6.83,6.83,0,0,1-2.08-5,21.52,21.52,0,0,1,2.35-8.6,88.36,88.36,0,0,1,6-10.22h1.9A90,90,0,0,0,310,584.25Zm.35,1.73a5.55,5.55,0,1,0,7.83,0,5.49,5.49,0,0,0-7.83,0Z"/><path class="cls-3" d="M327.26,583.29a1.44,1.44,0,0,1,0,2,1.36,1.36,0,0,1-1,.42,1.44,1.44,0,0,1-1-2.45,1.41,1.41,0,0,1,1-.41A1.39,1.39,0,0,1,327.26,583.29Zm0,11.16a1.35,1.35,0,0,1,.42,1,1.43,1.43,0,0,1-1.42,1.43,1.38,1.38,0,0,1-1-.42,1.37,1.37,0,0,1-.42-1,1.35,1.35,0,0,1,.42-1,1.38,1.38,0,0,1,1-.42A1.36,1.36,0,0,1,327.26,594.45Z"/><path class="cls-3" d="M337.39,582.41l-1.19,0v-1.43a7.1,7.1,0,0,0,2.42-.38,6.07,6.07,0,0,0,2.05-1.56,4,4,0,0,0,1.1-2.81,3.89,3.89,0,0,0-3.9-3.92,3.83,3.83,0,0,0-2.77,1.14,4.13,4.13,0,0,0-.93,1.46l-1.37-.54a4.56,4.56,0,0,1,1.23-2,5.43,5.43,0,0,1,9.27,3.83,5,5,0,0,1-1.21,3.58,6.65,6.65,0,0,1-2.26,1.73,9,9,0,0,1,3.81,2.39,7.83,7.83,0,0,1,2.17,5.49,7.38,7.38,0,0,1-2.22,5.4,7.53,7.53,0,0,1-10.71,0,7.37,7.37,0,0,1-2.12-4.19l1.43-.53a6,6,0,0,0,1.76,3.67,6.08,6.08,0,0,0,10.37-4.34,6.36,6.36,0,0,0-1.73-4.42A9,9,0,0,0,337.39,582.41Z"/><path class="cls-3" d="M352.05,579.05a18.13,18.13,0,0,1,1.78-.47,11.08,11.08,0,0,1,2-.18,10,10,0,0,1,3.36.56,9.23,9.23,0,0,1,5.33,4.53,8.91,8.91,0,0,1,1.1,4.21,9.5,9.5,0,0,1-.41,2.72,8.88,8.88,0,0,1-4.39,5.36,8.74,8.74,0,0,1-4.13,1.07,9.21,9.21,0,0,1-2.75-.43,8.45,8.45,0,0,1-4.48-3.11l1-1.12a7,7,0,0,0,3.9,2.78,7.43,7.43,0,0,0,2.24.36,7.59,7.59,0,0,0,7.14-5.37,7.62,7.62,0,0,0,.36-2.27,7.26,7.26,0,0,0-.92-3.49,7.77,7.77,0,0,0-4.44-3.8,8.51,8.51,0,0,0-2.82-.45,15,15,0,0,0-4.49.78l-1.13-1,2.91-8.09v-.53h7.94v1.45H354.4Z"/><path class="cls-3" d="M377.9,581h1.44v2.21a9.81,9.81,0,0,1,.9-1.05,8.72,8.72,0,0,1,14.88,6.22,8.5,8.5,0,0,1-2.55,6.19,8.67,8.67,0,0,1-12.33,0,10.89,10.89,0,0,1-.9-1v9.16H377.9Zm1.44,5.87v3a7.21,7.21,0,0,0,12.16,3.62,7.23,7.23,0,1,0-12.16-6.63Z"/><path class="cls-3" d="M398,581h1.43v.38a4.59,4.59,0,0,1,6.45,0,4.44,4.44,0,0,1,.63.8,6.18,6.18,0,0,1,.67-.8,4.64,4.64,0,0,1,6.54,0,4.69,4.69,0,0,1,1.35,3.15v12.11h-1.44V584.56h0a3.08,3.08,0,0,0-.94-2.12,3.2,3.2,0,0,0-4.53,0,3.21,3.21,0,0,0-1,2.36v11.87h-1.42V584.56h0a3.23,3.23,0,0,0-3.22-3.06,3.07,3.07,0,0,0-2.24.94,3.13,3.13,0,0,0-.94,2v12.24H398Z"/><path class="cls-2" d="M201.4,198.83H387.72a5.47,5.47,0,0,1,5.47,5.47v38.78a5.47,5.47,0,0,1-5.47,5.47H162.62a5.47,5.47,0,0,1-5.47-5.47v0a44.25,44.25,0,0,1,44.25-44.25Z"/><path class="cls-4" d="M192,386c-1.08-11.37-1.83-23.51,1.24-34.67a27.19,27.19,0,0,1,5.68-11c4.11-4.62,10.06-7.2,16.06-8.69,17.84-4.42,36.41-4.65,54.7-4.64,8.29,0,16.58.29,24.84,1,10.17.92,20.59,2,30.18,5.75,6,2.33,12.09,5.29,14.52,11.62a35.38,35.38,0,0,1,2.06,10.32c.25,3.48-.13,6.87,0,10.34.26,5.23,0,10.37-.05,15.59,0,1.41-.07,2.82-.14,4.22-.07,1.16.17,3.18-.32,4.23s-1.64.78-2.87.85l-4.14.26q-8.86.52-17.72.94-12.42.6-24.86,1-14.08.48-28.2.68c-9.26.12-18.52.13-27.77-.09-7.86-.19-15.74-.51-23.56-1.31-5.17-.53-10.66-1.08-15.55-3C194.59,388.93,192.17,387.92,192,386Z"/><path class="cls-5" d="M208.52,340.63a14.86,14.86,0,0,0-7.82,7.05c-1.36,2.74-1.64,5.87-1.79,8.92-.22,4.19-.7,21-.17,25.11.26,2,1.41,7.47,3.56,6.36,5.49-2.84,16-6.78,22-7.57,6.9-.89,11.38-2.58,18.33-3,13.92-.81,27.88-.74,41.82-.26l4.18.16c7.94.32,38.84,5.25,46.23,7.48.26.08.57.14.76-.05a.73.73,0,0,0,.16-.48,176.11,176.11,0,0,0,.64-21.05c-.11-6.05.5-12.38-3.5-17.41-3.29-4.14-8.68-6-13.91-6.81a328.54,328.54,0,0,0-40.88-2.88c-16.95-.33-33.8.68-50.74,1.5C221.68,338,214.32,338.13,208.52,340.63Z"/><path class="cls-6" d="M294.61,324.1h-4.8a35.41,35.41,0,0,0,.15-4.28,18.11,18.11,0,0,0-.63-4.39,9.23,9.23,0,0,0-3.54-5.22,9.08,9.08,0,0,0-4.28-1.36c-1.67-.12-3.34-.34-5-.5q-5.29-.51-10.61-.71a61.88,61.88,0,0,0-7.82.17c-1.54.15-3.08.36-4.6.65-2.56.46-5.36,1.29-7.28,3.14a7.72,7.72,0,0,0-1.09,1.33c-2.13,3.23-2.83,7.37-2.91,11.17h-4.71a.84.84,0,0,0-.75,1.21l1.46,2.92h55l2-3A.73.73,0,0,0,294.61,324.1Z"/><path class="cls-7" d="M251.11,324.79H281.8a6,6,0,0,0,5.42-3.47,7.48,7.48,0,0,0-.44-6.64,6.93,6.93,0,0,0-2.3-2.51,9.55,9.55,0,0,0-4.24-1.07c-1.75-.19-3.5-.43-5.26-.58a103.82,103.82,0,0,0-10.58-.39q-3,0-5.93.23c-1.71.12-3.42.28-5.12.57a13.07,13.07,0,0,0-4.81,1.42,6.89,6.89,0,0,0-2.36,2.69,9.72,9.72,0,0,0-.73,2A6,6,0,0,0,251.11,324.79Z"/><path class="cls-8" d="M214.68,380.5s-.74-8.81,9.64-9.63c9.49-.74,13,8.93,13.07,8.94h2.75s-2.07-13.06-16.51-11.69-13.07,15.13-13.07,15.13"/><g class="cls-9"><polygon class="cls-8" points="253.21 315.85 253.21 322.04 255.27 322.04 255.27 315.85 257.33 315.85 257.33 313.79 250.46 313.79 250.46 315.85 253.21 315.85"/><path class="cls-8" d="M265.59,313.79h-4.13L259.4,322h2.06l.69-2.75h2.75l.69,2.75h2.06Zm-3.44,4.12.69-2.75h1.37l.69,2.75Z"/><polygon class="cls-8" points="269.72 313.79 272.47 317.91 269.72 322.04 272.47 322.04 273.85 319.29 275.22 322.04 277.28 322.04 275.22 317.91 277.28 313.79 275.22 313.79 273.85 317.23 271.78 313.79 269.72 313.79"/><rect class="cls-8" x="280.04" y="313.79" width="2.06" height="8.25"/></g><rect class="cls-10" x="153.46" y="469.92" width="37.83" height="39.89" rx="10.66"/><rect class="cls-10" x="344.7" y="469.92" width="37.83" height="39.89" rx="10.66"/><path class="cls-11" d="M144.52,466.48s-10.32,1.37-4.13,17.19c0,0,88.05,15.13,150.65,11.69S391.48,482.3,391.48,482.3s6.19-17.89-2.07-14.45S149.33,457.54,144.52,466.48Z"/><path class="cls-12" d="M150.71,474.73s94.24,19.26,229.76,0C380.47,474.73,269.72,485.05,150.71,474.73Z"/><path class="cls-13" d="M185.79,388.76s-11-7.57-8.94-10.32,9.63-3.44,17.2,7.56S185.79,388.76,185.79,388.76Z"/><path class="cls-4" d="M180.29,383.25s-21.33,3.44-24.08-7.56,22.7-11,22.7-11,9-1.37,4.13,14.45A19.88,19.88,0,0,1,180.29,383.25Z"/><path class="cls-14" d="M347.24,388.76s12.28-7.57,10-10.32S346.47,375,338,386,347.24,388.76,347.24,388.76Z"/><path class="cls-4" d="M353.38,383.25s23.79,3.44,26.86-7.56-25.33-11-25.33-11-10-1.37-4.6,14.45A19.4,19.4,0,0,0,353.38,383.25Z"/><path class="cls-15" d="M143.14,469.92s-.69-18.57-.69-28.2,2.76-27.52,14.45-30.27c0,0,6.88-17.88,28.89-23.38,0,0,25.45-9.63,54.35-11,0,0,50.9-4.81,94.93,6.88,0,0,33.71,6.19,41.27,28.2,0,0,15.14,3.44,15.14,33,0,0,.68,22.69-1.38,24.76s-52.28,5.5-57.78,4.81H253.21s-40.2,1-73.61-.69c-11.73-.58-32-3.05-36.46-4.12"/><path class="cls-16" d="M143.22,469.59c-.33,0-.17.11.7.28l.65-.05C144.11,469.76,143.67,469.67,143.22,469.59Z"/><path class="cls-16" d="M149.08,470.91c1,.06,2.27.09,1.62-.16-1,0-1.29-.08-2.43-.06-.89-.11-1.54-.28-1.38-.32-.32,0-1.36-.25-1.85-.24a21,21,0,0,0,4.12.68C149.48,470.89,149.16,470.89,149.08,470.91Z"/><path class="cls-16" d="M236.39,475.2h0Z"/><path class="cls-16" d="M290.59,475.05a2.58,2.58,0,0,0-.6,0C290.37,475.08,290.68,475.07,290.59,475.05Z"/><path class="cls-16" d="M299.85,475.24l-.55,0A3.69,3.69,0,0,0,299.85,475.24Z"/><path class="cls-16" d="M236.39,475.2l1.44.05A7.39,7.39,0,0,0,236.39,475.2Z"/><path class="cls-16" d="M161.09,472a7.68,7.68,0,0,0-.78,0l.73.06Z"/><path class="cls-16" d="M212.48,475.32H212a1.93,1.93,0,0,0-.36.06Z"/><path class="cls-16" d="M194.14,475a1.37,1.37,0,0,0,.72-.17,4.49,4.49,0,0,1-.9.07S194,475,194.14,475Z"/><path class="cls-16" d="M165.12,473l-.52,0Z"/><path class="cls-16" d="M225.61,475.41a.49.49,0,0,0,.17,0Z"/><path class="cls-16" d="M143.28,448.66s0,0,0,0S143.29,448.8,143.28,448.66Z"/><path class="cls-16" d="M143.11,469.92l0-.3s-.05-.06-.08-.06Z"/><path class="cls-16" d="M316.78,475.42h-.07C316.26,475.43,316.51,475.43,316.78,475.42Z"/><path class="cls-16" d="M366,397.13c1.3,1.21-2.35-1.7-.36.09C365.5,397,367.67,398.61,366,397.13Z"/><path class="cls-16" d="M161.56,472.08l.75.08Z"/><path class="cls-16" d="M365.66,397.22h0l.2.19Z"/><path class="cls-16" d="M355.82,474.44a3,3,0,0,0-.4,0S355.52,474.43,355.82,474.44Z"/><path class="cls-16" d="M326.73,475.13l.72,0Z"/><path class="cls-16" d="M370.87,473.07c.39,0,.52,0,1.05-.09h-.16A5.68,5.68,0,0,1,370.87,473.07Z"/><path class="cls-16" d="M386.5,471.28l-.29,0-.49.08Z"/><path class="cls-16" d="M159.7,407.41a5.41,5.41,0,0,1-.47.54C159.43,407.8,158.31,409.77,159.7,407.41Z"/><path class="cls-16" d="M161.09,472.09a1.33,1.33,0,0,1,.47,0L161,472S161,472.07,161.09,472.09Z"/><path class="cls-16" d="M371.4,471.9l2.49-.21Z"/><path class="cls-16" d="M263.68,376.67l-.57,0Z"/><path class="cls-16" d="M381.23,470.89c.45,0,.92,0,1.41-.07l.28-.08Z"/><path class="cls-16" d="M159.22,408h0Z"/><path class="cls-16" d="M148.32,419.32c1.22-1.94.43-1,.61-1.48.77-1.15,1-1.33,1.13-1.38s.06.1.41-.2a12.85,12.85,0,0,1,3.12-2.89c.1,0,.31-.14.09,0a8.72,8.72,0,0,1,1.4-.79l.9-.35,1.19-.35.11,0a.73.73,0,0,0,.05-.09l.08-.21.15-.35c.08-.16.14-.32.22-.48l.44-.93.82-1.65a1.45,1.45,0,0,1,.18-.22c-.26.25-.36.25-.39.16a9.86,9.86,0,0,1,1.27-2,5.58,5.58,0,0,0-.49.89l.57-1c.69-.73-.78,1.3-.67,1.37a35.14,35.14,0,0,1,3.62-5.19c.34-.16-2.39,3-.89,1.42-.56.64-1.05,1.34-1.58,2,1.36-1.43-.91,1.25.36,0,1-1.35,1.57-2.08,2.15-2.81a29.34,29.34,0,0,1,2.36-2.63c.48-.59-.27.07.21-.52a13.73,13.73,0,0,1,3.14-2.63,26.36,26.36,0,0,0,2.56-1.82c.34-.3.54-.57.95-.89A16,16,0,0,1,174.5,393l-.63.6,2.19-1.35a15,15,0,0,1,2.4-1.22c-.52.33-2.27,1.19-1.82,1,2.05-.83,1.34-.83,2.92-1.44l.39,0c.81-.3,1.61-.69,2.47-1l2.64-.84.67-.21c.28-.08.5-.19.71-.26l1.34-.5c.9-.34,1.82-.65,2.73-1-.18.11-.8.37.08.14a140.65,140.65,0,0,1,14.58-4l1.72-.56c.41-.09.77-.11.34,0,1.8-.35.07-.11.91-.36,1-.24,1.37-.23.73,0,1.56-.44,3.81-.94,6.09-1.45s4.59-.89,6.3-1l-.65.15c2.63-.34,2.91-.8,5.37-1l-.46.09,4.37-.54,4.36-.43c2.86-.23,5.55-.32,7.76-.42.82-.29,5.7-.27,6.06-.58,3.3,0,2.36.07,7,0,1.24,0,1.84-.23,3.38-.31l0,.15,2.07-.18,1.11.17,1.44-.06a3.26,3.26,0,0,1-1.13-.1c1.12,0,2.49,0,3.59,0a13.67,13.67,0,0,1,1.94.16c1.77,0,3.54-.08,5.31-.07a13.65,13.65,0,0,1-1.71.08c2.84-.09.51.18,3.11.1-.34-.05.19-.09.25-.12,1.3.12,4.24.18,6.42.27l-.42.08,6.18.29,6.53.41c-1.58-.15-1.21-.31.09-.24l.5.2c.85,0-1.34-.19.38-.15s1.09.29.14.26l2,.13c.11.06-.36,0-.49.09.83,0,3.43.49,4.64.43l.1.05c4.39.5,6.38.7,9.95,1.17a16.57,16.57,0,0,1,2.55.18c2.61.45,5.5,1,8.62,1.63,2.21.36.66,0,1.67.12.13.16,3.26.76,1.62.53,1.88.33,3.06.66,4.37.95l5.12,1.13c-.5-.17-1.06-.33-.76-.3a8.45,8.45,0,0,1,1.82.53l-.22,0a51.75,51.75,0,0,1,8.47,2.37c2.81,1,5.42,2.11,7.45,2.85l-.23-.09c1.38.56,2.76,1.13,4.1,1.77,1.82.95-1.14-.48.18.28a37.7,37.7,0,0,1,5.32,2.95c1.51,1,2.86,2,4.45,3.14,1.07,1.1,3.11,2.86,5,5a25,25,0,0,1,4.28,6.48l0-.25a7.91,7.91,0,0,1,.79,1.89c0-.14-.38-1.08-.06-.51l.91,2.28c.21.06.47.12.64.19l.35.12c.23.1.47.18.7.29A11.8,11.8,0,0,1,379,414a10,10,0,0,1,1.28.88,9.5,9.5,0,0,1,1.2,1,20.32,20.32,0,0,1,3.94,4.94,36.37,36.37,0,0,1,4.19,12c.58,3.31.85,1.81,1.08,6.09l-.29-1.19c.1.85.24,1.7.3,2.56s.07,1.73.11,2.6c.07,1.74.13,3.51.15,5.26,0,3.51,0,7,0,10.37a6.9,6.9,0,0,1-.06-1.07c-.07.71-.1,2-.12,3.16a14.67,14.67,0,0,0,0,2.12c-.08,1-.11.24-.2.88a29,29,0,0,1-.45,4.24c-.05.12,0-.38.06-.64a7.4,7.4,0,0,1-.51,2.11c-.06.1-.1.15-.17.16s-.19.09-.26.12-.2.11,0,.08c-1.11.32-2.34.52-3.44.72s-2.2.35-3.2.44c-1.29.32-4.32.43-4.71.69.16-.24-4.44.27-6,.52.53-.12-1.39.05-.77-.1-1.83.17-3.49.35-3.17.44-3.38,0-6.74.76-8.66.55-5.41.51-10.43.9-15.31,1.19.16-.22,5.39-.3,5.17-.53-4.62.35-7.29.69-11.89.76-1.18,0,.68-.11,1.08-.17-1.16.06-2.29.09-3.41.11-.56,0-1.11,0-1.65,0-.27,0-.53,0-.78-.05s-.59,0-.88,0c-2.18,0-4.3,0-6.36.06a7.93,7.93,0,0,1,.88-.06,7.54,7.54,0,0,0-1.81.07l.8,0c1.3.15-3.23.31-3.38.39,1.38-.29-4.08-.07-1.88-.44-.54,0-1.21.06-1.09.13-.79,0-1-.06-.24-.13-2.91.05-1.88.16-4.52.16a6.68,6.68,0,0,1,.82-.13,47.29,47.29,0,0,1-4.91.15c.13,0-.13-.07.54-.07-3.84,0-6.53.26-10.74.17,1.24-.22-1.43-.07-1.65-.26l-2.26.06.9.09c-2,0-3.73.13-5.43.07l1.47-.08-3.71,0,2.1.07c-2,.09.22.23-2.42.18.54,0-2,0-3-.11h0c-1,.06-2,.12-3.46.08-.38-.06.31-.21.06-.25-1,.16-4.64,0-5.86.21.41,0,.43-.14.29-.16l-.81.13c-.91,0-1-.06-.9-.14-2.76,0,.88.24-2.4.13.26,0,.14,0,.67,0-3.29-.06-6.35.08-9.38,0-.89-.18,2.64,0,1.62-.2-4.36,0-9,.21-13.24.2h.79c-.58.28-3.14-.06-5.27.1.52,0,.68-.16.54-.13-2.89,0-5.9.16-10.28.28l.54-.07c-1.7-.05-4.48,0-6.32,0-.54.07-1.59.06-1,.16-5.67-.36-10.81.22-15.84-.14.6,0,1.43-.05,1-.05l-4.28,0a8.88,8.88,0,0,0,1.46.17,26.77,26.77,0,0,1-2.81.09c1.92-.05,0-.18-.85-.26.14,0-.15.07-.08.11-2.23-.24-.37.23-3.43.05l.17-.06c-1.15,0-2.2.07-3.44,0-.5-.14,1.22,0,1.3-.15-1.73,0-3.42.19-5,0l2.53,0a29.71,29.71,0,0,0-3.17-.2H199l-2.93-.15.75.07c-2.18.28-4.41-.05-7.34.06,2.85-.11.48-.1.7-.25-.75-.07-1.88-.15-1.55-.18-1.38.07-2.3-.17-4.25-.09-.09-.05-1.47-.07-1.16-.17-1.79-.05.42.1.27.15-2.77.05-6.48-.48-10.45-.59-3.42-.19-4.07-.09-7.25-.32-1.06-.19.9-.09.9-.09-1.72-.24-3-.36-4.65-.48.34,0,0-.08-.49-.19A20.36,20.36,0,0,1,159,472a11.43,11.43,0,0,1,1.33,0c-1.54-.13-3.07-.22-4.66-.37-.41-.14,1,0,1.54,0-1.79-.17-4.63-.5-5.19-.44l1.13.2c-.65-.08-.32-.16.17-.12a6.56,6.56,0,0,1,2.27.38l-1.13-.11c1.12.43,4.54.51,6.82.78l-1,.1,2.35.08c.49.11.82.26-.31.17,1.63.28,1.46.09,2.85.34.15,0,.08,0-.06,0l1.6.1c-.32,0,.25.17-.73.05,2.86.4,4.65.28,5.72.53h-.25c4,.26.4-.12,3.41-.06l2,.52.41-.13c.41,0,1.22.09,1.07.14,1.54,0-.26-.08.64-.12,2,.24,5.47.18,5.91.45.71-.09-1.9-.18.22-.16.6.29,2.45,0,4.26.23-.56.11-2.27,0-.46.17a48.53,48.53,0,0,1,5.06.17c.07-.18,3.33,0,5.89,0-.16.06,4.83.21,7.22.3l-.07,0a38.76,38.76,0,0,1,4.72-.12c-.07.11-.39.15-1.36.19l1.68,0a15.19,15.19,0,0,1,2-.1l-.42.14c2.24,0,4.52-.13,7.41,0,.16-.13-2.3-.36.76-.44.11.07.22.19-.58.22.26,0,.94-.06,1.46,0l-1.22.12c1.32.05.69-.1,1.74-.08,0,.1.78.07.63.14s-.92,0-1.32,0c1.19,0,2.62.08,3.09.15-.1-.05,0-.13.87-.14,2.25,0,.77.11,2.08.16a10.26,10.26,0,0,0,2-.15,4.12,4.12,0,0,1,1,.11c1.16-.07,5.42-.05,4.11-.2h-.11c3.81-.17,7.92,0,11.69-.11v.05c2.25-.09,5-.14,6.62-.26.67,0,1.58.09,1.29.15,1.73,0,1.92-.09,4.41,0a7.4,7.4,0,0,1-1.77.06,46.62,46.62,0,0,0,5.15,0c-.82.13,1.69.16,2.75.12l-1.57-.09c1.2,0,2.24,0,3.31,0l-.58.16c4.59.2,8.27-.34,11.76,0,1.21-.12-2.49-.09-1.41-.22,2.11,0,4.31.26,5,.26,2.89.09,2.69-.24,5.72-.18-.39-.06-.76-.22,1.5-.27s2.6.25,1.26.29a2.34,2.34,0,0,1-.72,0c-.69,0-1.58.05-.74.11l.27-.06a27.61,27.61,0,0,1,3.27.15c1.59-.05.68-.09-.5-.13,2.7.09,4.23,0,7,.06-.44,0-.85-.1-.41-.1a44.21,44.21,0,0,0,4.57-.14c1.57.09-.57.22,2.22.14,1.7.07.36.16-.31.21,2.53-.11,4.74.08,6.19.1l-1.34,0c.8,0,1.46,0,2.12,0l-.76-.12a8.35,8.35,0,0,1,1.44.07c.8-.08-.62-.2,1-.3a35.06,35.06,0,0,1,3.55.09c-3.29-.06.37.16-2.42.18.54,0,1.19,0,2,0,.12,0-.11,0-.33.05,3.15.14,1.45-.18,4.72-.18-.42.09.75.17,1.29.15-1.32,0-.63-.15.57-.22,2.1.07,2.28-.05,3.37,0l-1.25,0a27.08,27.08,0,0,1,2.93-.11c.13.07-1.32.05-.8.08a19,19,0,0,1,2.72,0l1.55.06h.4l.38,0a8.23,8.23,0,0,0,.86,0c1.05.08.1.17,1,.22,2.55-.12,2.76.09,5.42-.09-.77-.09-.9-.05,1-.24-1.46.09-2.92.16-4.38.22l2.81-.25c-1.32,0-2.79.16-3.59.14,1.35-.11,1.21-.09.57-.17,1.82.14,3.58-.2,5.68-.17l0,.3c3.14,0,5.57-.42,9.65-.59l-1.32,0c.54-.15,2.52-.16,3.83-.3-.11.11.71.09,1.28.11-.07-.07,3-.19,3.34-.42h1.82c3.29-.19,3.73-.57,6.89-.79-.94.18.5.14-1.61.39a12.48,12.48,0,0,0,2-.22c.62,0,2.91-.38,3.89-.38a9,9,0,0,1,1.76-.3c.13,0,0,.05,0,.05s1.84-.25.8-.26c3.27,0,9.05-1,11.89-1.17a22.23,22.23,0,0,0,3.64-.87,2.29,2.29,0,0,0,.51-.32,2.22,2.22,0,0,0,.29-.47,5.16,5.16,0,0,0,.31-.91c.15-.6.23-1.16.31-1.69,0,.14.05,0,0,.41a8.63,8.63,0,0,0,.19-2.4,16.2,16.2,0,0,1,.11-2.68c.24-1.68,0,1.75.1.7.37-.44.15-4,.36-6.18v.54c.14-1.7-.07-4.14-.08-6.9,0,0,0,.13.05,0-.17-1.89-.3-5.46-.45-8.12.16.82.11,1.21.22.7-.06-1.2-.2.35-.31-2,.09-.78,0-2.5.07-2.74a21.11,21.11,0,0,1,.19,2.25,26,26,0,0,0-.34-4.1l.09.15a21.26,21.26,0,0,0-.63-3.47c-.24-.88-.36-1.81-.88-3.6l.05.39a9.26,9.26,0,0,1-.52-1.79c0-.21-.08-.42-.15-.7a8.72,8.72,0,0,0-.43-1.07l0-.65c-.13-.31-.31-.73-.51-1.24s-.53-1-.82-1.62a35.44,35.44,0,0,0-2-3.4,28,28,0,0,1,1.58,2.34c.5,1,1.08,2,1.42,2.78-.21-.64-.76-1.64-1.21-2.6a14,14,0,0,0-1.26-2c.29.45.69,1,.94,1.48-.5-.66-1-1.46-1.64-2.33a33.2,33.2,0,0,0-2.3-2.76c.13,0,0-.23-.37-.65a21,21,0,0,0-1.63-1.48c-.36-.27-.72-.56-1.12-.82s-.8-.52-1.2-.74-.81-.44-1.2-.6c-.2-.08-.37-.17-.56-.24l-.19-.07-.09-.05a.53.53,0,0,1,0-.17l-.08-.33a32.77,32.77,0,0,0-3.35-6.32,33.25,33.25,0,0,0-5-5.88c1.23,1.53-1.19-1.07-1.14-.62-1-.81-1.36-1.11-1.43-1.2-1-.86-2-1.68-3-2.45-.7-.6,1,.63,1,.51-2.29-1.61-.88-.8-2.39-1.87.26.3-.9-.41-2.26-1.24.62.43,1.25.83,1.85,1.29-1.7-1-2.4-1.43-3.11-1.89a18.3,18.3,0,0,0-3.23-1.73l1.15.47c-.9-.45-2.59-1.23-4.3-2a34.76,34.76,0,0,0-4.43-1.54c-.32-.15-.73-.39.11-.11a69.05,69.05,0,0,0-7.3-2.21c-1.23-.31-2.44-.59-3.57-.83l-.83-.17-.76-.18-1.44-.39.38,0a22.51,22.51,0,0,1-2.62-.57c.06,0,.37,0,0-.09s-2.33-.43-3.48-.74l1,.15a31.37,31.37,0,0,0-3.08-.68c-.94-.17-1.8-.31-2.64-.44l-5.2-.79c0-.22-3.57-.86-5.38-1.18l.07,0c-2.68-.48-5-.64-7.24-.88l-3.38-.32-3.58-.26c-3.09-.57-10.54-1-15.55-1.34.77.08-.13.17-1,.15-1.18-.1-3.26,0-3.07-.19l.42,0a35.89,35.89,0,0,0-5.19-.29l-.32.26a83,83,0,0,0-8.67-.21c-3,.09-5.63.14-7,0l-3.84.24,0-.15c-3.3.09-4.95.14-9,.41l.82-.15c-2.3.14-2.88.59-5,.77l-.65-.16c-2,.15-4,.19-6,.36s-4,.33-6,.71c.06,0,.17-.12.82-.21l-4.27.51c-1.49.23-2.66.46-2.3.55a9.58,9.58,0,0,0-2.35.29c-1.28.24-2.81.61-3.87.84l.31-.2c-1.78.5-1.82.57-4.32,1.13-.6.11-.54,0,.25-.13-2,.34-1.52.44-3.92.91l.87-.29a18,18,0,0,0-2.95.82,29.12,29.12,0,0,1-4.17.87,13.55,13.55,0,0,1-2.52.82c-.17,0,.25-.15.47-.22-3.39.81-4.94,1.55-7.27,2.12a.81.81,0,0,0-.41,0c2.65-.82,4.79-1.41,4.59-1.34,0-.13-2.19.46-.53-.2-1.7.58-4.57,1.69-6.66,2.3a1,1,0,0,1-.28.05l.21-.08c-.48.15-.91.3-1.3.45-.67.21-1.09.34-1.72.56a2.14,2.14,0,0,0-.52.13l-.44.14-.45.14-2.09.62c.13.11-1.28.5.07.22l.91-.29.46-.15-.07,0,1.18-.36,1.41-.51-1.28.55a14.18,14.18,0,0,1-1.55.43l-1.43.66a16.07,16.07,0,0,0-2.78.74c-.94.29-1.75.55-2,.57a53.44,53.44,0,0,0-4.92,2.69,24,24,0,0,0-3.71,2.76,6.56,6.56,0,0,1-1.23.83l1.16-1c-.75.61-1.85,1.55-2.79,2.38a15,15,0,0,0-1.75,1.87c-1.73,1.73.81-1.13-1.45,1.36l.27-.37a29.76,29.76,0,0,0-5.2,7.08c-.34.6-.64,1.24-1,1.88l-.45,1-.21.49-.07.18-.2.06A15.68,15.68,0,0,0,152,413.4a5,5,0,0,1,.75-.45,15.75,15.75,0,0,0-2.49,2,18.77,18.77,0,0,0-2,2.49,26.33,26.33,0,0,0-2.91,5.75,58.47,58.47,0,0,0-2.89,12.33,18.71,18.71,0,0,0-.13,4l-.17.5c0,.82.07,1.64.16,2.45.21,3.44-.22,6,.12,10.33l.09-.56c0,1.57.18,5,.06,4.7a4.23,4.23,0,0,1,.08,1.13l-.08.05.23,3.84c0,3-.32-.45-.23,3.9a24.66,24.66,0,0,0,.38,4,8.69,8.69,0,0,1,.08-1.73l.08,1.48c.24.26.51,1.39.58-2.25l-.2-2.52.09-.82.06,2.13a16.14,16.14,0,0,0-.12-2.83,5.42,5.42,0,0,0,.1-1.06l-.29-2.48c.09-.31.21,1.11.22-.56-.13-1.16-.18,1.12-.29-.81a8.51,8.51,0,0,0,0-2.28c.06-.2.1.1.14.67-.1-1.27-.11-3.35-.25-4,.1-1.27-.14-4.27.09-4.15-.06-.4-.23-2.23-.27-3.39.32,2.12-.09-4.35.22-3.78-.27-1.56.09-5.62.41-8.36a5.07,5.07,0,0,1-.06.7,27.38,27.38,0,0,1,.62-2.94,18.1,18.1,0,0,1,.53-3.9c.68-1.78-.09,1.18.25.65-.21,0,.76-3.2.47-2.62a7.65,7.65,0,0,1,.88-1.8c-.14-.33.46-1.26.85-2.4a4.44,4.44,0,0,1,.75-1.11,13.06,13.06,0,0,0,.77-1.26C149.33,417.58,148.3,419.31,148.32,419.32Zm42.19-32.48h0l-1.09.36Zm4.45-1.38L193,386c-.17,0,0-.1.43-.23A11,11,0,0,0,195,385.46Zm-9.65,2.12.25-.08.14,0,.3-.11a2.09,2.09,0,0,1,.3-.07l-.55.21-.14.05-.12,0-.36.11-.08.05A1.08,1.08,0,0,1,185.31,387.58Z"/><path class="cls-16" d="M184.07,388.14l-.29.1.44-.1.24-.11Z"/><path class="cls-16" d="M235.72,475.19h.1l-.21,0Z"/><polygon class="cls-16" points="258.49 376.8 258.49 376.76 258.08 376.81 258.49 376.8"/><path class="cls-16" d="M210,474.65a2,2,0,0,0-.34,0Z"/><path class="cls-16" d="M198.91,474.43l-1.57-.1Z"/><path class="cls-16" d="M190.38,474.11a.72.72,0,0,0-.17.05h0Z"/><path class="cls-16" d="M326.15,474.19h0Z"/><path class="cls-16" d="M285.74,474.52l1.29-.07A3.68,3.68,0,0,0,285.74,474.52Z"/><path class="cls-16" d="M371.13,471.93h0l.27,0Z"/><path class="cls-16" d="M288.91,474.46c-.72,0-1.32,0-1.88,0C287.62,474.46,288.32,474.48,288.91,474.46Z"/><path class="cls-16" d="M153.54,471.1l-.41-.06s0,0,0,0Z"/><path class="cls-16" d="M153.08,471.05l-.45,0A2.4,2.4,0,0,0,153.08,471.05Z"/><path class="cls-16" d="M151.67,470.92l1,.09A6.22,6.22,0,0,0,151.67,470.92Z"/><path class="cls-16" d="M164.75,472.45l.14,0A.22.22,0,0,0,164.75,472.45Z"/><path class="cls-16" d="M168.17,472.78c-.81-.09-2-.31-3.17-.39l-.11,0C165.43,472.4,167.39,472.79,168.17,472.78Z"/><path class="cls-16" d="M182.43,474.41l-2.88-.17c.5.08,1.16.18-.15.13C183,474.7,178.66,474.22,182.43,474.41Z"/><path class="cls-16" d="M191.35,474.84c-1.55,0,0,.08-.07.11C192.26,474.93,192.5,474.93,191.35,474.84Z"/><path class="cls-16" d="M255.86,475.05l-.15.13C256.9,475.16,255.72,475.13,255.86,475.05Z"/><polygon class="cls-16" points="268.19 474.39 267.03 474.31 266.48 474.43 268.19 474.39"/><polygon class="cls-16" points="275.48 475.3 274.96 475.32 276.95 475.27 275.48 475.3"/><path class="cls-16" d="M383.74,471.81l-.38-.1C382.57,471.84,382.42,472,383.74,471.81Z"/><path class="cls-16" d="M390.15,430a14.46,14.46,0,0,0-.64-2.59C389.78,428.42,390,429.46,390.15,430Z"/><path class="cls-16" d="M270.89,375.49l.95,0-1.78,0Z"/><circle class="cls-2" cx="164.47" cy="441.03" r="15.82"/><circle class="cls-2" cx="164.47" cy="441.03" r="13.07"/><circle class="cls-2" cx="367.47" cy="442.03" r="15.82"/><circle class="cls-2" cx="367.47" cy="442.03" r="13.07"/><rect class="cls-17" x="185.8" y="426.58" width="161.66" height="30.95" rx="6" transform="matrix(1, 0, 0, 1, 0.89, -0.54)"/><rect class="cls-17" x="209.14" y="460.29" width="119.01" height="4.13" rx="1.16" transform="translate(0.93 -0.54) rotate(0.12)"/><rect class="cls-17" x="200.28" y="422.46" width="130.7" height="2.75" rx="0.78" transform="translate(0.85 -0.53) rotate(0.12)"/><rect class="cls-18" x="192.67" y="429.34" width="149.96" height="1.38"/><rect class="cls-18" x="192.67" y="444.47" width="149.96" height="1.38"/><rect class="cls-18" x="192.67" y="434.15" width="149.96" height="1.38"/><rect class="cls-18" x="192.67" y="442.4" width="149.96" height="1.38"/><rect class="cls-18" x="192.67" y="431.4" width="149.96" height="2.06"/><rect class="cls-18" x="192.67" y="436.21" width="149.96" height="2.06"/><rect class="cls-18" x="192.67" y="438.97" width="149.96" height="2.75"/><rect class="cls-18" x="192.67" y="446.53" width="149.96" height="2.75"/><rect class="cls-18" x="192.67" y="449.97" width="149.96" height="2.75"/><path class="cls-2" d="M199.61,75.6h8.55v54h-8.55Z"/><path class="cls-2" d="M230.71,129.58c-.46-1.38-.78-2.23-.78-6.63v-8.48c0-5-1.71-6.87-5.59-6.87h-3v22h-8.56v-54h12.92c8.86,0,12.67,4.08,12.67,12.41v4.24c0,5.56-1.79,9.11-5.6,10.88v.15c4.28,1.78,5.68,5.79,5.68,11.42V123a15.83,15.83,0,0,0,.93,6.55Zm-9.33-46.27V99.89h3.34c3.19,0,5.14-1.39,5.14-5.71V88.86c0-3.85-1.33-5.55-4.36-5.55Z"/><path class="cls-2" d="M267.88,88.94v7c0,8.63-4.2,13.34-12.75,13.34h-4v20.28h-8.55v-54h12.6C263.68,75.6,267.88,80.3,267.88,88.94Zm-16.8-5.63v18.28h4c2.72,0,4.2-1.24,4.2-5.09V88.4c0-3.86-1.48-5.09-4.2-5.09Z"/><path class="cls-2" d="M269.59,88.55c0-8.64,4.59-13.57,13-13.57s13,4.93,13,13.57v28.08c0,8.63-4.59,13.57-13,13.57s-13-4.94-13-13.57Zm8.55,28.62c0,3.85,1.72,5.32,4.44,5.32S287,121,287,117.17V88c0-3.85-1.71-5.32-4.43-5.32s-4.44,1.47-4.44,5.32Z"/><path class="cls-2" d="M317.42,129.58c-.47-1.38-.78-2.23-.78-6.63v-8.48c0-5-1.71-6.87-5.6-6.87h-3v22h-8.55v-54h12.91c8.87,0,12.68,4.08,12.68,12.41v4.24c0,5.56-1.79,9.11-5.6,10.88v.15c4.28,1.78,5.67,5.79,5.67,11.42V123a15.67,15.67,0,0,0,.94,6.55Zm-9.34-46.27V99.89h3.35c3.19,0,5.13-1.39,5.13-5.71V88.86c0-3.85-1.32-5.55-4.35-5.55Z"/><path class="cls-2" d="M326.3,75.6h26.44v7.71H343.8v46.27h-8.56V83.31H326.3Z"/><path class="cls-2" d="M380.09,129.58h-8l-1.37-9.71H361l-1.37,9.71h-7.29L360.41,76H372ZM362,112.6h7.64l-3.75-27.07h-.14Z"/><path class="cls-2" d="M413.28,75.6l-8.94,26.22,9.56,27.76h-9L398,108.22h-.16l-7,21.36h-8l9.57-27.76L383.42,75.6h8.86l6.38,19.89h.15l6.54-19.89Z"/><path class="cls-2" d="M423,75.6h-7.36v54H423Z"/><path class="cls-2" d="M190.22,81.7h-3.56V55.25a6.38,6.38,0,0,0-6.38-6.38h-19l-4.47-8-19,0-4.42,8H115.53a6.38,6.38,0,0,0-6.37,6.38V81.7H105.6a6.38,6.38,0,0,0-6.38,6.38v28a6.38,6.38,0,0,0,6.38,6.39h3.56v5.22a3.72,3.72,0,0,0,3.72,3.73h9.44a3.73,3.73,0,0,0,3.73-3.73v-5.22h43.71v5.22a3.73,3.73,0,0,0,3.73,3.73h9.44a3.73,3.73,0,0,0,3.73-3.73v-5.22h3.56a6.38,6.38,0,0,0,6.37-6.39v-28A6.38,6.38,0,0,0,190.22,81.7Zm-74,24.73a8,8,0,1,1,8-8A8,8,0,0,1,116.21,106.43ZM160,78.57H125.15V67.8h0s0-.07,0-.11V65.22A10.91,10.91,0,0,1,136,54.34h24a10.91,10.91,0,0,1,10.87,10.88v2.47s0,.08,0,.11h0V78.57Zm17.82,28.85a8,8,0,1,1,7.95-8A8,8,0,0,1,177.81,107.42Z"/><path class="cls-2" d="M244,167.09v1.15h-7.73v8.41H244v1.15h-7.73v9.55h-1.14V167.09Z"/><path class="cls-2" d="M244.87,180.12a4.31,4.31,0,0,0,0,.64,5.53,5.53,0,0,0,1.68,4.06,5.77,5.77,0,0,0,8.14,0,7.7,7.7,0,0,0,.54-.6l1.22.43a6.31,6.31,0,0,1-.9,1,6.95,6.95,0,1,1,0-9.83,5.92,5.92,0,0,1,1.79,4.29Zm.22-1.16H256a5.44,5.44,0,0,0-1.36-2.27,5.75,5.75,0,0,0-8.14,0A5.9,5.9,0,0,0,245.09,179Z"/><path class="cls-2" d="M262.46,175.92a4.09,4.09,0,0,0-2.4,1.55,4.22,4.22,0,0,0-1.17,2.75v7.13h-1.15V174.92h1.15v2.69a4.93,4.93,0,0,1,2.94-2.79Z"/><path class="cls-2" d="M263.85,177.7v9.65H262.7V174.92h1.15v.8a5,5,0,0,1,3.61-1.55,4.77,4.77,0,0,1,5,4.86v8.32h-1.13v-8.21a3.6,3.6,0,0,0-1.15-2.7,3.74,3.74,0,0,0-2.72-1.12,3.79,3.79,0,0,0-2.71,1.1A4.17,4.17,0,0,0,263.85,177.7Z"/><path class="cls-2" d="M287.51,187.35h-1.15v-2.53a8.19,8.19,0,0,1-.72.84,6.95,6.95,0,1,1,0-9.83,8.3,8.3,0,0,1,.72.85v-1.76h1.15Zm-1.15-5.47v-2.25a5.51,5.51,0,0,0-1.57-2.94,5.75,5.75,0,0,0-9.82,4.07,5.53,5.53,0,0,0,1.68,4.06,5.77,5.77,0,0,0,8.14,0A5.49,5.49,0,0,0,286.36,181.88Z"/><path class="cls-2" d="M290.17,177.7v9.65H289V174.92h1.14v.8a5,5,0,0,1,3.61-1.55,4.77,4.77,0,0,1,5,4.86v8.32h-1.13v-8.21a3.63,3.63,0,0,0-1.14-2.7,3.88,3.88,0,0,0-5.43,0A4,4,0,0,0,290.17,177.7Z"/><path class="cls-2" d="M313.83,187.35h-1.14v-2.53a8.19,8.19,0,0,1-.72.84,6.95,6.95,0,1,1,0-9.83,8.3,8.3,0,0,1,.72.85v-9.59h1.14Zm-1.14-5.47v-2.25a5.68,5.68,0,1,0,0,2.25Z"/><path class="cls-2" d="M321.91,173.8a7,7,0,1,1-4.9,11.87,7,7,0,0,1,4.9-11.87Zm-4.06,2.89a5.73,5.73,0,1,0,4.06-1.69A5.58,5.58,0,0,0,317.85,176.69Z"/><path class="cls-2" d="M343.43,167.09l7.35,20.26h-1.21l-3.24-8.91h-7l-3.3,8.91h-1.22l7.44-20.26Zm2.49,10.22-3.08-8.5-3.1,8.5Z"/><path class="cls-2" d="M352.07,192.08h-1.28l3.28-7-4.73-10.13h1.28l4.08,8.68,4.1-8.68h1.28Z"/><path class="cls-2" d="M373.92,187.35h-1.15v-2.53a8.09,8.09,0,0,1-.71.84,6.95,6.95,0,1,1,0-9.83,8.2,8.2,0,0,1,.71.85v-1.76h1.15Zm-1.15-5.47v-2.25a5.51,5.51,0,0,0-1.57-2.94,5.76,5.76,0,0,0-9.82,4.07,5.5,5.5,0,0,0,1.69,4.06,5.76,5.76,0,0,0,8.13,0A5.49,5.49,0,0,0,372.77,181.88Z"/><path class="cls-2" d="M376.74,167.09v20.26H375.6V167.09Z"/><path class="cls-2" d="M392,187.35H390.8v-2.53a9.55,9.55,0,0,1-.71.84,6.95,6.95,0,1,1,0-9.83,9.68,9.68,0,0,1,.71.85v-1.76H392Zm-1.15-5.47v-2.25a5.51,5.51,0,0,0-1.57-2.94,5.75,5.75,0,0,0-9.82,4.07,5.53,5.53,0,0,0,1.68,4.06,5.77,5.77,0,0,0,8.14,0A5.49,5.49,0,0,0,390.8,181.88Z"/><path class="cls-3" d="M188.89,232.61V215.85c0-5.1,2.69-8,7.61-8s7.61,2.91,7.61,8v16.76c0,5.11-2.69,8-7.61,8S188.89,237.72,188.89,232.61Zm10.2.32v-17.4c0-2.27-1-3.14-2.59-3.14s-2.6.87-2.6,3.14v17.4c0,2.28,1,3.15,2.6,3.15S199.09,235.21,199.09,232.93Z"/><path class="cls-3" d="M207.07,232.61V232h4.73v.91c0,2.28,1,3.15,2.6,3.15,1.78,0,2.78-.87,2.78-3.92v-6.1h-.09a4.62,4.62,0,0,1-4.56,2.77c-3.69,0-5.56-2.59-5.56-7.28v-5.7c0-5.1,2.69-8,7.61-8s7.61,2.91,7.61,8v16.49c0,5.38-2.46,8.29-7.65,8.29C209.61,240.63,207.07,237.72,207.07,232.61Zm10.11-11.47v-5.65c0-2.1-.87-3.1-2.6-3.1s-2.6,1-2.6,3.1v5.65c0,2.14.87,3.14,2.6,3.14S217.18,223.28,217.18,221.14Z"/><path class="cls-3" d="M225.1,232.75v-2.82c0-3.05.91-5.29,3.28-6.52v-.09c-2.09-1.14-3.1-3.14-3.1-6.28v-1.32c0-5.1,2.78-7.88,7.66-7.88s7.65,2.78,7.65,7.88V217c0,3.14-1.05,5.14-3.1,6.28v.09c2.37,1.23,3.28,3.47,3.28,6.52v2.82c0,5.1-2.78,7.88-7.83,7.88S225.1,237.85,225.1,232.75Zm10.66-.27v-3c0-2.42-1-3.6-2.82-3.6s-2.83,1.18-2.83,3.6v3c0,2.41,1,3.6,2.83,3.6S235.76,234.89,235.76,232.48Zm-.18-14.39v-2.51c0-2.1-.91-3.19-2.64-3.19s-2.65,1.09-2.65,3.19v2.51c0,2.09.92,3.18,2.65,3.18S235.58,220.18,235.58,218.09Z"/><path class="cls-3" d="M251.06,232.61v-2.5h4.74V233c0,2.28,1,3.1,2.6,3.1s2.6-.82,2.6-3.1v-7.15c0-2.28-1-3.14-2.6-3.14s-2.6.86-2.6,3.14v.27h-4.74l.92-17.81h13.21v4.56h-8.75l-.41,7.6h.09a4.71,4.71,0,0,1,4.33-2.32c3.69,0,5.56,2.6,5.56,7.29v7.19c0,5.11-2.56,8-7.47,8S251.06,237.72,251.06,232.61Z"/><path class="cls-3" d="M269.28,232.61v-2.5H274V233c0,2.28,1,3.1,2.6,3.1s2.59-.82,2.59-3.1v-7.15c0-2.28-1-3.14-2.59-3.14s-2.6.86-2.6,3.14v.27h-4.74l.92-17.81h13.21v4.56h-8.75l-.41,7.6h.09a4.71,4.71,0,0,1,4.33-2.32c3.69,0,5.56,2.6,5.56,7.29v7.19c0,5.11-2.56,8-7.48,8S269.28,237.72,269.28,232.61Z"/><path class="cls-3" d="M287.55,236.71c0-4.55,1.28-7.33,5-11.25s4.92-6.46,4.92-9.42-1-3.65-2.6-3.65-2.59.87-2.59,3.14V219h-4.74v-3.1c0-5.1,2.55-8,7.47-8s7.47,2.91,7.47,8c0,3.78-1.55,7.15-6.19,12.07-3,3.19-3.79,4.79-3.79,7v.68H302v4.55H287.55Z"/><path class="cls-3" d="M313.06,236.71c0-4.55,1.27-7.33,5-11.25S323,219,323,216s-1-3.65-2.6-3.65-2.6.87-2.6,3.14V219h-4.73v-3.1c0-5.1,2.55-8,7.47-8s7.47,2.91,7.47,8c0,3.78-1.55,7.15-6.2,12.07-3,3.19-3.78,4.79-3.78,7v.68h9.52v4.55H313.06Z"/><path class="cls-3" d="M331.23,232.61v-2.5H336V233c0,2.28,1,3.1,2.59,3.1s2.6-.82,2.6-3.1v-7.15c0-2.28-1-3.14-2.6-3.14s-2.59.86-2.59,3.14v.27h-4.74l.91-17.81h13.21v4.56h-8.74l-.41,7.6h.09a4.7,4.7,0,0,1,4.32-2.32c3.69,0,5.56,2.6,5.56,7.29v7.19c0,5.11-2.55,8-7.47,8S331.23,237.72,331.23,232.61Z"/><path class="cls-3" d="M349.45,232.61v-2.5h4.74V233c0,2.28,1,3.1,2.59,3.1s2.6-.82,2.6-3.1v-7.15c0-2.28-1-3.14-2.6-3.14s-2.59.86-2.59,3.14v.27h-4.74l.91-17.81h13.21v4.56h-8.74l-.41,7.6h.09a4.7,4.7,0,0,1,4.32-2.32c3.69,0,5.56,2.6,5.56,7.29v7.19c0,5.11-2.55,8-7.47,8S349.45,237.72,349.45,232.61Z"/><path class="cls-3" d="M367.44,232.71v-2.6h4.74v2.82c0,2.28,1,3.15,2.6,3.15s2.59-.78,2.59-3.6v-2.6c0-3-1-4-3.28-4h-1.68v-4.56h1.82c1.87,0,3-.82,3-3.37v-2.32c0-2.28-1.05-3.19-2.51-3.19s-2.41.87-2.41,3v2.1h-4.74v-1.69c0-5.1,2.55-7.92,7.33-7.92s7.34,2.78,7.34,7.88v1.14c0,3.41-1.1,5.51-3.56,6.42v.09c2.69,1,3.69,3.32,3.69,6.56v2.82c0,5.1-2.55,7.88-7.47,7.88S367.44,237.81,367.44,232.71Z"/></g></g></svg>