<svg xmlns="http://www.w3.org/2000/svg" viewBox="0 0 569.27 438.97"><defs><style>.cls-1{opacity:0.51;}.cls-2{fill:#998f8f;}.cls-3{fill:#444343;}.cls-4{opacity:0.85;}.cls-5{fill:#222d32;}</style></defs><title>AirPorTAXI</title><g id="Capa_2" data-name="Capa 2"><g id="Capa_1-2" data-name="Capa 1"><g class="cls-1"><path class="cls-2" d="M29.17,26.47H66l28.17,173H67L62,165.09v.5H31.15L26.2,199.44H1ZM58.82,142.11,46.71,56.62h-.49L34.36,142.11Z"/><path class="cls-2" d="M107.25,26.47h27.18v173H107.25Z"/><path class="cls-2" d="M154.69,26.47H195c28.17,0,40.28,13.1,40.28,39.78V76.88c0,17.79-5.69,29.16-17.79,34.1v.49c13.59,4.2,18,17.05,18,36.57v30.4c0,8.4.25,14.58,3,21H210.78c-1.48-4.45-2.47-7.17-2.47-21.25V146.56c0-16.06-4.69-21.25-17.05-21.25h-9.39v74.13H154.69Zm37.07,74.13c10.13,0,16.31-4.45,16.31-18.28V69c0-12.35-4.2-17.79-13.84-17.79H181.87V100.6Z"/><path class="cls-2" d="M254.28,26.47h40c27.18,0,40.52,15.07,40.52,42.75v17c0,27.67-13.34,42.75-40.52,42.75H281.46v70.42H254.28Zm40,77.84c8.65,0,13.34-4,13.34-16.31V67.49c0-12.36-4.69-16.31-13.34-16.31H281.46v53.13Z"/><path class="cls-2" d="M347.68,158.42V67.49C347.68,39.81,362.26,24,389,24s41.26,15.81,41.26,43.49v90.93c0,27.68-14.58,43.49-41.26,43.49S347.68,186.1,347.68,158.42ZM403,160.15V65.76C403,53.4,397.6,48.71,389,48.71s-14.09,4.69-14.09,17.05v94.39c0,12.36,5.44,17,14.09,17S403,172.51,403,160.15Z"/><path class="cls-2" d="M448.5,26.47h40.28c28.17,0,40.28,13.1,40.28,39.78V76.88c0,17.79-5.69,29.16-17.8,34.1v.49c13.6,4.2,18,17.05,18,36.57v30.4c0,8.4.25,14.58,3,21H504.59c-1.48-4.45-2.47-7.17-2.47-21.25V146.56c0-16.06-4.69-21.25-17.05-21.25h-9.39v74.13H448.5Zm37.07,74.13c10.13,0,16.31-4.45,16.31-18.28V69c0-12.35-4.21-17.79-13.84-17.79H475.68V100.6Z"/><path class="cls-2" d="M28.42,290.71H0V266H84v24.71H55.6V439H28.42Z"/><path class="cls-2" d="M105.75,266h36.82l28.17,173H143.56l-4.95-34.35v.5H107.73L102.79,439H77.58ZM135.4,381.64l-12.1-85.49h-.5l-11.86,85.49Z"/><path class="cls-2" d="M209.3,350.51,179.4,266h28.66l18.29,55.85h.49L245.62,266h25.7l-29.9,84.51L272.8,439H244.14l-19.77-60.29h-.49L203.61,439H177.92Z"/><path class="cls-2" d="M285.65,266h27.18V439H285.65Z"/></g><path class="cls-3" d="M66.17,2.47H103l28.17,173H104L99,141.09v.5H68.15l-5,33.85H38ZM95.82,118.11,83.71,32.62h-.49L71.36,118.11Z"/><path class="cls-3" d="M144.25,2.47h27.18v173H144.25Z"/><path class="cls-3" d="M191.69,2.47H232c28.17,0,40.28,13.1,40.28,39.78V52.88c0,17.79-5.69,29.16-17.79,34.1v.49c13.59,4.2,18,17,18,36.57v30.4c0,8.4.25,14.58,3,21H247.78c-1.48-4.45-2.47-7.17-2.47-21.25V122.56c0-16.06-4.69-21.25-17.05-21.25h-9.39v74.13H191.69ZM228.76,76.6c10.13,0,16.31-4.45,16.31-18.28V45c0-12.35-4.2-17.79-13.84-17.79H218.87V76.6Z"/><path class="cls-3" d="M291.28,2.47h40c27.18,0,40.52,15.07,40.52,42.75V62.27c0,27.67-13.34,42.75-40.52,42.75H318.46v70.42H291.28Zm40,77.84c8.65,0,13.34-4,13.34-16.31V43.49c0-12.36-4.69-16.31-13.34-16.31H318.46V80.31Z"/><path class="cls-3" d="M384.68,134.42V43.49C384.68,15.81,399.26,0,426,0s41.26,15.81,41.26,43.49v90.93c0,27.68-14.58,43.49-41.26,43.49S384.68,162.1,384.68,134.42ZM440,136.15V41.76c0-12.36-5.43-17-14.08-17s-14.09,4.69-14.09,17v94.39c0,12.36,5.44,17,14.09,17S440,148.51,440,136.15Z"/><path class="cls-3" d="M485.5,2.47h40.28c28.17,0,40.28,13.1,40.28,39.78V52.88c0,17.79-5.69,29.16-17.8,34.1v.49c13.6,4.2,18,17,18,36.57v30.4c0,8.4.25,14.58,3,21H541.59c-1.48-4.45-2.47-7.17-2.47-21.25V122.56c0-16.06-4.69-21.25-17-21.25h-9.39v74.13H485.5ZM522.57,76.6c10.13,0,16.31-4.45,16.31-18.28V45c0-12.35-4.21-17.79-13.84-17.79H512.68V76.6Z"/><path class="cls-3" d="M65.42,266.71H37V242h84v24.71H92.6V415H65.42Z"/><path class="cls-3" d="M142.75,242h36.82l28.17,173H180.56l-4.95-34.35v.5H144.73L139.79,415H114.58ZM172.4,357.64l-12.1-85.49h-.5l-11.86,85.49Z"/><path class="cls-3" d="M246.3,326.51,216.4,242h28.66l18.29,55.85h.49L282.62,242h25.7l-29.9,84.51L309.8,415H281.14l-19.77-60.29h-.49L240.61,415H214.92Z"/><path class="cls-3" d="M322.65,242h27.18V415H322.65Z"/><g class="cls-4"><path class="cls-5" d="M384.15,237.26a22.51,22.51,0,1,0,22.51,22.51A22.54,22.54,0,0,0,384.15,237.26Zm0,42.07a19.56,19.56,0,1,1,19.55-19.56A19.59,19.59,0,0,1,384.15,279.33Z"/><path class="cls-5" d="M384.73,267.15c-5.54,0-7.68-3.87-7.71-7.58s2.3-7.77,7.71-7.77a7.67,7.67,0,0,1,5.4,2.11l2.82-2.72a11.54,11.54,0,0,0-8.22-3.42c-8.09,0-11.9,5.95-11.87,11.8s3.55,11.55,11.87,11.55a11.82,11.82,0,0,0,8.51-3.33l-2.88-2.91A8.25,8.25,0,0,1,384.73,267.15Z"/></g></g></g></svg>