<svg xmlns="http://www.w3.org/2000/svg" viewBox="0 0 687.61 403.23"><defs><style>.cls-1,.cls-2{fill:#b8fca2;}.cls-1{opacity:0.55;}.cls-3{fill:#59bece;opacity:0.65;}.cls-4{opacity:0.74;}.cls-5{fill:#121117;}.cls-6{fill:#a3d6e5;}.cls-7{fill:#494643;}.cls-19,.cls-8{fill:#fff;opacity:0.95;}.cls-9{fill:#54514e;}.cls-10{fill:#babebf;}.cls-11{fill:#42413d;}.cls-12{opacity:0.69;}.cls-13{fill:#232728;}.cls-14{fill:#424241;}.cls-15{fill:#e0e1e2;opacity:0.67;}.cls-16{fill:#66615d;}.cls-17{fill:#6a6a6a;}.cls-18{fill:#6d6a68;}.cls-19{stroke:#000;stroke-miterlimit:10;}.cls-20{fill:#22201e;}.cls-21{fill:#82827f;}</style></defs><title>Auto</title><g id="Capa_2" data-name="Capa 2"><g id="Capa_1-2" data-name="Capa 1"><rect class="cls-1" x="414.97" y="65.83" width="68.18" height="24.69" rx="10.5"/><rect class="cls-2" x="507.84" y="251.57" width="68.18" height="24.69" rx="10.5"/><rect class="cls-1" x="37.32" y="197.2" width="34.09" height="108.74" rx="10.5" transform="translate(-197.2 305.94) rotate(-90)"/><path class="cls-3" d="M672.78,203.79a22.66,22.66,0,0,0-10.7-2.64H524.36s-17.8,0-21.37-21.37c-2.6-15.6,10.47-22.66,17.71-25.33a22.41,22.41,0,0,1,7.82-1.38h40.79a22,22,0,0,0,12.7-3.84,21.79,21.79,0,0,0,9.12-16.63c1.78-24.93-25.82-25.82-25.82-25.82h-97c-13.24,0-18.3-11.45-19.87-16.42-1.22-9,3.42-19,10.89-24.42A32.9,32.9,0,0,1,477.87,60c7.57,0,15-.3,22.6.09,8.59.44,17.5.7,25.58-2.89,5.19-2.3,9.9-6.32,12.07-11.79a22,22,0,0,0,1-11.69A26.11,26.11,0,0,0,530.07,18a24.3,24.3,0,0,0-11.29-4.93c-5.89-1.07-12.19-.64-18.09-.64H479.55v0q-46.62,0-93.24,0H280c-6.22,0-12.85-.43-19.05.64A26.3,26.3,0,0,0,249.07,18a25.89,25.89,0,0,0-9.56,15.77,21,21,0,0,0,1.08,11.69c2.28,5.47,7.24,9.49,12.71,11.79,8.51,3.59,17.89,3.33,26.94,2.89,8-.39,15.83-.12,23.79-.09a36,36,0,0,1,19.57,5.9c11.12,7.65,14.21,25.21,4.4,35.25-8.86,9.07-24.44,5.93-36.07,5.85l-39.27-.28c-23.83-.17-47.66-.42-71.48-.42-17.51,0-33.65,9.13-41,25.81-4.15,9.47-7.42,19.55-5.25,29.66,2.21,10.32,7.17,20.16,14.83,27.41s18.1,11.75,28.64,11.42c-37.24,1.37-74.54.93-111.79-.35-10.53-.37-22-.52-30.41,5.82a23,23,0,0,0-.5,36.4c9,7.19,21.71,5.69,33.23,6.08,16.6.57,30.66-.71,46.32-.71,13.35,0,27.63,10.19,26.71,22.26-1.78,23.14-13.39,27.37-54.31,25.81-35.16-1.33-33.83,25.26-33.82,25.71A21.54,21.54,0,0,0,59.2,336a25.13,25.13,0,0,0,11.72,6.69,50.29,50.29,0,0,0,13.15,1.72c4.51.05,10.27.34,14.76.07s7.51-1.27,11.9-1.43c8.13-.28,16.28-.39,24.41-.28q10.62.15,21.21.87c6.09.42,12.17,1,18.22,1.82,5.18.69,10.35,1.53,15.47,2.59,4.35.89,8.67,1.93,12.93,3.16,3.59,1,7.14,2.21,10.63,3.56,2.9,1.12,5.76,2.36,8.55,3.76a74.45,74.45,0,0,1,6.69,3.77,58.09,58.09,0,0,1,5.07,3.6c1.06.84,2.08,1.72,3.06,2.65,4.25,4,14.48-27.58,20.32-27.63l209.2,1.78c3.94,0,9.06,2.86,12.47.89,12.48-7.18,45.94,1.42,86.35,0,11.12-.39,20.28-1,27.8-1.94,10.52,1.1,34.14,1,34.66-21.76,0-.45,6.83-24.82-26.85-23.48l-.28-.08c-9.72.4-19.87.45-28.8-2.95a23.1,23.1,0,0,1-15.05-22.22,22.45,22.45,0,0,1,3.69-12.26c3.83-5.65,10.41-9,17.1-10.31,7.75-1.55,15.95-.87,23.77-.55,2.14.09,4.31.21,6.49.35,20.4-.35,41.86.54,47.08.78.79,0,1.57.14,2.35.25C675.21,252,684.6,235,684.6,235,693.4,218,680.89,208.13,672.78,203.79Z"/><g class="cls-4"><polygon class="cls-2" points="512.79 292.84 533.26 292.84 533.26 315.1 543.95 315.1 543.95 299.96 562.64 299.96 562.64 333.79 575.1 333.79 575.1 311.53 592.02 297.29 592.02 319.55 610.71 319.55 610.71 348.92 513.68 348.92 512.79 292.84"/><polygon class="cls-2" points="193.19 292.84 173.84 292.84 173.84 315.1 163.74 315.1 163.74 299.96 146.06 299.96 146.06 333.79 134.28 333.79 134.28 311.53 118.28 297.29 118.28 319.55 100.61 319.55 100.61 348.92 192.35 348.92 193.19 292.84"/></g><path class="cls-5" d="M230.58,389H207.44s-3.56,0-3.56,2.67c0,0,0,2.68,3.56,2.68h65.87a1.78,1.78,0,1,1,0,3.56h-7.12s-2.67.89-2.67,2.67a2.61,2.61,0,0,0,2.67,2.67H379.25a2.61,2.61,0,0,0,2.67-2.67s.89-2.67-2.67-2.67h-5.34s-.89,0-.89-1.78,2.67-1.78,2.67-1.78H527s3.56,0,2.67-3.57c0,0,.89-2.67-11.57-2.67Z"/><rect class="cls-6" x="163.82" y="184.23" width="32.94" height="46.29"/><path class="cls-7" d="M272.86,231.38c-1.4-14.73-2.38-30.44,1.6-44.88a35.38,35.38,0,0,1,7.34-14.23c5.33-6,13-9.31,20.8-11.24,23.08-5.72,47.11-6,70.78-6,10.73,0,21.46.37,32.15,1.34,13.15,1.19,26.65,2.61,39.05,7.43,7.76,3,15.65,6.85,18.79,15.06A46.11,46.11,0,0,1,466,192.21c.32,4.5-.17,8.89,0,13.38.33,6.77,0,13.42-.07,20.18,0,1.82-.08,3.64-.18,5.47-.08,1.5.22,4.1-.41,5.46s-2.13,1-3.72,1.11c-1.78.11-3.57.23-5.36.33q-11.46.68-22.93,1.22-16.07.78-32.16,1.33-18.24.63-36.5.89c-12,.15-24,.16-35.94-.13-10.17-.24-20.36-.66-30.49-1.69-6.69-.69-13.79-1.4-20.12-3.84C276.23,235.16,273.09,233.86,272.86,231.38Z"/><path class="cls-8" d="M294.26,172.65a19.21,19.21,0,0,0-10.12,9.12c-1.76,3.55-2.12,7.6-2.32,11.55-.28,5.42-.9,27.13-.21,32.5.33,2.58,1.81,9.67,4.6,8.23,7.11-3.68,20.67-8.78,28.49-9.79,8.93-1.16,14.73-3.35,23.72-3.87,18-1,36.09-1,54.13-.34l5.4.2c10.28.41,50.27,6.8,59.84,9.68.33.1.73.19,1-.05a1,1,0,0,0,.21-.63,231.65,231.65,0,0,0,.83-27.25c-.15-7.82.64-16-4.53-22.53-4.27-5.35-11.24-7.82-18-8.81-17.37-2.54-35.36-3.4-52.9-3.74-21.94-.42-43.75.89-65.66,2C311.29,169.23,301.76,169.42,294.26,172.65Z"/><path class="cls-9" d="M405.67,151.26h-6.22c.21,0,.22-5.09.2-5.55a23.59,23.59,0,0,0-.81-5.67,12,12,0,0,0-4.58-6.76,11.71,11.71,0,0,0-5.55-1.76c-2.16-.16-4.32-.45-6.48-.65q-6.84-.66-13.72-.92a77.65,77.65,0,0,0-10.12.23q-3,.27-6,.83c-3.31.6-6.93,1.67-9.41,4.07a10.57,10.57,0,0,0-1.42,1.71c-2.74,4.19-3.66,9.54-3.75,14.47h-6.11a1.08,1.08,0,0,0-1,1.56l1.88,3.78h71.22l2.59-3.88A.94.94,0,0,0,405.67,151.26Z"/><path class="cls-10" d="M349.38,152.15h39.71a7.78,7.78,0,0,0,7-4.49,9.7,9.7,0,0,0-.56-8.6,9.11,9.11,0,0,0-3-3.25,12.26,12.26,0,0,0-5.48-1.38c-2.28-.24-4.54-.56-6.82-.76q-6.83-.58-13.69-.5-3.84,0-7.67.31c-2.22.15-4.43.35-6.62.72s-4.46.7-6.23,1.85a8.86,8.86,0,0,0-3.06,3.48,13.08,13.08,0,0,0-.95,2.58C340.76,147,344.06,152.15,349.38,152.15Z"/><path class="cls-11" d="M302.24,224.26s-1-11.41,12.46-12.47c12.28-1,16.86,11.55,16.91,11.58h3.56s-2.67-16.92-21.36-15.14-16.92,19.59-16.92,19.59"/><g class="cls-12"><polygon class="cls-11" points="352.09 140.57 352.09 148.59 354.76 148.59 354.76 140.57 357.43 140.57 357.43 137.91 348.53 137.91 348.53 140.57 352.09 140.57"/><path class="cls-11" d="M368.11,137.9h-5.34l-2.67,10.69h2.67l.89-3.56h3.56l.89,3.56h2.67Zm-4.45,5.35.89-3.56h1.78l.89,3.56Z"/><polygon class="cls-11" points="373.45 137.91 377.01 143.25 373.45 148.59 377.01 148.59 378.8 145.03 380.58 148.59 383.25 148.59 380.58 143.25 383.25 137.91 380.58 137.91 378.8 142.36 376.13 137.91 373.45 137.91"/><rect class="cls-11" x="386.81" y="137.9" width="2.67" height="10.68"/></g><rect class="cls-13" x="223.01" y="339.99" width="48.96" height="51.63" rx="13.38"/><rect class="cls-13" x="470.49" y="339.99" width="48.96" height="51.63" rx="13.38"/><path class="cls-14" d="M211.43,335.54s-13.35,1.78-5.34,22.25c0,0,114,19.59,195,15.14S531,356,531,356s8-23.14-2.68-18.69S217.66,324,211.43,335.54Z"/><path class="cls-15" d="M219.44,346.22s122,24.93,297.34,0C516.78,346.22,373.45,359.57,219.44,346.22Z"/><path class="cls-16" d="M264.85,234.94s-14.25-9.79-11.58-13.35,12.47-4.45,22.26,9.79S264.85,234.94,264.85,234.94Z"/><path class="cls-17" d="M257.72,227.82s-27.59,4.45-31.15-9.79,29.37-14.25,29.37-14.25,11.58-1.78,5.35,18.7A25.82,25.82,0,0,1,257.72,227.82Z"/><path class="cls-18" d="M473.77,234.94s15.9-9.79,12.92-13.35-13.91-4.45-24.83,9.79S473.77,234.94,473.77,234.94Z"/><path class="cls-17" d="M481.72,227.82s30.79,4.45,34.76-9.79-32.77-14.25-32.77-14.25-12.91-1.78-6,18.7A25.31,25.31,0,0,0,481.72,227.82Z"/><path class="cls-19" d="M209.65,340s-.89-24-.89-36.5,3.56-35.61,18.7-39.17c0,0,8.9-23.15,37.39-30.27,0,0,32.93-12.46,70.32-14.24,0,0,65.88-6.24,122.86,8.9,0,0,43.62,8,53.41,36.5,0,0,19.59,4.45,19.59,42.73,0,0,.89,29.38-1.79,32.05s-67.65,7.12-74.77,6.23H352.09s-52,1.27-95.26-.89c-15.18-.76-41.39-3.95-47.18-5.34"/><circle class="cls-20" cx="501.65" cy="302.6" r="20.48"/><circle class="cls-2" cx="501.65" cy="302.6" r="16.91"/><circle class="cls-20" cx="237.25" cy="302.6" r="20.48"/><circle class="cls-2" cx="237.25" cy="302.6" r="16.91"/><rect class="cls-20" x="264.85" y="283.9" width="209.2" height="40.06" rx="6"/><rect class="cls-20" x="295.11" y="327.52" width="154.01" height="5.34" rx="2.25"/><rect class="cls-20" x="283.54" y="278.56" width="169.14" height="3.56" rx="1.5"/><rect class="cls-21" x="273.75" y="287.46" width="194.07" height="1.78"/><rect class="cls-21" x="273.75" y="307.05" width="194.07" height="1.78"/><rect class="cls-21" x="273.75" y="293.7" width="194.07" height="1.78"/><rect class="cls-21" x="273.75" y="304.38" width="194.07" height="1.78"/><rect class="cls-21" x="273.75" y="290.13" width="194.07" height="2.67"/><rect class="cls-21" x="273.75" y="296.37" width="194.07" height="2.67"/><rect class="cls-21" x="273.75" y="299.93" width="194.07" height="3.56"/><rect class="cls-21" x="273.75" y="309.72" width="194.07" height="3.56"/><rect class="cls-21" x="273.75" y="314.17" width="194.07" height="3.56"/><rect class="cls-1" x="218.65" width="68.18" height="38.79" rx="10.5"/></g></g></svg>