<svg xmlns="http://www.w3.org/2000/svg" xmlns:xlink="http://www.w3.org/1999/xlink" viewBox="0 0 584.92 332.52"><defs><style>.cls-1,.cls-2{fill:#b8fca2;}.cls-1{opacity:0.55;}.cls-3{opacity:0.65;fill:url(#Degradado_sin_nombre_81);}.cls-4{opacity:0.74;}.cls-5{fill:#121117;}.cls-6{fill:#a3d6e5;}.cls-7{fill:#494643;}.cls-22,.cls-8{fill:#fff;}.cls-8{opacity:0.95;}.cls-9{fill:#54514e;}.cls-10{fill:#babebf;}.cls-11{fill:#42413d;}.cls-12{opacity:0.69;}.cls-13{fill:#232728;}.cls-14{fill:#424241;}.cls-15{fill:#e0e1e2;opacity:0.67;}.cls-16{fill:#66615d;}.cls-17{fill:#6a6a6a;}.cls-18{fill:#6d6a68;}.cls-19{fill:#cfe68f;}.cls-20{fill:#209630;}.cls-21{fill:#22201e;}.cls-23{fill:#82827f;}</style><radialGradient id="Degradado_sin_nombre_81" cx="303.98" cy="151.66" r="225.75" gradientUnits="userSpaceOnUse"><stop offset="0" stop-color="#90c9dc"/><stop offset="0" stop-color="#8cc6da"/><stop offset="0" stop-color="#71b4cd"/><stop offset="0" stop-color="#5ca5c3"/><stop offset="0" stop-color="#4d9bbc"/><stop offset="0" stop-color="#4495b8"/><stop offset="0" stop-color="#4193b7"/><stop offset="0" stop-color="#a3d6e5"/><stop offset="0.22" stop-color="#8fc5d8"/><stop offset="0.67" stop-color="#5b98b5"/><stop offset="1" stop-color="#307499"/></radialGradient></defs><title>Autocorregido</title><g id="Capa_2" data-name="Capa 2"><g id="Capa_1-2" data-name="Capa 1"><rect class="cls-1" x="353" y="45.51" width="58" height="21" rx="10.5"/><rect class="cls-2" x="432" y="203.51" width="58" height="21" rx="10.5"/><rect class="cls-1" x="31.75" y="157.26" width="29" height="92.5" rx="10.5" transform="translate(-157.26 249.76) rotate(-90)"/><path class="cls-3" d="M572.31,162.87a19.26,19.26,0,0,0-9.11-2.25H446.05s-15.15,0-18.17-18.18c-2.22-13.27,8.9-19.27,15.06-21.55a19.33,19.33,0,0,1,6.65-1.17h34.7a18.83,18.83,0,0,0,10.8-3.26,18.54,18.54,0,0,0,7.76-14.15c1.51-21.21-22-22-22-22H398.34c-11.26,0-15.56-9.73-16.9-14-1-7.62,2.91-16.16,9.26-20.76a27.93,27.93,0,0,1,15.81-5c6.43,0,12.77-.26,19.22.07,7.3.38,14.89.59,21.76-2.46,4.41-2,8.42-5.37,10.27-10a18.76,18.76,0,0,0,.87-9.94,22.18,22.18,0,0,0-7.72-13.41A20.58,20.58,0,0,0,441.3.62c-5-.91-10.37-.55-15.38-.55h-18v0q-39.66,0-79.31,0H238.19c-5.29,0-10.93-.36-16.2.55a22.26,22.26,0,0,0-10.12,4.2,22,22,0,0,0-8.13,13.41,17.83,17.83,0,0,0,.92,9.94c1.94,4.66,6.16,8.08,10.81,10,7.24,3,15.22,2.84,22.92,2.46,6.79-.33,13.46-.1,20.24-.07a30.47,30.47,0,0,1,16.64,5c9.46,6.5,12.09,21.43,3.75,30-7.54,7.71-20.8,5-30.69,5l-33.41-.23c-20.26-.14-40.53-.36-60.8-.36-14.89,0-28.62,7.77-34.84,22-3.52,8-6.3,16.63-4.46,25.23a45.06,45.06,0,0,0,12.62,23.32c6.51,6.17,15.39,10,24.36,9.71-31.68,1.16-63.41.79-95.09-.3-9-.31-18.71-.44-25.87,5a19.58,19.58,0,0,0-.43,31c7.67,6.12,18.47,4.84,28.27,5.18,14.12.48,26.08-.61,39.4-.61,11.36,0,23.51,8.67,22.72,18.94-1.52,19.69-11.39,23.28-46.2,22-29.91-1.14-28.77,21.48-28.77,21.86a18.3,18.3,0,0,0,4.53,12.19,21.3,21.3,0,0,0,10,5.69,42.73,42.73,0,0,0,11.2,1.47c3.83,0,8.73.29,12.55.06s6.39-1.09,10.12-1.22c6.92-.24,13.85-.33,20.77-.23,6,.08,12,.31,18,.73,5.18.36,10.35.86,15.5,1.55,4.41.59,8.8,1.31,13.16,2.2q5.55,1.14,11,2.69c3.05.89,6.07,1.88,9,3,2.47.95,4.9,2,7.27,3.2a62.54,62.54,0,0,1,5.7,3.21,49.48,49.48,0,0,1,4.31,3.06c.9.71,1.77,1.46,2.6,2.26,3.61,3.41,12.32-23.47,17.29-23.51l178,1.51c3.35,0,7.7,2.43,10.6.76,10.62-6.11,39.08,1.21,73.46,0,9.46-.33,17.24-.88,23.64-1.65,9,.94,29,.88,29.49-18.51,0-.38,5.81-21.11-22.84-20l-.24-.07c-8.27.34-16.9.38-24.5-2.51a19.64,19.64,0,0,1-12.8-18.9,19.09,19.09,0,0,1,3.14-10.43c3.26-4.81,8.85-7.63,14.55-8.77,6.59-1.32,13.56-.74,20.21-.47,1.82.07,3.67.17,5.53.3,17.35-.3,35.6.46,40,.66a19.11,19.11,0,0,1,2,.22c15.26,2.23,23.25-12.29,23.25-12.29C589.85,175,579.21,166.56,572.31,162.87Z"/><g class="cls-4"><polygon class="cls-2" points="436.21 238.62 453.62 238.62 453.62 257.55 462.71 257.55 462.71 244.68 478.61 244.68 478.61 273.45 489.22 273.45 489.22 254.52 503.6 242.4 503.6 261.33 519.51 261.33 519.51 286.32 436.96 286.32 436.21 238.62"/><polygon class="cls-2" points="164.34 238.62 147.87 238.62 147.87 257.55 139.28 257.55 139.28 244.68 124.25 244.68 124.25 273.45 114.22 273.45 114.22 254.52 100.62 242.4 100.62 261.33 85.58 261.33 85.58 286.32 163.63 286.32 164.34 238.62"/></g><path class="cls-5" d="M196.15,320.4H176.46s-3,0-3,2.27c0,0,0,2.28,3,2.28h56a1.52,1.52,0,0,1,0,3h-6.06s-2.27.75-2.27,2.27a2.22,2.22,0,0,0,2.27,2.27h96.17a2.23,2.23,0,0,0,2.28-2.27s.75-2.27-2.28-2.27h-4.54s-.76,0-.76-1.52,2.27-1.51,2.27-1.51H448.32a2.25,2.25,0,0,0,2.27-3s.76-2.27-9.84-2.27Z"/><rect class="cls-6" x="139.35" y="146.23" width="28.02" height="39.38"/><path class="cls-7" d="M232.11,186.33c-1.19-12.52-2-25.89,1.36-38.17a30.08,30.08,0,0,1,6.25-12.11c4.53-5.08,11.08-7.92,17.69-9.56,19.63-4.87,40.07-5.12,60.21-5.1,9.12,0,18.26.31,27.35,1.13,11.19,1,22.66,2.23,33.21,6.33,6.6,2.57,13.32,5.83,16,12.81A38.94,38.94,0,0,1,396.44,153c.27,3.83-.14,7.57.05,11.39.28,5.76,0,11.41-.06,17.16,0,1.55-.08,3.1-.16,4.65-.07,1.28.19,3.5-.35,4.66s-1.81.85-3.16.93l-4.56.29q-9.75.57-19.5,1-13.68.66-27.36,1.14c-10.35.35-20.7.62-31,.75-10.19.13-20.39.14-30.58-.11-8.65-.2-17.32-.56-25.93-1.44-5.69-.58-11.74-1.18-17.12-3.26C235,189.55,232.31,188.45,232.11,186.33Z"/><path class="cls-8" d="M250.31,136.38a16.34,16.34,0,0,0-8.61,7.76c-1.49,3-1.8,6.46-2,9.82-.23,4.61-.76,23.07-.18,27.64.28,2.2,1.55,8.23,3.92,7,6-3.13,17.58-7.47,24.23-8.33,7.6-1,12.53-2.85,20.18-3.29,15.33-.9,30.7-.83,46-.3,1.54.06,3.07.11,4.6.18,8.75.35,42.76,5.78,50.9,8.24.28.08.62.15.83-.05a.83.83,0,0,0,.18-.53,197.3,197.3,0,0,0,.71-23.19c-.13-6.65.54-13.63-3.86-19.16-3.62-4.56-9.55-6.65-15.31-7.49-14.78-2.17-30.08-2.9-45-3.18-18.65-.36-37.21.75-55.85,1.65C264.8,133.47,256.7,133.63,250.31,136.38Z"/><path class="cls-9" d="M345.09,118.18H339.8a38.24,38.24,0,0,0,.17-4.72,20.27,20.27,0,0,0-.7-4.83,10.13,10.13,0,0,0-3.89-5.74,9.74,9.74,0,0,0-4.72-1.5c-1.83-.14-3.68-.38-5.51-.56q-5.83-.56-11.68-.77a65.15,65.15,0,0,0-8.61.19c-1.7.16-3.39.39-5.07.71-2.82.51-5.9,1.42-8,3.46a8.4,8.4,0,0,0-1.2,1.46c-2.34,3.55-3.12,8.11-3.2,12.3h-5.19a.92.92,0,0,0-.82,1.33l1.6,3.21h60.59l2.2-3.29A.81.81,0,0,0,345.09,118.18Z"/><path class="cls-10" d="M297.2,118.94H331a6.65,6.65,0,0,0,6-3.82,8.29,8.29,0,0,0-.48-7.31,7.6,7.6,0,0,0-2.54-2.77,10.58,10.58,0,0,0-4.66-1.18c-1.93-.2-3.86-.47-5.8-.64-3.87-.33-7.76-.48-11.64-.43q-3.27,0-6.53.26a56,56,0,0,0-5.63.62,14.41,14.41,0,0,0-5.3,1.57,7.5,7.5,0,0,0-2.6,3,11.37,11.37,0,0,0-.81,2.2A6.64,6.64,0,0,0,297.2,118.94Z"/><path class="cls-11" d="M257.1,180.28s-.82-9.71,10.6-10.61c10.45-.82,14.34,9.83,14.39,9.85h3s-2.27-14.39-18.18-12.87-14.38,16.66-14.38,16.66"/><g class="cls-12"><polygon class="cls-11" points="299.51 109.09 299.51 115.91 301.78 115.91 301.78 109.09 304.05 109.09 304.05 106.82 296.48 106.82 296.48 109.09 299.51 109.09"/><path class="cls-11" d="M313.14,106.82h-4.55l-2.27,9.09h2.27l.76-3h3l.76,3h2.27Zm-3.79,4.54.76-3h1.51l.76,3Z"/><polygon class="cls-11" points="317.68 106.82 320.71 111.36 317.68 115.91 320.71 115.91 322.23 112.88 323.74 115.91 326.01 115.91 323.74 111.36 326.01 106.82 323.74 106.82 322.23 110.61 319.95 106.82 317.68 106.82"/><rect class="cls-11" x="329.04" y="106.82" width="2.27" height="9.09"/></g><rect class="cls-13" x="189.7" y="278.72" width="41.65" height="43.92" rx="13.38"/><rect class="cls-13" x="400.23" y="278.72" width="41.65" height="43.92" rx="13.38"/><path class="cls-14" d="M179.86,274.94s-11.36,1.51-4.55,18.93c0,0,96.93,16.66,165.85,12.87s110.56-14.39,110.56-14.39,6.82-19.68-2.27-15.9S185.16,265.09,179.86,274.94Z"/><path class="cls-15" d="M186.67,284s103.75,21.21,252.93,0C439.6,284,317.68,295.38,186.67,284Z"/><path class="cls-16" d="M225.29,189.36S213.18,181,215.45,178s10.6-3.78,18.93,8.34S225.29,189.36,225.29,189.36Z"/><path class="cls-17" d="M219.23,183.31s-23.47,3.78-26.5-8.33,25-12.12,25-12.12,9.85-1.52,4.54,15.9A21.69,21.69,0,0,1,219.23,183.31Z"/><path class="cls-18" d="M403,189.36S416.54,181,414,178s-11.82-3.78-21.12,8.34S403,189.36,403,189.36Z"/><path class="cls-17" d="M409.78,183.31S436,187.09,439.35,175s-27.88-12.12-27.88-12.12-11-1.52-5.07,15.9A21.82,21.82,0,0,0,409.78,183.31Z"/><path class="cls-19" d="M178,278.72s-.76-20.44-.76-31.05,3-30.29,15.95-33.32c0,0,7.59-19.68,31.89-25.74,0,0,28.1-10.61,60-12.12,0,0,56.19-5.3,104.79,7.57,0,0,37.2,6.82,45.56,31.05,0,0,16.7,3.79,16.7,36.35,0,0,.76,25-1.52,27.26s-57.71,6.06-63.78,5.3H299.47s-44.37,1.09-81.25-.75c-12.95-.65-35.31-3.37-40.25-4.55"/><path class="cls-20" d="M177.92,278.73l-.52-17.64-.27-8.82-.13-4.41c0-1.48,0-3,.12-4.43a55.53,55.53,0,0,1,3.71-17.25,25.25,25.25,0,0,1,4.66-7.56,15.12,15.12,0,0,1,7.6-4.57l-.22.19a40.83,40.83,0,0,1,5.55-9.1A47.52,47.52,0,0,1,215,191.89a48.23,48.23,0,0,1,4.91-2.09,24.87,24.87,0,0,1,2.53-.82l2.56-.76h0a218.43,218.43,0,0,1,40.5-10.12c1.72-.29,3.45-.51,5.18-.72l2.59-.33,2.6-.25c3.47-.39,7-.51,10.41-.78,6.95-.53,13.91-.78,20.87-.88a374.47,374.47,0,0,1,41.7,1.67,267.5,267.5,0,0,1,41.11,7.08h0a93.17,93.17,0,0,1,13.81,4,81.27,81.27,0,0,1,13,6.13A53,53,0,0,1,428,202.85a39.48,39.48,0,0,1,4.46,5.67,34.81,34.81,0,0,1,3.15,6.5l-.19-.17a17.49,17.49,0,0,1,7.13,4.53,27.24,27.24,0,0,1,4.87,6.89,48.11,48.11,0,0,1,4.47,16.18l.23,2.1a21,21,0,0,1,.15,2.1l.15,4.2q.14,4.18.16,8.39c0,2.79,0,5.59-.08,8.39a74.53,74.53,0,0,1-.63,8.41,12,12,0,0,1-.51,2.13,3.33,3.33,0,0,1-.26.54,1.27,1.27,0,0,1-.5.5,2.5,2.5,0,0,1-.57.26c-.18,0-.36.13-.54.17a40.58,40.58,0,0,1-4.16.79c-2.78.41-5.56.73-8.34,1-5.57.59-11.14,1.06-16.71,1.5s-11.16.8-16.74,1.11c-2.8.15-5.59.29-8.39.39a82,82,0,0,1-8.45,0h.06l-52.28,0c-17.43,0-34.84-.1-52.27.17-17.43.1-34.87-.05-52.29-.67q-6.52-.24-13.06-.59c-4.35-.26-8.69-.66-13-1.11s-8.66-1-13-1.52-8.65-1.12-12.92-2l0-.1c4.27.87,8.6,1.36,12.92,1.9s8.66,1,13,1.39,8.67.75,13,1,8.7.39,13.05.52c17.41.53,34.84.58,52.26.4,8.71-.07,17.42-.38,26.14-.33h26.14l52.28,0h.06a82.15,82.15,0,0,0,8.3,0q4.19-.15,8.37-.38,8.36-.47,16.72-1.1c5.56-.43,11.13-.9,16.68-1.48,2.78-.3,5.55-.62,8.3-1a41.2,41.2,0,0,0,4.07-.77c.17,0,.31-.1.46-.15a1.16,1.16,0,0,0,.38-.16c.21,0,.3-.33.43-.61a10.69,10.69,0,0,0,.47-2,71.27,71.27,0,0,0,.66-8.29c.1-2.79.13-5.58.12-8.37s0-5.58-.11-8.38l-.13-4.17a18,18,0,0,0-.14-2.08l-.21-2.08a47.53,47.53,0,0,0-4.32-16,26.54,26.54,0,0,0-4.73-6.76,16.94,16.94,0,0,0-6.84-4.42l-.15,0-.05-.13a34,34,0,0,0-3.08-6.41,38.82,38.82,0,0,0-4.38-5.61,52.3,52.3,0,0,0-11.22-8.79,79.9,79.9,0,0,0-12.91-6.14,93.15,93.15,0,0,0-13.74-4h0a254.65,254.65,0,0,0-41.06-6.94,373.63,373.63,0,0,0-41.65-1.48c-6.95.13-13.9.41-20.82,1-3.47.29-6.94.42-10.39.83l-2.59.26-2.58.33c-1.72.22-3.44.45-5.15.74-6.86,1.06-13.66,2.48-20.4,4.15s-13.43,3.58-19.95,5.91h0l-2.53.74a22.68,22.68,0,0,0-2.5.8,46.73,46.73,0,0,0-4.84,2,46.6,46.6,0,0,0-16.33,13,39.72,39.72,0,0,0-5.5,8.92l-.07.15-.15,0a14.54,14.54,0,0,0-7.31,4.36,24.86,24.86,0,0,0-4.58,7.37,55,55,0,0,0-3.74,17.08c-.1,1.46-.17,2.92-.17,4.39l.09,4.41.17,8.81.33,17.64Z"/><circle class="cls-21" cx="426.73" cy="246.92" r="17.42"/><circle class="cls-22" cx="426.73" cy="246.92" r="14.39"/><circle class="cls-21" cx="201.82" cy="246.92" r="17.42"/><circle class="cls-22" cx="201.82" cy="246.92" r="14.39"/><rect class="cls-21" x="225.29" y="231.01" width="177.96" height="34.08" rx="6"/><rect class="cls-21" x="251.04" y="268.12" width="131.01" height="4.54" rx="2.25"/><rect class="cls-21" x="241.2" y="226.47" width="143.88" height="3.03" rx="1.5"/><rect class="cls-23" x="232.87" y="234.04" width="165.09" height="1.51"/><rect class="cls-23" x="232.87" y="250.7" width="165.09" height="1.51"/><rect class="cls-23" x="232.87" y="239.34" width="165.09" height="1.51"/><rect class="cls-23" x="232.87" y="248.43" width="165.09" height="1.51"/><rect class="cls-23" x="232.87" y="236.32" width="165.09" height="2.27"/><rect class="cls-23" x="232.87" y="241.62" width="165.09" height="2.27"/><rect class="cls-23" x="232.87" y="244.65" width="165.09" height="3.03"/><rect class="cls-23" x="232.87" y="252.98" width="165.09" height="3.03"/><rect class="cls-23" x="232.87" y="256.76" width="165.09" height="3.03"/></g></g></svg>