<svg xmlns="http://www.w3.org/2000/svg" viewBox="0 0 205 55"><defs><style>.cls-1{fill:#444343;opacity:0.82;}.cls-2{fill:#fff;}</style></defs><title>Boton_Contacto</title><g id="Capa_2" data-name="Capa 2"><g id="Capa_1-2" data-name="Capa 1"><rect class="cls-1" width="205" height="55" rx="12"/><path class="cls-2" d="M43.48,35.76V20.14c0-4.48,2.33-7.14,6.73-7.14s6.73,2.66,6.73,7.14v3.08H52.62V19.85c0-1.91-.92-2.7-2.29-2.7s-2.28.79-2.28,2.7V36.09c0,1.91.91,2.66,2.28,2.66s2.29-.75,2.29-2.66V31.65h4.32v4.11c0,4.48-2.33,7.14-6.73,7.14S43.48,40.24,43.48,35.76Z"/><path class="cls-2" d="M59.43,35.59V20.31c0-4.65,2.45-7.31,6.94-7.31s6.93,2.66,6.93,7.31V35.59c0,4.65-2.45,7.31-6.93,7.31S59.43,40.24,59.43,35.59Zm9.3.29V20c0-2.08-.91-2.87-2.36-2.87S64,17.94,64,20V35.88c0,2.08.91,2.87,2.37,2.87S68.73,38,68.73,35.88Z"/><path class="cls-2" d="M76.38,13.42h5.73l4.44,17.4h.09V13.42h4.07V42.49H86L80.53,21.26h-.08V42.49H76.38Z"/><path class="cls-2" d="M97.68,17.57H92.91V13.42H107v4.15h-4.78V42.49H97.68Z"/><path class="cls-2" d="M110.85,13.42H117l4.73,29.07h-4.56l-.83-5.78v.09h-5.2l-.83,5.69h-4.23Zm5,19.43-2-14.37h-.08l-2,14.37Z"/><path class="cls-2" d="M123.6,35.76V20.14c0-4.48,2.33-7.14,6.73-7.14s6.73,2.66,6.73,7.14v3.08h-4.32V19.85c0-1.91-.91-2.7-2.28-2.7s-2.29.79-2.29,2.7V36.09c0,1.91.92,2.66,2.29,2.66s2.28-.75,2.28-2.66V31.65h4.32v4.11c0,4.48-2.33,7.14-6.73,7.14S123.6,40.24,123.6,35.76Z"/><path class="cls-2" d="M143.37,17.57H138.6V13.42h14.12v4.15h-4.78V42.49h-4.57Z"/><path class="cls-2" d="M154.42,35.59V20.31c0-4.65,2.45-7.31,6.94-7.31s6.93,2.66,6.93,7.31V35.59c0,4.65-2.45,7.31-6.93,7.31S154.42,40.24,154.42,35.59Zm9.31.29V20c0-2.08-.92-2.87-2.37-2.87S159,17.94,159,20V35.88c0,2.08.91,2.87,2.37,2.87S163.73,38,163.73,35.88Z"/></g></g></svg>