<svg xmlns="http://www.w3.org/2000/svg" viewBox="0 0 205 55"><defs><style>.cls-1{fill:#444343;opacity:0.82;}.cls-2{fill:#fff;}</style></defs><title>Boton_Servicio</title><g id="Capa_2" data-name="Capa 2"><g id="Capa_1-2" data-name="Capa 1"><rect class="cls-1" width="205" height="55" rx="12"/><path class="cls-2" d="M53.1,34.94V33.28h4.31v2c0,2.08.91,2.82,2.36,2.82s2.36-.74,2.36-2.9c0-2.4-.91-3.94-3.9-6.54-3.81-3.36-5-5.72-5-9,0-4.55,2.36-7.21,6.79-7.21s6.63,2.66,6.63,7.3v1.2H62.29V19.41c0-2.07-.82-2.86-2.28-2.86s-2.27.79-2.27,2.77.95,3.65,3.93,6.26c3.81,3.36,5,5.67,5,9.28,0,4.72-2.41,7.37-6.88,7.37S53.1,39.58,53.1,34.94Z"/><path class="cls-2" d="M69.3,12.82H81.73V17H73.86v7.67h6.26v4.14H73.86v8.91h7.87v4.14H69.3Z"/><path class="cls-2" d="M84.35,12.82H91.1c4.72,0,6.75,2.2,6.75,6.67v1.78c0,3-.95,4.89-3,5.72v.08c2.28.71,3,2.86,3,6.13v5.1a8.64,8.64,0,0,0,.49,3.52H93.75a8.93,8.93,0,0,1-.41-3.56V33c0-2.69-.79-3.56-2.86-3.56H88.91V41.82H84.35Zm6.21,12.43c1.7,0,2.74-.75,2.74-3.07V19.94c0-2.07-.71-3-2.32-3H88.91v8.29Z"/><path class="cls-2" d="M99.69,12.82h4.59l3,22.49h.08l3-22.49h4.19l-4.39,29h-6Z"/><path class="cls-2" d="M116.72,12.82h4.56v29h-4.56Z"/><path class="cls-2" d="M124.39,35.11V19.53c0-4.47,2.32-7.13,6.71-7.13s6.71,2.66,6.71,7.13v3.06H133.5V19.24c0-1.9-.91-2.69-2.28-2.69s-2.27.79-2.27,2.69v16.2c0,1.91.91,2.65,2.27,2.65s2.28-.74,2.28-2.65V31h4.31v4.1c0,4.47-2.32,7.12-6.71,7.12S124.39,39.58,124.39,35.11Z"/><path class="cls-2" d="M140.55,12.82h4.56v29h-4.56Z"/><path class="cls-2" d="M148.18,34.94V19.7c0-4.64,2.44-7.3,6.92-7.3S162,15.06,162,19.7V34.94c0,4.64-2.45,7.29-6.92,7.29S148.18,39.58,148.18,34.94Zm9.28.29V19.41c0-2.07-.91-2.86-2.36-2.86s-2.36.79-2.36,2.86V35.23c0,2.07.91,2.86,2.36,2.86S157.46,37.3,157.46,35.23Z"/></g></g></svg>