<svg xmlns="http://www.w3.org/2000/svg" viewBox="0 0 205 55"><defs><style>.cls-1{fill:#444343;opacity:0.82;}.cls-2{fill:#fff;}</style></defs><title>Boton_Inicio</title><g id="Capa_2" data-name="Capa 2"><g id="Capa_1-2" data-name="Capa 1"><rect class="cls-1" width="205" height="55" rx="12"/><path class="cls-2" d="M74.69,14.38h4.16V40.85H74.69Z"/><path class="cls-2" d="M82,14.38h5.22l4,15.85h.08V14.38H95V40.85H90.73l-5-19.32h-.08V40.85H82Z"/><path class="cls-2" d="M98.12,14.38h4.16V40.85H98.12Z"/><path class="cls-2" d="M105.12,34.73V20.51c0-4.09,2.11-6.51,6.12-6.51s6.13,2.42,6.13,6.51v2.8h-3.93V20.24c0-1.74-.84-2.46-2.08-2.46s-2.08.72-2.08,2.46V35c0,1.74.83,2.42,2.08,2.42s2.08-.68,2.08-2.42V31h3.93v3.74c0,4.08-2.12,6.5-6.13,6.5S105.12,38.81,105.12,34.73Z"/><path class="cls-2" d="M119.87,14.38H124V40.85h-4.16Z"/><path class="cls-2" d="M126.83,34.58V20.66c0-4.24,2.23-6.66,6.32-6.66s6.31,2.42,6.31,6.66V34.58c0,4.23-2.23,6.65-6.31,6.65S126.83,38.81,126.83,34.58Zm8.47.26V20.4c0-1.9-.83-2.62-2.15-2.62S131,18.5,131,20.4V34.84c0,1.89.84,2.61,2.16,2.61S135.3,36.73,135.3,34.84Z"/></g></g></svg>