<svg xmlns="http://www.w3.org/2000/svg" xmlns:xlink="http://www.w3.org/1999/xlink" viewBox="0 0 1921.12 189.16"><defs><style>.cls-1{fill:url(#Degradado_sin_nombre_10);}.cls-2{fill:#62757b;}.cls-3{opacity:0.35;}.cls-4{fill:#fff;}.cls-5{opacity:0.81;}</style><linearGradient id="Degradado_sin_nombre_10" x1="1692.17" y1="511.83" x2="201.94" y2="-348.55" gradientUnits="userSpaceOnUse"><stop offset="0" stop-color="#90c9dc"/><stop offset="0" stop-color="#97cee0"/><stop offset="0" stop-color="#a0d4e4"/><stop offset="0" stop-color="#a3d6e5"/><stop offset="0.05" stop-color="#aedbe8"/><stop offset="0.2" stop-color="#cbe8f0"/><stop offset="0.37" stop-color="#e2f2f7"/><stop offset="0.54" stop-color="#f2f9fb"/><stop offset="0.74" stop-color="#fcfefe"/><stop offset="1" stop-color="#fff"/></linearGradient></defs><title>Cielo</title><g id="Capa_2" data-name="Capa 2"><g id="Capa_1-2" data-name="Capa 1"><path class="cls-1" d="M14.41,163.65C88,153.2,213.81,118,289,136.2c50,12.14,37.78,13.89,88.65,21.78a191.92,191.92,0,0,0,80.46-4.72c28.88-8,120.63-2.92,145.89-19.06,36-23,69.58,3,133.89,19.64A604.34,604.34,0,0,0,1027.12,157c28-6.62,55.84-15.29,84.59-16.17,40.22-1.23,79.91,12.89,120.07,10.25,38.12-2.51,74.65-20,112.82-18.39,44.54,1.93,83.4,29.37,125.64,43.64,98.43,33.23,205.6-7,298.57-53.42,0,0,22.2-27.67,151.2-5.67V1.2H0V177S3.88,165.14,14.41,163.65Z"/><path class="cls-2" d="M14.41,163.65l.54-.08a16,16,0,0,0-5.37,1.67,19.11,19.11,0,0,0-1.84,1.11c-.55.46-1.15.87-1.66,1.37A15.75,15.75,0,0,1,14.41,163.65Z"/><path class="cls-2" d="M0,156.86V177s0,.12,0,0q.15-.44.33-.87a26,26,0,0,1,3.38-5.84,25.14,25.14,0,0,0-3.19,5.4c-.12.25-.22.52-.32.77l-.15.4S0,177.06,0,177V156.86Z"/><path class="cls-2" d="M437.67,1.27h0Z"/><path class="cls-2" d="M805.28,1.43c-2.79,0-4,0-4.1,0C803.77,1.44,805.91,1.44,805.28,1.43Z"/><path class="cls-2" d="M868.05,1.59h0Z"/><path class="cls-2" d="M437.67,1.27l9.82,0C448.18,1.27,442.46,1.27,437.67,1.27Z"/><path class="cls-2" d="M0,75c0,2,0,3.77,0,5.33V75Z"/><path class="cls-2" d="M275.62,1.26h0Z"/><path class="cls-2" d="M151.25,1.24l4.87,0h-4.87Z"/><path class="cls-2" d="M0,47.17v0Z"/><path class="cls-2" d="M364.63,1.29l1.14,0Z"/><path class="cls-2" d="M156.33,138.38h0C155.6,138.49,155.38,138.53,156.33,138.38Z"/><path class="cls-2" d="M14.41,163.65l2-.3.42-.06Z"/><path class="cls-2" d="M982.91,1.83h-.51C979.38,1.83,981.09,1.83,982.91,1.83Z"/><path class="cls-2" d="M1918.77,116.14l.28.06.12,0v-.1q0-.18,0-.27c0-.1,0,0,.06.14a1.52,1.52,0,0,1,0,.37l-.51-.06-3-.41c-4.07-.57-7.39-1,1.48.46-.2,0-.1,0,.2,0l1.34.15.54.06h.13v-.45l0-.78c0-.34,0-.67,0-1,0-1.22-.08-2-.12-1.6,0,.22,0,.74-.06,1.68,0,.4,0,.88,0,1.46,0,.09,0,.24,0,.29Z"/><path class="cls-2" d="M0,71.82v0Z"/><path class="cls-2" d="M1917.26,116.35h0l1.7.29Z"/><path class="cls-2" d="M1247.58,1.92c-.54,0-1.6-.06-2.7-.08C1245,1.86,1245.58,1.88,1247.58,1.92Z"/><path class="cls-2" d="M1050.41,1.6l4.88,0Z"/><path class="cls-2" d="M1350,1.72c2.66,0,3.56,0,7.18,0l-1.1,0C1354.72,1.74,1353,1.75,1350,1.72Z"/><path class="cls-2" d="M1456.51,1.75l-2,0h-3.38Z"/><path class="cls-2" d="M475.64,150.44c-2.32.27-3.76.4-4.89.56.82-.09-2.65.34-4,.58S466.24,151.51,475.64,150.44Z"/><path class="cls-2" d="M0,75c0-.62,0-1.53,0-3.16v3.54C0,75.67,0,75.74,0,75Z"/><path class="cls-2" d="M1354.28.29l16.93,0Z"/><path class="cls-2" d="M1227.12,151.78c-1.3,0-2.6.16-3.9.13C1224.72,152,1226.1,151.82,1227.12,151.78Z"/><path class="cls-2" d="M1421.45.26c3,.06,6.23.1,9.54.12l2,0Z"/><path class="cls-2" d="M470.72,151h0Z"/><path class="cls-2" d="M360.39,155.18c7.94,1.4,9.82,1.68,10.12,1.72s-1-.17.73.1c4.75.77,7.68,1.22,9.5,1.46s2.54.35,2.85.39l3,.35a189.41,189.41,0,0,0,30.18.82c.67,0,2.41-.1.37,0,3.17-.16,7.11-.47,11.45-.94s9.07-1.18,13.84-2.09c9.57-1.64,19-4.95,26.42-5.73l1.92-.25c-2.38.31-2.75.34-2.26.27,7.16-1,13.34-1.48,16.05-1.69-4.42.36-4.79.41-6.85.62,2.51-.26,5-.46,7.55-.67,3.4-.23.82-.07-2.61.23-1.71.13-3.63.31-5.13.47s-2.56.27-2.56.27c14.69-1.56,31.91-2.27,43.21-2.89,2.37-.1-26.44,1.4-11.35.63-5.83.3-11.66.62-17.49,1,6.68-.42,4-.24,1.24-.06s-5.72.4.42,0c23-1.43,25.75-1.32,48.71-2.74,5.16-.36-1.71.08,3.45-.28,16.31-1.18,22.69-2,28-2.69,2.66-.35,5-.71,8.23-1.24a126.79,126.79,0,0,0,13-3c1.48-.49,2.76-.83,4-1.35l2-.76c.69-.28,1.41-.64,2.21-1a23.14,23.14,0,0,0,2.6-1.38c1-.53,2-1.16,3.15-1.86a55.71,55.71,0,0,1,9.34-4.41l-1.37.51c-.45.18-.88.39-1.33.59-.88.41-1.78.76-2.64,1.22a55.68,55.68,0,0,1,11-4c1.27-.27,2.29-.53,3.22-.69l2.55-.4c.81-.15,1.65-.17,2.62-.28.48,0,1-.1,1.56-.13l1.87-.06a68.16,68.16,0,0,1,12.3.81,78.42,78.42,0,0,0-9.85-.79c-3.43,0-5.92.18-4.24.07,1.89-.05,3.47-.11,4.81,0l1.86,0,1.54.12c1.89.11,3.11.27,4.22.4s2.11.26,3.55.5,3.31.57,6.15,1.19l2.33.59c11.54,2.81,23.31,7.06,35.4,11.23s24.54,8.42,37.21,12c-1.41-.38-5.75-1.6.16.11,8,2.32,16.35,4.23,24.8,6.3,2.11.55,4.25,1,6.39,1.42l6.44,1.37,6.45,1.36c2.15.44,4.32.79,6.48,1.19l12.93,2.31,12.82,1.92c4.23.68,8.43,1.14,12.56,1.63l6.15.73c2,.24,4,.51,6,.66l12.2,1c2.84.24,5.26.49,2.19.24,12.45.84.65,0,6.64.35,7.09.39,9.36.57,4.87.34l9.05.47,10.39.25c7.28.28,15.16.11,23.08.1,2,0,4,0,5.93-.13l5.9-.2,5.8-.2c1.91-.06,3.8-.13,5.65-.27l10.65-.67,4.9-.3,4.53-.4-4.5.44c9-.82,14.07-1.33,19-1.87s9.62-1.27,17.94-2.3c-1.06.17-2.12.29-3.19.44,19.44-2.64,39.74-6.49,58.71-10.95,9.47-2.27,18.62-4.64,27.25-6.73s16.74-3.89,24.1-5.19a195.05,195.05,0,0,1,21.58-3.06c2.32-.18,4.61-.36,6.77-.43,1.07-.05,2.12-.12,3.11-.13l2.83,0,4.45-.06c1.15,0,1.94,0,2.26,0,11.17.43,15.12,1.08,20.22,1.6s11.32,1.4,26.89,3.87c8.32,1.27,12.42,1.78,22.77,3.07l.23.17c2.34.3,4.7.5,7,.73s4.71.4,7.06.56c1.25.12,2.5.27,3.75.37l3.76.26c3.26.19,6.53.13,9.8.15l-5.54-.08a12,12,0,0,1-2.16-.12,182.72,182.72,0,0,0,24.39-.93c3.7-.46,6.94-.85,9.26-1.26s3.75-.58,3.85-.58c11.85-2.23,23.52-5.25,35.2-8.1-.77.25-6.63,1.69-11.27,2.85,18.69-4.65,3.43-.73,20.57-4.86-2.31.47,1.23-.37,1.61-.49,4.3-.92,11.35-2.34,19.2-3.48,2-.24,4-.57,6-.76l6.12-.57,6-.26c2-.09,3.89,0,5.73,0l-2.82.08,5,.07,5.07.4c3.41.16,6.81.8,10.26,1.28a24.87,24.87,0,0,1,2.58.46l2.58.54,2.59.54c.87.17,1.74.35,2.59.6,3.44.92,6.93,1.76,10.36,2.91,6.92,2.08,13.77,4.74,20.64,7.5s13.69,5.85,20.52,9c-9.79-4.5-7.45-3.68.58-.06l3.13,1.63c5.22,2.26-8.34-3.89,2.34.83,10.2,4.68,6.77,3.34.88.72,4.15,1.86,8.3,3.75,12.47,5.56.71.38-2.24-.88-3-1.16,2.59,1.07,7.93,3.55,13.66,6s11.81,4.78,15.67,6l.71.32a219.71,219.71,0,0,0,35.09,9.09l3.76.67c1.25.22,2.5.36,3.75.54,2.51.32,5,.74,7.61,1l8,.78,8.73.54c.25,0,2.77,0,6.14,0,1.68,0,3.58.1,5.51,0l5.73-.14a320.94,320.94,0,0,0,59.27-6.59c14.89-3.32,4.33-1.07,11-2.68.56-.06,6.12-1.32,10.15-2.34s6.54-1.68,1.13-.17c12.59-3.32,20.52-5.84,29.24-8.71s18.18-6.21,33.47-12.28c-3.35,1.22-7.11,2.65-5.19,1.84,5.57-2.15,12.65-5,11.89-4.55l-1.45.61c8.54-3.51,17.68-7.42,27-11.56s18.77-8.5,28-12.9c2.3-1.09,4.58-2.18,6.84-3.29l3.37-1.64,1.67-.81.47-.23a.82.82,0,0,0,.32-.23l.22-.23c.18-.18.42-.38.62-.57.41-.39.93-.71,1.38-1.06a12.9,12.9,0,0,1,1.48-1l1.51-.91,1.58-.78a66,66,0,0,1,6.39-2.67c8.63-3,17.09-4.21,24.3-5.26l-1.63.18c5-.49,10-1.19,15.11-1.33l7.59-.38,7.6,0c14,.07-8.39.11,2,.26,4.1-.1,8,.12,11.69.26l5.44.23c1.77.08,3.51.13,5.21.3l9.85.84c3.17.3,6.28.48,9.31.91l18,2.24,18.91,2.86,2,.37,1.54.26,1,.16.25,0s.09,0,.11,0v-.62c0-1.79,0-3.7.07-5.73,0-3.52,0-7.44.07-11.63,0-8.4,0-17.92,0-27.68,0-19.5-.1-39.93.08-54.07l-.13,1.63c-.13-7.31.08-8.84.11-14.23-.11.77-.12,7.93-.19,3.39,0-1.93,0-3.87,0-5.82v-3c0-.15-.1-.11-.2-.12H1881l-48-.09L1736.76,0c-23.22,0-13.18.68-42.45.38l8.31-.25c-46.86.3-95.83,0-141.7.27,2.73-.06,2.81-.13,7.29-.13-4.85-.08-13.8-.08-21.57,0l-10.1.08-3.13,0c-.75,0-1.18,0-1.2,0-7.14,0-1.65-.12-6-.19-9.72-.09-24.4.22-29.57.06-.87,0,2.73-.05,4.51-.07-6.33.09-29.51,0-23.44.18-17.22-.08-32.94.1-46.67,0-9,.21-29.48-.08-32.32.21,1.23-.3-30.19-.23-41.08-.09,3.65-.09-9.46-.08-5.19-.21-12.43,0-23.81.07-21.65.22-22.89-.33-46,.29-58.89-.13L1167.6.74c1.2-.26,36.7-.05,35.27-.32-31.49.13-49.66.35-80.89.31-8.09,0,4.59-.11,7.32-.15l-88.83.15,1.93,0,4,0c-5.52,0-12.83,0-12.21.07l5.38,0c8.81.15-21.91.31-22.9.39C1026.05.81,989,1,1003.91.68c-3.63,0-8.19.07-7.35.13-5.39,0-7.1-.05-1.64-.12-19.76.06-12.74.15-30.65.16l.63,0,1.47,0L969.8.73c-9.06.1-18.17.18-33.3.15a29.57,29.57,0,0,1,3.66-.06c-26,0-44.29.24-72.8.17,8.41-.17-9.7-.05-11.21-.19l-15.33,0L847,.91,810.13,1l10-.06L794.94,1l14.24,0c-13.58.07,1.46.17-16.41.13l-20.44-.07h0c-6.65,0-13.48.08-23.41.05-2.58,0,2.07-.13.4-.15l-39.75.14c2.76,0,2.91-.08,2-.09l-5.5.07c-6.23,0-7.14,0-6.13-.08-18.71,0,6,.14-16.26.09l4.54,0-63.59,0c-6-.09,17.91,0,11-.1l-89.79.11h5.32c-4,.11-21.29-.05-35.76,0,3.55,0,4.65-.06,3.69-.05l-69.72.07,3.68,0H410.23c-3.7,0-10.83,0-6.5,0h-101l-29,0,9.91,0-19.08,0c13.07,0-.11,0-5.75,0,.94,0-1,0-.51,0H236.12l-23.26,0c-3.47,0,8.25,0,8.79,0l-33.81,0H169.49l-49.73,0c19.25,0,3.18,0,4.66,0H77.14c-12.17,0,2.87,0,1.85,0H0C0,3.56,0,5.74,0,7.74c0,4,0,7.4,0,10.74V41.15C0,21.61,0,9.64,0,2.28v-1c0-.06.16,0,.23,0H43.93c10.41,0-1.78,0,4.26,0H88.36c4.83,0-12.88,0,1.5,0h28.92c-3.78,0-15.44,0-3.13,0H190l49,0h-.48l32,0c-.48,0-2.66,0-9.25,0h25.12l-2.88,0h50.24c1.1,0-15.58-.08,5.13-.1.77,0,1.54.05-3.88.05h9.9l-8.27,0,11.8,0c-.15,0,5.27,0,4.25,0h-8.95l21,0c-.7,0,0,0,5.89,0l14.09.05h8.11c2.92,0,5.42,0,5.54,0l7,0c7.88,0,36.8,0,27.92,0h-.73l79.26,0,0,0,45-.05c4.52,0,10.67,0,8.74.07h29.89c-11.75,0,4,0-12,0,15.19,0,18.63.07,34.94,0-5.55.06,11.44.08,18.66.07l-10.64,0H648.6l-3.9.08c31.09.14,56.06-.16,79.72.05,8.23-.07-16.88-.06-9.53-.14l33.68.18c19.59.07,18.28-.15,38.77-.1-2.62,0-5.1-.15,10.22-.18,14.31,0,17.59.18,8.56.21-3.43,0-5.09,0-4.94,0-4.63,0-10.69,0-5,.07l1.86,0c7.1.05,26.78.06,22.16.12,10.81,0,4.62-.06-3.39-.09l47.57.07c-3,0-5.77-.08-2.78-.08,27.71.07,12.2-.08,31-.1,10.66.08-3.83.18,15.07.12,11.54.06,2.45.14-2.14.17,17.22-.08,32.17.09,42,.12l-9.07,0h14.39l-5.18-.11,6.9,0h2.1a6,6,0,0,1,.73,0c5.49-.07-4.2-.18,6.69-.27,7.1.06,21.62-.05,24.07.1-22.33-.06,2.47.15-16.43.16h13.44a13.57,13.57,0,0,1-2.22,0c21.37.14,9.82-.16,32-.15-2.81.09,5.13.17,8.74.15-8.92,0-4.26-.14,3.92-.2,14.2.07,15.43,0,22.87,0l-8.49,0c2.88-.08,10-.07,19.88-.1.84.07-9,.05-5.46.08,11-.15,24.83.17,40.15.07,7.1.07.69.18,6.93.22,17.17-.11,18.6.15,36.65.06-5.2-.14-6.11-.1,6.6-.22L1117,1.74l19-.18-24.27.05c9.08-.1,8.14-.07,3.86-.17,12.25.19,24.29-.11,38.46,0l-.43.32c21.29.16,37.84-.15,65.49-.05l-8.89-.07c3.71-.13,17.08,0,26-.06-.83.11,4.77.16,8.59.23-.46-.09,20.24,0,22.75-.22l12.35.17c22.33.07,25.48-.34,47-.3-6.47.14,3.29.23-11.09.32h12.54a9.27,9.27,0,0,0,1.18-.05c4.19.08,19.88-.16,26.47,0,3-.05,4-.19,12-.18.88,0,0,.07,0,.07s.2,0,.54,0l1.33,0,3.56-.05c2.27,0,3.65-.07.14-.14,22.07.41,61.7,0,80.92.34l48.68-.09a20.46,20.46,0,0,1-2.73,0c19.59.13,12-.39,34.34-.25,11.38.23-11.84.12-4.74.21,3.09.46,26.9-.06,41.9.21l-3.64,0c11.47.16,28-.17,46.71-.13,0,0-.91,0-.11.07,12.81-.24,37.06-.32,55.08-.39-5.6.19-8.19.1-4.76.29,8.07,0-2.37-.3,13.75-.35,5.25.1,16.88.19,18.42.39h-15.21c7.79.26,19.69,0,27.7,0l-1,.12c23.31,0,23.63-.33,48.68-.31L1755,1.52c13.69-.28,11.48.17,25.14-.05l4.13.3,47.84-.34c-9.18.22-28.13.33-39.86.46,9,0,30.43,0,35.09-.17-3.61,0-8.15.1-11.72.06q16.49-.36,43.28-.34c-3.16.57,46.51.14,59.46.59h.78s0,0,.06,0V2.5l0,3,0,5.91c0,3.94,0,7.89,0,11.85,0,7.93,0,15.92,0,24.07,0,16.3,0,33.26-.09,51.65.45-13,0,10.73.47,8.48,0,4.15,0,7,0,9v.36s-.06,0-.09,0l-.41-.06-.75-.13-1.07-.18-12.81-2.12-6.41-1.07c-2.14-.34-4.29-.58-6.44-.88-6.1-.85,8.12.84,7.33.75-18.62-2.42-7.79-1.17-20.11-2.82,1.25.25-.37,0-3.65-.23s-8.21-.67-13.54-1.16l15,1.5c-13.09-1-18.72-1.68-24.42-1.93l-9.49-.55c-3.8-.1-8.55-.06-15.18,0l8.39-.13c-3.41,0-8.24-.09-13.79.28l-4.29.2-2.22.11c-.74,0-1.5.14-2.25.21-3,.32-6.16.58-9.27,1s-6.2,1-9.19,1.55l-4.37,1-2.12.49-2,.63-3.84,1.19c-1.21.44-2.34.93-3.42,1.36l-1.57.64-1.41.72c-.9.47-1.75.88-2.47,1.31l-2.62,1.48c-.32.17.24-.3,2.88-1.86-.91.51-1.8,1.07-2.7,1.62-.44.29-.86.63-1.3,1a11,11,0,0,0-1.26,1l-.31.28-.18.2s-.33.17-.53.27l-1.41.69-2.83,1.41-11.55,5.67c-7.8,3.76-15.73,7.54-23.53,11.06s-15.44,6.85-22.6,9.85c-3.6,1.46-7,2.88-10.37,4.18s-6.45,2.5-9.41,3.58l2.26-1c-5.64,2.15-9.77,3.89-16.94,6.27.35-.17,2.26-.9-.38,0-1.49.57-5.28,1.87-9.65,3.36-2.17.76-4.52,1.47-6.79,2.19s-4.46,1.42-6.39,1.95c2.19-.65,4.34-1.41,6.5-2.11-15.08,4.62-26.79,7.67-38,10.23a337,337,0,0,1-35,6.17,4,4,0,0,0-1.07,0l-3,.24c-1.25.1-2.74.26-4.4.39l-5.43.36c-3.86.32-8.12.38-12.18.57s-7.93.1-11,.08l.43,0c-4.58-.14-9-.14-13.26-.47-2.13-.14-4.24-.21-6.3-.4l-6.12-.59c-2-.16-4-.44-6-.71l-5.83-.78-5.71-1c-1.89-.33-3.78-.63-5.63-1.07-3.72-.82-7.44-1.54-11.11-2.57l-5.53-1.45-5.53-1.7c-3.72-1.07-7.41-2.47-11.21-3.79s-7.62-2.88-11.53-4.56c-2.43-1-5.27-2.28-8.43-3.72l-10.4-4.72c-7.49-3.43-16-7.37-25-11.24a265.54,265.54,0,0,0-27.94-10.44,157.39,157.39,0,0,0-27.35-5.84c2.59.31,2.37.39.76.18s-4.66-.28-7.69-.51c-2-.13-4.38-.09-6.82-.13s-4.9.21-7.08.28c-4.36.32-7.56.69-6.94.5l2.85-.26c-1.51.11-3.68.19-6.24.56l-4.15.53c-1.48.19-3,.49-4.61.75-3.2.5-6.57,1.23-9.94,1.9s-6.71,1.45-9.83,2.21l-2,.75c-16.33,3.61-37.53,9.61-57.49,11.14a178.64,178.64,0,0,1-27.63-.2c-4.07-.27-7.79-.75-11.06-1.09s-6.09-.8-8.34-1.15c-8-1-17.89-2.6-25.83-3.7l.45-.06c-11.08-1.65-19.43-2.71-28.47-3.41-4.53-.35-9.23-.57-14.53-.61a168.1,168.1,0,0,0-18.12.9c1.87-.26,3.75-.38,5.63-.57a159,159,0,0,0-17.41,2.19c-4.72.82-9.26,1.74-16.3,3.24-1.43.25-2.85.5-4.27.78-13.3,3-26.53,6.56-39.81,9.7l-10,2.21c-3.33.71-6.63,1.52-10,2.15l-10,1.9c-3.32.64-6.62,1.31-10,1.8.43-.11,1.23-.2,5.56-1-3.15.61-7.8,1.25-12.91,2.08-2.56.38-5.22.84-7.89,1.2l-7.88,1c-10.11,1.39-18.11,2-15.78,1.91,0,0-.51,0-1.33.1l-3.41.3c-2.86.26-6.8.71-11.2.95l-13.91,1-12.83.49,2.28-.17-7.5.33-5.71.08-6.64.06c-2.67,0-5.94.09-10.27-.06-4.11-.12-3.6-.15,1.85,0l-12.53-.3c-3,0-6.42-.23-14.7-.7l6.17.3-12.71-.69-8-.62c-8.84-.54-26.56-2.82-28.62-3.09-1.88-.23-9.51-1.31-17.72-2.54-1.11-.18,1.88.25,3.39.46-1.46-.22-2.87-.41-4.23-.64l-3.95-.71-7.25-1.29-6.52-1.16-6-1.24-11.09-2.31c-3.62-.84-7.26-1.75-11.19-2.71-.33-.1-1.35-.36-2.65-.68l12.77,3.1,10.35,2.19c5.8,1.22,9.14,1.92,8.45,1.76l-5.91-1.29c-2.22-.48-3-.66,2.91.53L760.76,159c-1.9-.4-3.88-.77-5.9-1.24l-6.14-1.47c-4.15-1-8.39-2-12.46-3s-8-2.17-11.5-3.21l-1.86-.57,1.46.43c-3.26-1-6.17-1.86-8.91-2.7-4.47-1.44-7.31-2.37-11.59-3.81l-23.5-8.11c.58.24-8.76-2.94,0,.07-1.13-.39,1.35.45,6.08,2.09l3,1-.49-.16c4.68,1.62,10.77,3.75,17.72,6.06-5.65-1.85-11.54-3.86-19.4-6.63l-10-3.35c-4.88-1.68-12.05-4.05-18.44-5.73a134.23,134.23,0,0,0-13.36-2.86,69.31,69.31,0,0,0-18.38-.33A52.93,52.93,0,0,0,609,131.23c-1.41.68-2.73,1.49-4,2.28q-1,.6-1.95,1.14c-.66.36-1.28.77-1.94,1.07-1.34.6-2.63,1.24-4,1.69l-2,.73-1.92.6A119.71,119.71,0,0,1,580,141.9c-6.45,1.13-7.43,1.15-9.85,1.5,3.74-.51,8.18-1.21,10.18-1.61-6.42,1.24-16,2.43-24.45,3.19s-15.59,1.23-17.14,1.36l-13.37.76,3-.18c-11.12.61-21.21,1.07-30.85,1.66s-18.83,1.2-28.11,2.46c-1.16.15-2.32.33-3.48.53l-1.74.29-1.74.34c-2.33.44-4.63,1.1-7,1.7s-4.71,1.17-7.12,1.75-4.89,1-7.42,1.48c-5,.92-10.31,1.67-15.86,2.18s-11.39.84-17.57.87l5.84-.1a191.19,191.19,0,0,1-21.25-.47c-7.12-.52-14.22-1.58-21.32-2.76s-14.21-2.37-21.28-3.89a204.71,204.71,0,0,1-20.93-5.69c-13.75-4.47-27.69-8.3-41.62-11.52l-5.24-1.13-5.26-.89c-1.75-.32-3.51-.53-5.27-.75s-3.51-.47-5.27-.64c-3.52-.28-7-.68-10.52-.82l-5.24-.27-5.22-.13c-7.9-.14-12.28,0-15.89.07s-6.44.22-11.26.47c-1.14.05-2.28.1-3.41.19l-8.23.58-8.21.71c-11.64,1.12-21.68,2.38-32.47,3.89s-22.33,3.33-36.91,5.88l3.76-.66c-10.48,1.77-33.13,6-31.38,5.71l-7.51,1.42-.31.06L67.5,154.36,58,156.17l-16.39,3c-5.4,1-13.11,2.29-19,3.21s-9.86,1.48-7.82,1.18l7.29-1.09,4.23-.68q-4.95.81-9.92,1.53L14,163.7c.91-.16,5.11-.68,17.27-2.71q8.46-1.43,16.91-3l5.44-1-14.22,2.6c8.08-1.43,13.19-2.4,18.91-3.48l7.07-1.34L82,151.58l3.69-.71,5.4-1,15.2-2.87c1.33-.25-.68.11-4.44.83,8.44-1.6,22.35-4.13,26.72-4.87,4.22-.75,11.36-2,17.35-2.92s10.84-1.68,10.42-1.63c2.66-.44,15-2.18,22.79-3.16-7.14.94.17-.05,8.82-1s18.65-1.77,16.75-1.6c2.66-.26,6.39-.47,10.79-.79s9.46-.51,14.79-.6A297,297,0,0,1,262,132c-1.05-.07-3.11-.31-4.78-.37,2.65.14,4.83.4,6.71.55l2.63.23,2.31.29c2.93.38,5.4.63,8.76,1.25l3.46.58c1.86.33,4.27.9,6.92,1.46,5.28,1.23,11.45,2.82,15.77,4,6.28,1.7,4.37,1.2,1.39.38l-5.1-1.33c-.31-.08,5.17,1.32,10.16,2.73s9.51,2.78,7.39,2.13c9.52,2.93,8.19,2.58,13.08,4.12,1.67.52,8.85,2.83,16.93,4.59,7.05,1.53,8,1.66,9.06,1.87s2.34.5,10.15,1.82c3.71.64,2.1.36-.45-.07l-4-.68Zm368.08-3.76h0c-3.12-.87-5.76-1.7-7.46-2.19C722.56,149.68,724.69,150.36,728.47,151.42Zm30.73,7.64c-3.79-.74-8.43-2-13.38-3.14-1.07-.28.1,0,3.2.74-.84-.2.55.14,2.72.68l3.67.9ZM695,140.3l7,2.4-8.29-2.84-.56-.19Z"/><path class="cls-2" d="M686.42,137.4l-1.95-.67,2.82,1,1.68.57Z"/><path class="cls-2" d="M433.18,1.26h0Z"/><polygon class="cls-2" points="1191.85 149.88 1191.81 149.84 1189.06 149.52 1191.85 149.88"/><path class="cls-2" d="M258.8,1.16h0Z"/><path class="cls-2" d="M183.47,1.17h0Z"/><path class="cls-2" d="M125.55,1.17h0Z"/><path class="cls-2" d="M1046.42.67h2.23C1053.9.63,1050.33.64,1046.42.67Z"/><path class="cls-2" d="M772.38,1.06,781.19,1H775C773.43,1,772.45,1,772.38,1.06Z"/><path class="cls-2" d="M1352.43.29h0Z"/><path class="cls-2" d="M793.93,1h0Z"/><path class="cls-2" d="M0,126.68v0Z"/><path class="cls-2" d="M0,129.8v0Z"/><path class="cls-2" d="M0,139.42v0Z"/><path class="cls-2" d="M0,50v0Z"/><path class="cls-2" d="M0,26.71v0Z"/><path class="cls-2" d="M71.75,1.21H52.23c3.41,0,7.9,0-1,0Z"/><path class="cls-2" d="M132.29,1.23c-10.49,0,.12,0-.43,0C138.51,1.23,140.12,1.23,132.29,1.23Z"/><path class="cls-2" d="M569.77,1.34l-1,0C576.8,1.39,568.79,1.37,569.77,1.34Z"/><polygon class="cls-2" points="653.4 1.02 645.53 0.98 641.79 1.05 653.4 1.02"/><polygon class="cls-2" points="702.8 1.53 699.27 1.54 712.76 1.52 702.8 1.53"/><path class="cls-2" d="M1437.55,1.91l-2.44-.21C1429.64,1.73,1428.5,2,1437.55,1.91Z"/><path class="cls-2" d="M1754.75,1.74c3.45.12,12.38.2,17.87.08C1765.49,1.81,1758.38,1.71,1754.75,1.74Z"/><polygon class="cls-2" points="1275.09 142.81 1281.27 141.25 1269.6 144.1 1275.09 142.81"/><g class="cls-3"><path class="cls-4" d="M1478.8,14.73c4.41-.8,9.1-1.57,13.25.13s7.19,6.86,5,10.76c7.94-.68,16.57-1.21,23.23,3.18,2.09,1.38,4,3.23,6.37,3.91s5.18,0,7.75-.41,5.45-.64,7.59.87,2.62,5.32.32,6.55a5.67,5.67,0,0,1-1.8.49A50.65,50.65,0,0,1,1511.34,36c-3.18,4-8.71,5.5-13.83,5.23s-10-2-15-3.39a16.66,16.66,0,0,0-6.77-.82,18.87,18.87,0,0,0-5,1.8c-4.85,2.23-10,4.25-15.34,4s-10.9-3.14-12.66-8.19a23.74,23.74,0,0,1-22.09-6.38,55.7,55.7,0,0,1,28.58,2.39c-.29-3.74,3.42-6.81,7.14-7.25s7.38,1.05,10.84,2.49c-1.35-3.57,1.83-8,5.65-7.87,1.23,0,2.47.48,3.68.26s2.36-1.58,1.73-2.65"/></g><g class="cls-5"><path class="cls-4" d="M1186.56,36c3.13-3.11,3.74-8.14,7-11.17,3.51-3.3,9-3.2,13.72-2s9.59,3.55,12.5,7.58c2.08,2.87,4.29,7.05,7.73,6.2,1.59-.39,2.67-1.82,4-2.85,3.72-3,9.33-2.35,13.42.09s7.05,6.33,10.1,10a2.43,2.43,0,0,0,1.29,1,2.37,2.37,0,0,0,1.59-.42,40.1,40.1,0,0,1,6.18-3.26c2.21-.75,4.86-.75,6.67.72,3.2,2.62,2.76,8.79,6.71,10,1.54.47,3.17-.1,4.74-.46,3.36-.79,7.14-.57,10,1.45s4.2,6.14,2.46,9.12c-1.61,2.76-5.11,3.71-8.28,4a41.47,41.47,0,0,1-26.77-6.51c-.92-.6-2-1.27-3-1a4.26,4.26,0,0,0-1.75,1.3c-7,7.06-18.3,6.93-28.13,5.5-1.88-.27-3.91-.65-5.18-2.07s-1.06-4.18.77-4.71c-14.39,7.84-31.94,5.73-48.12,3.17-1.41-.22-3-.6-3.64-1.89s1.24-3.1,2.14-2l-6.9-2.22c-3.11-1-6.85-2.85-6.74-6.12.09-2.75,3-4.52,5.77-4.95a14.22,14.22,0,0,1,10.56,2.63c-.12-3.6.35-8.15,3.75-9.34s7,2,10.42,1"/></g><g class="cls-5"><path class="cls-4" d="M755.56,56c3.13-3.11,3.74-8.14,7-11.17,3.51-3.3,9-3.2,13.72-2s9.59,3.55,12.5,7.58c2.08,2.87,4.29,7,7.73,6.2,1.59-.39,2.67-1.82,3.95-2.85,3.72-3,9.33-2.35,13.42.09s7,6.33,10.1,10a2.43,2.43,0,0,0,1.29,1,2.37,2.37,0,0,0,1.59-.42A40.1,40.1,0,0,1,833,61.17c2.21-.75,4.86-.75,6.67.72,3.2,2.62,2.76,8.79,6.71,10,1.54.47,3.17-.1,4.74-.46,3.36-.79,7.14-.57,10,1.45s4.2,6.14,2.46,9.12c-1.61,2.76-5.11,3.71-8.28,4a41.47,41.47,0,0,1-26.77-6.51c-.92-.6-2-1.27-3-1a4.26,4.26,0,0,0-1.75,1.3c-7,7.06-18.3,6.93-28.13,5.5-1.88-.27-3.91-.65-5.18-2.07s-1.06-4.18.77-4.71c-14.39,7.84-31.94,5.73-48.12,3.17-1.41-.22-3-.6-3.64-1.89s1.24-3.1,2.14-2l-6.9-2.22c-3.11-1-6.85-2.85-6.74-6.12.09-2.75,3.05-4.52,5.77-5a14.22,14.22,0,0,1,10.56,2.63c-.12-3.6.35-8.15,3.75-9.34s7,2,10.42,1"/></g><g class="cls-5"><path class="cls-4" d="M1603.38,59.3c6-1.09,12.47-2.14,18.15.18s9.87,9.41,6.85,14.76c10.89-.94,22.72-1.66,31.84,4.35,2.87,1.89,5.43,4.43,8.73,5.37,3.45,1,7.11.06,10.64-.57s7.47-.87,10.4,1.2,3.6,7.29.43,9a7.69,7.69,0,0,1-2.46.68,69.36,69.36,0,0,1-40-5.85c-4.37,5.5-12,7.55-19,7.18s-13.74-2.77-20.51-4.65c-3-.84-6.17-1.58-9.27-1.12a26.16,26.16,0,0,0-6.91,2.46c-6.65,3.06-13.72,5.83-21,5.55s-14.94-4.3-17.35-11.22a32.56,32.56,0,0,1-30.29-8.75,76.36,76.36,0,0,1,39.18,3.28c-.39-5.13,4.69-9.34,9.79-9.94s10.12,1.43,14.87,3.41c-1.86-4.89,2.51-11,7.74-10.79,1.69.06,3.38.66,5,.35s3.24-2.16,2.37-3.62"/></g></g></g></svg>