<svg xmlns="http://www.w3.org/2000/svg" xmlns:xlink="http://www.w3.org/1999/xlink" viewBox="0 0 1920.67 188.57"><defs><style>.cls-1{fill:url(#Degradado_sin_nombre_23);}.cls-2{fill:#4f7684;}</style><linearGradient id="Degradado_sin_nombre_23" x1="0.11" y1="94.68" x2="1920.11" y2="94.68" gradientUnits="userSpaceOnUse"><stop offset="0" stop-color="#90c9dc"/><stop offset="0" stop-color="#97cee0"/><stop offset="0" stop-color="#a0d4e4"/><stop offset="0" stop-color="#a3d6e5"/><stop offset="0.57" stop-color="#4193b7"/><stop offset="1" stop-color="#307499"/></linearGradient></defs><title>Cielonubes</title><g id="Capa_2" data-name="Capa 2"><g id="Capa_1-2" data-name="Capa 1"><path class="cls-1" d="M14.51,163.48C88.11,153,213.91,117.79,289.11,136c50,12.14,37.78,13.89,88.65,21.78a191.81,191.81,0,0,0,80.47-4.72c28.87-8,120.62-2.92,145.88-19.06,36-23,69.58,3,133.89,19.64a604.34,604.34,0,0,0,289.22,3.12c28-6.62,55.84-15.29,84.59-16.17,40.22-1.23,79.91,12.9,120.07,10.25,38.13-2.51,74.65-20,112.82-18.39,44.54,1.93,83.4,29.37,125.64,43.64,98.43,33.23,205.6-7.05,298.57-53.42,0,0,22.2-27.67,151.2-5.67V1H.11V176.87S4,165,14.51,163.48Z"/><path class="cls-2" d="M14.52,163.53c1.09-.16,1.32-.2.53-.09A15.54,15.54,0,0,0,9.7,165.1a17.9,17.9,0,0,0-1.83,1.12c-.55.46-1.15.87-1.65,1.38A15.59,15.59,0,0,1,14.52,163.53Z"/><path class="cls-2" d="M.11,156.69c0-7.14,0-15.37-.07-10.75,0,7.07,0,8.78,0,16.39,0,6.07,0,10.6,0,9.57,0,.94,0,2.84,0,5v.2l.06-.19a25.75,25.75,0,0,1,3.71-6.74,24.58,24.58,0,0,0-3.73,6.74l0,.06v-.07c0-6.25,0-13.33,0-20.63C.09,154,.1,156.17.11,156.69Z"/><path class="cls-2" d="M437.77,1.32l-3.82,0Z"/><path class="cls-2" d="M805.39,1.54c-2.8,0-4,0-4.11.06C803.88,1.58,806,1.57,805.39,1.54Z"/><path class="cls-2" d="M868.15,1.84l-3.7,0C865.86,1.85,867.28,1.86,868.15,1.84Z"/><path class="cls-2" d="M437.77,1.32l9.82.07C448.28,1.32,442.56,1.33,437.77,1.32Z"/><path class="cls-2" d="M0,74.87c0,2.06,0,3.77,0,5.33v-5A2.82,2.82,0,0,1,0,74.87Z"/><path class="cls-2" d="M275.72,1.35h-3l-2.48.06Z"/><path class="cls-2" d="M151.35,1.26c2.81,0,3.79-.08,4.87-.11-1.59,0-3.67.05-6.13.05A9.36,9.36,0,0,0,151.35,1.26Z"/><path class="cls-2" d="M.15,47v0Z"/><path class="cls-2" d="M364.73,1.46l1.14.06a1.3,1.3,0,0,0-.31,0Z"/><path class="cls-2" d="M156.45,138.34h0C155.73,138.45,155.5,138.49,156.45,138.34Z"/><path class="cls-2" d="M14.51,163.47l2-.29.42-.08Z"/><path class="cls-2" d="M983,2.13h-.51C979.48,2.16,981.19,2.15,983,2.13Z"/><path class="cls-2" d="M1918.79,116.46l.85.14.12,0v-.1l0-.73c0-.32,0-.14,0,.35a2.63,2.63,0,0,1,0,.54l-1-.14-3-.45c-4.06-.6-7.38-1.08,1.5.33a13.29,13.29,0,0,1,1.61.22l.82.11.13,0v-.54l0-2c0-1.22,0-2-.06-1.59l0,1.67c0,.47,0,1,0,1.73v.46s0,.15,0,.14Z"/><path class="cls-2" d="M0,71.65v0Z"/><path class="cls-2" d="M1917.32,116.42h0l1.84.3Z"/><path class="cls-2" d="M1247.68,1.93c-.54,0-1.6-.06-2.7-.09C1245.07,1.86,1245.68,1.89,1247.68,1.93Z"/><path class="cls-2" d="M1050.51,1.67l4.88,0Z"/><path class="cls-2" d="M1350.05,1.61c2.66,0,3.56,0,7.18,0l-1.1,0C1354.82,1.63,1353.07,1.64,1350.05,1.61Z"/><path class="cls-2" d="M1456.61,1.58l-2,0h-3.37Z"/><path class="cls-2" d="M475.78,150.67l-4.88.46c.81,0-2.65.4-4,.65S466.4,151.73,475.78,150.67Z"/><path class="cls-2" d="M0,74.81c0-.62,0-1.53,0-3.16,0,1.22,0,2.4,0,3.54C0,75.5,0,75.57,0,74.81Z"/><path class="cls-2" d="M1354.39,0l16.92,0Z"/><path class="cls-2" d="M1227.22,151.61c-1.3,0-2.6.16-3.9.13C1224.82,151.78,1226.2,151.65,1227.22,151.61Z"/><path class="cls-2" d="M1421.55.05c3,.07,6.23.11,9.54.14l2,0Z"/><path class="cls-2" d="M470.86,151.14h0Z"/><path class="cls-2" d="M360.42,155.38c7.95,1.41,9.83,1.67,10.14,1.69s-1-.23.74,0c4.75.77,7.68,1.22,9.51,1.47l2.85.42a16.2,16.2,0,0,0,2.94.45,191.34,191.34,0,0,0,30.23.73c.68,0,2.42-.07.38,0,3.18-.18,7.12-.5,11.47-1s9.09-1.18,13.86-2.09,9.59-2,14-3.2a99.48,99.48,0,0,1,12.35-2.57l1.92-.22c-2.38.24-2.76.21-2.28.09,7.15-1,13.32-1.55,16-1.68-4.42.36-4.78.44-6.84.68,2.51-.27,5-.48,7.54-.7,3.41-.17.83,0-2.6.3-1.71.14-3.63.32-5.12.48l-1.84.2-.53.07-.19,0c14.68-1.59,31.89-2.4,43.19-3,2.37,0-26.43,1.43-11.34.77-5.83.29-11.66.59-17.48,1,6.68-.32,4-.15,1.24,0s-5.72.4.42.1l48.71-2.72c5.16-.43-1.72,0,3.45-.45,16.3-1.24,22.7-2,28-2.59,2.67-.3,5.06-.62,8.27-1.14a111.33,111.33,0,0,0,13.05-3c1.48-.51,2.76-.87,4-1.42l2-.81c.69-.29,1.41-.67,2.22-1a25,25,0,0,0,2.61-1.42c1-.54,2-1.17,3.14-1.87a53.53,53.53,0,0,1,9.3-4.36l-1.34.55c-.44.19-.87.41-1.31.62-.86.43-1.75.8-2.58,1.28a57.43,57.43,0,0,1,10.9-4c1.25-.28,2.27-.54,3.18-.72l2.52-.43c.81-.16,1.64-.2,2.6-.31.48,0,1-.11,1.55-.14l1.86-.06a64.24,64.24,0,0,1,12.24.82,88.29,88.29,0,0,0-9.8-.73,29.41,29.41,0,0,0-4.22.09c1.88,0,3.45-.08,4.78,0l1.84,0,1.54.12c1.87.11,3.09.25,4.19.37s2.11.21,3.54.43,3.31.53,6.14,1.15l2.29.74c11.5,2.79,23.26,7,35.37,11.15s24.57,8.36,37.25,11.94c-1.42-.33-5.78-1.51.13.24a631.36,631.36,0,0,0,101.14,19l12.22.86c2.83.25,5.26.54,2.18.32,12.46.88.65-.06,6.65.22,7.1.38,9.37.64,4.87.45l9.06.42,10.41.21c7.28.25,15.16.06,23.09,0,2,0,4-.06,5.93-.14L910,173l5.81-.21c1.91,0,3.8-.13,5.65-.27l10.66-.66,4.9-.29,4.53-.39-4.5.48c9-.81,14.08-1.38,19-2s9.62-1.35,18-2.34c-1.06.17-2.13.3-3.19.45,19.45-2.64,39.76-6.52,58.73-11l27.24-6.74c8.63-2.1,16.74-3.89,24.09-5.18a181.9,181.9,0,0,1,21.56-3.11c2.31-.18,4.6-.37,6.75-.44,1.08-.05,2.12-.12,3.12-.14l2.82,0,4.44-.08c1.16,0,2,0,2.27,0,11.16.44,15.11,1.1,20.21,1.62s11.31,1.41,26.88,3.85c8.33,1.25,12.44,1.74,22.78,3l.24.19c2.34.29,4.69.48,7,.7s4.7.4,7.06.55c1.25.12,2.5.27,3.75.37l3.76.25c3.26.19,6.53.12,9.8.13l-5.54-.06a9.77,9.77,0,0,1-2.16-.13,182.7,182.7,0,0,0,24.39-1c3.7-.47,6.94-.86,9.25-1.28s3.76-.59,3.85-.58c11.85-2.26,23.51-5.29,35.18-8.16-.76.24-6.63,1.7-11.26,2.86,18.69-4.67,3.42-.77,20.56-4.91-2.31.49,1.23-.35,1.62-.46,4.29-.94,11.35-2.38,19.2-3.53,2-.25,4-.59,6-.78l6.13-.58,6-.27c2-.09,3.9,0,5.75,0l-2.83,0,5,.06,5.07.39c3.42.16,6.83.8,10.29,1.26.87.11,1.73.28,2.58.46l2.59.54,2.6.53c.87.17,1.74.36,2.6.6,3.44.92,6.93,1.76,10.37,2.9,13.86,4.25,27.55,10.25,41.22,16.44-9.81-4.46-7.5-3.55.53.07l3.16,1.55c5.2,2.31-8.35-3.85,2.3.92,10.21,4.66,6.83,3.23.94.59,4.15,1.87,8.29,3.76,12.46,5.58.72.35-2.22-.92-3-1.23,2.58,1.09,7.93,3.54,13.66,5.92s11.82,4.73,15.66,6l.71.28a222,222,0,0,0,35,9.05l3.75.67c1.25.21,2.5.35,3.75.53,2.5.32,5,.74,7.59,1l8,.78,8.72.53,6.12.11c1.68,0,3.58.12,5.51.07l5.72-.09a326.17,326.17,0,0,0,59.17-6.74c14.88-3.26,4.34-1,11-2.5.55-.12,6.09-1.41,10.11-2.44s6.53-1.73,1.11-.26c12.58-3.31,20.5-5.82,29.21-8.67s18.18-6.18,33.48-12.2c-3.33,1.27-7.08,2.71-5.15,1.94,5.58-2.13,12.62-5,11.85-4.65l-1.46.6c8.55-3.47,17.69-7.38,27-11.54s18.73-8.55,27.9-13c2.29-1.1,4.57-2.2,6.82-3.32l3.36-1.65,1.67-.82.41-.2a.71.71,0,0,0,.28-.21l.15-.16c.2-.2.44-.4.66-.6a16.92,16.92,0,0,1,1.42-1.11,13.52,13.52,0,0,1,1.51-1l1.54-.93,1.6-.79a64.14,64.14,0,0,1,6.46-2.71c8.69-3.06,17.19-4.23,24.44-5.22l-1.64.17c5.05-.47,10.08-1.15,15.16-1.27l7.6-.35h7.61c14,0-8.4,0,2,.1,4.1-.08,8,.16,11.7.32l5.45.25c1.77.08,3.51.13,5.21.31l9.86.85c3.18.3,6.29.48,9.32.9l18,2.23,18.92,2.92,2,.34,1.09.18.83.13.24,0s.1,0,.11,0v-.62q0-2.4,0-5.13c0-3.52,0-7.44,0-11.63,0-8.4,0-17.92,0-27.68,0-19.5,0-39.93.09-54.07l-.07,1.63c0-7.31.05-8.84.07-14.23-.05.77-.07,7.93-.1,3.39V.69c0-.15-.1-.12-.2-.12h-15.59l-23.69,0-48-.1L1736.86.17c-23.22-.06-13.17.48-42.45.23l8.31-.18L1561,.31c2.74,0,2.81-.12,7.29-.11-4.84-.08-13.8-.09-21.57-.06l-10.09.07-3.14,0c-.75,0-1.18,0-1.2,0-7.14,0-1.65-.12-6-.19-9.72-.1-24.4.19-29.56,0-.88,0,2.73-.05,4.51-.06-6.34.08-29.52,0-23.45.16-17.22-.1-32.94.07-46.67,0-9,.21-29.48-.11-32.32.19,1.23-.32-30.19-.27-41.08-.12,3.65-.1-9.46-.11-5.19-.24-12.43,0-23.81.05-21.65.22C1308-.16,1284.85.55,1272,0L1167.7.39c1.2-.35,36.7,0,35.27-.39-31.49.13-49.66.43-80.89.33-8.09,0,4.59-.15,7.32-.21-31.46.14-60.84,0-88.83.15,0,0,.81,0,1.93-.05l4,0c-5.52,0-12.83-.06-12.21.11l5.38-.05c8.81.24-21.91.5-22.9.63,9.37-.47-27.65-.12-12.78-.72-3.63,0-8.19.11-7.35.22-5.39,0-7.1-.1-1.64-.22C975.26.23,982.28.4,964.37.4a20,20,0,0,1,2.1-.1c1.14,0,2.51-.06,3.43-.11-9.06.16-18.17.31-33.3.25.91,0-.85-.11,3.66-.11-26,0-44.29.41-72.8.26,8.41-.34-9.7-.11-11.21-.41L840.92.27l6.15.15c-13.43,0-25.3.21-36.84.11l10-.12L795,.47l14.25.11c-13.59.16,1.45.38-16.42.3,3.63,0-13.44,0-20.44-.18h.05c-6.64.09-13.48.19-23.41.12-2.58-.09,2.08-.32.4-.39-6.56.25-31.45.08-39.75.34,2.76-.07,2.91-.22,2-.25l-5.5.2C700,.66,699.09.63,700.1.51c-18.72,0,5.94.36-16.27.21,1.74,0,.91,0,4.54-.08l-63.59,0c-6-.28,17.91-.07,11-.31-29.56.06-61.2.35-89.79.3l5.33,0c-4,.38-21.3-.17-35.76,0,3.54,0,4.64-.21,3.68-.17-19.58,0-40,.12-69.72.23l3.68-.09L410.33.62c-3.7.08-10.83.07-6.5.19C365.39.4,330.5,1.05,296.4.75c4.07,0,9.72-.07,6.47-.06L273.82.77c2.3.1,3.81,0,9.91.13C280.06,1,271.85,1,264.66,1c13.06-.07-.12-.16-5.76-.21,1,0-1,.07-.51.1-15.18-.17-2.54.19-23.26.08l1.09,0L213,1c-3.47-.1,8.25-.05,8.79-.13-11.75,0-23.18.18-33.81.09l17.15,0C193.51.81,192.17.84,183.57.83h.85L164.53.8l5.07,0c-14.7.22-29.93.05-49.74.18C139.11.9,123.05,1,124.52.87c-5.06,0-12.74,0-10.55-.06L85.14.87c-.59,0-10,0-7.9-.05-12.17,0,2.87,0,1.85.06L8,.93l-8,0c0,.41,0,.64,0,1V4.44C0,5.52,0,6.57,0,7.57c0,4,0,7.4,0,10.74,0,6.69,0,13.16,0,24,0,7.29,0-6,0-6,0,11.75,0,20.59,0,31.67,0-2.24,0,.07,0,3.45,0,8.88,0,5.94,0,17.66,0-2,0-4.59,0-8.88,0,10.48,0,20.82,0,31.67,0,2.87,0-6.55,0-10.37,0,12.19,0,31.57,0,35.34V129c0,4.44,0,2.29,0-1,0-10.44,0-15,0-15.65v7.72c0-7.95,0-31,0-46.56L.12,80l0-16c0-3.39,0-5.71.05,2,0-11.15,0-9.87,0-19.44,0-1.06,0-.58,0,.4l0-10.89c0,2.13,0-1.82,0,4.87,0-19.54,0-31.51,0-38.87v-1c0-.06.12,0,.18,0H9.57c1.83,0,1.95,0,1.85,0S10.19,1,20.36,1l13.69.13,2.67-.05c2.8,0,8.33,0,7.31,0,10.41,0-1.78,0,4.27-.06,13.46.05,37.13,0,40.16.08,4.83-.05-12.88,0,1.5-.08,4.1.12,16.62,0,28.92,0-3.78.07-15.43,0-3.12.1,7.42-.12,24,0,34.33,0,.12,0,1.59,0,4-.05h36l49,.14-.48,0c3.14-.14,19.85-.11,32-.14-.47.1-2.66.13-9.25.17h11.43c2.7-.05,6.27-.07,13.69-.09l-2.88.12c15.22,0,30.65-.12,50.24,0,1.1-.13-15.58-.36,5.13-.45.77.07,1.54.19-3.88.22,1.77,0,6.33-.06,9.9,0l-8.27.12c8.92.06,4.67-.1,11.8-.09-.14.11,5.28.08,4.25.16-1.82,0-6.22,0-8.95,0,8,0,17.76.09,21,.17-.7-.06,0-.14,5.89-.15,15.23,0,5.21.13,14.09.2,3.69-.08,13.4,0,13.65-.16,4.46,0,5.28.08,7,.13,7.88-.07,36.8,0,27.92-.19l-2,0h1.29c25.82-.18,53.64.12,79.26.05l0,.07c15.29-.07,34,0,45-.18,4.52,0,10.68.13,8.74.21,11.69,0,13-.13,29.89,0-11.75.12,4.06.11-12,.09,15.19.07,18.63.19,34.94,0-5.56.19,11.43.24,18.65.19l-10.64-.14H648.7l-3.9.25c31.09.32,56.06-.51,79.72,0,8.23-.18-16.88-.13-9.53-.34,14.3,0,29.2.41,33.68.41,19.59.15,18.28-.38,38.77-.27-2.62-.1-5.09-.35,10.22-.44,14.32,0,17.59.4,8.56.47-3.43,0-5.09,0-4.94,0-4.63,0-10.69.07-5,.18l1.86-.1c7.1.1,26.79.09,22.16.25,10.81-.09,4.63-.16-3.38-.21,18.35.14,28.67,0,47.56.1-3-.05-5.77-.16-2.78-.16,27.71.12,12.2-.18,31-.22,10.66.15-3.83.35,15.07.23,11.54.1,2.45.25-2.14.33,17.22-.19,32.17.12,42,.15l-9.07.08,14.39,0L947.73,2l6.9,0c1.78,0,2.88,0,2.83.08,5.49-.13-4.2-.32,6.69-.49,7.1.1,21.62-.11,24.07.15-22.33-.09,2.47.25-16.43.29,3.65,0,8.09,0,13.44,0,.8,0-.76.05-2.22.06,21.37.23,9.82-.28,32-.28-2.81.14,5.13.27,8.75.24-8.93,0-4.27-.24,3.91-.35,14.2.11,15.43-.08,22.87-.07l-8.49,0c2.88-.14,10-.12,19.88-.17.84.11-9,.08-5.46.13,11-.25,24.83.25,40.16.08,7.1.09.68.26,6.92.33,17.17-.19,18.6.18,36.65,0-5.2-.19-6.11-.14,6.6-.33l-29.68.14,19.05-.27-24.27.09c9.08-.16,8.14-.11,3.86-.27,12.25.28,24.29-.16,38.46,0l-.43.46c21.29.2,37.84-.24,65.49-.13l-8.89-.08c3.71-.18,17.08,0,26-.1-.83.15,4.77.2,8.59.29-.46-.11,20.24,0,22.75-.29l12.35.19c22.33.07,25.49-.42,47-.37-6.47.15,3.29.25-11.09.37h9.51l3,0a7.74,7.74,0,0,0,1.19-.05c4.18.09,19.87-.2,26.46-.06,3-.07,4-.21,12-.2.88,0,0,.07,0,.07l.54,0,1.33,0,3.56,0c2.27,0,3.65-.08.14-.15,22.07.43,61.7,0,80.92.32l48.69-.11a20.58,20.58,0,0,1-2.73.05c19.58.12,12-.37,34.33-.24,11.38.21-11.84.11-4.74.19,3.09.43,26.9-.06,41.9.18l-3.63,0c11.46.14,28-.17,46.7-.14,0,0-.91,0-.11.06,12.81-.21,37.06-.28,55.08-.34-5.6.15-8.18.08-4.76.23,8.08,0-2.37-.24,13.75-.29,5.25.08,16.88.15,18.42.3l-15.21,0c7.79.2,19.69,0,27.7,0l-1,.09c23.31-.05,23.63-.26,48.68-.25l-2.59-.06c13.69-.21,11.48.11,25.14-.05l4.13.2,47.84-.24c-9.18.14-28.13.22-39.86.31,9,0,30.43,0,35.09-.12-3.61,0-8.15.06-11.72,0q16.48-.24,43.29-.23c-3.17.34,46.5.07,59.45.29h1.17s0,0,.06,0V5.29l0,5.91q0,5.91,0,11.85V47.12c0,16.31,0,33.26,0,51.65.19-13,0,10.74.21,8.48,0,4.28,0,7.23,0,9.21v.36s-.07,0-.1,0l-.45-.07-1-.16-1.07-.17-12.82-2-6.41-1c-2.14-.33-4.29-.56-6.44-.84-6.11-.77,8.1.89,7.31.87l-20.12-2.63c1.26.21-.36,0-3.63-.32l-13.53-1.15,15,1.36c-13.07-1.06-18.7-1.69-24.4-1.88l-9.48-.47c-3.79-.08-8.53,0-15.14,0l8.36,0c-3.39,0-8.22-.1-13.75.26l-4.27.2-2.22.1c-.74,0-1.49.14-2.25.21-3,.32-6.13.58-9.23,1s-6.18.93-9.15,1.53l-4.36,1-2.1.48-2,.61-3.82,1.17c-1.2.43-2.33.91-3.4,1.32l-1.56.62-1.41.69c-.89.46-1.73.85-2.46,1.26-1,.63-2.25,1.33-2.54,1.52a23,23,0,0,1,2.86-1.78c-.89.51-1.76,1.06-2.65,1.59-.43.29-.84.62-1.26.93a11.67,11.67,0,0,0-1.22,1l-.29.27-.25.27-.63.31-1.4.7-2.84,1.4c-3.78,1.9-7.67,3.76-11.56,5.66-7.82,3.75-15.77,7.51-23.58,11s-15.46,6.81-22.63,9.81l-10.37,4.18c-3.33,1.27-6.46,2.52-9.41,3.61.76-.29,1.53-.59,2.28-.9-5.65,2.13-9.82,3.77-17,6.22.36-.15,2.28-.84-.36.08-1.5.56-5.3,1.84-9.68,3.3-2.18.75-4.53,1.46-6.8,2.17s-4.47,1.42-6.4,2c2.2-.62,4.36-1.36,6.53-2-15.08,4.66-26.83,7.67-38,10.16a349.22,349.22,0,0,1-35,6h-.27l-.8.07-3,.29c-1.25.12-2.74.29-4.4.43l-5.44.39c-3.86.34-8.13.42-12.19.62s-8,.1-11,.09h.44c-4.59-.14-9-.15-13.29-.49-2.14-.14-4.25-.22-6.32-.42l-6.13-.6c-2-.17-4-.46-6-.73l-5.84-.8-5.71-1c-1.9-.34-3.79-.65-5.64-1.09-3.73-.84-7.45-1.58-11.12-2.63l-5.54-1.47-5.53-1.73c-3.72-1.09-7.41-2.49-11.21-3.83s-7.62-2.91-11.53-4.6c-2.43-1-5.28-2.25-8.44-3.68s-6.67-3-10.41-4.72c-7.49-3.43-16-7.37-25-11.25a264.86,264.86,0,0,0-27.89-10.47,157,157,0,0,0-27.3-5.85c2.59.3,2.37.37.76.14l-7.66-.55c-2-.13-4.39-.09-6.81-.14s-4.9.19-7.08.27c-4.36.3-7.55.67-6.93.51l2.84-.26c-1.5.13-3.66.21-6.23.58l-4.14.53c-1.48.19-3,.49-4.61.74-3.19.5-6.56,1.22-9.94,1.88s-6.71,1.44-9.82,2.19l-2,.7c-16.33,3.62-37.55,9.57-57.51,11.07a179.59,179.59,0,0,1-27.63-.24c-4.07-.28-7.78-.76-11-1.11s-6.09-.82-8.34-1.17c-8-1-17.89-2.62-25.83-3.72l.45-.09c-11.07-1.67-19.42-2.75-28.47-3.48-4.52-.35-9.23-.59-14.54-.63a170.74,170.74,0,0,0-18.15.87c1.88-.26,3.76-.39,5.64-.59a143.7,143.7,0,0,0-17.42,2.24c-4.72.85-9.25,1.81-16.3,3.31-1.43.22-2.87.43-4.29.68-13.31,3-26.55,6.51-39.84,9.62l-10,2.18c-3.33.71-6.63,1.51-10,2.14l-10,1.91c-3.32.64-6.62,1.31-9.94,1.82.42-.14,1.21-.26,5.54-1.06-3.14.6-7.8,1.24-12.9,2.05-2.56.38-5.22.83-7.89,1.18l-7.87,1c-10.11,1.37-18.1,2-15.77,2-.08-.06-1.87.08-4.73.34s-6.8.7-11.2.94l-13.9,1L906,172l2.28-.27-7.5.41-5.71.13-6.63.09c-2.67,0-5.94.11-10.27,0-4.1-.13-3.59-.24,1.86-.05-6.84-.23-9.5-.25-12.53-.29s-6.42-.17-14.7-.68l6.18.23c-7-.4-10.26-.57-12.7-.68l-8-.52c-8.84-.49-26.54-2.86-28.59-3.23-1.89-.17-9.53-1.16-17.73-2.42-1.1-.22,1.89.18,3.4.38-1.45-.23-2.86-.42-4.22-.65l-4-.72L780,162.36l-6.52-1.14-6-1.22-11.09-2.28c-3.62-.83-7.25-1.76-11.18-2.74a26,26,0,0,0-2.63-.75l12.77,3.1,10.34,2.19,8.44,1.78c0-.14-14.73-3.29-2.94-1.05l-10.27-2c-1.9-.39-3.88-.74-5.89-1.2l-6.15-1.43c-4.15-1-8.4-1.92-12.47-3s-8-2.15-11.49-3.2l-1.84-.61,1.46.41-8.9-2.68c-4.47-1.45-7.3-2.39-11.57-3.83-1.62-.64-16.35-5.71-23.48-8.16.53.36-8.81-2.84-.1.27-1.13-.4,1.36.43,6.1,2.07l3,1-.49-.16c4.67,1.62,10.76,3.75,17.72,6.05-5.68-1.78-11.58-3.75-19.42-6.58l-10-3.15c-4.85-1.76-12-4.21-18.4-5.94s-12-2.75-13.37-3a69.9,69.9,0,0,0-18.51-.29A57.19,57.19,0,0,0,617.7,127a56,56,0,0,0-8.84,3.74c-1.41.7-2.74,1.52-4.05,2.32-.66.4-1.3.78-1.94,1.14s-1.25.76-1.91,1.06c-1.32.6-2.6,1.24-3.92,1.7l-1.93.73-1.91.61a129.14,129.14,0,0,1-13.15,3.27c-6.43,1.16-7.43,1.1-9.85,1.42,3.74-.54,8.17-1.24,10.16-1.67-6.4,1.27-16,2.46-24.41,3.25s-15.58,1.28-17.13,1.48c-16.46.93,9.23-.7-13.37.66l3-.23c-11.13.57-21.22,1-30.86,1.64s-18.83,1.28-28.12,2.58c-1.16.15-2.32.34-3.48.54l-1.75.3-1.74.35c-2.33.45-4.64,1.12-7,1.73s-4.7,1.18-7.11,1.76-4.88,1.07-7.41,1.49c-5,.93-10.3,1.68-15.85,2.18s-11.39.82-17.55.83l5.82-.07a190.85,190.85,0,0,1-21.23-.48c-7.11-.52-14.2-1.58-21.3-2.75s-14.22-2.36-21.28-3.87A207,207,0,0,1,328.75,147c-13.76-4.46-27.71-8.28-41.64-11.5l-5.24-1.13-5.27-.89c-1.75-.32-3.51-.54-5.27-.75s-3.51-.47-5.27-.64c-3.52-.29-7-.68-10.53-.82l-5.24-.28-5.22-.14c-7.9-.14-12.28,0-15.89.09s-6.44.24-11.26.5c-1.14,0-2.28.08-3.42.15l-8.22.61-8.21.74c-11.64,1.13-21.68,2.37-32.48,3.87s-22.33,3.31-36.91,5.89l3.77-.64c-10.49,1.76-33.13,6-31.39,5.69l-7.5,1.43-.32.05L67.6,154.17c-9.94,1.89-9.17,1.72-9.53,1.78l-16.4,3c-5.41,1-13.11,2.31-19,3.24s-9.86,1.49-7.82,1.2l7.28-1.09,4.24-.67c-3.3.55-6.61,1.06-9.92,1.55-.9.15-3.26.51-2.34.39s5.11-.64,17.27-2.66c5.65-1,11.29-2,16.92-3l5.44-1-14.22,2.59c8.08-1.41,13.18-2.4,18.9-3.48l7.08-1.32,16.56-3.21c2-.37-7.43,1.45,3.69-.67,7.76-1.51-7.45,1.39,5.4-1.08l15.19-2.86c1.34-.23-.67.14-4.43.86,8.44-1.61,22.35-4.13,26.71-4.89s11.37-2,17.36-2.9,10.84-1.68,10.42-1.6c2.66-.45,15-2.22,22.78-3.19-7.14,1,.18,0,8.83-1s18.64-1.76,16.75-1.56c2.65-.27,6.38-.48,10.78-.8s9.46-.52,14.78-.61a299.28,299.28,0,0,1,31.74.84c-1.05-.08-3.12-.3-4.78-.37,2.65.15,4.82.41,6.71.56l2.62.24,2.31.3c2.92.39,5.39.65,8.74,1.28.34,0,1.61.24,3.47.54s4.26.88,6.91,1.43c5.29,1.23,11.46,2.8,15.78,3.92,6.27,1.74,4.35,1.26,1.36.45s-7.07-1.81-5.11-1.25c-.3-.11,5.18,1.28,10.17,2.68s9.51,2.76,7.4,2.09c9.5,3,8.18,2.6,13.05,4.21,1.69.42,8.86,2.83,17,4.53,7,1.57,8,1.72,9,2s2.34.52,10.16,1.83c3.71.66,2.09.41-.46,0l-4-.66Zm368.05-3.81h0c-3.13-.87-5.77-1.7-7.47-2.19C722.56,149.84,724.7,150.52,728.47,151.57Zm30.76,7.65c-3.79-.74-8.44-2-13.38-3.15-1.07-.32.12-.1,3.21.65-.84-.18.55.18,2.72.73l3.67.92Zm-64-19.6c4.75,1.61,6.32,2.18,7,2.43l-8.29-2.82-.56-.18C693.8,139.18,694.32,139.33,695.23,139.62Z"/><path class="cls-2" d="M686.65,136.88l-2-.66,2.81,1,1.7.53Z"/><path class="cls-2" d="M433.28,1.29H434l-1.4,0Z"/><polygon class="cls-2" points="1191.95 149.78 1191.91 149.74 1189.15 149.42 1191.95 149.78"/><path class="cls-2" d="M258.9.8l-2.29,0Z"/><path class="cls-2" d="M183.57.83l-10.65,0Z"/><path class="cls-2" d="M125.65.84l-1.13,0h.11Z"/><path class="cls-2" d="M1046.52.17h2.23C1054,.12,1050.43.13,1046.52.17Z"/><path class="cls-2" d="M772.48.7l8.81-.11C776.41.58,772.62.57,772.48.7Z"/><path class="cls-2" d="M1352.53,0h0Z"/><path class="cls-2" d="M794,.59c-4.88,0-8.95,0-12.74,0C785.29.61,790,.63,794,.59Z"/><path class="cls-2" d="M0,126.51v2.79a1.33,1.33,0,0,1,0,.33Z"/><path class="cls-2" d="M0,129.63v0Z"/><path class="cls-2" d="M.05,139.25v-6.52C0,135,.05,137.77.05,139.25Z"/><path class="cls-2" d="M0,49.84V49C0,49.44,0,49.74,0,49.84Z"/><path class="cls-2" d="M0,26.54c0,5.56,0,13.94,0,21.7V26.54Z"/><path class="cls-2" d="M71.85,1.13l-19.52,0c3.41,0,7.9,0-1,0C76,1.24,46.27,1.11,71.85,1.13Z"/><path class="cls-2" d="M132.39,1.2c-10.49,0,.12.05-.43.06C138.61,1.24,140.22,1.24,132.39,1.2Z"/><path class="cls-2" d="M569.87,1.49l-1,.18C576.9,1.65,568.89,1.6,569.87,1.49Z"/><polygon class="cls-2" points="653.5 0.52 645.63 0.4 641.89 0.58 653.5 0.52"/><polygon class="cls-2" points="702.9 1.91 699.37 1.94 712.86 1.87 702.9 1.91"/><path class="cls-2" d="M1437.65,1.75l-2.44-.21C1429.75,1.58,1428.6,1.82,1437.65,1.75Z"/><path class="cls-2" d="M1754.85,1.41c3.45.08,12.38.13,17.87.05Z"/><polygon class="cls-2" points="1275.21 142.72 1281.4 141.19 1269.72 144.01 1275.21 142.72"/></g></g></svg>