<svg xmlns="http://www.w3.org/2000/svg" xmlns:xlink="http://www.w3.org/1999/xlink" viewBox="0 0 1958.64 2693"><defs><style>.cls-1{fill:url(#Degradado_sin_nombre_23);}.cls-2{opacity:0.35;}.cls-3{fill:#fff;}.cls-4{opacity:0.16;}.cls-5{opacity:0.66;}</style><linearGradient id="Degradado_sin_nombre_23" x1="-302.72" y1="2095.24" x2="2293.82" y2="596.13" gradientUnits="userSpaceOnUse"><stop offset="0" stop-color="#90c9dc"/><stop offset="0" stop-color="#97cee0"/><stop offset="0" stop-color="#a0d4e4"/><stop offset="0" stop-color="#a3d6e5"/><stop offset="0.57" stop-color="#4193b7"/><stop offset="1" stop-color="#307499"/></linearGradient></defs><title>Fondoclouds</title><g id="Capa_2" data-name="Capa 2"><g id="Capa_1-2" data-name="Capa 1"><path class="cls-1" d="M1949.64,0H29.64V2515.63h-1v153.55c37.48-17.82,72-3.71,86.92,4.45a88.16,88.16,0,0,0,40.56,11.21c15,.27,33-3.12,54-14.34,23.83-12.76,48.63-9.62,64.52-5.14a99.56,99.56,0,0,1,21.81,9.35c43.18,24.39,82.56,1.92,91.8-4.13a51.15,51.15,0,0,1,6.31-3.61c27.29-12.8,59-3.22,75.39,3.58a126,126,0,0,1,14.05,7.13c11.42,6.52,28.43,7.82,41.28,6.14,13.59-1.77,26.45-6.89,38.1-14.12,45.43-28.21,97.81,6.07,97.81,6.07,24.55,15,50.27,10,64.68,5a75.53,75.53,0,0,0,15.81-7.88c44-28.07,98.36,2.89,98.36,2.89,42.08,23.76,77.59-1.31,77.59-1.31,52.6-31.67,98.63,0,98.63,0,44.71,22.43,78.9,0,78.9,0,51.84-26.59,93.59-5.59,103.15,0a58.54,58.54,0,0,0,10.19,4.89c16.48,5.83,35,4.32,48.56,1.7a89.48,89.48,0,0,0,27.91-10.8c39.16-22.79,77.32-4,89.18,3.09a75.93,75.93,0,0,0,16,7.37,86.12,86.12,0,0,0,32.12,3.59c14.17-1,27.75-5.83,40.07-12.93,46.5-26.8,93.11,4.37,93.11,4.37a80.47,80.47,0,0,0,45.42,9.73,90.14,90.14,0,0,0,40.74-13.79c42.77-26.63,90-2.2,102.59,5.33a54.48,54.48,0,0,0,11.7,5.35,64.78,64.78,0,0,0,17.1,2.81,69.86,69.86,0,0,0,38.56-10.73c58.11-35.69,113.42,5.26,113.42,5.26l33.67,13.27-10-59.57h1Z"/><g class="cls-2"><path class="cls-3" d="M1387.45,318.68c4.41-.79,9.1-1.56,13.24.13s7.2,6.87,5,10.77c7.94-.69,16.57-1.21,23.22,3.18,2.09,1.37,4,3.23,6.37,3.91s5.18,0,7.76-.42,5.45-.63,7.58.88,2.63,5.31.32,6.54a5.54,5.54,0,0,1-1.8.5A50.62,50.62,0,0,1,1420,339.9c-3.19,4-8.72,5.51-13.83,5.24s-10-2-15-3.39a16.44,16.44,0,0,0-6.76-.82,19.07,19.07,0,0,0-5,1.79c-4.85,2.24-10,4.25-15.35,4s-10.9-3.14-12.65-8.18a23.75,23.75,0,0,1-22.1-6.38,55.58,55.58,0,0,1,28.58,2.39c-.28-3.74,3.42-6.82,7.15-7.25s7.38,1,10.84,2.49c-1.36-3.57,1.83-8,5.64-7.88,1.24.05,2.47.49,3.69.26s2.36-1.58,1.73-2.64"/></g><g class="cls-4"><path class="cls-3" d="M310,290.4c11.2-2,23.11-4,33.65.32s18.27,17.45,12.69,27.36c20.17-1.75,42.08-3.08,59,8.06,5.31,3.5,10.06,8.21,16.18,9.95,6.39,1.82,13.17.1,19.71-1.06s13.84-1.62,19.26,2.22,6.67,13.5.81,16.62a14.07,14.07,0,0,1-4.57,1.27,128.65,128.65,0,0,1-74.06-10.84c-8.08,10.19-22.14,14-35.13,13.3s-25.45-5.13-38-8.61c-5.6-1.56-11.43-2.94-17.19-2.09-4.49.67-8.67,2.67-12.8,4.57-12.32,5.67-25.41,10.79-39,10.28s-27.69-8-32.15-20.79a60.32,60.32,0,0,1-56.13-16.21,141.43,141.43,0,0,1,72.6,6.07c-.73-9.5,8.68-17.31,18.15-18.41s18.74,2.65,27.54,6.32c-3.44-9.07,4.64-20.35,14.33-20,3.14.11,6.28,1.22,9.37.66s6-4,4.39-6.72"/></g><g class="cls-4"><path class="cls-3" d="M1688,290.28c11.2-2.17,23.11-4.26,33.65.34s18.27,18.7,12.69,29.32c20.17-1.87,42.08-3.3,59,8.64,5.31,3.76,10.06,8.8,16.18,10.66,6.39,1.95,13.17.12,19.71-1.13s13.84-1.73,19.26,2.38,6.67,14.47.81,17.81a13.49,13.49,0,0,1-4.57,1.36A120.92,120.92,0,0,1,1770.66,348c-8.08,10.93-22.14,15-35.13,14.26s-25.45-5.5-38-9.23c-5.6-1.67-11.43-3.15-17.19-2.24-4.49.72-8.67,2.86-12.8,4.89-12.32,6.08-25.41,11.57-39,11s-27.69-8.55-32.15-22.28c-19.81,5.09-41.9-1.75-56.13-17.38a132.49,132.49,0,0,1,72.6,6.51c-.73-10.18,8.68-18.55,18.15-19.73s18.74,2.84,27.54,6.77c-3.44-9.72,4.64-21.81,14.33-21.44,3.14.12,6.28,1.31,9.37.71s6-4.3,4.39-7.2"/></g><g class="cls-2"><path class="cls-3" d="M1387.22,1828.3c-13.56-2.44-28-4.81-40.76.39s-22.13,21.14-15.37,33.14c-24.43-2.11-51-3.72-71.46,9.77-6.44,4.25-12.19,9.94-19.6,12.05-7.74,2.21-16,.13-23.88-1.28-8.33-1.48-17.68-2-24.33,3.45a12.93,12.93,0,0,0-4,14.83c2,4.76,5.8,5.51,9.51,6.08a155.81,155.81,0,0,0,89.72-13.13c9.79,12.35,26.82,16.94,42.56,16.11s30.83-6.21,46-10.43c6.79-1.88,13.85-3.56,20.82-2.52,5.45.8,10.51,3.22,15.51,5.52,14.93,6.87,30.79,13.08,47.21,12.47s33.54-9.67,39-25.19a70.86,70.86,0,0,0,26.87,1.07c14.59-2.18,11.85-24.16-2.84-22.84-13.48,1.22-23.55-1.52-35.64,1.52a4,4,0,0,1-4.81-2.64c-2.55-8.22-15.51-10.54-25.52-11.7-11.46-1.33-22.71,3.21-33.36,7.65,4.17-11-5.63-24.65-17.37-24.23-3.8.14-7.6,1.49-11.35.8s-7.26-4.86-5.31-8.13"/></g><g class="cls-5"><g class="cls-2"><path class="cls-3" d="M186.1,992.8a7,7,0,0,1,2.51-1.31C187.78,991.94,186.93,992.36,186.1,992.8Z"/></g><g class="cls-2"><path class="cls-3" d="M55.84,907.65c11.67-11.6,14-30.38,25.94-41.66,13.11-12.34,33.73-11.94,51.17-7.49,18,4.59,35.77,13.25,46.64,28.28,7.74,10.7,16,26.3,28.82,23.14,6-1.47,10-6.82,14.74-10.64,13.87-11.08,34.79-8.77,50,.32s26.31,23.61,37.68,37.23c1.33,1.59,2.82,3.26,4.84,3.67s4.08-.56,5.9-1.57c7.63-4.2,14.82-9.36,23.07-12.16s18.12-2.82,24.86,2.7c11.92,9.74,36.87,36.8,42.71,35.44,12.55-2.92,26.63-2.11,37.09,5.41s15.68,22.89,9.19,34c-6,10.28-19,13.81-30.87,15a154.86,154.86,0,0,1-99.87-24.3c-3.41-2.24-7.33-4.72-11.27-3.67-2.65.71-4.6,2.88-6.53,4.83-26,26.35-68.27,25.86-104.91,20.54-7-1-14.59-2.46-19.32-7.73-4.06-4.53-4.05-12.78.35-16.25.83-.44,1.68-.86,2.51-1.31a7,7,0,0,0-2.51,1.31c-46.68,24.25-101.95,21.25-154.95,13.8V913.44C42.64,912,55.84,907.65,55.84,907.65Z"/></g><path class="cls-3" d="M3.54,988.83,0,987.69A3.22,3.22,0,0,1,3.54,988.83Z"/></g><g class="cls-2"><path class="cls-3" d="M354.84,1829.05c-10.81-7.65-25.37-6.75-38.41-4.42s-26.56,5.73-39.3,2.11c-12.21-3.48-21.67-12.85-32.27-19.84-33.71-22.21-77.41-19.56-117.63-16.08,11.14-19.76-4.3-46-25.3-54.55s-44.77-4.67-67.09-.64l-2.64,4.53c2.13,3.59.26,7.84-3.05,10.61v97.08c8.32.33,16.63,2.37,24.71,4.61,25,7,49.83,15.81,75.74,17.17s53.94-6.19,70.06-26.53a256.39,256.39,0,0,0,147.68,21.62,28.51,28.51,0,0,0,9.11-2.52C368.14,1856,365.66,1836.7,354.84,1829.05Z"/></g></g></g></svg>