<svg xmlns="http://www.w3.org/2000/svg" viewBox="0 0 745.08 375.12"><defs><style>.cls-1{fill:#f1f5f4;}.cls-2{fill:#89c7d6;}.cls-3{fill:#79bccd;}.cls-4{fill:#deede8;}.cls-5{fill:#c8cece;}.cls-6{fill:#7abccc;}.cls-7{fill:#68abbe;}.cls-8{fill:#9ccddb;}</style></defs><title>Mascarilla</title><g id="Capa_2" data-name="Capa 2"><g id="Capa_1-2" data-name="Capa 1"><path class="cls-1" d="M107.32,244.65c-.14,30.25,58.23,66.7,80.84,81.11,70.33,44.84,156.64,58.24,238.2,43.8a381.5,381.5,0,0,0,117.87-41.49c28.37-15.67,87.54-46.42,87.23-84.08-.09-11-3.39-21.67-6.16-32.32a347,347,0,0,1-8.61-129.14C618,72.24,619.56,61.27,615.05,52c-10.69-22.05-57.24-8.83-75.1-8.1-30.29,1.25-60.11-3.49-89-12.43S390,1.52,359.1,5.27c-17.67,2.14-31.74,12.19-46.92,20.43-16.09,8.74-33.5,13.3-51.78,16-38.57,5.62-77.73,2.2-116.53,2.9-5.46.1-11.27.39-15.74,3.53-17.33,12.21-3.65,72.07-3.75,89.58a355.11,355.11,0,0,1-6,63.08C116.4,211.43,107.38,230.84,107.32,244.65Z"/><path class="cls-2" d="M144.31,78.46S154,191.55,126.38,241.19c0,0,84.81,91.71,181.34,102.74s146.19-4.13,146.19-4.13,93.77-27.58,158.59-99.3c0,0-26.2-40-19.31-164.11,0,0-136.53,15.17-194.45-22.06,0,0-20.38-28.32-48.84-9-10.14,6.88-26.34,16.38-38,20C280.14,75.24,223.81,85.44,144.31,78.46Z"/><path class="cls-3" d="M144.31,78.46s5.77,114-10.91,146.63c0,0,24,7.14,28.14-129.39,0,0,146.18,4.14,184.8-27.58,10-8.2,19.17-15.12,24-27.67-11.1-1.7-21.43,5.19-31.15,10.82C319.39,62.76,297.29,70,274.78,74.35,244.55,80.16,213,81.42,182.32,81,179,80.92,144.48,80.46,144.31,78.46Z"/><path class="cls-4" d="M606.29,63.29V78.46S657,44.68,686.09,21.13A39.54,39.54,0,0,1,718,12.71c7.86,1.45,16.58,5.56,24.78,14.73,0,0-24.82-45.51-63.44-19.31S649,37.09,606.29,63.29Z"/><path class="cls-5" d="M728.6,17c5.28,3-.78,55.78-1.65,61.65a257,257,0,0,1-16.89,60.95c-16.24,39.07-41.45,75.17-79.2,95.84-.44.24,1.94,6,2.18,6.48,2.52,4.79,1.15,4.55,6.46,4.05,8-.73,16.93-11.37,22.83-16.06C687.18,210.19,706,190.19,718.91,161c13-29.49,20.39-61.21,24.81-93.06,2.06-14.86,4.56-46.24-15.39-51A1,1,0,0,1,728.6,17Z"/><path class="cls-4" d="M138.79,63.29V78.46S88.12,44.68,59,21.13A39.54,39.54,0,0,0,27,12.71c-7.86,1.45-16.57,5.56-24.78,14.73,0,0,24.82-45.51,63.44-19.31S96,37.09,138.79,63.29Z"/><path class="cls-5" d="M16.48,17c-5.27,3,.79,55.78,1.65,61.65A256.51,256.51,0,0,0,35,139.6c16.23,39.07,41.44,75.17,79.19,95.84.44.24-1.94,6-2.18,6.48-2.52,4.79-1.15,4.55-6.46,4.05-8-.73-16.93-11.37-22.83-16.06C57.9,210.19,39.12,190.19,26.18,161c-13-29.49-20.4-61.21-24.81-93.06C-.7,53-3.2,21.66,16.75,16.89A1,1,0,0,0,16.48,17Z"/><path class="cls-6" d="M367.71,46.05l2.76,295.82S471.14,375,613.19,239.81c0,0-24.83-73.09-20.69-161.35,0,0-152.38,7.59-193.76-24.13S367.71,46.05,367.71,46.05Z"/><path class="cls-7" d="M166.37,137.76S387,216.37,596.64,133.63c0,0-171.69,31-242,26.89S208.43,149.49,166.37,137.76Z"/><path class="cls-8" d="M166.37,139.87S387,179.94,596.64,137.76c0,0-171.69,15.82-242,13.71S208.43,145.85,166.37,139.87Z"/><path class="cls-7" d="M149.82,198.44S379,277.05,596.64,194.31c0,0-178.3,31-251.34,26.89S193.5,210.16,149.82,198.44Z"/><path class="cls-8" d="M149.82,199.17S379,239.24,596.64,197.06c0,0-178.3,15.82-251.34,13.71S193.5,205.15,149.82,199.17Z"/><path class="cls-7" d="M138.79,244s234.79,78.61,457.85-4.14c0,0-182.7,31-257.54,26.9S183.55,255.67,138.79,244Z"/><path class="cls-8" d="M138.79,241.6s234.79,60.1,457.85-3.16c0,0-182.7,23.72-257.54,20.56S183.55,250.56,138.79,241.6Z"/></g></g></svg>