<svg xmlns="http://www.w3.org/2000/svg" viewBox="0 0 546.71 111.82"><defs><style>.cls-1{fill:#ccc;}.cls-2{fill:#444343;}.cls-3{fill:#fff;}</style></defs><title>NumeroyBOTON</title><g id="Capa_2" data-name="Capa 2"><g id="Capa_1-2" data-name="Capa 1"><rect class="cls-1" x="154.31" y="10.88" width="392.4" height="100.94" rx="12"/><rect class="cls-2" x="136.1" width="389.11" height="95.79" rx="12"/><path class="cls-3" d="M164.59,62.69v-28c0-8.51,4.49-13.38,12.7-13.38S190,26.21,190,34.72v28c0,8.51-4.49,13.38-12.69,13.38S164.59,71.2,164.59,62.69Zm17,.53v-29c0-3.8-1.67-5.25-4.33-5.25S173,30.39,173,34.19v29c0,3.8,1.68,5.25,4.34,5.25S181.62,67,181.62,63.22Z"/><path class="cls-3" d="M194.92,62.69v-1h7.9v1.52c0,3.8,1.67,5.25,4.33,5.25,3,0,4.64-1.45,4.64-6.54V51.75h-.15c-1.45,3-3.88,4.63-7.6,4.63-6.16,0-9.28-4.33-9.28-12.16v-9.5c0-8.51,4.49-13.38,12.7-13.38s12.69,4.87,12.69,13.38V62.23c0,9-4.1,13.84-12.77,13.84C199.17,76.07,194.92,71.2,194.92,62.69Zm16.87-19.15V34.11c0-3.49-1.44-5.17-4.33-5.17s-4.33,1.68-4.33,5.17v9.43c0,3.57,1.44,5.24,4.33,5.24S211.79,47.11,211.79,43.54Z"/><path class="cls-3" d="M225.62,62.69V35.18c0-9,4.1-13.84,12.77-13.84,8.21,0,12.46,4.87,12.46,13.38v1H243V34.19c0-3.8-1.67-5.25-4.33-5.25-3,0-4.64,1.45-4.64,6.54V45.67h.15a7.7,7.7,0,0,1,7.6-4.64c6.16,0,9.27,4.33,9.27,12.16v9.5c0,8.51-4.48,13.38-12.69,13.38S225.62,71.2,225.62,62.69Zm17,.61V53.87c0-3.57-1.44-5.24-4.33-5.24S234,50.3,234,53.87V63.3c0,3.49,1.44,5.17,4.33,5.17S242.64,66.79,242.64,63.3Z"/><path class="cls-3" d="M268,62.84V58.51h7.9v4.71c0,3.8,1.68,5.25,4.34,5.25s4.33-1.3,4.33-6V58.13c0-4.94-1.67-6.76-5.47-6.76h-2.81V43.76h3c3.11,0,5-1.36,5-5.62V34.26c0-3.8-1.75-5.32-4.18-5.32s-4,1.45-4,4.94v3.5h-7.9V34.57c0-8.51,4.25-13.23,12.24-13.23S292.65,26,292.65,34.49v1.9c0,5.7-1.82,9.2-5.93,10.72v.15c4.49,1.67,6.16,5.55,6.16,11v4.71c0,8.51-4.26,13.15-12.46,13.15S268,71.35,268,62.84Z"/><path class="cls-3" d="M298.81,69.53c0-7.6,2.12-12.24,8.36-18.77C313.55,44,315.38,40,315.38,35c0-4.78-1.68-6.08-4.34-6.08s-4.33,1.45-4.33,5.25v5.7h-7.9V34.72c0-8.51,4.25-13.38,12.46-13.38s12.47,4.87,12.47,13.38c0,6.31-2.59,11.93-10.34,20.14-5,5.32-6.31,8-6.31,11.71v1.14H323v7.6H298.81Z"/><path class="cls-3" d="M341.06,34.72h-8.74V28.79c7.07,0,9.58-1.52,11.48-6.69h5.62V75.31h-8.36Z"/><path class="cls-3" d="M371.31,62.84V58.51h7.9v4.71c0,3.8,1.67,5.25,4.33,5.25s4.34-1.3,4.34-6V58.13c0-4.94-1.67-6.76-5.48-6.76h-2.81V43.76h3c3.12,0,5-1.36,5-5.62V34.26c0-3.8-1.75-5.32-4.18-5.32s-4,1.45-4,4.94v3.5h-7.9V34.57c0-8.51,4.25-13.23,12.23-13.23S396,26,396,34.49v1.9c0,5.7-1.82,9.2-5.93,10.72v.15c4.49,1.67,6.16,5.55,6.16,11v4.71c0,8.51-4.26,13.15-12.47,13.15S371.31,71.35,371.31,62.84Z"/><path class="cls-3" d="M401.63,62.69v-1h7.91v1.52c0,3.8,1.67,5.25,4.33,5.25,3,0,4.63-1.45,4.63-6.54V51.75h-.15c-1.44,3-3.87,4.63-7.6,4.63-6.15,0-9.27-4.33-9.27-12.16v-9.5c0-8.51,4.48-13.38,12.69-13.38s12.69,4.87,12.69,13.38V62.23c0,9-4.1,13.84-12.76,13.84C405.89,76.07,401.63,71.2,401.63,62.69ZM418.5,43.54V34.11c0-3.49-1.44-5.17-4.33-5.17s-4.33,1.68-4.33,5.17v9.43c0,3.57,1.44,5.24,4.33,5.24S418.5,47.11,418.5,43.54Z"/><path class="cls-3" d="M432.49,62.69V58.51h7.9V63.3c0,3.8,1.67,5.17,4.33,5.17s4.34-1.37,4.34-5.17V51.37c0-3.8-1.68-5.25-4.34-5.25s-4.33,1.45-4.33,5.25v.45h-7.9L434,22.1h22v7.6H441.46l-.69,12.7h.15a7.86,7.86,0,0,1,7.22-3.88c6.16,0,9.28,4.33,9.28,12.16v12c0,8.51-4.26,13.38-12.47,13.38S432.49,71.2,432.49,62.69Z"/><path class="cls-3" d="M462.89,62.69V58.51h7.9V63.3c0,3.8,1.67,5.17,4.33,5.17s4.34-1.37,4.34-5.17V51.37c0-3.8-1.68-5.25-4.34-5.25s-4.33,1.45-4.33,5.25v.45h-7.9l1.52-29.72h22v7.6h-14.6l-.68,12.7h.15a7.86,7.86,0,0,1,7.22-3.88c6.16,0,9.28,4.33,9.28,12.16v12c0,8.51-4.26,13.38-12.47,13.38S462.89,71.2,462.89,62.69Z"/><path class="cls-2" d="M48.7,2A46.65,46.65,0,0,0,8.77,72.77a47.18,47.18,0,0,0,4.93,6.7l3.13-9.32A38.42,38.42,0,1,1,28.29,81.23L19,84.64A46.64,46.64,0,1,0,48.7,2Z"/><path class="cls-2" d="M19.63,84.43,11.18,87l2.55-7.61s-2.17-9-5-6.87L0,97.45l25.93-8.27S22.61,84.32,19.63,84.43Z"/><path class="cls-2" d="M39,46.52s6.24,11.22,15.59,14a2.48,2.48,0,0,0,3.62-1.38c1.12-2.74,2.25-3.24,2.25-3.24a3.9,3.9,0,0,1,4.11-.25c2.12,1.25,7.61,4,7.61,4s2.74,0,1.25,4.12S71,71,64.78,71.46a13.12,13.12,0,0,1-5.74,0c-1.89-.46-18.1-2.13-29.55-24.07,0,0-6.47-8.43,0-19.21,0,0,3.49-3.86,7.1-2.66s5.24,7.4,5.62,11.4c0,0,1.12,2.49-2.25,5.23A2.81,2.81,0,0,0,39,46.52Z"/></g></g></svg>