<svg xmlns="http://www.w3.org/2000/svg" viewBox="0 0 453.69 292.55"><defs><style>.cls-1{fill:#fff;}.cls-2{fill:#68abbe;}.cls-3{fill:#9ac8d6;}.cls-4{fill:#444343;}.cls-5{fill:#89c7d6;}.cls-6{fill:#454140;}.cls-7{fill:#22201e;opacity:0.62;}</style></defs><title>Peaje</title><g id="Capa_2" data-name="Capa 2"><g id="Capa_1-2" data-name="Capa 1"><rect class="cls-1" x="255.06" y="44.53" width="167.29" height="248.02"/><rect class="cls-2" x="274.6" y="57.11" width="128.22" height="102.89"/><rect class="cls-3" x="280.2" y="60.17" width="118.44" height="95.05"/><path class="cls-4" d="M433.09,60.6H245.35c-3.91,0-6.38-5.93-4.47-10.74L259.21,3.7c.91-2.29,2.62-3.7,4.48-3.7H414.75c1.86,0,3.57,1.41,4.48,3.7l18.33,46.16C439.48,54.67,437,60.6,433.09,60.6Z"/><rect class="cls-5" x="235.52" y="173.52" width="64.72" height="105.51" rx="30.95"/><rect class="cls-2" x="271.34" y="185.73" width="20.76" height="22.67" rx="9.93"/><rect class="cls-2" x="268.08" y="217.56" width="24.02" height="18.31" rx="9.16"/><rect class="cls-6" x="222.49" y="276.85" width="231.2" height="15.7" rx="7.85"/><path class="cls-7" d="M307.16,155.21s14.15-.47,33.86-.29,39.81.29,39.81.29S366.55,134,353.56,130.36c0,0-1.54-3.81-2.16-3.81s-2.38-.09-2.21-.91c0,0,0-1.37.71-1.83a6.41,6.41,0,0,0,1.5-2.36,13.67,13.67,0,0,0,.27-2.37s2.12-.91,2.91-4.19-.35-3.92-.53-3.74,1.86-8.29-.26-12.84-7.6-6.92-12.46-6.74-9.37,1.91-11.76,5.55-1.15,9.57-1.15,9.57l.71,4.37s-.71-.09-.88,1.19.08,5.37,3.09,6.83c0,0,.09,3.19,1.59,4.64s.62,2.92-.09,2.65-1.32,0-2.12,1.18-.79,2.82-5.48,4.55S309.24,153.25,307.16,155.21Z"/><rect class="cls-2" y="196.93" width="253.85" height="20.64" rx="7.5"/></g></g></svg>