<svg xmlns="http://www.w3.org/2000/svg" viewBox="0 0 197.19 54"><defs><style>.cls-1{fill:#7abccc;}</style></defs><title>Servicio</title><g id="Capa_2" data-name="Capa 2"><g id="Capa_1-2" data-name="Capa 1"><path class="cls-1" d="M0,40.8v-3H7.8v3.6c0,3.75,1.65,5.1,4.28,5.1s4.27-1.35,4.27-5.25c0-4.35-1.65-7.13-7-11.85C2.4,23.33.15,19.05.15,13.05.15,4.8,4.43,0,12.45,0s12,4.8,12,13.2v2.18h-7.8v-2.7c0-3.75-1.5-5.18-4.13-5.18s-4.12,1.43-4.12,5c0,3.83,1.72,6.61,7.13,11.33,6.9,6.08,9.07,10.27,9.07,16.8C24.6,49.2,20.25,54,12.15,54S0,49.2,0,40.8Z"/><path class="cls-1" d="M29.34.75h22.5v7.5H37.59V22.12H48.92v7.5H37.59V45.75H51.84v7.5H29.34Z"/><path class="cls-1" d="M56.58.75H68.8C77.35.75,81,4.73,81,12.82v3.23c0,5.4-1.73,8.85-5.4,10.35v.15c4.12,1.28,5.47,5.17,5.47,11.1v9.23a15.52,15.52,0,0,0,.9,6.37H73.6c-.45-1.35-.75-2.17-.75-6.45V37.2c0-4.87-1.42-6.45-5.17-6.45H64.83v22.5H56.58Zm11.25,22.5c3.08,0,5-1.35,5-5.55v-4c0-3.75-1.28-5.4-4.2-5.4H64.83v15Z"/><path class="cls-1" d="M84.35.75h8.32l5.4,40.73h.15L103.62.75h7.57l-7.94,52.5h-11Z"/><path class="cls-1" d="M115.19.75h8.25v52.5h-8.25Z"/><path class="cls-1" d="M129.07,41.1V12.9c0-8.1,4.2-12.9,12.15-12.9s12.14,4.8,12.14,12.9v5.55h-7.79V12.38c0-3.45-1.65-4.88-4.13-4.88s-4.12,1.43-4.12,4.88V41.7c0,3.45,1.65,4.8,4.12,4.8s4.13-1.35,4.13-4.8v-8h7.79V41.1c0,8.1-4.19,12.9-12.14,12.9S129.07,49.2,129.07,41.1Z"/><path class="cls-1" d="M158.33.75h8.25v52.5h-8.25Z"/><path class="cls-1" d="M172.14,40.8V13.2c0-8.4,4.42-13.2,12.52-13.2s12.53,4.8,12.53,13.2V40.8c0,8.4-4.43,13.2-12.53,13.2S172.14,49.2,172.14,40.8Zm16.8.52V12.68c0-3.75-1.65-5.18-4.28-5.18s-4.27,1.43-4.27,5.18V41.32c0,3.75,1.65,5.18,4.27,5.18S188.94,45.07,188.94,41.32Z"/></g></g></svg>