<svg xmlns="http://www.w3.org/2000/svg" viewBox="0 0 855 199"><defs><style>.cls-1,.cls-2{fill:#fff;}.cls-1{opacity:0.35;}</style></defs><title>SpotiTexto</title><g id="Capa_2" data-name="Capa 2"><g id="Capa_1-2" data-name="Capa 1"><path class="cls-1" d="M0,0H855a0,0,0,0,1,0,0V199a0,0,0,0,1,0,0H187.07A187.07,187.07,0,0,1,0,11.93V0A0,0,0,0,1,0,0Z"/><path class="cls-2" d="M78.51,36V71.2H76.42V36H67V33.91H88V36Z"/><path class="cls-2" d="M100.52,71.51A9.23,9.23,0,0,1,93.69,69a9,9,0,0,1-2.61-6.41V48.28h2.11V62.39a6.72,6.72,0,0,0,2.11,5,7.09,7.09,0,0,0,5.2,2.08,6.84,6.84,0,0,0,5-2.07,6.74,6.74,0,0,0,2.1-5V48.28h2.11V62.57a8.79,8.79,0,0,1-9.18,8.94Zm5-32.4-5.72,4.35h-2l3.8-4.35Z"/><path class="cls-2" d="M127.81,48.31h2.11v3.22A13.38,13.38,0,0,1,131.24,50a12.8,12.8,0,0,1,18.09,18.1,12.76,12.76,0,0,1-18.09,0,13.38,13.38,0,0,1-1.32-1.53V79.92h-2.11Zm2.11,8.57v4.38a10,10,0,0,0,2.88,5.27,10.57,10.57,0,1,0,15-15,10.59,10.59,0,0,0-17.84,5.3Z"/><path class="cls-2" d="M169.34,46.25a12.77,12.77,0,0,1,12.79,12.82A12.79,12.79,0,1,1,160.31,50,12.34,12.34,0,0,1,169.34,46.25Zm-7.47,5.33a10.54,10.54,0,1,0,7.47-3.11A10.21,10.21,0,0,0,161.87,51.58Z"/><path class="cls-2" d="M188.75,53.42V71.2h-2.11V48.31h2.11v1.48a9.1,9.1,0,0,1,6.64-2.85,8.79,8.79,0,0,1,9.21,8.94V71.2h-2.09V56.09a6.7,6.7,0,0,0-2.11-5,7.14,7.14,0,0,0-10,0A7.6,7.6,0,0,0,188.75,53.42Z"/><path class="cls-2" d="M210.87,57.88a8.79,8.79,0,0,0-.08,1.19,10.57,10.57,0,0,0,18.06,7.43,13.18,13.18,0,0,0,1-1.11l2.25.8a11.46,11.46,0,0,1-1.66,1.89,12.8,12.8,0,0,1-21.86-9A12.81,12.81,0,0,1,230.44,50a10.82,10.82,0,0,1,3.29,7.88Zm.4-2.14h20.09a9.89,9.89,0,0,0-2.51-4.16,10.56,10.56,0,0,0-15,0A10.81,10.81,0,0,0,211.27,55.74Z"/><path class="cls-2" d="M243.22,58.91a17.32,17.32,0,0,1-3.69-2.48,5.29,5.29,0,0,1-1.61-3.88,5.36,5.36,0,0,1,1.61-3.89A5.27,5.27,0,0,1,243.41,47a5.09,5.09,0,0,1,3.77,1.51,4.58,4.58,0,0,1,1.45,3.32V52l-1.82.74a4.61,4.61,0,0,0-1.11-2.66,3,3,0,0,0-2.29-.9,3.31,3.31,0,0,0-2.4,1,3.38,3.38,0,0,0,0,4.8,14,14,0,0,0,2.45,1.8,19.2,19.2,0,0,1,4.25,2.87,6.84,6.84,0,0,1,0,9.61,6.78,6.78,0,0,1-9.6,0,6.09,6.09,0,0,1-2-4.36l2.08-.53a4.61,4.61,0,0,0,1.39,3.41,4.48,4.48,0,0,0,3.31,1.39,4.76,4.76,0,0,0,4.72-4.75,4.45,4.45,0,0,0-1.4-3.29A20,20,0,0,0,243.22,58.91Z"/><path class="cls-2" d="M270.06,33.91V71.2H268V33.91Z"/><path class="cls-2" d="M300.2,71.2h-2.11V66.53a14.82,14.82,0,0,1-1.32,1.55,12.79,12.79,0,0,1-21.85-9A12.8,12.8,0,0,1,296.77,50a14.82,14.82,0,0,1,1.32,1.55V48.31h2.11Zm-2.11-10.08V57a10.49,10.49,0,1,0,0,4.14Z"/><path class="cls-2" d="M318.55,48.31h2.11v.55a6.72,6.72,0,0,1,10.39,1.24,8.74,8.74,0,0,1,1-1.16,6.81,6.81,0,0,1,9.6,0,6.77,6.77,0,0,1,2,4.59V71.2h-2.11V53.53h0a4.46,4.46,0,0,0-1.37-3.09,4.73,4.73,0,0,0-6.66,0,4.65,4.65,0,0,0-1.38,3.43V71.2H330V53.53h0a4.74,4.74,0,0,0-4.72-4.46,4.53,4.53,0,0,0-3.3,1.37,4.6,4.6,0,0,0-1.37,2.9V71.2h-2.11Z"/><path class="cls-2" d="M358,71.51A9.22,9.22,0,0,1,351.12,69a8.94,8.94,0,0,1-2.61-6.41V48.28h2.11V62.39a6.69,6.69,0,0,0,2.11,5,7.06,7.06,0,0,0,5.19,2.08,6.88,6.88,0,0,0,5-2.07,6.76,6.76,0,0,0,2.09-5V48.28h2.11V62.57A8.79,8.79,0,0,1,358,71.51Zm5-32.4-5.72,4.35h-1.95l3.79-4.35Z"/><path class="cls-2" d="M378,58.91a16.8,16.8,0,0,1-3.69-2.48,5.29,5.29,0,0,1-1.61-3.88,5.36,5.36,0,0,1,1.61-3.89A5.25,5.25,0,0,1,378.14,47a5.07,5.07,0,0,1,3.77,1.51,4.54,4.54,0,0,1,1.45,3.32V52l-1.81.74a4.61,4.61,0,0,0-1.11-2.66,3.06,3.06,0,0,0-2.3-.9,3.39,3.39,0,0,0-2.4,5.8,14.65,14.65,0,0,0,2.46,1.8,19.09,19.09,0,0,1,4.24,2.87,6.79,6.79,0,1,1-9.6,9.61,6.11,6.11,0,0,1-2-4.36l2.08-.53a4.64,4.64,0,0,0,1.38,3.41,4.71,4.71,0,0,0,8-3.36A4.44,4.44,0,0,0,381,61.1,20.56,20.56,0,0,0,378,58.91Z"/><path class="cls-2" d="M392.05,40.82a1.93,1.93,0,0,1,.62,1.45,2.1,2.1,0,0,1-2.08,2.11,2.1,2.1,0,0,1-2.11-2.11,2,2,0,0,1,.62-1.45,2.07,2.07,0,0,1,1.49-.61A2,2,0,0,1,392.05,40.82Zm-.43,7.49V71.2h-2.09V48.31Z"/><path class="cls-2" d="M417.14,65.68l2.22.82A14.45,14.45,0,0,1,418,68.08a12.79,12.79,0,0,1-21.85-9A12.8,12.8,0,0,1,418,50a14.45,14.45,0,0,1,1.38,1.58l-2.22.82c-.23-.29-.47-.57-.74-.85a10.27,10.27,0,0,0-7.49-3.08A10.57,10.57,0,0,0,398.37,59a10.55,10.55,0,0,0,18,7.46A8.18,8.18,0,0,0,417.14,65.68Z"/><path class="cls-2" d="M448,71.2h-2.11V66.53a16,16,0,0,1-1.31,1.55,12.8,12.8,0,0,1-21.86-9A12.81,12.81,0,0,1,444.54,50a16,16,0,0,1,1.31,1.55V48.31H448Zm-2.11-10.08V57A10.57,10.57,0,0,0,428,51.58,10.56,10.56,0,1,0,443,66.5,10.06,10.06,0,0,0,445.85,61.12Z"/><path class="cls-2" d="M455.64,67.32l-4.33,9h-1.95l2.4-9Z"/><path class="cls-2" d="M480.16,58.91a16.8,16.8,0,0,1-3.69-2.48,5.29,5.29,0,0,1-1.61-3.88,5.36,5.36,0,0,1,1.61-3.89A5.25,5.25,0,0,1,480.34,47a5.09,5.09,0,0,1,3.77,1.51,4.54,4.54,0,0,1,1.45,3.32V52l-1.82.74a4.54,4.54,0,0,0-1.1-2.66,3.06,3.06,0,0,0-2.3-.9,3.39,3.39,0,0,0-2.4,5.8,14.65,14.65,0,0,0,2.46,1.8,19.09,19.09,0,0,1,4.24,2.87,6.79,6.79,0,1,1-9.6,9.61,6.11,6.11,0,0,1-2-4.36l2.08-.53a4.64,4.64,0,0,0,1.38,3.41,4.72,4.72,0,0,0,8-3.36,4.41,4.41,0,0,0-1.4-3.29A19.76,19.76,0,0,0,480.16,58.91Z"/><path class="cls-2" d="M494.25,40.82a2,2,0,0,1,.62,1.45,2.1,2.1,0,1,1-4.19,0,2,2,0,0,1,.62-1.45,2.07,2.07,0,0,1,1.49-.61A2,2,0,0,1,494.25,40.82Zm-.43,7.49V71.2h-2.09V48.31Z"/><path class="cls-2" d="M501.67,53.42V71.2h-2.11V48.31h2.11v1.48a9.12,9.12,0,0,1,6.65-2.85,8.93,8.93,0,0,1,6.6,2.54,8.83,8.83,0,0,1,2.6,6.4V71.2h-2.08V56.09a6.74,6.74,0,0,0-2.11-5,7.14,7.14,0,0,0-10,0A7.82,7.82,0,0,0,501.67,53.42Z"/><path class="cls-2" d="M555.91,65.68l2.22.82a14.34,14.34,0,0,1-1.37,1.58,12.8,12.8,0,0,1-21.86-9,12.81,12.81,0,0,1,21.86-9,14.34,14.34,0,0,1,1.37,1.58l-2.22.82c-.23-.29-.47-.57-.74-.85a10.26,10.26,0,0,0-7.48-3.08,10.57,10.57,0,0,0-7.45,18,10.54,10.54,0,0,0,14.93,0A8.18,8.18,0,0,0,555.91,65.68Z"/><path class="cls-2" d="M574.18,46.25A12.77,12.77,0,0,1,587,59.07,12.79,12.79,0,1,1,565.15,50,12.34,12.34,0,0,1,574.18,46.25Zm-7.47,5.33a10.54,10.54,0,1,0,7.47-3.11A10.21,10.21,0,0,0,566.71,51.58Z"/><path class="cls-2" d="M591.48,48.31h2.11v.55A6.72,6.72,0,0,1,604,50.1a9.47,9.47,0,0,1,1-1.16,6.81,6.81,0,0,1,9.6,0,6.74,6.74,0,0,1,2,4.59V71.2h-2.11V53.53h0a4.51,4.51,0,0,0-1.37-3.09,4.62,4.62,0,0,0-3.33-1.37,4.57,4.57,0,0,0-3.33,1.37A4.66,4.66,0,0,0,605,53.87V71.2H603V53.53h0a4.74,4.74,0,0,0-4.72-4.46,4.71,4.71,0,0,0-4.67,4.27V71.2h-2.11Z"/><path class="cls-2" d="M622.81,57.88a7.42,7.42,0,0,0-.08,1.19,10.57,10.57,0,0,0,18.06,7.43c.35-.35.68-.72,1-1.11l2.24.8a11,11,0,0,1-1.66,1.89,12.8,12.8,0,0,1-21.86-9A12.81,12.81,0,0,1,642.37,50a10.79,10.79,0,0,1,3.3,7.88Zm.39-2.14h20.09a9.87,9.87,0,0,0-2.5-4.16,10.57,10.57,0,0,0-15,0A10.81,10.81,0,0,0,623.2,55.74Z"/><path class="cls-2" d="M657.32,50.15a7.57,7.57,0,0,0-4.4,2.85,7.78,7.78,0,0,0-2.17,5.06V71.2h-2.1V48.31h2.1v5a9.13,9.13,0,0,1,5.41-5.15Z"/><path class="cls-2" d="M679.71,65.68l2.21.82a13.35,13.35,0,0,1-1.37,1.58,12.8,12.8,0,0,1-21.86-9,12.81,12.81,0,0,1,21.86-9,13.35,13.35,0,0,1,1.37,1.58l-2.21.82c-.23-.29-.48-.57-.74-.85a10.28,10.28,0,0,0-7.49-3.08,10.57,10.57,0,0,0-7.45,18,10.55,10.55,0,0,0,14.94,0A9.61,9.61,0,0,0,679.71,65.68Z"/><path class="cls-2" d="M689,40.82a2,2,0,0,1,.62,1.45,2.1,2.1,0,0,1-2.09,2.11,2,2,0,0,1-1.49-.61,2,2,0,0,1-.62-1.5,2,2,0,0,1,.62-1.45,2.09,2.09,0,0,1,1.49-.61A2.06,2.06,0,0,1,689,40.82Zm-.44,7.49V71.2h-2.08V48.31Z"/><path class="cls-2" d="M718.89,71.2h-2.11V66.53a17.71,17.71,0,0,1-1.32,1.55,12.8,12.8,0,0,1-21.86-9A12.81,12.81,0,0,1,715.46,50a17.71,17.71,0,0,1,1.32,1.55V48.31h2.11Zm-2.11-10.08V57a10.49,10.49,0,1,0,0,4.14Z"/><path class="cls-2" d="M726.24,33.91V71.2h-2.11V33.91Z"/><path class="cls-2" d="M732.81,57.88a8.79,8.79,0,0,0-.08,1.19,10.57,10.57,0,0,0,18.06,7.43,13.18,13.18,0,0,0,1-1.11l2.24.8a10.55,10.55,0,0,1-1.66,1.89,12.79,12.79,0,0,1-21.85-9A12.8,12.8,0,0,1,752.37,50a10.79,10.79,0,0,1,3.3,7.88Zm.39-2.14h20.1a10,10,0,0,0-2.51-4.16,10.57,10.57,0,0,0-15,0A10.81,10.81,0,0,0,733.2,55.74Z"/><path class="cls-2" d="M765.16,58.91a17.32,17.32,0,0,1-3.69-2.48,5.29,5.29,0,0,1-1.61-3.88,5.36,5.36,0,0,1,1.61-3.89A5.26,5.26,0,0,1,765.35,47a5.1,5.1,0,0,1,3.77,1.51,4.58,4.58,0,0,1,1.45,3.32V52l-1.82.74a4.61,4.61,0,0,0-1.11-2.66,3,3,0,0,0-2.29-.9A3.39,3.39,0,0,0,763,55a14,14,0,0,0,2.45,1.8,18.85,18.85,0,0,1,4.24,2.87,6.82,6.82,0,0,1,0,9.61,6.77,6.77,0,0,1-9.59,0,6.09,6.09,0,0,1-2-4.36l2.08-.53a4.61,4.61,0,0,0,1.39,3.41,4.48,4.48,0,0,0,3.31,1.39,4.75,4.75,0,0,0,4.71-4.75,4.44,4.44,0,0,0-1.39-3.29A20,20,0,0,0,765.16,58.91Z"/><path class="cls-2" d="M791.71,53.42V71.2H789.6V48.31h2.11v1.48a9.12,9.12,0,0,1,6.65-2.85,8.79,8.79,0,0,1,9.2,8.94V71.2h-2.08V56.09a6.74,6.74,0,0,0-2.11-5,7.15,7.15,0,0,0-10,0A7.77,7.77,0,0,0,791.71,53.42Z"/><path class="cls-2" d="M815.83,40.82a2,2,0,0,1,.62,1.45,2.1,2.1,0,0,1-2.09,2.11,2,2,0,0,1-1.49-.61,2,2,0,0,1-.62-1.5,2,2,0,0,1,.62-1.45,2.09,2.09,0,0,1,1.49-.61A2.06,2.06,0,0,1,815.83,40.82Zm-.44,7.49V71.2h-2.08V48.31Z"/><path class="cls-2" d="M541.69,105.62a2,2,0,0,1,.62,1.45,2.1,2.1,0,0,1-2.09,2.11,2,2,0,0,1-1.49-.61,2,2,0,0,1-.62-1.5,2,2,0,0,1,.62-1.45,2.09,2.09,0,0,1,1.49-.61A2.06,2.06,0,0,1,541.69,105.62Zm-.44,7.49V136h-2.08V113.11Z"/><path class="cls-2" d="M549.11,118.22V136H547V113.11h2.11v1.48a9.1,9.1,0,0,1,6.64-2.85,8.79,8.79,0,0,1,9.21,8.94V136h-2.09V120.89a6.7,6.7,0,0,0-2.11-5,7.14,7.14,0,0,0-10,0A7.6,7.6,0,0,0,549.11,118.22Z"/><path class="cls-2" d="M573.08,113.11v-9.73h2.08v9.73h4.67v2.11h-4.67V136h-2.08V115.22h-4.67v-2.11Z"/><path class="cls-2" d="M584.34,122.68a7.42,7.42,0,0,0-.08,1.19,10.57,10.57,0,0,0,18.06,7.43c.35-.35.68-.72,1-1.11l2.24.8a11,11,0,0,1-1.66,1.89,12.79,12.79,0,1,1,0-18.08,10.79,10.79,0,0,1,3.3,7.88Zm.39-2.14h20.09a9.87,9.87,0,0,0-2.5-4.16,10.57,10.57,0,0,0-15,0A10.73,10.73,0,0,0,584.73,120.54Z"/><path class="cls-2" d="M618.85,115a7.57,7.57,0,0,0-4.4,2.85,7.78,7.78,0,0,0-2.17,5.06V136h-2.1V113.11h2.1v5a9.13,9.13,0,0,1,5.41-5.15Z"/><path class="cls-2" d="M629.56,115a7.56,7.56,0,0,0-4.41,2.85,7.76,7.76,0,0,0-2.16,5.06V136h-2.11V113.11H623v5a9.11,9.11,0,0,1,5.41-5.15Z"/><path class="cls-2" d="M641.29,136.31a9.22,9.22,0,0,1-6.83-2.53,8.94,8.94,0,0,1-2.61-6.41V113.08H634v14.11a6.69,6.69,0,0,0,2.11,5,7.08,7.08,0,0,0,5.19,2.08,6.87,6.87,0,0,0,5-2.07,6.73,6.73,0,0,0,2.09-5V113.08h2.11v14.29a8.94,8.94,0,0,1-2.61,6.41A8.85,8.85,0,0,1,641.29,136.31Z"/><path class="cls-2" d="M655.18,113.11h2.11v3.22a13.38,13.38,0,0,1,1.32-1.53,12.81,12.81,0,1,1,0,18.08,13.38,13.38,0,0,1-1.32-1.53v13.37h-2.11Zm2.11,8.57v4.37a10,10,0,0,0,2.88,5.28,10.59,10.59,0,1,0,0-15A10.08,10.08,0,0,0,657.29,121.68Z"/><path class="cls-2" d="M704.41,130.48l2.22.82a14.34,14.34,0,0,1-1.37,1.58,12.79,12.79,0,1,1,0-18.08,14.34,14.34,0,0,1,1.37,1.58l-2.22.82c-.23-.29-.47-.57-.74-.85a10.26,10.26,0,0,0-7.48-3.08,10.57,10.57,0,1,0,7.48,18A8.18,8.18,0,0,0,704.41,130.48Z"/><path class="cls-2" d="M713.65,105.62a1.93,1.93,0,0,1,.62,1.45,2.1,2.1,0,0,1-2.08,2.11,2.1,2.1,0,0,1-2.11-2.11,2,2,0,0,1,.62-1.45,2.07,2.07,0,0,1,1.49-.61A2,2,0,0,1,713.65,105.62Zm-.43,7.49V136h-2.08V113.11Z"/><path class="cls-2" d="M731,111.05a12.82,12.82,0,1,1-9,3.75A12.31,12.31,0,0,1,731,111.05Zm-7.47,5.33a10.54,10.54,0,1,0,7.47-3.11A10.21,10.21,0,0,0,723.57,116.38Z"/><path class="cls-2" d="M750.45,118.22V136h-2.11V113.11h2.11v1.48a9.1,9.1,0,0,1,6.64-2.85,8.79,8.79,0,0,1,9.21,8.94V136h-2.09V120.89a6.7,6.7,0,0,0-2.11-5,7.14,7.14,0,0,0-10,0A7.6,7.6,0,0,0,750.45,118.22Z"/><path class="cls-2" d="M772.57,122.68a8.79,8.79,0,0,0-.08,1.19,10.57,10.57,0,0,0,18.06,7.43c.35-.35.69-.72,1-1.11l2.24.8a11.46,11.46,0,0,1-1.66,1.89,12.79,12.79,0,1,1,0-18.08,10.82,10.82,0,0,1,3.29,7.88Zm.4-2.14h20.09a9.89,9.89,0,0,0-2.51-4.16,10.56,10.56,0,0,0-15,0A10.73,10.73,0,0,0,773,120.54Z"/><path class="cls-2" d="M804.92,123.71a17.32,17.32,0,0,1-3.69-2.48,5.29,5.29,0,0,1-1.61-3.88,5.36,5.36,0,0,1,1.61-3.89,5.27,5.27,0,0,1,3.88-1.62,5.09,5.09,0,0,1,3.77,1.51,4.54,4.54,0,0,1,1.45,3.32v.1l-1.82.74a4.61,4.61,0,0,0-1.11-2.66,3,3,0,0,0-2.29-.9,3.31,3.31,0,0,0-2.4,1,3.38,3.38,0,0,0,0,4.8,14.44,14.44,0,0,0,2.45,1.8,19.2,19.2,0,0,1,4.25,2.87,6.84,6.84,0,0,1,0,9.61,6.78,6.78,0,0,1-9.6,0,6.09,6.09,0,0,1-2-4.36l2.08-.53a4.61,4.61,0,0,0,1.39,3.41,4.48,4.48,0,0,0,3.31,1.39,4.76,4.76,0,0,0,4.72-4.75,4.45,4.45,0,0,0-1.4-3.29A19.47,19.47,0,0,0,804.92,123.71Z"/><path class="cls-2" d="M816.46,132.75a2.08,2.08,0,0,1-1.46,3.56,2.06,2.06,0,0,1-1.49-.6,2.08,2.08,0,0,1,0-3,2.06,2.06,0,0,1,1.49-.6A2,2,0,0,1,816.46,132.75Z"/></g></g></svg>