<svg xmlns="http://www.w3.org/2000/svg" viewBox="0 0 346.58 285.84"><defs><style>.cls-1{fill:#fff;}</style></defs><title>spoti</title><g id="Capa_2" data-name="Capa 2"><g id="Capa_1-2" data-name="Capa 1"><path class="cls-1" d="M171.32,0a79.37,79.37,0,1,0,79.37,79.37A79.38,79.38,0,0,0,171.32,0Zm36.4,114.48a5,5,0,0,1-6.8,1.65c-18.64-11.39-42.1-14-69.73-7.65a4.95,4.95,0,1,1-2.2-9.65c30.23-6.91,56.17-3.94,77.09,8.85A5,5,0,0,1,207.72,114.48Zm9.71-21.61a6.19,6.19,0,0,1-8.51,2C187.59,81.8,155.06,78,129.83,85.66a6.19,6.19,0,1,1-3.6-11.84c28.83-8.75,64.66-4.51,89.16,10.54A6.19,6.19,0,0,1,217.43,92.87Zm.84-22.51c-25.59-15.19-67.79-16.59-92.21-9.17A7.42,7.42,0,0,1,121.75,47c28-8.51,74.64-6.87,104.1,10.62a7.42,7.42,0,0,1-7.58,12.76Z"/><path class="cls-1" d="M33.25,226.37c-13.7-3.27-16.14-5.56-16.14-10.38,0-4.56,4.28-7.62,10.66-7.62,6.18,0,12.31,2.33,18.73,7.12a.92.92,0,0,0,.68.16.84.84,0,0,0,.59-.36l6.69-9.44a.9.9,0,0,0-.17-1.22A40.48,40.48,0,0,0,28,195.52c-14.79,0-25.13,8.88-25.13,21.58,0,13.63,8.92,18.45,24.32,22.17,13.12,3,15.33,5.56,15.33,10.08,0,5-4.47,8.13-11.68,8.13-8,0-14.52-2.7-21.82-9a1,1,0,0,0-.66-.21.86.86,0,0,0-.61.32L.21,257.49a.9.9,0,0,0,.09,1.25,44.74,44.74,0,0,0,30.21,11.59c15.94,0,26.25-8.72,26.25-22.2C56.76,236.73,50,230.43,33.25,226.37Z"/><path class="cls-1" d="M92.83,212.85c-6.91,0-12.58,2.73-17.25,8.3v-6.27a.9.9,0,0,0-.9-.9H62.41a.9.9,0,0,0-.9.9v69.76a.89.89,0,0,0,.9.89H74.68a.9.9,0,0,0,.9-.89v-22a22,22,0,0,0,17.25,7.81c12.84,0,25.84-9.89,25.84-28.79S105.67,212.85,92.83,212.85Zm11.58,28.79c0,9.63-5.93,16.34-14.42,16.34s-14.72-7-14.72-16.34S81.6,225.31,90,225.31,104.41,232.17,104.41,241.64Z"/><path class="cls-1" d="M152,212.85c-16.54,0-29.5,12.74-29.5,29,0,16.08,12.87,28.68,29.29,28.68,16.6,0,29.6-12.69,29.6-28.89S168.48,212.85,152,212.85Zm0,45.23c-8.8,0-15.43-7.07-15.43-16.44s6.4-16.24,15.22-16.24,15.53,7.07,15.53,16.45S160.88,258.08,152,258.08Z"/><path class="cls-1" d="M216.7,214H203.2V200.17a.9.9,0,0,0-.9-.9H190a.9.9,0,0,0-.9.9V214h-5.91a.89.89,0,0,0-.89.9v10.54a.89.89,0,0,0,.89.9h5.91v27.29c0,11,5.48,16.62,16.31,16.62a22.38,22.38,0,0,0,11.49-2.86.91.91,0,0,0,.46-.78v-10a.9.9,0,0,0-1.3-.81,15.49,15.49,0,0,1-7.21,1.74c-3.93,0-5.69-1.79-5.69-5.79V226.32h13.5a.9.9,0,0,0,.9-.9V214.88A.9.9,0,0,0,216.7,214Z"/><path class="cls-1" d="M263.75,214v-1.7c0-5,1.91-7.21,6.2-7.21a20.67,20.67,0,0,1,6.92,1.28.9.9,0,0,0,.81-.13.91.91,0,0,0,.37-.73V195.2a.91.91,0,0,0-.64-.86,33.74,33.74,0,0,0-10.2-1.47c-11.33,0-17.32,6.39-17.32,18.46v2.59H244a.91.91,0,0,0-.9.9v10.6a.9.9,0,0,0,.9.9h5.9v42.09a.89.89,0,0,0,.89.9h12.27a.9.9,0,0,0,.9-.9V226.32h11.46L293,268.4c-2,4.42-3.95,5.3-6.63,5.3a14.07,14.07,0,0,1-6.76-1.92.9.9,0,0,0-1.25.42l-4.16,9.12a.91.91,0,0,0,.39,1.17,25.84,25.84,0,0,0,13.1,3.35c9.07,0,14.07-4.22,18.49-15.57l21.29-55a.91.91,0,0,0-.1-.83.9.9,0,0,0-.73-.39H313.82a.91.91,0,0,0-.85.6L299.88,252l-14.33-37.4a.9.9,0,0,0-.84-.58Z"/><rect class="cls-1" x="223.31" y="213.98" width="14.07" height="55.33" rx="0.9"/><path class="cls-1" d="M230.4,189.6a8.8,8.8,0,1,0,8.8,8.8A8.79,8.79,0,0,0,230.4,189.6Z"/><path class="cls-1" d="M337.9,231.19a8.66,8.66,0,1,1,8.68-8.69A8.6,8.6,0,0,1,337.9,231.19Zm.05-16.46a7.73,7.73,0,0,0-7.77,7.82,7.75,7.75,0,1,0,7.77-7.82Zm1.91,8.66,2.45,3.42h-2.06l-2.2-3.14h-1.89v3.14h-1.73v-9.06h4.05c2.1,0,3.49,1.07,3.49,2.89A2.71,2.71,0,0,1,339.86,223.39Zm-1.45-4.09h-2.25v2.87h2.25c1.12,0,1.79-.55,1.79-1.44S339.53,219.3,338.41,219.3Z"/></g></g></svg>