<svg xmlns="http://www.w3.org/2000/svg" viewBox="0 0 521.95 706.09"><defs><style>.cls-1,.cls-2{fill:#fff;}.cls-1{opacity:0.35;}.cls-3{fill:#31809b;}.cls-4{fill:#494643;}.cls-5{fill:#54514e;}.cls-6{fill:#babebf;}.cls-7{fill:#42413d;}.cls-8{opacity:0.69;}.cls-9{fill:#232728;}.cls-10{fill:#424241;}.cls-11{fill:#e0e1e2;opacity:0.67;}.cls-12{fill:#66615d;}.cls-13{fill:#6a6a6a;}.cls-14{fill:#6d6a68;}.cls-15{fill:#67aece;}.cls-16{fill:#2692b7;}.cls-17{fill:#22201e;}.cls-18{fill:#f2f09e;}.cls-19{fill:#f7f49a;}.cls-20{fill:#82827f;}</style></defs><title>TARJETAdeenvio</title><g id="Capa_2" data-name="Capa 2"><g id="Capa_1-2" data-name="Capa 1"><path class="cls-1" d="M27.57,0H419.26A102.69,102.69,0,0,1,522,102.69V678.52a27.57,27.57,0,0,1-27.57,27.57H27.57A27.57,27.57,0,0,1,0,678.52V27.57A27.57,27.57,0,0,1,27.57,0Z"/><path class="cls-2" d="M100.21,587.84,98,591.72v13H91V562.3h7v18.38h.13l9.09-18.38h7l-9.8,18.93,9.8,23.54h-7.24Z"/><path class="cls-2" d="M117.51,562.3h7v42.47h-7Z"/><path class="cls-2" d="M152.48,604.77h-7.1l-1.22-7.71h-8.65l-1.22,7.71h-6.46L135,562.3h10.31ZM136.41,591.3h6.79l-3.33-21.48h-.13Z"/><path class="cls-2" d="M180.43,604.77c-.39-1.1-.64-1.76-.64-5.22v-6.68c0-3.94-1.41-5.4-4.61-5.4h-2.44v17.3h-7V562.3h10.63c7.3,0,10.44,3.21,10.44,9.76v3.34c0,4.37-1.48,7.16-4.61,8.56v.12c3.52,1.39,4.67,4.55,4.67,9v6.55a12,12,0,0,0,.77,5.16Zm-7.69-36.41v13h2.76c2.62,0,4.23-1.09,4.23-4.49v-4.19c0-3-1.09-4.37-3.59-4.37Z"/><path class="cls-2" d="M191.46,562.3h7v42.47h-7Z"/><path class="cls-2" d="M203.06,572.49c0-6.8,3.78-10.68,10.7-10.68s10.69,3.88,10.69,10.68v22.08c0,6.8-3.78,10.68-10.69,10.68s-10.7-3.88-10.7-10.68ZM210.11,595c0,3,1.4,4.18,3.65,4.18s3.65-1.15,3.65-4.18V572.06c0-3-1.41-4.18-3.65-4.18s-3.65,1.15-3.65,4.18Z"/><rect class="cls-2" x="85.98" y="623" width="369.56" height="42.76" rx="8.58"/><path class="cls-3" d="M119.11,632l7.38,21.62h-1.21L122,644.12h-7l-3.31,9.51h-1.22L117.93,632Zm2.5,10.9-3.09-9.06-3.1,9.06Z"/><path class="cls-3" d="M137.33,640.36l-5.58,13.27h-.6l-5.53-13.27H127l4.49,11,4.54-11Z"/><path class="cls-3" d="M136.83,651.75a1.16,1.16,0,0,1,.34.85,1.18,1.18,0,0,1-.34.86,1.08,1.08,0,0,1-.8.35,1.11,1.11,0,0,1-.81-.35,1.23,1.23,0,0,1-.34-.86,1.2,1.2,0,0,1,.34-.85,1.09,1.09,0,0,1,.81-.36A1.05,1.05,0,0,1,136.83,651.75Z"/><path class="cls-3" d="M149.53,643.12a5.4,5.4,0,0,1,7.41.54,6.31,6.31,0,0,1,0,8.51,5.39,5.39,0,0,1-8,0,6,6,0,0,1-1.66-4.24,19,19,0,0,1,1.87-7.28A78.17,78.17,0,0,1,154,632h1.52A79.23,79.23,0,0,0,149.53,643.12Zm.28,1.46a4.76,4.76,0,0,0-1.3,3.35,4.67,4.67,0,0,0,1.3,3.32,4.2,4.2,0,0,0,3.15,1.37,4.16,4.16,0,0,0,3.12-1.37,4.63,4.63,0,0,0,1.3-3.32,4.72,4.72,0,0,0-1.3-3.35A4.13,4.13,0,0,0,153,643.2,4.18,4.18,0,0,0,149.81,644.58Z"/><path class="cls-3" d="M182.8,653.63h-1.15v-2.71a7.89,7.89,0,0,1-.72.9,6.67,6.67,0,0,1-9.87,0,7.76,7.76,0,0,1,0-10.49,6.7,6.7,0,0,1,9.87,0,7.89,7.89,0,0,1,.72.9V632h1.15Zm-1.15-5.84v-2.4a6.07,6.07,0,0,0-1.58-3.14,5.52,5.52,0,0,0-8.16,0,6.19,6.19,0,0,0-1.69,4.35,6.08,6.08,0,0,0,1.69,4.32,5.53,5.53,0,0,0,8.16,0A6,6,0,0,0,181.65,647.79Z"/><path class="cls-3" d="M186.08,645.91a4.93,4.93,0,0,0,0,.69,6,6,0,0,0,1.69,4.32,5.53,5.53,0,0,0,8.16,0c.19-.21.37-.42.54-.65l1.22.46a6,6,0,0,1-.9,1.1,6.67,6.67,0,0,1-9.87,0,7.73,7.73,0,0,1,0-10.49,6.7,6.7,0,0,1,9.87,0,6.45,6.45,0,0,1,1.8,4.57Zm.22-1.24h10.95a5.92,5.92,0,0,0-1.36-2.42,5.54,5.54,0,0,0-8.17,0A6.24,6.24,0,0,0,186.3,644.67Z"/><path class="cls-3" d="M211.74,632c3.35,0,5.94,1,7.78,3a11.59,11.59,0,0,1,0,15.67c-1.84,2-4.43,2.94-7.78,3H208V632Zm-2.61,1.27v19.09h2.6a9.2,9.2,0,0,0,6.92-2.6,10.29,10.29,0,0,0,0-13.9,9.23,9.23,0,0,0-6.92-2.59Z"/><path class="cls-3" d="M226.54,636a1.14,1.14,0,0,1,.34.84,1.18,1.18,0,0,1-.34.87,1.07,1.07,0,0,1-.79.35,1.12,1.12,0,0,1-.82-.35,1.21,1.21,0,0,1-.33-.87,1.17,1.17,0,0,1,.33-.84,1.08,1.08,0,0,1,.82-.35A1,1,0,0,1,226.54,636Zm-.23,4.34v13.27h-1.14V640.36Z"/><path class="cls-3" d="M240.23,650.43l1.2.48a8.93,8.93,0,0,1-.74.91,6.68,6.68,0,0,1-9.88,0,7.76,7.76,0,0,1,0-10.49,6.71,6.71,0,0,1,9.88,0,8.93,8.93,0,0,1,.74.91l-1.2.48c-.13-.16-.26-.33-.41-.49a5.43,5.43,0,0,0-4.08-1.79,5.36,5.36,0,0,0-4.06,1.8,6.39,6.39,0,0,0,0,8.66,5.5,5.5,0,0,0,8.14,0C240,650.75,240.1,650.59,240.23,650.43Z"/><path class="cls-3" d="M245.26,636a1.14,1.14,0,0,1,.34.84,1.18,1.18,0,0,1-.34.87,1.07,1.07,0,0,1-.79.35,1.12,1.12,0,0,1-.82-.35,1.21,1.21,0,0,1-.33-.87,1.17,1.17,0,0,1,.33-.84,1.08,1.08,0,0,1,.82-.35A1,1,0,0,1,245.26,636Zm-.23,4.34v13.27h-1.14V640.36Z"/><path class="cls-3" d="M248.74,645.91a4.86,4.86,0,0,0-.05.69,6.08,6.08,0,0,0,1.69,4.32,5.53,5.53,0,0,0,8.16,0c.19-.21.38-.42.55-.65l1.22.46a6.16,6.16,0,0,1-.91,1.1,6.67,6.67,0,0,1-9.87,0,7.76,7.76,0,0,1,0-10.49,6.7,6.7,0,0,1,9.87,0,6.45,6.45,0,0,1,1.8,4.57Zm.21-1.24h11a5.94,5.94,0,0,0-1.37-2.42,5.52,5.52,0,0,0-8.16,0A6.26,6.26,0,0,0,249,644.67Z"/><path class="cls-3" d="M263.14,640.36h1.15v.32a3.52,3.52,0,0,1,5.16.05,3.39,3.39,0,0,1,.51.67,4.22,4.22,0,0,1,.53-.67,3.55,3.55,0,0,1,5.23,0,4,4,0,0,1,1.08,2.66v10.24h-1.15V643.39h0a2.65,2.65,0,0,0-.75-1.79,2.46,2.46,0,0,0-3.63,0,2.75,2.75,0,0,0-.76,2v10H269.4V643.39h0a2.71,2.71,0,0,0-.76-1.79,2.43,2.43,0,0,0-1.81-.8,2.39,2.39,0,0,0-1.8.8,2.71,2.71,0,0,0-.75,1.68v10.35h-1.15Z"/><path class="cls-3" d="M279.65,632h1.15v10.21a7.3,7.3,0,0,1,.72-.88,6.69,6.69,0,0,1,9.86,0,7.76,7.76,0,0,1,0,10.49,6.65,6.65,0,0,1-9.86,0,7.3,7.3,0,0,1-.72-.88v2.69h-1.15Zm1.15,13.32v2.53a5.83,5.83,0,0,0,1.57,3,5.53,5.53,0,0,0,8.16,0,6.08,6.08,0,0,0,1.68-4.32,6.18,6.18,0,0,0-1.68-4.35,5.52,5.52,0,0,0-8.16,0A5.92,5.92,0,0,0,280.8,645.33Z"/><path class="cls-3" d="M300.32,641.43a4.1,4.1,0,0,0-2.4,1.65,4.69,4.69,0,0,0-1.18,2.93v7.62h-1.15V640.36h1.15v2.87a5.15,5.15,0,0,1,2.95-3Z"/><path class="cls-3" d="M302.32,645.91a4.93,4.93,0,0,0,0,.69,6,6,0,0,0,1.69,4.32,5.53,5.53,0,0,0,8.16,0c.19-.21.37-.42.54-.65l1.23.46a6.65,6.65,0,0,1-.91,1.1,6.67,6.67,0,0,1-9.87,0,7.73,7.73,0,0,1,0-10.49,6.7,6.7,0,0,1,9.87,0,6.45,6.45,0,0,1,1.8,4.57Zm.22-1.24h10.95a5.92,5.92,0,0,0-1.36-2.42,5.54,5.54,0,0,0-8.17,0A6.36,6.36,0,0,0,302.54,644.67Z"/><path class="cls-3" d="M325.55,658.67h-1.27l3.29-7.5-4.75-10.81h1.28l4.1,9.26,4.11-9.26h1.28Z"/><path class="cls-3" d="M343.87,646.14v7.49h-1.15V632h5.34a6.61,6.61,0,0,1,3.95,2.07,7.4,7.4,0,0,1,0,10,6.19,6.19,0,0,1-4.69,2.07Zm0-12.89V644.9h3.45a5.14,5.14,0,0,0,3.87-1.7,5.83,5.83,0,0,0,1.61-4.14,5.76,5.76,0,0,0-1.61-4.11,5.14,5.14,0,0,0-3.87-1.7Z"/><path class="cls-3" d="M361.59,639.17a6.49,6.49,0,0,1,4.93,2.17,7.76,7.76,0,0,1,0,10.49,6.66,6.66,0,0,1-9.86,0,7.73,7.73,0,0,1,0-10.49A6.53,6.53,0,0,1,361.59,639.17Zm-4.08,3.08a6.15,6.15,0,0,0-1.69,4.35,6,6,0,0,0,1.69,4.32,5.53,5.53,0,0,0,8.15,0,6,6,0,0,0,1.69-4.32,6.15,6.15,0,0,0-1.69-4.35,5.51,5.51,0,0,0-8.15,0Z"/><path class="cls-3" d="M375.43,641.43a4.1,4.1,0,0,0-2.4,1.65,4.69,4.69,0,0,0-1.18,2.93v7.62H370.7V640.36h1.15v2.87a5.12,5.12,0,0,1,2.95-3Z"/><path class="cls-3" d="M378.44,640.36v-5.64h1.13v5.64h2.55v1.22h-2.55v12h-1.13v-12h-2.55v-1.22Z"/><path class="cls-3" d="M389,653.81a4.86,4.86,0,0,1-3.72-1.47,5.36,5.36,0,0,1-1.42-3.71v-8.29H385v8.18a4,4,0,0,0,1.15,2.87A3.7,3.7,0,0,0,389,652.6a3.63,3.63,0,0,0,2.72-1.2,4,4,0,0,0,1.15-2.88v-8.18H394v8.29a5.37,5.37,0,0,1-1.43,3.71A4.68,4.68,0,0,1,389,653.81Z"/><path class="cls-3" d="M408.58,651c-.22.28-.45.56-.69.82a6.67,6.67,0,0,1-9.87,0,7.76,7.76,0,0,1,0-10.49,6.72,6.72,0,0,1,9.87,0,7.89,7.89,0,0,1,.72.9v-1.88h1.15v10.3a7.17,7.17,0,0,1-2,5.11,6.69,6.69,0,0,1-9.88,0,8,8,0,0,1-.75-.92l1.21-.48a3.72,3.72,0,0,0,.41.48,5.5,5.5,0,0,0,8.14,0A6,6,0,0,0,408.58,651Zm0-5.67a6.07,6.07,0,0,0-1.57-3.08,5.52,5.52,0,0,0-8.16,0,6.19,6.19,0,0,0-1.69,4.35,6.12,6.12,0,0,0,1.69,4.33,5.53,5.53,0,0,0,8.16,0,6.06,6.06,0,0,0,1.57-3Z"/><path class="cls-3" d="M425.65,653.63H424.5v-2.71a7.89,7.89,0,0,1-.72.9,6.67,6.67,0,0,1-9.87,0,7.73,7.73,0,0,1,0-10.49,6.7,6.7,0,0,1,9.87,0,7.89,7.89,0,0,1,.72.9v-1.88h1.15Zm-1.15-5.84v-2.4a6.07,6.07,0,0,0-1.58-3.14,5.52,5.52,0,0,0-8.16,0,6.15,6.15,0,0,0-1.69,4.35,6,6,0,0,0,1.69,4.32,5.53,5.53,0,0,0,8.16,0A6,6,0,0,0,424.5,647.79Z"/><path class="cls-3" d="M429.66,632v21.62h-1.15V632Z"/><rect class="cls-2" x="291" y="561.83" width="168.84" height="49.72" rx="5.47"/><path class="cls-3" d="M319.35,597.22V576l-2.64,1.73-1.11-.81,5.17-3.78v24.11h5.52v1.45H313.71v-1.45Z"/><path class="cls-3" d="M335,586.25a7.05,7.05,0,0,1,9.26.63,7.17,7.17,0,0,1,0,10.06,7,7,0,0,1-10,0,6.83,6.83,0,0,1-2.08-5,21.52,21.52,0,0,1,2.35-8.6,88.36,88.36,0,0,1,6-10.22h1.9A90,90,0,0,0,335,586.25Zm.35,1.73a5.55,5.55,0,1,0,7.83,0,5.49,5.49,0,0,0-7.83,0Z"/><path class="cls-3" d="M352.26,585.29a1.44,1.44,0,0,1,0,2,1.36,1.36,0,0,1-1,.42,1.44,1.44,0,0,1-1-2.45,1.41,1.41,0,0,1,1-.41A1.39,1.39,0,0,1,352.26,585.29Zm0,11.16a1.35,1.35,0,0,1,.42,1,1.43,1.43,0,0,1-1.42,1.43,1.38,1.38,0,0,1-1-.42,1.37,1.37,0,0,1-.42-1,1.35,1.35,0,0,1,.42-1,1.38,1.38,0,0,1,1-.42A1.36,1.36,0,0,1,352.26,596.45Z"/><path class="cls-3" d="M362.39,584.41l-1.19,0v-1.43a7.1,7.1,0,0,0,2.42-.38,6.07,6.07,0,0,0,2.05-1.56,4,4,0,0,0,1.1-2.81,3.89,3.89,0,0,0-3.9-3.92,3.83,3.83,0,0,0-2.77,1.14,4.13,4.13,0,0,0-.93,1.46l-1.37-.54a4.56,4.56,0,0,1,1.23-2,5.43,5.43,0,0,1,9.27,3.83,5,5,0,0,1-1.21,3.58,6.65,6.65,0,0,1-2.26,1.73,9,9,0,0,1,3.81,2.39,7.83,7.83,0,0,1,2.17,5.49,7.38,7.38,0,0,1-2.22,5.4,7.53,7.53,0,0,1-10.71,0,7.37,7.37,0,0,1-2.12-4.19l1.43-.53a6,6,0,0,0,1.76,3.67,6.08,6.08,0,0,0,10.37-4.34,6.36,6.36,0,0,0-1.73-4.42A9,9,0,0,0,362.39,584.41Z"/><path class="cls-3" d="M377.05,581.05a18.13,18.13,0,0,1,1.78-.47,11.08,11.08,0,0,1,2-.18,10,10,0,0,1,3.36.56,9.23,9.23,0,0,1,5.33,4.53,8.91,8.91,0,0,1,1.1,4.21,9.5,9.5,0,0,1-.41,2.72,8.88,8.88,0,0,1-4.39,5.36,8.74,8.74,0,0,1-4.13,1.07,9.21,9.21,0,0,1-2.75-.43,8.45,8.45,0,0,1-4.48-3.11l1-1.12a7,7,0,0,0,3.9,2.78,7.43,7.43,0,0,0,2.24.36,7.59,7.59,0,0,0,7.14-5.37,7.62,7.62,0,0,0,.36-2.27,7.26,7.26,0,0,0-.92-3.49,7.77,7.77,0,0,0-4.44-3.8,8.51,8.51,0,0,0-2.82-.45,15,15,0,0,0-4.49.78l-1.13-1,2.91-8.09v-.53h7.94v1.45H379.4Z"/><path class="cls-3" d="M402.9,583h1.44v2.21a9.81,9.81,0,0,1,.9-1.05,8.72,8.72,0,0,1,14.88,6.22,8.5,8.5,0,0,1-2.55,6.19,8.67,8.67,0,0,1-12.33,0,10.89,10.89,0,0,1-.9-1v9.16H402.9Zm1.44,5.87v3a7.21,7.21,0,0,0,12.16,3.62,7.23,7.23,0,1,0-12.16-6.63Z"/><path class="cls-3" d="M423,583h1.43v.38a4.59,4.59,0,0,1,6.45,0,4.44,4.44,0,0,1,.63.8,6.18,6.18,0,0,1,.67-.8,4.64,4.64,0,0,1,6.54,0,4.69,4.69,0,0,1,1.35,3.15v12.11h-1.44V586.56h0a3.08,3.08,0,0,0-.94-2.12,3.2,3.2,0,0,0-4.53,0,3.21,3.21,0,0,0-1,2.36v11.87h-1.42V586.56h0a3.23,3.23,0,0,0-3.22-3.06,3.07,3.07,0,0,0-2.24.94,3.13,3.13,0,0,0-.94,2v12.24H423Z"/><path class="cls-2" d="M201.4,198.83H387.72a5.47,5.47,0,0,1,5.47,5.47v38.78a5.47,5.47,0,0,1-5.47,5.47H162.62a5.47,5.47,0,0,1-5.47-5.47v0A44.25,44.25,0,0,1,201.4,198.83Z"/><path class="cls-4" d="M192,386c-1.08-11.37-1.83-23.51,1.24-34.67a27.19,27.19,0,0,1,5.68-11c4.11-4.62,10.06-7.2,16.06-8.69,17.84-4.42,36.41-4.65,54.7-4.64,8.29,0,16.58.29,24.84,1,10.17.92,20.59,2,30.18,5.75,6,2.33,12.09,5.29,14.52,11.62a35.38,35.38,0,0,1,2.06,10.32c.25,3.48-.13,6.87,0,10.34.26,5.23,0,10.37-.05,15.59,0,1.41-.07,2.82-.14,4.22-.07,1.16.17,3.18-.32,4.23s-1.64.78-2.87.85l-4.14.26q-8.86.52-17.72.94-12.42.6-24.86,1-14.08.48-28.2.68c-9.26.12-18.52.13-27.77-.09-7.86-.19-15.74-.51-23.56-1.31-5.17-.53-10.66-1.08-15.55-3C194.59,388.93,192.17,387.92,192,386Z"/><path class="cls-2" d="M208.52,340.63a14.86,14.86,0,0,0-7.82,7.05c-1.36,2.74-1.64,5.87-1.79,8.92-.22,4.19-.7,21-.17,25.11.26,2,1.41,7.47,3.56,6.36,5.49-2.84,16-6.78,22-7.57,6.9-.89,11.38-2.58,18.33-3,13.92-.81,27.88-.74,41.82-.26l4.18.16c7.94.32,38.84,5.25,46.23,7.48.26.08.57.14.76-.05a.73.73,0,0,0,.16-.48,176.11,176.11,0,0,0,.64-21.05c-.11-6.05.5-12.38-3.5-17.41-3.29-4.14-8.68-6-13.91-6.81a328.54,328.54,0,0,0-40.88-2.88c-16.95-.33-33.8.68-50.74,1.5C221.68,338,214.32,338.13,208.52,340.63Z"/><path class="cls-5" d="M294.61,324.1h-4.8a35.41,35.41,0,0,0,.15-4.28,18.11,18.11,0,0,0-.63-4.39,9.23,9.23,0,0,0-3.54-5.22,9.08,9.08,0,0,0-4.28-1.36c-1.67-.12-3.34-.34-5-.5q-5.29-.51-10.61-.71a61.88,61.88,0,0,0-7.82.17c-1.54.15-3.08.36-4.6.65-2.56.46-5.36,1.29-7.28,3.14a7.72,7.72,0,0,0-1.09,1.33c-2.13,3.23-2.83,7.37-2.91,11.17h-4.71a.84.84,0,0,0-.75,1.21l1.46,2.92h55l2-3A.73.73,0,0,0,294.61,324.1Z"/><path class="cls-6" d="M251.11,324.79H281.8a6,6,0,0,0,5.42-3.47,7.48,7.48,0,0,0-.44-6.64,6.93,6.93,0,0,0-2.3-2.51,9.55,9.55,0,0,0-4.24-1.07c-1.75-.19-3.5-.43-5.26-.58a103.82,103.82,0,0,0-10.58-.39q-3,0-5.93.23c-1.71.12-3.42.28-5.12.57a13.07,13.07,0,0,0-4.81,1.42,6.89,6.89,0,0,0-2.36,2.69,9.72,9.72,0,0,0-.73,2A6,6,0,0,0,251.11,324.79Z"/><path class="cls-7" d="M214.68,380.5s-.74-8.81,9.64-9.63c9.49-.74,13,8.93,13.07,8.94h2.75s-2.07-13.06-16.51-11.69-13.07,15.13-13.07,15.13"/><g class="cls-8"><polygon class="cls-7" points="253.21 315.85 253.21 322.04 255.27 322.04 255.27 315.85 257.33 315.85 257.33 313.79 250.46 313.79 250.46 315.85 253.21 315.85"/><path class="cls-7" d="M265.59,313.79h-4.13L259.4,322h2.06l.69-2.75h2.75l.69,2.75h2.06Zm-3.44,4.12.69-2.75h1.37l.69,2.75Z"/><polygon class="cls-7" points="269.72 313.79 272.47 317.91 269.72 322.04 272.47 322.04 273.85 319.29 275.22 322.04 277.28 322.04 275.22 317.91 277.28 313.79 275.22 313.79 273.85 317.23 271.78 313.79 269.72 313.79"/><rect class="cls-7" x="280.04" y="313.79" width="2.06" height="8.25"/></g><rect class="cls-9" x="153.46" y="469.92" width="37.83" height="39.89" rx="10.66"/><rect class="cls-9" x="344.7" y="469.92" width="37.83" height="39.89" rx="10.66"/><path class="cls-10" d="M144.52,466.48s-10.32,1.37-4.13,17.19c0,0,88.05,15.13,150.65,11.69S391.48,482.3,391.48,482.3s6.19-17.89-2.07-14.45S149.33,457.54,144.52,466.48Z"/><path class="cls-11" d="M150.71,474.73s94.24,19.26,229.76,0C380.47,474.73,269.72,485.05,150.71,474.73Z"/><path class="cls-12" d="M185.79,388.76s-11-7.57-8.94-10.32,9.63-3.44,17.2,7.56S185.79,388.76,185.79,388.76Z"/><path class="cls-13" d="M180.29,383.25s-21.33,3.44-24.08-7.56,22.7-11,22.7-11,9-1.37,4.13,14.45A19.88,19.88,0,0,1,180.29,383.25Z"/><path class="cls-14" d="M347.24,388.76s12.28-7.57,10-10.32S346.47,375,338,386,347.24,388.76,347.24,388.76Z"/><path class="cls-13" d="M353.38,383.25s23.79,3.44,26.86-7.56-25.33-11-25.33-11-10-1.37-4.6,14.45A19.4,19.4,0,0,0,353.38,383.25Z"/><path class="cls-15" d="M143.14,469.92s-.69-18.57-.69-28.2,2.76-27.52,14.45-30.27c0,0,6.88-17.88,28.89-23.38,0,0,25.45-9.63,54.35-11,0,0,50.9-4.81,94.93,6.88,0,0,33.71,6.19,41.27,28.2,0,0,15.14,3.44,15.14,33,0,0,.68,22.69-1.38,24.76s-52.28,5.5-57.78,4.81H253.21s-40.2,1-73.61-.69c-11.73-.58-32-3.05-36.46-4.12"/><path class="cls-16" d="M143.14,469.92c-.31-.08-.14,0,.74.15.21.05.41.09.62.12C144.05,470.12,143.6,470,143.14,469.92Z"/><path class="cls-16" d="M149.08,470.93l1.56.22-2.39-.34-1.39-.22c-.32,0-1.38-.21-1.85-.3,1.15.2,2.61.43,4.13.65C149.47,471,149.15,470.94,149.08,470.93Z"/><path class="cls-16" d="M236.38,475h0Z"/><path class="cls-16" d="M290.59,474.81h0Z"/><path class="cls-16" d="M299.84,474.86h0Z"/><path class="cls-16" d="M236.38,475h0Z"/><path class="cls-16" d="M161.05,472.42l-.78-.09.73.09Z"/><path class="cls-16" d="M212.49,475h0Z"/><path class="cls-16" d="M194.15,474.63c.42,0,.56,0,.72,0l-.91,0Z"/><path class="cls-16" d="M165.13,472.87l-.51-.05Z"/><path class="cls-16" d="M225.61,475.07h0Z"/><path class="cls-16" d="M143.26,448.66s0,0,0,0S143.26,448.8,143.26,448.66Z"/><path class="cls-16" d="M143.11,469.92l0-.3s-.05-.06-.08-.06Z"/><path class="cls-16" d="M316.78,474.92h0Z"/><path class="cls-16" d="M365.84,397.34c1.34,1.16-2.29-1.75-.26,0C365.4,397.14,367.52,398.78,365.84,397.34Z"/><path class="cls-16" d="M161.52,472.47l.75.08Z"/><path class="cls-16" d="M365.58,397.32h0l.2.18Z"/><path class="cls-16" d="M355.79,474h0Z"/><path class="cls-16" d="M326.73,474.85h0Z"/><path class="cls-16" d="M370.84,472.81l1.06-.09h-.16C371.54,472.76,371.29,472.78,370.84,472.81Z"/><path class="cls-16" d="M386.46,471l-.28,0-.5.08Z"/><path class="cls-16" d="M159.64,407.37a5.09,5.09,0,0,1-.46.56C159.38,407.77,158.25,409.74,159.64,407.37Z"/><path class="cls-16" d="M161.05,472.42l.47.05-.52-.05Z"/><path class="cls-16" d="M371.44,472.35l2.49-.23Z"/><path class="cls-16" d="M263.68,376.5l-.57,0Z"/><path class="cls-16" d="M381.29,471.32l1.39-.13.29-.06Z"/><path class="cls-16" d="M159.18,407.93Z"/><path class="cls-16" d="M148.27,419.29c1.22-2,.44-1,.62-1.47a5.31,5.31,0,0,1,1.13-1.39c.1,0,0,.09.4-.22a13,13,0,0,1,3.14-2.88c.1,0,.32-.15.09,0a9.34,9.34,0,0,1,1.41-.79l.9-.35,1.17-.34.11,0s0-.07,0-.1l.08-.2.14-.34c.08-.16.14-.32.22-.47l.44-.93.83-1.66a1.45,1.45,0,0,1,.18-.22c-.25.26-.35.27-.37.17a10.84,10.84,0,0,1,1.27-2,5.53,5.53,0,0,0-.5.88l.57-1c.68-.75-.78,1.29-.68,1.36a35.37,35.37,0,0,1,3.63-5.19c.33-.18-2.4,3-.91,1.41-.56.64-1,1.34-1.57,2,1.33-1.45-.91,1.26.34-.06,1-1.35,1.56-2.08,2.15-2.82a28.24,28.24,0,0,1,2.37-2.63c.48-.58-.27.08.22-.5a15.51,15.51,0,0,1,3.13-2.65c.64-.45,1.19-.75,2.56-1.83.35-.3.55-.56,1-.87a18.49,18.49,0,0,1,2.12-1.29l-.65.58,2.2-1.35a19.64,19.64,0,0,1,2.41-1.21c-.52.32-2.28,1.18-1.83,1,2-.86,1.35-.82,2.94-1.44h.38c.81-.31,1.61-.69,2.48-1l2.63-.83.68-.21c.27-.08.49-.18.71-.26l1.34-.5c.9-.33,1.82-.64,2.73-.95-.19.11-.8.36.07.12a146.17,146.17,0,0,1,14.58-4l1.72-.54c.41-.09.77-.12.34,0,1.8-.37.07-.1.92-.34,1-.24,1.36-.24.72-.06,1.57-.43,3.82-.92,6.1-1.42s4.6-.89,6.3-1.07l-.65.13c2.63-.35,2.92-.73,5.38-.93l-.46.08,4.36-.54,4.37-.43c2.86-.24,5.56-.34,7.76-.46.82-.24,5.71-.31,6.07-.54l7-.07c1.23,0,1.84-.18,3.37-.25l0,.11,2.08-.14,1.11.11,1.44,0a4.92,4.92,0,0,1-1.13-.07c1.12,0,2.49-.05,3.59,0s1.91.08,1.94.11c1.77,0,3.55-.06,5.32,0-.12,0-1,0-1.72,0,2.84,0,.52.13,3.12.09-.35,0,.19-.06.25-.08,1.29.09,4.24.15,6.42.24l-.42.05c2,.11,4,.16,6.18.29l6.53.42c-1.58-.14-1.2-.24.09-.16l.51.15c.84,0-1.35-.17.37-.09s1.1.22.15.17l2,.15c.11,0-.36,0-.49.05.83,0,3.45.42,4.64.42l.11,0c4.39.49,6.39.72,10,1.18a25.38,25.38,0,0,1,2.54.26c2.61.44,5.51.92,8.63,1.57a6.3,6.3,0,0,0,1.66.2c.14.11,3.27.71,1.64.45,1.88.33,3.06.66,4.38.95s2.75.63,5.11,1.17c-.5-.15-1.07-.3-.77-.25a16.78,16.78,0,0,1,1.82.48l-.22,0c5.35,1,12,3.57,16,5.18l-.22-.09c1.37.57,2.74,1.17,4.09,1.82,1.83.94-1.13-.51.21.22a45.06,45.06,0,0,1,5.33,3c1.52,1,2.88,2,4.46,3.17a58,58,0,0,1,5.08,5,27.76,27.76,0,0,1,4.36,6.53l-.06-.24a11.21,11.21,0,0,1,.83,1.9c0-.12-.42-1.07-.12-.48l.63,1.58.2.52c0,.11.21.08.33.14l.2.06c.27.08.53.2.79.3a14.13,14.13,0,0,1,2.94,1.74,21.59,21.59,0,0,1,4.73,5.08,36.53,36.53,0,0,1,4.9,13.08,33.36,33.36,0,0,1,1,6.14l-.21-1.2c.1.85.22,1.71.28,2.58s.06,1.74.1,2.61c.06,1.75.12,3.51.15,5.27.05,3.51.06,7,0,10.38,0-.41,0-.42,0-1.08,0,.72-.07,2-.1,3.18,0,.57,0,1.09,0,1.48,0,.19,0,.35,0,.46v.18c-.06,1-.05.24-.11.88a34.85,34.85,0,0,1-.47,4.3c0,.12.06-.39.09-.65a8.05,8.05,0,0,1-.58,2.24.65.65,0,0,1-.3.31,1.36,1.36,0,0,1-.34.14c-.19.07-.23.1,0,0a47.45,47.45,0,0,1-6.72,1.2c-1.3.23-4.31.48-4.72.6.17-.09-4.43.39-6,.57.54-.07-1.39.1-.76,0-1.83.17-3.5.33-3.18.34-3.37.2-6.75.63-8.66.64-5.42.44-10.44.79-15.33,1,.17-.07,5.4-.29,5.19-.37-4.63.3-7.31.51-11.91.62-1.19,0,.68,0,1.08-.07-2.33.1-4.54.11-6.73,0l-6.36,0h.88c-.82,0-1.9,0-1.8,0h.79c1.3.05-3.23.1-3.38.12,1.38-.09-4.08,0-1.88-.13a9.22,9.22,0,0,0-1.09,0c-.79,0-1,0-.24,0l-4.52.05.82,0c-1.34,0-2.68.05-4.91,0,.13,0-.13,0,.54,0-3.83,0-6.53.07-10.74.05,1.24-.05-1.43,0-1.65-.06h-2.26l.91,0-5.44,0,1.47,0h-1.61c-2,0,.22.06-2.42,0l-3,0h0c-1,0-2,0-3.46,0-.38,0,.31-.05.06-.06l-5.86.05c.41,0,.43,0,.3,0l-.81,0c-.92,0-1.06,0-.91,0-2.76,0,.88,0-2.4,0H264c-.9,0,2.64,0,1.62,0l-13.24.06h.78c-.58.06-3.14.05-5.27.1.52,0,.68,0,.54,0l-10.28.17.55,0-6.32,0c-.55,0-1.6,0-1,0-5.67,0-10.81,0-15.84,0h1l-4.28,0,1.46,0-2.81,0c1.92,0,0,0-.85,0,.14,0-.15,0-.08,0-2.24,0-.37,0-3.43,0h.16l-3.43-.05c-.51,0,1.22,0,1.3,0l-5-.09,2.52,0-3.17-.08H199l-2.93-.08.74,0c-2.17,0-4.41-.11-7.33-.2,2.84.08.47,0,.69,0l-1.56-.06-4.24-.16c-.09,0-1.48-.06-1.17-.06-1.79-.07.43,0,.27,0-2.76-.11-6.49-.3-10.45-.62-3.42-.28-4.06-.33-7.22-.64-1.07-.11.87.08.87.08l-4.64-.48-.51-.06-2.59-.29,1.31.14-4.64-.54,1.52.18-5.18-.64,1.15.15.14,0,2.29.29-1.13-.14c1.16.15,4.54.55,6.82.8l-1-.1,2.34.25c.5.06.84.1-.29,0l2.85.3c.16,0,.09,0-.06,0l1.6.16L166,473l5.71.54-.24,0c4,.32.39,0,3.38.26l2,.16h.39l1.08.07.63,0,5.91.28c.72,0-1.89-.09.22,0,.61,0,2.45.09,4.27.17-.56,0-2.28-.08-.46,0l5.05.17,5.9.14,7.22.16H207l4.72,0a13.09,13.09,0,0,1-1.37,0l1.69,0h1.59l7.41,0c.16,0-2.3-.05.76-.05.11,0,.22,0-.58,0h2s.78,0,.63,0h-1.32l3.09,0c-.1,0,0,0,.87,0,2.25,0,.77,0,2.08,0,.54,0,2,0,2,0h1c1.17,0,5.43,0,4.12-.05h-.11l11.69-.13h0l6.63-.14a11.84,11.84,0,0,1,1.29,0h4.41c-1.73,0,.6,0-1.78,0,2.24,0,2.75,0,5.16,0-.82,0,1.68,0,2.75,0l-1.57,0h3.3l-.57,0c4.58.05,8.27-.06,11.76,0,1.21,0-2.49,0-1.41,0l5,.06c2.88,0,2.69-.05,5.71,0-.38,0-.75-.05,1.51-.07s2.59.06,1.26.07H290c-.68,0-1.57,0-.74,0h.28c1,0,4,0,3.26,0,1.6,0,.69,0-.49,0l7,0c-.44,0-.85,0-.41,0,4.08,0,1.8,0,4.57,0,1.57,0-.57.05,2.22,0,1.7,0,.36.05-.32.06,2.54,0,4.75,0,6.2,0h.78l-.76,0h1a1.85,1.85,0,0,1,.41,0c.81,0-.62-.06,1-.09,1.05,0,3.19,0,3.55,0-3.29,0,.36.05-2.42.05h2c.12,0-.11,0-.33,0,3.15.05,1.45,0,4.72,0a6.43,6.43,0,0,0,1.29,0c-1.32,0-.63,0,.57-.06,2.1,0,2.28,0,3.37,0h-1.25c.43,0,1.47,0,2.93,0,.13,0-1.32,0-.8,0,.81,0,1.72,0,2.72,0l1.55,0c.53,0,1.07.08,1.64.06,1.05.05.1.06,1,.09,2.54-.05,2.75,0,5.41-.11-.77,0-.9,0,1-.1-1.46.07-2.92.12-4.38.16l2.81-.13c-1.32,0-2.79.11-3.58.1,1.34,0,1.2,0,.57-.06,1.81,0,3.58-.12,5.67-.17l-.06.09c3.14-.09,5.57-.31,9.65-.53l-1.31.06c.54-.07,2.51-.15,3.83-.26a7,7,0,0,0,1.27,0c-.07,0,3-.2,3.34-.3l1.82-.08c3.28-.22,3.74-.38,6.9-.63a7.88,7.88,0,0,1-1.63.23l1.4-.12a3.48,3.48,0,0,0,.62-.07c.62,0,2.91-.29,3.89-.35.44-.05.58-.1,1.76-.21.13,0,0,0,0,0s1.85-.2.81-.15c3.25-.18,9.05-.95,11.87-1.31a23.19,23.19,0,0,0,3.6-.83,2.27,2.27,0,0,0,.44-.27,2.14,2.14,0,0,0,.26-.43,4.72,4.72,0,0,0,.3-.87,16.44,16.44,0,0,0,.31-1.66,1.22,1.22,0,0,1,0,.4,17.28,17.28,0,0,0,.25-2.38c0-.49,0-1,.15-2.68s-.06,1.75,0,.7c.18-.45.18-4,.28-6.18v.54c.08-1.69,0-4.13,0-6.89,0,0,0,.13,0,0-.07-1.91-.21-5.47-.3-8.12.08.83.07,1.21.11.7a19.82,19.82,0,0,1-.18-2c.05-.78-.1-2.49-.07-2.72.07.74.18,1.49.18,2.24a40.59,40.59,0,0,0-.35-4.08l.05.15a25.73,25.73,0,0,0-.57-3.46c-.2-.88-.3-1.82-.82-3.6l.07.37a18.12,18.12,0,0,1-.49-1.79l-.17-.69c-.09-.27-.22-.6-.41-1.07l-.12-.61-.48-1.24c-.19-.5-.5-1-.78-1.63a30.26,30.26,0,0,0-2-3.42c.37.57,1,1.43,1.5,2.38s1,2,1.35,2.79c-.21-.63-.75-1.63-1.19-2.58a18.16,18.16,0,0,0-1.21-2c.28.45.65,1,.91,1.48-.46-.68-.95-1.49-1.55-2.37a27.82,27.82,0,0,0-2.27-2.76,9.15,9.15,0,0,0-2.56-2.41,15.53,15.53,0,0,0-2.62-1.59c-.45-.19-.86-.37-1.24-.49,0,0-.08,0-.08-.06v-.05l0-.12-.13-.4a30.12,30.12,0,0,0-3.3-6.27,34,34,0,0,0-5-5.81c1.32,1.42-1.17-1.08-1-.73-1-.82-1.34-1.12-1.42-1.2-1-.83-2-1.63-3-2.38-.72-.56,1,.66.94.56-2.28-1.59-.91-.74-2.43-1.78a14.06,14.06,0,0,1-2.21-1.28c.62.41,1.26.8,1.86,1.23l-3.1-1.87a26.76,26.76,0,0,0-3.23-1.7c.38.16.76.33,1.13.51-.89-.46-2.57-1.25-4.27-2a44.47,44.47,0,0,0-4.38-1.61c-.33-.14-.75-.35.08-.06a73.32,73.32,0,0,0-7.26-2.25c-1.22-.32-2.42-.61-3.55-.85l-.83-.17c-.23,0-.52-.13-.77-.19l-1.44-.37.36.05c-.87-.2-1.53-.29-2.6-.59.06,0,.36,0,0-.06s-2.33-.48-3.47-.79l1,.19c-1.13-.3-2.13-.51-3.07-.68l-2.63-.47c-1.68-.27-3.25-.58-5.18-.87a53.24,53.24,0,0,0-5.4-1.06h.07c-2.68-.47-5-.65-7.23-.92l-3.37-.35-3.58-.29c-3.09-.49-10.53-1-15.54-1.27.77.06-.13.11-1,.08a22.32,22.32,0,0,1-3.07-.17l.42,0c-.88-.18-3.3-.19-5.19-.25l-.31.18c-2.47-.22-5.71-.17-8.67-.18s-5.63.11-7,0l-3.85.19.06-.1c-3.3.1-5,.14-9,.41l.82-.13c-2.3.14-2.88.48-5,.66l-.65-.11c-2,.15-4,.2-6,.37s-4,.33-6,.69a2.4,2.4,0,0,1,.82-.18l-4.26.51c-1.49.22-2.66.44-2.3.5a12.76,12.76,0,0,0-2.35.31c-1.28.23-2.81.58-3.87.8l.31-.17c-1.78.46-1.83.52-4.33,1.07-.6.11-.54,0,.26-.11-2,.35-1.53.4-3.93.89l.88-.27a26,26,0,0,0-3,.79,35.53,35.53,0,0,1-4.16.9,16.82,16.82,0,0,1-2.52.79c-.17,0,.25-.13.47-.2-3.39.83-4.95,1.52-7.27,2.11a.81.81,0,0,0-.4.05c2.64-.81,4.78-1.41,4.58-1.34,0-.1-2.18.49-.51-.13-1.71.55-4.58,1.62-6.67,2.25l-.28,0,.21-.08c-.48.15-.91.3-1.31.45-.66.21-1.08.34-1.71.56a2.8,2.8,0,0,0-.52.13l-.43.15-.46.14-2.09.62c.13.09-1.29.48.06.19a5.1,5.1,0,0,1,.91-.29l.46-.15-.07,0,1.19-.35,1.4-.51-1.28.53a14.22,14.22,0,0,1-1.56.44l-1.44.63a17.63,17.63,0,0,0-2.76.76c-.93.31-1.73.57-1.95.6a50.74,50.74,0,0,0-4.91,2.67,25,25,0,0,0-3.73,2.73,8.06,8.06,0,0,1-1.22.84c.43-.37.93-.81,1.17-1-.76.6-1.86,1.54-2.8,2.37a17,17,0,0,0-1.76,1.85c-1.72,1.74.83-1.12-1.44,1.37l.27-.37a30.43,30.43,0,0,0-5.19,7.07c-.35.6-.65,1.23-1,1.88-.15.32-.31.65-.46,1l-.21.49-.08.19-.19.06a15.71,15.71,0,0,0-4.54,2.08,8.2,8.2,0,0,1,.75-.45,15.31,15.31,0,0,0-2.49,2,18.68,18.68,0,0,0-2,2.48,26.82,26.82,0,0,0-2.92,5.75,58.5,58.5,0,0,0-2.88,12.32,20.33,20.33,0,0,0-.14,4l-.17.51c0,.81.07,1.63.16,2.44.21,3.44-.21,6,.12,10.33l.09-.56c0,1.57.18,5,.06,4.7a4.42,4.42,0,0,1,.07,1.13l-.07.05.22,3.84c0,3-.32-.45-.23,3.9a24.66,24.66,0,0,0,.38,4,8.69,8.69,0,0,1,.08-1.73l.08,1.48c.24.26.51,1.39.58-2.25l-.21-2.52.09-.82.06,2.13a14.4,14.4,0,0,0-.12-2.83,4.73,4.73,0,0,0,.1-1.06l-.28-2.48c.08-.31.2,1.11.21-.56-.13-1.16-.17,1.12-.29-.81a8.51,8.51,0,0,0,0-2.28c.06-.2.1.1.14.67-.1-1.27-.11-3.35-.25-4,.1-1.27-.14-4.27.08-4.15-.06-.4-.23-2.23-.26-3.39.31,2.12-.11-4.35.19-3.78a46.22,46.22,0,0,1,.41-8.37,4.77,4.77,0,0,1-.05.7,28.84,28.84,0,0,1,.6-2.94,19.8,19.8,0,0,1,.55-3.89c.68-1.79-.1,1.17.23.63-.2.05.77-3.2.49-2.61a8.51,8.51,0,0,1,.86-1.81c-.12-.32.46-1.26.86-2.4a5,5,0,0,1,.75-1.12c.11-.11.17-.29.76-1.26S148.24,419.28,148.27,419.29Zm42.22-32.51h0l-1.09.37Zm4.45-1.38L193,386c-.17,0,0-.08.44-.22A13,13,0,0,0,194.94,385.4Zm-9.6,2.28.24-.08h0l.1,0,.3-.1.3-.08-.54.2-.15.06-.12,0-.37.11-.08,0A1.07,1.07,0,0,1,185.34,387.68Z"/><path class="cls-16" d="M184.09,388.21l-.29.09.43-.1.25-.11Z"/><path class="cls-16" d="M235.72,475h0Z"/><polygon class="cls-16" points="258.49 376.62 258.48 376.59 258.07 376.63 258.49 376.62"/><path class="cls-16" d="M210,474.89h0Z"/><path class="cls-16" d="M198.9,474.7l-1.57,0Z"/><path class="cls-16" d="M190.37,474.45h0Z"/><path class="cls-16" d="M326.15,474.57h0Z"/><path class="cls-16" d="M285.74,474.68H287C286.32,474.66,285.76,474.66,285.74,474.68Z"/><path class="cls-16" d="M371.17,472.37h0l.27,0Z"/><path class="cls-16" d="M288.91,474.67h0Z"/><path class="cls-16" d="M153.49,471.52l-.41,0H153Z"/><path class="cls-16" d="M153,471.46l-.45-.06Z"/><path class="cls-16" d="M151.62,471.28l1,.12Z"/><path class="cls-16" d="M164.72,472.81h0Z"/><path class="cls-16" d="M168.14,473.15l-3.19-.32h-.1Z"/><path class="cls-16" d="M182.44,474.19l-2.88-.14c.5,0,1.16.07-.14,0Z"/><path class="cls-16" d="M191.36,474.54c-1.55-.05,0,0-.07,0C192.27,474.58,192.51,474.59,191.36,474.54Z"/><path class="cls-16" d="M255.86,474.79l-.15,0C256.9,474.81,255.72,474.8,255.86,474.79Z"/><polygon class="cls-16" points="268.19 474.66 267.03 474.65 266.48 474.67 268.19 474.66"/><polygon class="cls-16" points="275.48 474.85 274.96 474.86 276.95 474.85 275.48 474.85"/><path class="cls-16" d="M383.7,471.5l-.36,0C382.54,471.6,382.38,471.69,383.7,471.5Z"/><path class="cls-16" d="M390,430c-.1-.5-.42-1.78-.66-2.56C389.56,428.48,389.83,429.5,390,430Z"/><path class="cls-16" d="M270.89,375.69l.94,0h-1.77Z"/><circle class="cls-17" cx="368.78" cy="441.03" r="15.82"/><circle class="cls-18" cx="368.78" cy="441.03" r="13.07"/><circle class="cls-17" cx="164.47" cy="441.03" r="15.82"/><circle class="cls-19" cx="164.47" cy="441.03" r="13.07"/><rect class="cls-17" x="185.79" y="426.58" width="161.66" height="30.95" rx="6"/><rect class="cls-17" x="209.18" y="460.29" width="119.01" height="4.13" rx="1.16"/><rect class="cls-17" x="200.24" y="422.46" width="130.7" height="2.75" rx="0.78"/><rect class="cls-20" x="192.67" y="429.34" width="149.96" height="1.38"/><rect class="cls-20" x="192.67" y="444.47" width="149.96" height="1.38"/><rect class="cls-20" x="192.67" y="434.15" width="149.96" height="1.38"/><rect class="cls-20" x="192.67" y="442.4" width="149.96" height="1.38"/><rect class="cls-20" x="192.67" y="431.4" width="149.96" height="2.06"/><rect class="cls-20" x="192.67" y="436.21" width="149.96" height="2.06"/><rect class="cls-20" x="192.67" y="438.97" width="149.96" height="2.75"/><rect class="cls-20" x="192.67" y="446.53" width="149.96" height="2.75"/><rect class="cls-20" x="192.67" y="449.97" width="149.96" height="2.75"/><path class="cls-2" d="M199.61,75.6h8.55v54h-8.55Z"/><path class="cls-2" d="M230.71,129.58c-.46-1.38-.78-2.23-.78-6.63v-8.48c0-5-1.71-6.87-5.59-6.87h-3v22h-8.56v-54h12.92c8.86,0,12.67,4.08,12.67,12.41v4.24c0,5.56-1.79,9.11-5.6,10.88v.15c4.28,1.78,5.68,5.79,5.68,11.42V123a15.83,15.83,0,0,0,.93,6.55Zm-9.33-46.27V99.89h3.34c3.19,0,5.14-1.39,5.14-5.71V88.86c0-3.85-1.33-5.55-4.36-5.55Z"/><path class="cls-2" d="M267.88,88.94v7c0,8.63-4.2,13.34-12.75,13.34h-4v20.28h-8.55v-54h12.6C263.68,75.6,267.88,80.3,267.88,88.94Zm-16.8-5.63v18.28h4c2.72,0,4.2-1.24,4.2-5.09V88.4c0-3.86-1.48-5.09-4.2-5.09Z"/><path class="cls-2" d="M269.59,88.55c0-8.64,4.59-13.57,13-13.57s13,4.93,13,13.57v28.08c0,8.63-4.59,13.57-13,13.57s-13-4.94-13-13.57Zm8.55,28.62c0,3.85,1.72,5.32,4.44,5.32S287,121,287,117.17V88c0-3.85-1.71-5.32-4.43-5.32s-4.44,1.47-4.44,5.32Z"/><path class="cls-2" d="M317.42,129.58c-.47-1.38-.78-2.23-.78-6.63v-8.48c0-5-1.71-6.87-5.6-6.87h-3v22h-8.55v-54h12.91c8.87,0,12.68,4.08,12.68,12.41v4.24c0,5.56-1.79,9.11-5.6,10.88v.15c4.28,1.78,5.67,5.79,5.67,11.42V123a15.67,15.67,0,0,0,.94,6.55Zm-9.34-46.27V99.89h3.35c3.19,0,5.13-1.39,5.13-5.71V88.86c0-3.85-1.32-5.55-4.35-5.55Z"/><path class="cls-2" d="M326.3,75.6h26.44v7.71H343.8v46.27h-8.56V83.31H326.3Z"/><path class="cls-2" d="M380.09,129.58h-8l-1.37-9.71H361l-1.37,9.71h-7.29L360.41,76H372ZM362,112.6h7.64l-3.75-27.07h-.14Z"/><path class="cls-2" d="M413.28,75.6l-8.94,26.22,9.56,27.76h-9L398,108.22h-.16l-7,21.36h-8l9.57-27.76L383.42,75.6h8.86l6.38,19.89h.15l6.54-19.89Z"/><path class="cls-2" d="M423,75.6h-7.36v54H423Z"/><path class="cls-2" d="M190.22,81.7h-3.56V55.25a6.38,6.38,0,0,0-6.38-6.38h-19l-4.47-8-19,0-4.42,8H115.53a6.38,6.38,0,0,0-6.37,6.38V81.7H105.6a6.38,6.38,0,0,0-6.38,6.38v28a6.38,6.38,0,0,0,6.38,6.39h3.56v5.22a3.72,3.72,0,0,0,3.72,3.73h9.44a3.73,3.73,0,0,0,3.73-3.73v-5.22h43.71v5.22a3.73,3.73,0,0,0,3.73,3.73h9.44a3.73,3.73,0,0,0,3.73-3.73v-5.22h3.56a6.38,6.38,0,0,0,6.37-6.39v-28A6.38,6.38,0,0,0,190.22,81.7Zm-74,24.73a8,8,0,1,1,8-8A8,8,0,0,1,116.21,106.43ZM160,78.57H125.15V67.8h0s0-.07,0-.11V65.22A10.91,10.91,0,0,1,136,54.34h24a10.91,10.91,0,0,1,10.87,10.88v2.47s0,.08,0,.11h0V78.57Zm17.82,28.85a8,8,0,1,1,7.95-8A8,8,0,0,1,177.81,107.42Z"/><path class="cls-2" d="M244,167.09v1.15h-7.73v8.41H244v1.15h-7.73v9.55h-1.14V167.09Z"/><path class="cls-2" d="M244.87,180.12a4.31,4.31,0,0,0,0,.64,5.53,5.53,0,0,0,1.68,4.06,5.77,5.77,0,0,0,8.14,0,7.7,7.7,0,0,0,.54-.6l1.22.43a6.31,6.31,0,0,1-.9,1,6.95,6.95,0,1,1,0-9.83,5.92,5.92,0,0,1,1.79,4.29Zm.22-1.16H256a5.44,5.44,0,0,0-1.36-2.27,5.75,5.75,0,0,0-8.14,0A5.9,5.9,0,0,0,245.09,179Z"/><path class="cls-2" d="M262.46,175.92a4.09,4.09,0,0,0-2.4,1.55,4.22,4.22,0,0,0-1.17,2.75v7.13h-1.15V174.92h1.15v2.69a4.93,4.93,0,0,1,2.94-2.79Z"/><path class="cls-2" d="M263.85,177.7v9.65H262.7V174.92h1.15v.8a5,5,0,0,1,3.61-1.55,4.77,4.77,0,0,1,5,4.86v8.32h-1.13v-8.21a3.6,3.6,0,0,0-1.15-2.7,3.74,3.74,0,0,0-2.72-1.12,3.79,3.79,0,0,0-2.71,1.1A4.17,4.17,0,0,0,263.85,177.7Z"/><path class="cls-2" d="M287.51,187.35h-1.15v-2.53a8.19,8.19,0,0,1-.72.84,6.95,6.95,0,1,1,0-9.83,8.3,8.3,0,0,1,.72.85v-1.76h1.15Zm-1.15-5.47v-2.25a5.51,5.51,0,0,0-1.57-2.94,5.75,5.75,0,0,0-9.82,4.07,5.53,5.53,0,0,0,1.68,4.06,5.77,5.77,0,0,0,8.14,0A5.49,5.49,0,0,0,286.36,181.88Z"/><path class="cls-2" d="M290.17,177.7v9.65H289V174.92h1.14v.8a5,5,0,0,1,3.61-1.55,4.77,4.77,0,0,1,5,4.86v8.32h-1.13v-8.21a3.63,3.63,0,0,0-1.14-2.7,3.88,3.88,0,0,0-5.43,0A4,4,0,0,0,290.17,177.7Z"/><path class="cls-2" d="M313.83,187.35h-1.14v-2.53a8.19,8.19,0,0,1-.72.84,6.95,6.95,0,1,1,0-9.83,8.3,8.3,0,0,1,.72.85v-9.59h1.14Zm-1.14-5.47v-2.25a5.68,5.68,0,1,0,0,2.25Z"/><path class="cls-2" d="M321.91,173.8a7,7,0,1,1-4.9,11.87,7,7,0,0,1,4.9-11.87Zm-4.06,2.89a5.73,5.73,0,1,0,4.06-1.69A5.58,5.58,0,0,0,317.85,176.69Z"/><path class="cls-2" d="M343.43,167.09l7.35,20.26h-1.21l-3.24-8.91h-7l-3.3,8.91h-1.22l7.44-20.26Zm2.49,10.22-3.08-8.5-3.1,8.5Z"/><path class="cls-2" d="M352.07,192.08h-1.28l3.28-7-4.73-10.13h1.28l4.08,8.68,4.1-8.68h1.28Z"/><path class="cls-2" d="M373.92,187.35h-1.15v-2.53a8.09,8.09,0,0,1-.71.84,6.95,6.95,0,1,1,0-9.83,8.2,8.2,0,0,1,.71.85v-1.76h1.15Zm-1.15-5.47v-2.25a5.51,5.51,0,0,0-1.57-2.94,5.76,5.76,0,0,0-9.82,4.07,5.5,5.5,0,0,0,1.69,4.06,5.76,5.76,0,0,0,8.13,0A5.49,5.49,0,0,0,372.77,181.88Z"/><path class="cls-2" d="M376.74,167.09v20.26H375.6V167.09Z"/><path class="cls-2" d="M392,187.35H390.8v-2.53a9.55,9.55,0,0,1-.71.84,6.95,6.95,0,1,1,0-9.83,9.68,9.68,0,0,1,.71.85v-1.76H392Zm-1.15-5.47v-2.25a5.51,5.51,0,0,0-1.57-2.94,5.75,5.75,0,0,0-9.82,4.07,5.53,5.53,0,0,0,1.68,4.06,5.77,5.77,0,0,0,8.14,0A5.49,5.49,0,0,0,390.8,181.88Z"/><path class="cls-15" d="M188.89,232.61V215.85c0-5.1,2.69-8,7.61-8s7.61,2.91,7.61,8v16.76c0,5.11-2.69,8-7.61,8S188.89,237.72,188.89,232.61Zm10.2.32v-17.4c0-2.27-1-3.14-2.59-3.14s-2.6.87-2.6,3.14v17.4c0,2.28,1,3.15,2.6,3.15S199.09,235.21,199.09,232.93Z"/><path class="cls-15" d="M207.07,232.61V232h4.73v.91c0,2.28,1,3.15,2.6,3.15,1.78,0,2.78-.87,2.78-3.92v-6.1h-.09a4.62,4.62,0,0,1-4.56,2.77c-3.69,0-5.56-2.59-5.56-7.28v-5.7c0-5.1,2.69-8,7.61-8s7.61,2.91,7.61,8v16.49c0,5.38-2.46,8.29-7.65,8.29C209.61,240.63,207.07,237.72,207.07,232.61Zm10.11-11.47v-5.65c0-2.1-.87-3.1-2.6-3.1s-2.6,1-2.6,3.1v5.65c0,2.14.87,3.14,2.6,3.14S217.18,223.28,217.18,221.14Z"/><path class="cls-15" d="M225.1,232.75v-2.82c0-3.05.91-5.29,3.28-6.52v-.09c-2.09-1.14-3.1-3.14-3.1-6.28v-1.32c0-5.1,2.78-7.88,7.66-7.88s7.65,2.78,7.65,7.88V217c0,3.14-1.05,5.14-3.1,6.28v.09c2.37,1.23,3.28,3.47,3.28,6.52v2.82c0,5.1-2.78,7.88-7.83,7.88S225.1,237.85,225.1,232.75Zm10.66-.27v-3c0-2.42-1-3.6-2.82-3.6s-2.83,1.18-2.83,3.6v3c0,2.41,1,3.6,2.83,3.6S235.76,234.89,235.76,232.48Zm-.18-14.39v-2.51c0-2.1-.91-3.19-2.64-3.19s-2.65,1.09-2.65,3.19v2.51c0,2.09.92,3.18,2.65,3.18S235.58,220.18,235.58,218.09Z"/><path class="cls-15" d="M251.06,232.61v-2.5h4.74V233c0,2.28,1,3.1,2.6,3.1s2.6-.82,2.6-3.1v-7.15c0-2.28-1-3.14-2.6-3.14s-2.6.86-2.6,3.14v.27h-4.74l.92-17.81h13.21v4.56h-8.75l-.41,7.6h.09a4.71,4.71,0,0,1,4.33-2.32c3.69,0,5.56,2.6,5.56,7.29v7.19c0,5.11-2.56,8-7.47,8S251.06,237.72,251.06,232.61Z"/><path class="cls-15" d="M269.28,232.61v-2.5H274V233c0,2.28,1,3.1,2.6,3.1s2.59-.82,2.59-3.1v-7.15c0-2.28-1-3.14-2.59-3.14s-2.6.86-2.6,3.14v.27h-4.74l.92-17.81h13.21v4.56h-8.75l-.41,7.6h.09a4.71,4.71,0,0,1,4.33-2.32c3.69,0,5.56,2.6,5.56,7.29v7.19c0,5.11-2.56,8-7.48,8S269.28,237.72,269.28,232.61Z"/><path class="cls-15" d="M287.55,236.71c0-4.55,1.28-7.33,5-11.25s4.92-6.46,4.92-9.42-1-3.65-2.6-3.65-2.59.87-2.59,3.14V219h-4.74v-3.1c0-5.1,2.55-8,7.47-8s7.47,2.91,7.47,8c0,3.78-1.55,7.15-6.19,12.07-3,3.19-3.79,4.79-3.79,7v.68H302v4.55H287.55Z"/><path class="cls-15" d="M313.06,236.71c0-4.55,1.27-7.33,5-11.25S323,219,323,216s-1-3.65-2.6-3.65-2.6.87-2.6,3.14V219h-4.73v-3.1c0-5.1,2.55-8,7.47-8s7.47,2.91,7.47,8c0,3.78-1.55,7.15-6.2,12.07-3,3.19-3.78,4.79-3.78,7v.68h9.52v4.55H313.06Z"/><path class="cls-15" d="M331.23,232.61v-2.5H336V233c0,2.28,1,3.1,2.59,3.1s2.6-.82,2.6-3.1v-7.15c0-2.28-1-3.14-2.6-3.14s-2.59.86-2.59,3.14v.27h-4.74l.91-17.81h13.21v4.56h-8.74l-.41,7.6h.09a4.7,4.7,0,0,1,4.32-2.32c3.69,0,5.56,2.6,5.56,7.29v7.19c0,5.11-2.55,8-7.47,8S331.23,237.72,331.23,232.61Z"/><path class="cls-15" d="M349.45,232.61v-2.5h4.74V233c0,2.28,1,3.1,2.59,3.1s2.6-.82,2.6-3.1v-7.15c0-2.28-1-3.14-2.6-3.14s-2.59.86-2.59,3.14v.27h-4.74l.91-17.81h13.21v4.56h-8.74l-.41,7.6h.09a4.7,4.7,0,0,1,4.32-2.32c3.69,0,5.56,2.6,5.56,7.29v7.19c0,5.11-2.55,8-7.47,8S349.45,237.72,349.45,232.61Z"/><path class="cls-15" d="M367.44,232.71v-2.6h4.74v2.82c0,2.28,1,3.15,2.6,3.15s2.59-.78,2.59-3.6v-2.6c0-3-1-4-3.28-4h-1.68v-4.56h1.82c1.87,0,3-.82,3-3.37v-2.32c0-2.28-1.05-3.19-2.51-3.19s-2.41.87-2.41,3v2.1h-4.74v-1.69c0-5.1,2.55-7.92,7.33-7.92s7.34,2.78,7.34,7.88v1.14c0,3.41-1.1,5.51-3.56,6.42v.09c2.69,1,3.69,3.32,3.69,6.56v2.82c0,5.1-2.55,7.88-7.47,7.88S367.44,237.81,367.44,232.71Z"/></g></g></svg>