<svg xmlns="http://www.w3.org/2000/svg" viewBox="0 0 992.16 205"><defs><style>.cls-1,.cls-2{fill:#fff;}.cls-2{opacity:0.35;}</style></defs><title>TextoTarjeta2</title><g id="Capa_2" data-name="Capa 2"><g id="Capa_1-2" data-name="Capa 1"><path class="cls-1" d="M134.62,42.94v2.34H116.25v17.2h18.37v2.34H116.25V82h18.37v2.34H113.9V42.94Z"/><path class="cls-1" d="M141.94,64.62V84.36H139.6V58.93h2.34v1.65a10.14,10.14,0,0,1,7.39-3.17,9.92,9.92,0,0,1,7.34,2.83,9.8,9.8,0,0,1,2.88,7.1v17h-2.31V67.58A7.45,7.45,0,0,0,154.9,62a7.92,7.92,0,0,0-11.11,0A8.72,8.72,0,0,0,141.94,64.62Z"/><path class="cls-1" d="M185.11,58.93,173.74,84.36h-1.23L161.26,58.93H164l9.14,21.19,9.26-21.19Z"/><path class="cls-1" d="M190.19,50.61a2.19,2.19,0,0,1,.69,1.62,2.25,2.25,0,0,1-.69,1.67,2.28,2.28,0,0,1-1.62.67,2.32,2.32,0,0,1-1.66-.67,2.25,2.25,0,0,1-.69-1.67,2.19,2.19,0,0,1,.69-1.62,2.32,2.32,0,0,1,1.66-.67A2.28,2.28,0,0,1,190.19,50.61Zm-.48,8.32V84.36h-2.32V58.93Z"/><path class="cls-1" d="M222.26,84.36h-2.34V79.18a18.42,18.42,0,0,1-1.47,1.73,14.23,14.23,0,0,1-24.29-10,14.23,14.23,0,0,1,24.29-10.08,17.23,17.23,0,0,1,1.47,1.73V58.93h2.34Zm-2.34-11.19v-4.6a11.66,11.66,0,1,0,0,4.6Z"/><path class="cls-1" d="M226.57,58.93h2.35v.62a7.14,7.14,0,0,1,5.18-2.11,7.27,7.27,0,0,1,5.34,2.2,7.06,7.06,0,0,1,1,1.29,9.32,9.32,0,0,1,1.09-1.29,7.56,7.56,0,0,1,10.66,0,7.49,7.49,0,0,1,2.2,5.1V84.36h-2.35V64.74h0a4.89,4.89,0,0,0-1.52-3.43,5.24,5.24,0,0,0-7.4,0,5.15,5.15,0,0,0-1.54,3.81V84.36h-2.31V64.74h0a5.29,5.29,0,0,0-5.25-5,5.25,5.25,0,0,0-5.18,4.75V84.36h-2.35Z"/><path class="cls-1" d="M272.43,56.65a14.17,14.17,0,0,1,14.21,14.24,14.21,14.21,0,1,1-14.21-14.24Zm-8.31,5.92a11.71,11.71,0,1,0,8.31-3.46A11.38,11.38,0,0,0,264.12,62.57Z"/><path class="cls-1" d="M297,70.71a19,19,0,0,1-4.1-2.75,6.12,6.12,0,0,1,4.31-10.43,5.65,5.65,0,0,1,4.19,1.67,5.08,5.08,0,0,1,1.61,3.69V63l-2,.82a5.16,5.16,0,0,0-1.23-3,3.37,3.37,0,0,0-2.55-1,3.78,3.78,0,0,0-2.67,6.45,16.59,16.59,0,0,0,2.73,2A21.38,21.38,0,0,1,302,71.5a7.55,7.55,0,0,1-5.34,12.89,7.22,7.22,0,0,1-5.33-2.21,6.78,6.78,0,0,1-2.2-4.85l2.32-.58A5.13,5.13,0,0,0,293,80.54a5,5,0,0,0,3.67,1.54,5.28,5.28,0,0,0,5.25-5.27,5,5,0,0,0-1.55-3.67A24,24,0,0,0,297,70.71Z"/><path class="cls-1" d="M324.47,42.94V84.36h-2.34V42.94Z"/><path class="cls-1" d="M356.77,84.36h-2.35V79.18A19.94,19.94,0,0,1,353,80.91a14.24,14.24,0,0,1-24.3-10A14.24,14.24,0,0,1,353,60.81a18.55,18.55,0,0,1,1.46,1.73V58.93h2.35Zm-2.35-11.19v-4.6a11.66,11.66,0,1,0,0,4.6Z"/><path class="cls-1" d="M378.14,50.61a2.19,2.19,0,0,1,.69,1.62,2.25,2.25,0,0,1-.69,1.67,2.28,2.28,0,0,1-1.62.67,2.32,2.32,0,0,1-1.66-.67,2.25,2.25,0,0,1-.69-1.67,2.19,2.19,0,0,1,.69-1.62,2.32,2.32,0,0,1,1.66-.67A2.28,2.28,0,0,1,378.14,50.61Zm-.48,8.32V84.36h-2.32V58.93Z"/><path class="cls-1" d="M385.19,64.62V84.36h-2.34V58.93h2.34v1.65a10.13,10.13,0,0,1,7.39-3.17,9.77,9.77,0,0,1,10.22,9.93v17h-2.31V67.58A7.46,7.46,0,0,0,398.14,62,7.91,7.91,0,0,0,387,62,8.54,8.54,0,0,0,385.19,64.62Z"/><path class="cls-1" d="M410.07,61.28V84.36h-2.35V61.28h-2.57V58.93h2.57V52.05a7.58,7.58,0,0,1,2.2-4.95,7,7,0,0,1,4.9-2,9.41,9.41,0,0,1,3.07.55l-.73,2.08a5.35,5.35,0,0,0-2.11-.47,5.15,5.15,0,0,0-3.46,1.47,5.08,5.08,0,0,0-1.52,3.46v6.7h5.19v2.35Z"/><path class="cls-1" d="M430.85,56.65a14.19,14.19,0,0,1,14.21,14.24,14.22,14.22,0,1,1-24.25-10.08A13.72,13.72,0,0,1,430.85,56.65Zm-8.31,5.92a11.7,11.7,0,1,0,8.31-3.46A11.34,11.34,0,0,0,422.54,62.57Z"/><path class="cls-1" d="M457.86,61A8.33,8.33,0,0,0,453,64.15a8.61,8.61,0,0,0-2.4,5.62V84.36h-2.35V58.93h2.35v5.51a10.1,10.1,0,0,1,6-5.71Z"/><path class="cls-1" d="M459.56,58.93h2.35v.62a7.14,7.14,0,0,1,5.18-2.11,7.27,7.27,0,0,1,5.34,2.2,7.06,7.06,0,0,1,1,1.29,9.32,9.32,0,0,1,1.09-1.29,7.56,7.56,0,0,1,10.66,0,7.49,7.49,0,0,1,2.2,5.1V84.36h-2.34V64.74h0a4.89,4.89,0,0,0-1.52-3.43,5.24,5.24,0,0,0-7.4,0,5.15,5.15,0,0,0-1.54,3.81V84.36h-2.31V64.74h0a5.27,5.27,0,0,0-5.25-5,5.25,5.25,0,0,0-5.18,4.75V84.36h-2.35Z"/><path class="cls-1" d="M519.37,84.36H517V79.18a16.93,16.93,0,0,1-1.46,1.73,14.23,14.23,0,0,1-24.29-10,14.23,14.23,0,0,1,24.29-10.08A15.91,15.91,0,0,1,517,62.54V58.93h2.35ZM517,73.17v-4.6a11.75,11.75,0,0,0-19.85-6A11.74,11.74,0,1,0,513.8,79.15,11.2,11.2,0,0,0,517,73.17Z"/><path class="cls-1" d="M545.65,78.24l2.47.91a16.46,16.46,0,0,1-1.53,1.76,14.23,14.23,0,0,1-24.29-10,14.23,14.23,0,0,1,24.29-10,15.54,15.54,0,0,1,1.53,1.76l-2.47.91a11.73,11.73,0,0,0-.82-.94,11.75,11.75,0,0,0-16.6,16.62,11.7,11.7,0,0,0,16.6,0A9.91,9.91,0,0,0,545.65,78.24Z"/><path class="cls-1" d="M554.72,50.61a2.19,2.19,0,0,1,.69,1.62,2.25,2.25,0,0,1-.69,1.67,2.28,2.28,0,0,1-1.62.67,2.32,2.32,0,0,1-1.66-.67,2.25,2.25,0,0,1-.69-1.67,2.19,2.19,0,0,1,.69-1.62,2.32,2.32,0,0,1,1.66-.67A2.28,2.28,0,0,1,554.72,50.61Zm-.48,8.32V84.36h-2.31V58.93Z"/><path class="cls-1" d="M572.85,56.65a14.19,14.19,0,0,1,14.21,14.24,14.21,14.21,0,1,1-24.25-10.08A13.74,13.74,0,0,1,572.85,56.65Zm-8.31,5.92a11.7,11.7,0,1,0,8.31-3.46A11.34,11.34,0,0,0,564.54,62.57Zm14-13.86-6.36,4.83H570l4.21-4.83Z"/><path class="cls-1" d="M593.21,64.62V84.36h-2.34V58.93h2.34v1.65a10.13,10.13,0,0,1,7.39-3.17,9.77,9.77,0,0,1,10.22,9.93v17h-2.31V67.58A7.42,7.42,0,0,0,606.16,62a7.91,7.91,0,0,0-11.1,0A8.54,8.54,0,0,0,593.21,64.62Z"/><path class="cls-1" d="M656.48,84.36h-2.35V79.18a18.31,18.31,0,0,1-1.46,1.73,14.23,14.23,0,0,1-24.29-10,14.23,14.23,0,0,1,24.29-10.08,17.13,17.13,0,0,1,1.46,1.73V42.94h2.35Zm-2.35-11.19v-4.6a11.66,11.66,0,1,0,0,4.6Z"/><path class="cls-1" d="M662,69.57a9.13,9.13,0,0,0-.09,1.32,11.75,11.75,0,0,0,20.07,8.26c.39-.39.76-.8,1.12-1.23l2.49.88a12.79,12.79,0,0,1-1.85,2.11,14.23,14.23,0,0,1-24.29-10A14.23,14.23,0,0,1,683.7,60.81a12,12,0,0,1,3.66,8.76Zm.44-2.37h22.33a11.07,11.07,0,0,0-2.79-4.63,11.73,11.73,0,0,0-16.64,0A11.77,11.77,0,0,0,662.4,67.2Z"/><path class="cls-1" d="M692.79,42.94V84.36h-2.35V42.94Z"/><path class="cls-1" d="M733.37,78.24l2.46.91a17.54,17.54,0,0,1-1.52,1.76,14.23,14.23,0,0,1-24.29-10,14.23,14.23,0,0,1,24.29-10,16.5,16.5,0,0,1,1.52,1.76l-2.46.91c-.25-.32-.53-.63-.82-.94A11.75,11.75,0,0,0,716,79.16a11.26,11.26,0,0,0,8.28,3.45,11.37,11.37,0,0,0,8.32-3.46A11.61,11.61,0,0,0,733.37,78.24Z"/><path class="cls-1" d="M752.48,56.65a14.19,14.19,0,0,1,14.21,14.24,14.22,14.22,0,1,1-24.25-10.08A13.72,13.72,0,0,1,752.48,56.65Zm-8.31,5.92a11.7,11.7,0,1,0,8.31-3.46A11.34,11.34,0,0,0,744.17,62.57Z"/><path class="cls-1" d="M772.84,64.62V84.36H770.5V58.93h2.34v1.65a10.13,10.13,0,0,1,7.39-3.17,9.77,9.77,0,0,1,10.22,9.93v17h-2.31V67.58A7.42,7.42,0,0,0,785.79,62a7.91,7.91,0,0,0-11.1,0A8.54,8.54,0,0,0,772.84,64.62Z"/><path class="cls-1" d="M822.42,84.36h-2.34V79.18a18.42,18.42,0,0,1-1.47,1.73,14.23,14.23,0,0,1-24.29-10,14.23,14.23,0,0,1,24.29-10.08,17.23,17.23,0,0,1,1.47,1.73V42.94h2.34Zm-2.34-11.19v-4.6a11.64,11.64,0,1,0,0,4.6Z"/><path class="cls-1" d="M836.87,84.72a10.23,10.23,0,0,1-7.59-2.82,9.92,9.92,0,0,1-2.9-7.12V58.91h2.34V74.58a7.4,7.4,0,0,0,2.35,5.51,7.82,7.82,0,0,0,5.77,2.31,7.63,7.63,0,0,0,5.55-2.3,7.48,7.48,0,0,0,2.33-5.52V58.91h2.34V74.78a9.78,9.78,0,0,1-10.19,9.94Z"/><path class="cls-1" d="M873.29,78.24l2.46.91a17.54,17.54,0,0,1-1.52,1.76,14.23,14.23,0,0,1-24.29-10,14.23,14.23,0,0,1,24.29-10,16.5,16.5,0,0,1,1.52,1.76l-2.46.91c-.25-.32-.53-.63-.82-.94a11.75,11.75,0,0,0-16.6,16.62,11.26,11.26,0,0,0,8.28,3.45,11.37,11.37,0,0,0,8.32-3.46A11.61,11.61,0,0,0,873.29,78.24Z"/><path class="cls-1" d="M882.2,58.93V48.12h2.31V58.93h5.19v2.35h-5.19V84.36H882.2V61.28H877V58.93Z"/><path class="cls-1" d="M905.76,56.65A14.19,14.19,0,0,1,920,70.89a14.21,14.21,0,1,1-24.25-10.08A13.74,13.74,0,0,1,905.76,56.65Zm-8.31,5.92a11.71,11.71,0,1,0,8.31-3.46A11.38,11.38,0,0,0,897.45,62.57Z"/><path class="cls-1" d="M932.78,61a8.35,8.35,0,0,0-4.9,3.16,8.61,8.61,0,0,0-2.4,5.62V84.36h-2.35V58.93h2.35v5.51a10.12,10.12,0,0,1,6-5.71Z"/><path class="cls-1" d="M951.27,94h-2.61l6.71-14.38L945.7,58.93h2.61l8.35,17.76L965,58.93h2.61Z"/><path class="cls-1" d="M219.92,156.36h-2.34v-5.18a18.42,18.42,0,0,1-1.47,1.73,14.21,14.21,0,1,1,0-20.1,17.23,17.23,0,0,1,1.47,1.73v-19.6h2.34Zm-2.34-11.19v-4.6a11.64,11.64,0,1,0,0,4.6Z"/><path class="cls-1" d="M225.4,141.57a9.13,9.13,0,0,0-.09,1.32,11.75,11.75,0,0,0,20.07,8.26,16.33,16.33,0,0,0,1.12-1.23l2.49.88a12.79,12.79,0,0,1-1.85,2.11,14.21,14.21,0,1,1,0-20.1,12,12,0,0,1,3.66,8.76Zm.44-2.37h22.33a11.07,11.07,0,0,0-2.79-4.63,11.73,11.73,0,0,0-16.64,0A11.89,11.89,0,0,0,225.84,139.2Z"/><path class="cls-1" d="M256.78,130.93V120.12h2.32v10.81h5.18v2.35H259.1v23.08h-2.32V133.28H251.6v-2.35Z"/><path class="cls-1" d="M294.29,156.36H292v-5.18a18.42,18.42,0,0,1-1.47,1.73,14.21,14.21,0,1,1,0-20.1,17.23,17.23,0,0,1,1.47,1.73v-3.61h2.34ZM292,145.17v-4.6a11.64,11.64,0,1,0,0,4.6Z"/><path class="cls-1" d="M301.27,114.94v41.42h-2.35V114.94Z"/><path class="cls-1" d="M308.86,114.94v41.42h-2.35V114.94Z"/><path class="cls-1" d="M315,141.57a9.13,9.13,0,0,0-.09,1.32,11.74,11.74,0,0,0,11.75,11.72,11.38,11.38,0,0,0,8.33-3.46,16.21,16.21,0,0,0,1.11-1.23l2.49.88a12.31,12.31,0,0,1-1.85,2.11,14.21,14.21,0,1,1,0-20.1,12,12,0,0,1,3.67,8.76Zm.44-2.37h22.33a11.15,11.15,0,0,0-2.78-4.63,11.75,11.75,0,0,0-16.65,0A11.89,11.89,0,0,0,315.39,139.2Z"/><path class="cls-1" d="M349.7,142.71a19,19,0,0,1-4.1-2.75,6.12,6.12,0,0,1,4.31-10.43,5.65,5.65,0,0,1,4.19,1.67,5.08,5.08,0,0,1,1.61,3.69V135l-2,.82a5.16,5.16,0,0,0-1.23-3,3.39,3.39,0,0,0-2.55-1,3.78,3.78,0,0,0-2.67,6.45,16.59,16.59,0,0,0,2.73,2,21.38,21.38,0,0,1,4.72,3.19,7.55,7.55,0,0,1-5.34,12.89,7.22,7.22,0,0,1-5.33-2.21,6.78,6.78,0,0,1-2.2-4.85l2.32-.58a5.13,5.13,0,0,0,1.54,3.79,5.22,5.22,0,1,0,7.36-7.4A23.12,23.12,0,0,0,349.7,142.71Z"/><path class="cls-1" d="M401.83,156.36h-2.34v-5.18a19.94,19.94,0,0,1-1.46,1.73,14.21,14.21,0,1,1,0-20.1,18.55,18.55,0,0,1,1.46,1.73v-19.6h2.34Zm-2.34-11.19v-4.6a11.66,11.66,0,1,0,0,4.6Z"/><path class="cls-1" d="M407.31,141.57a10.89,10.89,0,0,0-.08,1.32A11.73,11.73,0,0,0,419,154.61a11.37,11.37,0,0,0,8.32-3.46,16.21,16.21,0,0,0,1.11-1.23l2.49.88a12.6,12.6,0,0,1-1.84,2.11,14.21,14.21,0,1,1,0-20.1,12,12,0,0,1,3.66,8.76Zm.44-2.37h22.33a11,11,0,0,0-2.78-4.63,11.73,11.73,0,0,0-16.64,0A11.91,11.91,0,0,0,407.75,139.2Z"/><path class="cls-1" d="M438.14,114.94v41.42H435.8V114.94Z"/><path class="cls-1" d="M460,130.93V120.12h2.32v10.81h5.18v2.35h-5.18v23.08H460V133.28h-5.18v-2.35Z"/><path class="cls-1" d="M479.11,133a8.33,8.33,0,0,0-4.89,3.16,8.57,8.57,0,0,0-2.41,5.62v14.59h-2.34V130.93h2.34v5.51a10.12,10.12,0,0,1,6-5.71Z"/><path class="cls-1" d="M508.18,156.36h-2.35v-5.18a18.31,18.31,0,0,1-1.46,1.73,14.21,14.21,0,1,1,0-20.1,17.13,17.13,0,0,1,1.46,1.73v-3.61h2.35Zm-2.35-11.19v-4.6a11.66,11.66,0,1,0,0,4.6Z"/><path class="cls-1" d="M519.08,142.71A19,19,0,0,1,515,140a6.12,6.12,0,0,1,4.3-10.43,5.65,5.65,0,0,1,4.19,1.67,5.05,5.05,0,0,1,1.62,3.69V135l-2,.82a5,5,0,0,0-1.23-3,3.36,3.36,0,0,0-2.55-1,3.77,3.77,0,0,0-2.66,6.45,16.37,16.37,0,0,0,2.72,2,21.38,21.38,0,0,1,4.72,3.19,7.58,7.58,0,0,1,0,10.68,7.54,7.54,0,0,1-10.67,0,6.77,6.77,0,0,1-2.19-4.85l2.31-.58a5.13,5.13,0,0,0,1.54,3.79,5,5,0,0,0,3.68,1.54,5.28,5.28,0,0,0,5.24-5.27,5,5,0,0,0-1.55-3.67A23.73,23.73,0,0,0,519.08,142.71Z"/><path class="cls-1" d="M532.82,114.94v41.42h-2.34V114.94Z"/><path class="cls-1" d="M565.11,156.36h-2.34v-5.18a18.42,18.42,0,0,1-1.47,1.73,14.21,14.21,0,1,1,0-20.1,17.23,17.23,0,0,1,1.47,1.73v-3.61h2.34Zm-2.34-11.19v-4.6a11.66,11.66,0,1,0,0,4.6Z"/><path class="cls-1" d="M596.79,156.36h-2.34v-5.18a18.42,18.42,0,0,1-1.47,1.73,14.21,14.21,0,1,1,0-20.1,17.23,17.23,0,0,1,1.47,1.73v-19.6h2.34Zm-2.34-11.19v-4.6a11.64,11.64,0,1,0,0,4.6Z"/><path class="cls-1" d="M614.52,128.65a14.22,14.22,0,1,1-10,4.16A13.69,13.69,0,0,1,614.52,128.65Zm-8.31,5.92a11.71,11.71,0,1,0,8.31-3.46A11.38,11.38,0,0,0,606.21,134.57Z"/><path class="cls-1" d="M673.59,156.36h-2.34v-5.18a18.42,18.42,0,0,1-1.47,1.73,14.21,14.21,0,1,1,0-20.1,17.23,17.23,0,0,1,1.47,1.73v-3.61h2.34Zm-2.34-11.19v-4.6a11.66,11.66,0,1,0,0,4.6Z"/><path class="cls-1" d="M694.81,130.93V120.12h2.31v10.81h5.19v2.35h-5.19v23.08h-2.31V133.28h-5.19v-2.35Z"/><path class="cls-1" d="M715.09,156.72a10.23,10.23,0,0,1-7.59-2.82,9.92,9.92,0,0,1-2.9-7.12V130.91h2.34v15.67a7.4,7.4,0,0,0,2.35,5.51,7.82,7.82,0,0,0,5.77,2.31,7.63,7.63,0,0,0,5.55-2.3,7.48,7.48,0,0,0,2.33-5.52V130.91h2.35v15.87a9.8,9.8,0,0,1-10.2,9.94Z"/><path class="cls-1" d="M764.46,125.92l10.32,26.66,10.11-37.64h2.37l-11.13,41.42h-2.35l-10-26.19-10,26.19h-2.35l-11.13-41.42h2.37l10.14,37.64,10.29-26.66Z"/><path class="cls-1" d="M788.81,114.94h2.35v17.31a10.56,10.56,0,0,1,14.4,0,10,10,0,0,1,2.92,7.1v17h-2.35V139.58a7.45,7.45,0,0,0-2.34-5.54,7.88,7.88,0,0,0-11.08,0,7,7,0,0,0-1.55,2.14v20.21h-2.35Z"/><path class="cls-1" d="M840.3,156.36H838v-5.18a18.31,18.31,0,0,1-1.46,1.73,14.21,14.21,0,1,1,0-20.1,17.13,17.13,0,0,1,1.46,1.73v-3.61h2.35ZM838,145.17v-4.6a11.66,11.66,0,1,0,0,4.6Z"/><path class="cls-1" d="M847.83,130.93V120.12h2.31v10.81h5.19v2.35h-5.19v23.08h-2.31V133.28h-5.19v-2.35Z"/><path class="cls-1" d="M864.56,142.71a19,19,0,0,1-4.1-2.75,6.12,6.12,0,0,1,4.31-10.43A5.67,5.67,0,0,1,869,131.2a5.08,5.08,0,0,1,1.61,3.69V135l-2,.82a5.16,5.16,0,0,0-1.23-3,3.39,3.39,0,0,0-2.55-1,3.78,3.78,0,0,0-2.67,6.45,16.59,16.59,0,0,0,2.73,2,21.51,21.51,0,0,1,4.71,3.19,7.58,7.58,0,0,1,0,10.68,7.53,7.53,0,0,1-10.66,0,6.74,6.74,0,0,1-2.2-4.85l2.31-.58a5.17,5.17,0,0,0,1.54,3.79,5.24,5.24,0,0,0,8.92-3.73,4.94,4.94,0,0,0-1.55-3.67A23.73,23.73,0,0,0,864.56,142.71Z"/><path class="cls-1" d="M890.32,114.94l15,41.42h-2.46l-6.62-18.22H881.94l-6.74,18.22h-2.49l15.2-41.42Zm5.1,20.89-6.3-17.38-6.33,17.38Z"/><path class="cls-1" d="M906.93,130.93h2.35v3.58a15.3,15.3,0,0,1,1.46-1.7,14.22,14.22,0,0,1,20.1,20.11,14.16,14.16,0,0,1-20.1,0,16.27,16.27,0,0,1-1.46-1.7v14.85h-2.35Zm2.35,9.53v4.86a11,11,0,0,0,3.19,5.86,11.77,11.77,0,1,0,0-16.61A11.18,11.18,0,0,0,909.28,140.46Z"/><path class="cls-1" d="M938.26,130.93h2.34v3.58a14.42,14.42,0,0,1,1.47-1.7,14.24,14.24,0,1,1,0,20.1,15.27,15.27,0,0,1-1.47-1.7v14.85h-2.34Zm2.34,9.53v4.86a11.09,11.09,0,0,0,3.19,5.86,11.75,11.75,0,1,0,16.63-16.61,11.76,11.76,0,0,0-19.82,5.89Z"/><path class="cls-2" d="M205,0H992.16a0,0,0,0,1,0,0V205a0,0,0,0,1,0,0H0a0,0,0,0,1,0,0v0A205,205,0,0,1,205,0Z"/></g></g></svg>