<svg xmlns="http://www.w3.org/2000/svg" viewBox="0 0 690 199"><defs><style>.cls-1,.cls-2{fill:#fff;}.cls-2{opacity:0.35;}</style></defs><title>textopeajes</title><g id="Capa_2" data-name="Capa 2"><g id="Capa_1-2" data-name="Capa 1"><path class="cls-1" d="M142.9,41.91V44H126.36V59.5H142.9v2.11H126.36V77.09H142.9V79.2H124.26V41.91Z"/><path class="cls-1" d="M167.31,56.31,157.08,79.2H156L145.85,56.31h2.45l8.23,19.06,8.33-19.06Z"/><path class="cls-1" d="M173,48.82a2,2,0,0,1,.62,1.45,2.09,2.09,0,0,1-3.57,1.5,2,2,0,0,1-.62-1.5,1.93,1.93,0,0,1,.62-1.45,2.07,2.07,0,0,1,1.49-.61A2,2,0,0,1,173,48.82Zm-.44,7.49V79.2h-2.08V56.31Z"/><path class="cls-1" d="M181.18,56.31V46.58h2.09v9.73h4.66v2.11h-4.66V79.2h-2.09V58.42h-4.66V56.31Z"/><path class="cls-1" d="M216,79.2H213.9V74.53a16,16,0,0,1-1.31,1.55,12.8,12.8,0,0,1-21.86-9A12.81,12.81,0,0,1,212.59,58a16,16,0,0,1,1.31,1.55V56.31H216ZM213.9,69.12V65a10.49,10.49,0,1,0,0,4.14Z"/><path class="cls-1" d="M221,56.31h2.11v.55a6.75,6.75,0,0,1,9.47.08,6.9,6.9,0,0,1,.92,1.16,8.65,8.65,0,0,1,1-1.16,6.81,6.81,0,0,1,9.6,0,6.74,6.74,0,0,1,2,4.59V79.2h-2.11V61.53h0a4.47,4.47,0,0,0-1.38-3.09,4.72,4.72,0,0,0-8,3.43V79.2h-2.08V61.53h0a4.74,4.74,0,0,0-4.72-4.46,4.5,4.5,0,0,0-3.3,1.37,4.55,4.55,0,0,0-1.37,2.9V79.2H221Z"/><path class="cls-1" d="M263.32,54.25A12.77,12.77,0,0,1,276.1,67.07,12.79,12.79,0,1,1,254.29,58,12.31,12.31,0,0,1,263.32,54.25Zm-7.48,5.33a10.54,10.54,0,1,0,7.48-3.11A10.21,10.21,0,0,0,255.84,59.58Z"/><path class="cls-1" d="M286.55,66.91a17.18,17.18,0,0,1-3.7-2.48,5.28,5.28,0,0,1-1.6-3.88,5.35,5.35,0,0,1,1.6-3.89A5.29,5.29,0,0,1,286.73,55a5.09,5.09,0,0,1,3.77,1.51A4.54,4.54,0,0,1,292,59.87V60l-1.82.74A4.61,4.61,0,0,0,289,58.05a3,3,0,0,0-2.29-.9,3.31,3.31,0,0,0-2.4,1,3.38,3.38,0,0,0,0,4.8,14.44,14.44,0,0,0,2.45,1.8A19.2,19.2,0,0,1,291,67.62a6.79,6.79,0,1,1-9.6,9.61,6.09,6.09,0,0,1-2-4.36l2.09-.53a4.64,4.64,0,0,0,1.38,3.41,4.65,4.65,0,0,0,6.63,0,4.55,4.55,0,0,0,1.4-3.36,4.45,4.45,0,0,0-1.4-3.29A19.76,19.76,0,0,0,286.55,66.91Z"/><path class="cls-1" d="M313.39,58.42V79.2h-2.11V58.42H309V56.31h2.32v-6.2a6.72,6.72,0,0,1,2-4.45,6.31,6.31,0,0,1,4.4-1.77,8.6,8.6,0,0,1,2.77.5l-.66,1.87a4.81,4.81,0,0,0-1.9-.42,4.61,4.61,0,0,0-3.11,1.32,4.53,4.53,0,0,0-1.37,3.11v6h4.66v2.11Z"/><path class="cls-1" d="M324.13,48.82a2,2,0,0,1,.62,1.45,2.1,2.1,0,1,1-4.19,0,2,2,0,0,1,.62-1.45,2.07,2.07,0,0,1,1.49-.61A2,2,0,0,1,324.13,48.82Zm-.43,7.49V79.2h-2.09V56.31Z"/><path class="cls-1" d="M331.84,41.91V79.2h-2.11V41.91Z"/><path class="cls-1" d="M362,79.2h-2.11V74.53a14.82,14.82,0,0,1-1.32,1.55,12.79,12.79,0,0,1-21.85-9A12.8,12.8,0,0,1,358.55,58a14.82,14.82,0,0,1,1.32,1.55V56.31H362Zm-2.11-10.08V65a10.49,10.49,0,1,0,0,4.14Z"/><path class="cls-1" d="M372.87,66.91a17.32,17.32,0,0,1-3.69-2.48,5.29,5.29,0,0,1-1.61-3.88,5.36,5.36,0,0,1,1.61-3.89A5.26,5.26,0,0,1,373.06,55a5.1,5.1,0,0,1,3.77,1.51,4.58,4.58,0,0,1,1.45,3.32V60l-1.82.74a4.61,4.61,0,0,0-1.11-2.66,3,3,0,0,0-2.29-.9,3.39,3.39,0,0,0-2.4,5.8,14,14,0,0,0,2.45,1.8,18.85,18.85,0,0,1,4.24,2.87,6.82,6.82,0,0,1,0,9.61,6.77,6.77,0,0,1-9.59,0,6.09,6.09,0,0,1-2-4.36l2.08-.53a4.61,4.61,0,0,0,1.39,3.41,4.48,4.48,0,0,0,3.31,1.39,4.75,4.75,0,0,0,4.71-4.75,4.44,4.44,0,0,0-1.39-3.29A20,20,0,0,0,372.87,66.91Z"/><path class="cls-1" d="M400.36,48.82a2,2,0,0,1,.62,1.45,2.09,2.09,0,0,1-3.57,1.5,2,2,0,0,1-.62-1.5,1.93,1.93,0,0,1,.62-1.45,2.07,2.07,0,0,1,1.49-.61A2,2,0,0,1,400.36,48.82Zm-.44,7.49V79.2h-2.08V56.31Z"/><path class="cls-1" d="M407.78,61.42V79.2h-2.11V56.31h2.11v1.48a9.12,9.12,0,0,1,6.65-2.85,8.79,8.79,0,0,1,9.2,8.94V79.2h-2.08V64.09a6.74,6.74,0,0,0-2.11-5,7.15,7.15,0,0,0-10,0A7.77,7.77,0,0,0,407.78,61.42Z"/><path class="cls-1" d="M431,61.42V79.2h-2.11V56.31H431v1.48a9.1,9.1,0,0,1,6.64-2.85,8.79,8.79,0,0,1,9.21,8.94V79.2h-2.09V64.09a6.7,6.7,0,0,0-2.11-5,7.14,7.14,0,0,0-10,0A7.6,7.6,0,0,0,431,61.42Z"/><path class="cls-1" d="M453.08,65.88a8.79,8.79,0,0,0-.08,1.19,10.57,10.57,0,0,0,18.06,7.43,13.18,13.18,0,0,0,1-1.11l2.25.8a11.46,11.46,0,0,1-1.66,1.89,12.8,12.8,0,0,1-21.86-9A12.81,12.81,0,0,1,472.65,58a10.82,10.82,0,0,1,3.29,7.88Zm.4-2.14h20.09a9.89,9.89,0,0,0-2.51-4.16,10.56,10.56,0,0,0-15,0A10.81,10.81,0,0,0,453.48,63.74Z"/><path class="cls-1" d="M499.28,73.68l2.21.82a13.35,13.35,0,0,1-1.37,1.58,12.8,12.8,0,0,1-21.86-9,12.81,12.81,0,0,1,21.86-9,13.35,13.35,0,0,1,1.37,1.58l-2.21.82c-.23-.29-.48-.57-.74-.85a10.28,10.28,0,0,0-7.49-3.08,10.57,10.57,0,0,0-7.45,18,10.55,10.55,0,0,0,14.94,0A9.61,9.61,0,0,0,499.28,73.68Z"/><path class="cls-1" d="M506.53,65.88a7.42,7.42,0,0,0-.08,1.19,10.57,10.57,0,0,0,18.06,7.43c.35-.35.68-.72,1-1.11l2.24.8a10.55,10.55,0,0,1-1.66,1.89,12.8,12.8,0,0,1-21.86-9A12.81,12.81,0,0,1,526.09,58a10.79,10.79,0,0,1,3.3,7.88Zm.39-2.14H527a9.87,9.87,0,0,0-2.5-4.16,10.57,10.57,0,0,0-15,0A10.81,10.81,0,0,0,506.92,63.74Z"/><path class="cls-1" d="M538.88,66.91a16.8,16.8,0,0,1-3.69-2.48,5.29,5.29,0,0,1-1.61-3.88,5.36,5.36,0,0,1,1.61-3.89A5.25,5.25,0,0,1,539.06,55a5.07,5.07,0,0,1,3.77,1.51,4.54,4.54,0,0,1,1.45,3.32V60l-1.81.74a4.61,4.61,0,0,0-1.11-2.66,3.06,3.06,0,0,0-2.3-.9,3.39,3.39,0,0,0-2.4,5.8,14.65,14.65,0,0,0,2.46,1.8,19.09,19.09,0,0,1,4.24,2.87,6.79,6.79,0,1,1-9.6,9.61,6.11,6.11,0,0,1-2-4.36l2.08-.53a4.64,4.64,0,0,0,1.38,3.41,4.71,4.71,0,0,0,8-3.36,4.44,4.44,0,0,0-1.39-3.29A20.56,20.56,0,0,0,538.88,66.91Z"/><path class="cls-1" d="M574.55,79.2h-2.11V74.53a16,16,0,0,1-1.31,1.55,12.8,12.8,0,0,1-21.86-9A12.81,12.81,0,0,1,571.13,58a16,16,0,0,1,1.31,1.55V56.31h2.11Zm-2.11-10.08V65a10.57,10.57,0,0,0-17.86-5.4,10.56,10.56,0,1,0,15,14.92A10.06,10.06,0,0,0,572.44,69.12Z"/><path class="cls-1" d="M587.61,58.15A7.56,7.56,0,0,0,583.2,61,7.76,7.76,0,0,0,581,66.06V79.2h-2.11V56.31H581v5a9.11,9.11,0,0,1,5.41-5.15Z"/><path class="cls-1" d="M593.26,48.82a2,2,0,0,1,.62,1.45,2.1,2.1,0,1,1-4.19,0,2,2,0,0,1,.62-1.45,2.07,2.07,0,0,1,1.49-.61A2,2,0,0,1,593.26,48.82Zm-.43,7.49V79.2h-2.09V56.31Z"/><path class="cls-1" d="M623.2,79.2h-2.11V74.53a14.82,14.82,0,0,1-1.32,1.55,12.79,12.79,0,0,1-21.85-9A12.8,12.8,0,0,1,619.77,58a14.82,14.82,0,0,1,1.32,1.55V56.31h2.11Zm-2.11-10.08V65a10.49,10.49,0,1,0,0,4.14Z"/><path class="cls-1" d="M634.09,66.91a17.32,17.32,0,0,1-3.69-2.48,5.29,5.29,0,0,1-1.61-3.88,5.36,5.36,0,0,1,1.61-3.89A5.26,5.26,0,0,1,634.28,55a5.1,5.1,0,0,1,3.77,1.51,4.58,4.58,0,0,1,1.45,3.32V60l-1.82.74a4.61,4.61,0,0,0-1.11-2.66,3,3,0,0,0-2.29-.9,3.39,3.39,0,0,0-2.4,5.8,14,14,0,0,0,2.45,1.8,19.09,19.09,0,0,1,4.24,2.87,6.82,6.82,0,0,1,0,9.61,6.77,6.77,0,0,1-9.59,0,6.09,6.09,0,0,1-2-4.36l2.08-.53a4.61,4.61,0,0,0,1.39,3.41,4.47,4.47,0,0,0,3.3,1.39,4.75,4.75,0,0,0,4.72-4.75,4.44,4.44,0,0,0-1.39-3.29A20.56,20.56,0,0,0,634.09,66.91Z"/><path class="cls-1" d="M369.63,138.48l2.21.82a13.35,13.35,0,0,1-1.37,1.58,12.79,12.79,0,1,1,0-18.08,13.35,13.35,0,0,1,1.37,1.58l-2.21.82c-.23-.29-.48-.57-.74-.85a10.59,10.59,0,1,0,0,15A9.61,9.61,0,0,0,369.63,138.48Z"/><path class="cls-1" d="M387.9,119.05a12.82,12.82,0,1,1-9,3.75A12.31,12.31,0,0,1,387.9,119.05Zm-7.47,5.33a10.54,10.54,0,1,0,7.47-3.11A10.21,10.21,0,0,0,380.43,124.38Z"/><path class="cls-1" d="M407.31,126.22V144H405.2V121.11h2.11v1.48a9.1,9.1,0,0,1,6.64-2.85,9,9,0,0,1,6.61,2.54,8.87,8.87,0,0,1,2.59,6.4V144h-2.08V128.89a6.7,6.7,0,0,0-2.11-5,7.14,7.14,0,0,0-10,0A7.6,7.6,0,0,0,407.31,126.22Z"/><path class="cls-1" d="M451.52,108.82V144h-2.08V108.82H440v-2.11h21v2.11Z"/><path class="cls-1" d="M463.28,130.68a8.86,8.86,0,0,0-.07,1.19,10.57,10.57,0,0,0,18.06,7.43c.35-.35.68-.72,1-1.11l2.24.8a11,11,0,0,1-1.66,1.89,12.79,12.79,0,1,1,0-18.08,10.79,10.79,0,0,1,3.3,7.88Zm.4-2.14h20.09a10,10,0,0,0-2.5-4.16,10.57,10.57,0,0,0-15,0A10.73,10.73,0,0,0,463.68,128.54Z"/><path class="cls-1" d="M492.1,106.71V144H490V106.71Z"/><path class="cls-1" d="M498.67,130.68a8.79,8.79,0,0,0-.08,1.19,10.57,10.57,0,0,0,18.06,7.43,13.18,13.18,0,0,0,1-1.11l2.25.8a11.16,11.16,0,0,1-1.67,1.89,12.79,12.79,0,1,1,0-18.08,10.79,10.79,0,0,1,3.3,7.88Zm.39-2.14h20.1a10,10,0,0,0-2.51-4.16,10.56,10.56,0,0,0-15,0A10.64,10.64,0,0,0,499.06,128.54Z"/><path class="cls-1" d="M527.54,131.08V144h-2.11V106.71h9.78a12.4,12.4,0,0,1,7.26,3.56,12.2,12.2,0,0,1-8.6,20.81Zm0-22.23v20.09h6.33a10,10,0,1,0,0-20.09Z"/><path class="cls-1" d="M549,130.68a8.86,8.86,0,0,0-.07,1.19A10.57,10.57,0,0,0,567,139.3c.35-.35.68-.72,1-1.11l2.24.8a11,11,0,0,1-1.66,1.89,12.79,12.79,0,1,1,0-18.08,10.78,10.78,0,0,1,3.29,7.88Zm.4-2.14h20.09a10,10,0,0,0-2.5-4.16,10.57,10.57,0,0,0-15,0A10.73,10.73,0,0,0,549.4,128.54Z"/><path class="cls-1" d="M600.05,144h-2.11v-4.67a14.82,14.82,0,0,1-1.32,1.55,12.79,12.79,0,1,1,0-18.08,14.82,14.82,0,0,1,1.32,1.55v-3.24h2.11Zm-2.11-10.08v-4.14a10.49,10.49,0,1,0,0,4.14Z"/><path class="cls-1" d="M602.11,147.21a2.84,2.84,0,0,0,2.82-3.16V121.11H607V144c0,3.14-1.63,4.85-4.9,5.11Zm5.34-33.59a2,2,0,0,1,.62,1.45,2.1,2.1,0,0,1-2.09,2.11,2,2,0,0,1-1.49-.61,2,2,0,0,1-.62-1.5,2,2,0,0,1,.62-1.45A2.09,2.09,0,0,1,606,113,2.06,2.06,0,0,1,607.45,113.62Z"/><path class="cls-1" d="M613.55,130.68a8.79,8.79,0,0,0-.08,1.19,10.57,10.57,0,0,0,18.06,7.43,13.3,13.3,0,0,0,1-1.11l2.24.8a11.46,11.46,0,0,1-1.66,1.89,12.79,12.79,0,1,1,0-18.08,10.82,10.82,0,0,1,3.29,7.88Zm.4-2.14H634a9.89,9.89,0,0,0-2.51-4.16,10.56,10.56,0,0,0-15,0A10.73,10.73,0,0,0,614,128.54Z"/><path class="cls-1" d="M640.46,140.75a2.08,2.08,0,0,1-1.46,3.56,2.06,2.06,0,0,1-1.49-.6,2.08,2.08,0,0,1,0-3,2.06,2.06,0,0,1,1.49-.6A2,2,0,0,1,640.46,140.75Z"/><path class="cls-2" d="M199,0H690a0,0,0,0,1,0,0V199a0,0,0,0,1,0,0H0a0,0,0,0,1,0,0v0A199,199,0,0,1,199,0Z"/></g></g></svg>