<svg xmlns="http://www.w3.org/2000/svg" viewBox="0 0 873 276"><defs><style>.cls-1{fill:#f1f5f4;}.cls-2{fill:#fff;opacity:0.35;}</style></defs><title>Textomascarilla</title><g id="Capa_2" data-name="Capa 2"><g id="Capa_1-2" data-name="Capa 1"><path class="cls-1" d="M99.52,77.76l1.61,1.42a19.12,19.12,0,0,1-26.35-.62,19.12,19.12,0,0,1,0-27,19.07,19.07,0,0,1,26.35-.62l-1.61,1.43a17,17,0,0,0-23.21.71,16.92,16.92,0,0,0,0,24,17,17,0,0,0,23.21.72Z"/><path class="cls-1" d="M114.5,84a9.22,9.22,0,0,1-6.83-2.54,8.91,8.91,0,0,1-2.61-6.4V60.78h2.11v14.1a6.65,6.65,0,0,0,2.11,5,7,7,0,0,0,5.19,2.08,6.87,6.87,0,0,0,5-2.07,6.71,6.71,0,0,0,2.09-5V60.78h2.11V75.07A8.81,8.81,0,0,1,114.5,84Z"/><path class="cls-1" d="M128.58,60.8h2.11v.56a6.43,6.43,0,0,1,4.67-1.9,6.5,6.5,0,0,1,4.79,2,6.15,6.15,0,0,1,.93,1.16,7.56,7.56,0,0,1,1-1.16,6.81,6.81,0,0,1,9.6,0,6.74,6.74,0,0,1,2,4.58V83.69h-2.11V66h0a4.42,4.42,0,0,0-1.37-3.08,4.72,4.72,0,0,0-8,3.43V83.69h-2.08V66h0a4.53,4.53,0,0,0-1.39-3.08,4.59,4.59,0,0,0-3.32-1.37,4.71,4.71,0,0,0-4.67,4.27V83.69h-2.11Z"/><path class="cls-1" d="M158.66,60.8h2.11V64a13.38,13.38,0,0,1,1.32-1.53,12.8,12.8,0,0,1,18.09,18.1,12.75,12.75,0,0,1-18.09,0,13.38,13.38,0,0,1-1.32-1.53V92.42h-2.11Zm2.11,8.57v4.38A10,10,0,0,0,163.65,79a10.57,10.57,0,1,0,15-15,10.59,10.59,0,0,0-17.84,5.3Z"/><path class="cls-1" d="M190.52,46.41V83.69h-2.11V46.41Z"/><path class="cls-1" d="M199.07,53.31a2,2,0,0,1,.62,1.46,2.1,2.1,0,0,1-2.08,2.11,2.07,2.07,0,0,1-1.49-.61,2,2,0,0,1-.62-1.5,2,2,0,0,1,.62-1.46,2.06,2.06,0,0,1,1.49-.6A2,2,0,0,1,199.07,53.31Zm-.43,7.49V83.69h-2.09V60.8Z"/><path class="cls-1" d="M204.38,60.8h2.11v.56a6.45,6.45,0,0,1,4.67-1.9,6.54,6.54,0,0,1,4.8,2,6.1,6.1,0,0,1,.92,1.16,7.63,7.63,0,0,1,1-1.16,6.81,6.81,0,0,1,9.6,0,6.77,6.77,0,0,1,2,4.58V83.69h-2.11V66h0A4.42,4.42,0,0,0,226,62.94a4.71,4.71,0,0,0-8,3.43V83.69h-2.09V66h0a4.54,4.54,0,0,0-1.4-3.08,4.59,4.59,0,0,0-3.32-1.37,4.49,4.49,0,0,0-3.29,1.37,4.54,4.54,0,0,0-1.38,2.9V83.69h-2.11Z"/><path class="cls-1" d="M246.73,58.75a12.81,12.81,0,0,1,9.06,21.84,12.8,12.8,0,1,1-18.09-18.1A12.3,12.3,0,0,1,246.73,58.75Zm-7.48,5.32a10.25,10.25,0,0,0-3.09,7.49,10.57,10.57,0,0,0,21.14,0,10.56,10.56,0,0,0-18.05-7.49Z"/><path class="cls-1" d="M270,71.4a16.45,16.45,0,0,1-3.69-2.48,5.28,5.28,0,0,1-1.61-3.87,5.34,5.34,0,0,1,1.61-3.89,5.25,5.25,0,0,1,3.87-1.62,5.1,5.1,0,0,1,3.77,1.5,4.58,4.58,0,0,1,1.46,3.32v.11l-1.83.74a4.57,4.57,0,0,0-1.1-2.67,3.09,3.09,0,0,0-2.3-.89,3.27,3.27,0,0,0-2.4,1,3.38,3.38,0,0,0,0,4.8,15.38,15.38,0,0,0,2.46,1.79,18.72,18.72,0,0,1,4.24,2.88,6.79,6.79,0,1,1-9.6,9.6,6.1,6.1,0,0,1-2-4.36l2.08-.53a4.64,4.64,0,0,0,1.38,3.42,4.72,4.72,0,0,0,8-3.36,4.43,4.43,0,0,0-1.4-3.3A20.49,20.49,0,0,0,270,71.4Z"/><path class="cls-1" d="M296.8,46.41V83.69h-2.11V46.41Z"/><path class="cls-1" d="M314.39,58.75a12.81,12.81,0,0,1,9.06,21.84,12.8,12.8,0,1,1-18.09-18.1A12.3,12.3,0,0,1,314.39,58.75Zm-7.48,5.32a10.26,10.26,0,0,0-3.1,7.49,10.6,10.6,0,1,0,3.1-7.49Z"/><path class="cls-1" d="M337.62,71.4a16.45,16.45,0,0,1-3.69-2.48,5.24,5.24,0,0,1-1.61-3.87,5.51,5.51,0,0,1,5.48-5.51,5.12,5.12,0,0,1,3.77,1.5A4.57,4.57,0,0,1,343,64.36v.11l-1.82.74a4.64,4.64,0,0,0-1.1-2.67,3.09,3.09,0,0,0-2.3-.89,3.39,3.39,0,0,0-2.4,5.8,15.38,15.38,0,0,0,2.46,1.79,18.72,18.72,0,0,1,4.24,2.88,6.79,6.79,0,1,1-9.6,9.6,6.06,6.06,0,0,1-2-4.36l2.08-.53A4.64,4.64,0,0,0,334,80.25a4.72,4.72,0,0,0,8-3.36,4.47,4.47,0,0,0-1.4-3.3A20.49,20.49,0,0,0,337.62,71.4Z"/><path class="cls-1" d="M361.88,60.8H364V64a13.38,13.38,0,0,1,1.32-1.53,12.8,12.8,0,0,1,18.09,18.1,12.75,12.75,0,0,1-18.09,0A13.38,13.38,0,0,1,364,79.05V92.42h-2.1Zm2.1,8.57v4.38A10,10,0,0,0,366.86,79a10.57,10.57,0,1,0,15-15A10.59,10.59,0,0,0,364,69.37Z"/><path class="cls-1" d="M399.42,62.65A7.57,7.57,0,0,0,395,65.5a7.74,7.74,0,0,0-2.16,5.06V83.69h-2.11V60.8h2.11v5a9.1,9.1,0,0,1,5.4-5.14Z"/><path class="cls-1" d="M414.11,58.75a12.81,12.81,0,0,1,9.06,21.84,12.8,12.8,0,1,1-18.09-18.1A12.3,12.3,0,0,1,414.11,58.75Zm-7.48,5.32a10.25,10.25,0,0,0-3.09,7.49,10.58,10.58,0,1,0,3.09-7.49Z"/><path class="cls-1" d="M434.31,60.8V51.07h2.08V60.8h4.67v2.11h-4.67V83.69h-2.08V62.91h-4.67V60.8Z"/><path class="cls-1" d="M456.59,58.75a12.75,12.75,0,0,1,12.78,12.81,12.78,12.78,0,1,1-12.78-12.81Zm-7.48,5.32a10.22,10.22,0,0,0-3.1,7.49,10.11,10.11,0,0,0,3.1,7.46,10.59,10.59,0,0,0,14.95,0,10.11,10.11,0,0,0,3.1-7.46,10.56,10.56,0,0,0-18.05-7.49Z"/><path class="cls-1" d="M493.66,78.18l2.21.82a14.2,14.2,0,0,1-1.37,1.58,12.8,12.8,0,1,1-18.1-18.09,12.82,12.82,0,0,1,18.1,0,14.2,14.2,0,0,1,1.37,1.58l-2.21.82c-.23-.28-.48-.56-.74-.84A10.57,10.57,0,0,0,478,79a10.54,10.54,0,0,0,14.94,0C493.18,78.73,493.43,78.46,493.66,78.18Z"/><path class="cls-1" d="M511.93,58.75A12.81,12.81,0,0,1,521,80.59a12.8,12.8,0,1,1-18.09-18.1A12.32,12.32,0,0,1,511.93,58.75Zm-7.47,5.32a10.22,10.22,0,0,0-3.1,7.49,10.57,10.57,0,0,0,10.57,10.55,10.57,10.57,0,0,0,7.48-18,10.54,10.54,0,0,0-14.95,0Z"/><path class="cls-1" d="M531.63,46.41V83.69h-2.11V46.41Z"/><path class="cls-1" d="M549.21,58.75a12.81,12.81,0,0,1,9.06,21.84,12.8,12.8,0,0,1-18.09-18.1A12.33,12.33,0,0,1,549.21,58.75Zm-7.47,5.32a10.22,10.22,0,0,0-3.1,7.49,10.57,10.57,0,0,0,10.57,10.55,10.56,10.56,0,0,0,7.48-18,10.54,10.54,0,0,0-15,0Z"/><path class="cls-1" d="M572.44,71.4a17,17,0,0,1-3.69-2.48,5.28,5.28,0,0,1-1.61-3.87,5.34,5.34,0,0,1,1.61-3.89,5.27,5.27,0,0,1,3.88-1.62A5.12,5.12,0,0,1,576.4,61a4.57,4.57,0,0,1,1.45,3.32v.11l-1.82.74a4.64,4.64,0,0,0-1.11-2.67,3.07,3.07,0,0,0-2.29-.89,3.39,3.39,0,0,0-2.4,5.8,15.15,15.15,0,0,0,2.45,1.79,18.83,18.83,0,0,1,4.25,2.88,6.79,6.79,0,1,1-9.6,9.6,6.07,6.07,0,0,1-2-4.36l2.08-.53a4.61,4.61,0,0,0,1.39,3.42,4.51,4.51,0,0,0,3.31,1.38,4.75,4.75,0,0,0,4.72-4.74,4.47,4.47,0,0,0-1.4-3.3A20.18,20.18,0,0,0,572.44,71.4Z"/><path class="cls-1" d="M94.49,148.49H92.38v-4.67a16.48,16.48,0,0,1-1.32,1.56,12.79,12.79,0,1,1,0-18.09,16.48,16.48,0,0,1,1.32,1.56V111.21h2.11Zm-2.11-10.07v-4.14a10.49,10.49,0,1,0,0,4.14Z"/><path class="cls-1" d="M100.5,135.17a8.91,8.91,0,0,0-.08,1.19A10.57,10.57,0,0,0,111,146.91a10.22,10.22,0,0,0,7.49-3.11,13.18,13.18,0,0,0,1-1.11l2.24.79a10.88,10.88,0,0,1-1.66,1.9,12.79,12.79,0,1,1,0-18.09,10.81,10.81,0,0,1,3.3,7.88Zm.39-2.13H121a9.91,9.91,0,0,0-2.5-4.17,10.57,10.57,0,0,0-15,0A10.77,10.77,0,0,0,100.89,133Z"/><path class="cls-1" d="M140.31,111.21h2.11v17.61a13.38,13.38,0,0,1,1.32-1.53,12.82,12.82,0,1,1,0,18.09,13.38,13.38,0,0,1-1.32-1.53v4.64h-2.11Zm2.11,23v4.38a10,10,0,0,0,2.87,5.25,10.55,10.55,0,1,0-2.87-9.63Z"/><path class="cls-1" d="M173.18,118.12a2,2,0,0,1,.62,1.44,2.05,2.05,0,0,1-.62,1.51,2.1,2.1,0,0,1-3.57-1.51,1.91,1.91,0,0,1,.62-1.44,2.09,2.09,0,0,1,3,0Zm-.44,7.48v22.89h-2.08V125.6Z"/><path class="cls-1" d="M190.57,123.55a12.8,12.8,0,1,1-9,3.74A12.3,12.3,0,0,1,190.57,123.55Zm-7.48,5.32a10.26,10.26,0,0,0-3.1,7.49,10.6,10.6,0,1,0,3.1-7.49Z"/><path class="cls-1" d="M213.8,136.2a16.45,16.45,0,0,1-3.69-2.48,5.24,5.24,0,0,1-1.61-3.87,5.51,5.51,0,0,1,5.48-5.51,5.12,5.12,0,0,1,3.77,1.5,4.56,4.56,0,0,1,1.45,3.32v.11l-1.82.74a4.64,4.64,0,0,0-1.1-2.67,3.09,3.09,0,0,0-2.3-.89,3.39,3.39,0,0,0-2.4,5.8A15.38,15.38,0,0,0,214,134a19.09,19.09,0,0,1,4.24,2.87,6.8,6.8,0,1,1-9.6,9.62,6.1,6.1,0,0,1-2-4.37l2.08-.53a4.64,4.64,0,0,0,1.38,3.42,4.72,4.72,0,0,0,8-3.36,4.45,4.45,0,0,0-1.4-3.3A20.49,20.49,0,0,0,213.8,136.2Z"/><path class="cls-1" d="M225.9,135.17a8.91,8.91,0,0,0-.08,1.19,10.57,10.57,0,0,0,10.57,10.55,10.22,10.22,0,0,0,7.49-3.11,13.18,13.18,0,0,0,1-1.11l2.25.79a11.53,11.53,0,0,1-1.67,1.9,12.79,12.79,0,1,1,0-18.09,10.81,10.81,0,0,1,3.3,7.88Zm.39-2.13h20.1a10,10,0,0,0-2.51-4.17,10.56,10.56,0,0,0-15,0A10.79,10.79,0,0,0,226.29,133Z"/><path class="cls-1" d="M274.21,144c-.41.49-.83,1-1.27,1.42a12.77,12.77,0,1,1,0-18.09,16.48,16.48,0,0,1,1.32,1.56V125.6h2.11v17.78a12,12,0,0,1-3.67,8.8,12.76,12.76,0,0,1-18.11,0,14.2,14.2,0,0,1-1.37-1.58l2.21-.82a7.35,7.35,0,0,0,.77.82,10.59,10.59,0,0,0,18-6.64Zm0-9.79a10.6,10.6,0,0,0-10.36-8.41,10.57,10.57,0,1,0,10.36,12.82Z"/><path class="cls-1" d="M290,148.81a9.26,9.26,0,0,1-6.83-2.53,9,9,0,0,1-2.61-6.41V125.58h2.11v14.1a6.65,6.65,0,0,0,2.11,5,7,7,0,0,0,5.19,2.08,6.87,6.87,0,0,0,5-2.07,6.71,6.71,0,0,0,2.09-5v-14.1h2.11v14.29a8.79,8.79,0,0,1-9.17,8.94Z"/><path class="cls-1" d="M312.17,127.45a7.57,7.57,0,0,0-4.4,2.85,7.74,7.74,0,0,0-2.16,5.06v13.13H303.5V125.6h2.11v5a9.1,9.1,0,0,1,5.4-5.14Z"/><path class="cls-1" d="M317.83,118.12a2,2,0,0,1,.62,1.44,2.05,2.05,0,0,1-.62,1.51,2,2,0,0,1-1.46.6,2.06,2.06,0,0,1-1.49-.6,2,2,0,0,1-.62-1.51,1.91,1.91,0,0,1,.62-1.44,2,2,0,0,1,1.49-.61A2,2,0,0,1,317.83,118.12Zm-.44,7.48v22.89h-2.08V125.6Z"/><path class="cls-1" d="M347.77,148.49h-2.11v-4.67a15.12,15.12,0,0,1-1.32,1.56,12.79,12.79,0,1,1,0-18.09,15.12,15.12,0,0,1,1.32,1.56V111.21h2.11Zm-2.11-10.07v-4.14a10.49,10.49,0,1,0,0,4.14Z"/><path class="cls-1" d="M377.35,148.49h-2.11v-4.67a15,15,0,0,1-1.31,1.56,12.79,12.79,0,1,1,0-18.09,15,15,0,0,1,1.31,1.56V125.6h2.11Zm-2.11-10.07v-4.14a10.57,10.57,0,0,0-17.86-5.41,10.22,10.22,0,0,0-3.1,7.49,10.11,10.11,0,0,0,3.1,7.46,10.57,10.57,0,0,0,15,0A10.1,10.1,0,0,0,375.24,138.42Z"/><path class="cls-1" d="M406.94,148.49h-2.11v-4.67a16.48,16.48,0,0,1-1.32,1.56,12.79,12.79,0,1,1,0-18.09,16.48,16.48,0,0,1,1.32,1.56V111.21h2.11Zm-2.11-10.07v-4.14a10.58,10.58,0,0,0-21,2.08,10.59,10.59,0,0,0,21,2.06Z"/><path class="cls-1" d="M425.29,125.6h2.11v.56a6.43,6.43,0,0,1,4.66-1.9,6.77,6.77,0,0,1,5.73,3.14,8.06,8.06,0,0,1,1-1.16,6.81,6.81,0,0,1,9.6,0,6.74,6.74,0,0,1,2,4.58v17.67h-2.11V130.82h0a4.42,4.42,0,0,0-1.37-3.08,4.72,4.72,0,0,0-8,3.43v17.32h-2.08V130.82h0a4.74,4.74,0,0,0-4.73-4.45,4.71,4.71,0,0,0-4.66,4.27v17.85h-2.11Z"/><path class="cls-1" d="M458.6,118.12a1.91,1.91,0,0,1,.62,1.44,2.08,2.08,0,0,1-2.08,2.11,2.08,2.08,0,0,1-2.11-2.11,2,2,0,0,1,.62-1.44,2,2,0,0,1,1.49-.61A2,2,0,0,1,458.6,118.12Zm-.43,7.48v22.89h-2.08V125.6Z"/><path class="cls-1" d="M465,135.17a8.91,8.91,0,0,0-.08,1.19,10.57,10.57,0,0,0,10.57,10.55A10.22,10.22,0,0,0,483,143.8c.35-.35.69-.72,1-1.11l2.24.79a11.84,11.84,0,0,1-1.66,1.9,12.79,12.79,0,1,1,0-18.09,10.84,10.84,0,0,1,3.29,7.88Zm.4-2.13h20.09a9.93,9.93,0,0,0-2.51-4.17,10.56,10.56,0,0,0-15,0A10.77,10.77,0,0,0,465.37,133Z"/><path class="cls-1" d="M493.5,130.72v17.77h-2.11V125.6h2.11v1.48a9.1,9.1,0,0,1,6.64-2.85,8.94,8.94,0,0,1,6.61,2.55,8.83,8.83,0,0,1,2.6,6.39v15.32h-2.09V133.38a6.68,6.68,0,0,0-2.11-5,7.12,7.12,0,0,0-10,0A7.81,7.81,0,0,0,493.5,130.72Z"/><path class="cls-1" d="M517.47,125.6v-9.73h2.08v9.73h4.67v2.11h-4.67v20.78h-2.08V127.71H512.8V125.6Z"/><path class="cls-1" d="M535.77,127.45a7.56,7.56,0,0,0-4.41,2.85,7.74,7.74,0,0,0-2.16,5.06v13.13h-2.11V125.6h2.11v5a9.09,9.09,0,0,1,5.41-5.14Z"/><path class="cls-1" d="M563,148.49h-2.11v-4.67a15,15,0,0,1-1.31,1.56,12.79,12.79,0,1,1,0-18.09,15,15,0,0,1,1.31,1.56V125.6H563Zm-2.11-10.07v-4.14A10.57,10.57,0,0,0,543,128.87a10.22,10.22,0,0,0-3.1,7.49,10.11,10.11,0,0,0,3.1,7.46,10.57,10.57,0,0,0,15,0A10.1,10.1,0,0,0,560.89,138.42Z"/><path class="cls-1" d="M573.89,136.2a17,17,0,0,1-3.69-2.48,5.28,5.28,0,0,1-1.61-3.87A5.34,5.34,0,0,1,570.2,126a5.27,5.27,0,0,1,3.88-1.62,5.12,5.12,0,0,1,3.77,1.5,4.56,4.56,0,0,1,1.45,3.32v.11l-1.82.74a4.64,4.64,0,0,0-1.11-2.67,3.07,3.07,0,0,0-2.29-.89,3.39,3.39,0,0,0-2.4,5.8,15.15,15.15,0,0,0,2.45,1.79,19.2,19.2,0,0,1,4.25,2.87,6.8,6.8,0,1,1-9.6,9.62,6.11,6.11,0,0,1-2-4.37l2.08-.53a4.61,4.61,0,0,0,1.39,3.42,4.51,4.51,0,0,0,3.31,1.38,4.75,4.75,0,0,0,4.72-4.74,4.45,4.45,0,0,0-1.4-3.3A20.18,20.18,0,0,0,573.89,136.2Z"/><path class="cls-1" d="M623,148.49h-2.11v-4.67a15,15,0,0,1-1.31,1.56,12.79,12.79,0,1,1,0-18.09,15,15,0,0,1,1.31,1.56V111.21H623Zm-2.11-10.07v-4.14a10.11,10.11,0,0,0-2.9-5.41,10.58,10.58,0,0,0-18.06,7.49,10.57,10.57,0,0,0,10.57,10.55A10.22,10.22,0,0,0,618,143.8,10.1,10.1,0,0,0,620.85,138.42Z"/><path class="cls-1" d="M637,148.81a9.27,9.27,0,0,1-6.83-2.53,9,9,0,0,1-2.61-6.41V125.58h2.11v14.1a6.69,6.69,0,0,0,2.11,5,7,7,0,0,0,5.2,2.08,6.84,6.84,0,0,0,5-2.07,6.72,6.72,0,0,0,2.1-5v-14.1h2.11v14.29a8.79,8.79,0,0,1-9.18,8.94Z"/><path class="cls-1" d="M659.22,127.45a7.59,7.59,0,0,0-4.41,2.85,7.74,7.74,0,0,0-2.16,5.06v13.13h-2.11V125.6h2.11v5a9.09,9.09,0,0,1,5.41-5.14Z"/><path class="cls-1" d="M662.88,135.17a8.91,8.91,0,0,0-.08,1.19,10.58,10.58,0,0,0,18.07,7.44c.35-.35.68-.72,1-1.11l2.24.79a11.84,11.84,0,0,1-1.66,1.9,12.79,12.79,0,1,1,0-18.09,10.84,10.84,0,0,1,3.29,7.88Zm.4-2.13h20.09a10,10,0,0,0-2.5-4.17,10.57,10.57,0,0,0-15,0A10.77,10.77,0,0,0,663.28,133Z"/><path class="cls-1" d="M705.1,111.21v37.28H703V111.21Z"/><path class="cls-1" d="M735.23,148.49h-2.1v-4.67a16.48,16.48,0,0,1-1.32,1.56,12.79,12.79,0,1,1,0-18.09,16.48,16.48,0,0,1,1.32,1.56V125.6h2.1Zm-2.1-10.07v-4.14a10.46,10.46,0,1,0,0,4.14Z"/><path class="cls-1" d="M70.91,200a8.91,8.91,0,0,0-.08,1.19A10.58,10.58,0,0,0,88.9,208.6c.35-.36.68-.72,1-1.11l2.24.79a11.34,11.34,0,0,1-1.66,1.9,12.79,12.79,0,1,1,0-18.09A10.78,10.78,0,0,1,93.77,200Zm.4-2.13H91.4a10,10,0,0,0-2.5-4.17,10.57,10.57,0,0,0-15,0A10.77,10.77,0,0,0,71.31,197.84Z"/><path class="cls-1" d="M97.33,190.4h2.11V191a6.45,6.45,0,0,1,4.67-1.9,6.54,6.54,0,0,1,4.8,2,6.1,6.1,0,0,1,.92,1.16,7.63,7.63,0,0,1,1-1.16,6.8,6.8,0,0,1,9.59,0,6.74,6.74,0,0,1,2,4.58v17.67h-2.11V195.62h0a4.42,4.42,0,0,0-1.37-3.08,4.71,4.71,0,0,0-8,3.43v17.32H108.8V195.62h0a4.54,4.54,0,0,0-1.4-3.08,4.59,4.59,0,0,0-3.32-1.37,4.53,4.53,0,0,0-3.3,1.37,4.58,4.58,0,0,0-1.37,2.9v17.85H97.33Z"/><path class="cls-1" d="M128.66,200a8.91,8.91,0,0,0-.08,1.19,10.57,10.57,0,0,0,10.57,10.55,10.22,10.22,0,0,0,7.49-3.11c.35-.36.69-.72,1-1.11l2.24.79a10.88,10.88,0,0,1-1.66,1.9,12.79,12.79,0,1,1,0-18.09,10.79,10.79,0,0,1,3.3,7.88Zm.39-2.13h20.09a9.91,9.91,0,0,0-2.5-4.17,10.57,10.57,0,0,0-15,0A10.77,10.77,0,0,0,129.05,197.84Z"/><path class="cls-1" d="M163.17,192.25a7.57,7.57,0,0,0-4.4,2.85,7.74,7.74,0,0,0-2.16,5.06v13.13H154.5V190.4h2.11v5a9.1,9.1,0,0,1,5.4-5.14Z"/><path class="cls-1" d="M187.67,208.75c-.41.5-.83,1-1.27,1.43a12.77,12.77,0,1,1,0-18.09,14,14,0,0,1,1.32,1.56V190.4h2.11v17.77a11.94,11.94,0,0,1-3.67,8.81,12.76,12.76,0,0,1-18.11,0,14.2,14.2,0,0,1-1.37-1.58l2.21-.82a9.75,9.75,0,0,0,.77.82,10.58,10.58,0,0,0,18-6.65Zm0-9.78a10.6,10.6,0,0,0-10.36-8.41,10.59,10.59,0,1,0,7.49,18.06,10.28,10.28,0,0,0,2.87-5.24Z"/><path class="cls-1" d="M195.39,200a8.91,8.91,0,0,0-.08,1.19,10.58,10.58,0,0,0,18.07,7.44c.35-.36.68-.72,1-1.11l2.24.79a11.34,11.34,0,0,1-1.66,1.9,12.79,12.79,0,1,1,0-18.09,10.82,10.82,0,0,1,3.29,7.88Zm.4-2.13h20.09a10,10,0,0,0-2.5-4.17,10.57,10.57,0,0,0-15,0A10.77,10.77,0,0,0,195.79,197.84Z"/><path class="cls-1" d="M223.92,195.52v17.77h-2.11V190.4h2.11v1.48a9.12,9.12,0,0,1,6.65-2.85,8.93,8.93,0,0,1,6.6,2.55,8.83,8.83,0,0,1,2.6,6.39v15.32h-2.08V198.18a6.72,6.72,0,0,0-2.11-5,7.14,7.14,0,0,0-10,0A7.81,7.81,0,0,0,223.92,195.52Z"/><path class="cls-1" d="M264.77,207.78l2.21.82a14.2,14.2,0,0,1-1.37,1.58,12.79,12.79,0,1,1,0-18.09,14.2,14.2,0,0,1,1.37,1.58l-2.21.82c-.23-.28-.48-.56-.74-.84a10.25,10.25,0,0,0-7.49-3.09,10.58,10.58,0,1,0,7.49,18C264.29,208.33,264.54,208.06,264.77,207.78Z"/><path class="cls-1" d="M274,182.91a2,2,0,0,1,.62,1.46,2.08,2.08,0,0,1-2.09,2.1,2.08,2.08,0,0,1-1.49-.6,2,2,0,0,1-.62-1.5,2,2,0,0,1,.62-1.46,2.08,2.08,0,0,1,1.49-.6A2,2,0,0,1,274,182.91Zm-.44,7.49v22.89h-2.08V190.4Z"/><path class="cls-1" d="M304,213.29h-2.11v-4.67a16.48,16.48,0,0,1-1.32,1.56,12.79,12.79,0,1,1,0-18.09,16.48,16.48,0,0,1,1.32,1.56V190.4H304Zm-2.11-10.07v-4.14a10.58,10.58,0,0,0-21,2.08,10.59,10.59,0,0,0,21,2.06Z"/><path class="cls-1" d="M328.23,201a16.69,16.69,0,0,1-3.69-2.48,5.28,5.28,0,0,1-1.61-3.87,5.34,5.34,0,0,1,1.61-3.89,5.26,5.26,0,0,1,3.88-1.62,5.13,5.13,0,0,1,3.77,1.5,4.59,4.59,0,0,1,1.45,3.32v.11l-1.82.74a4.64,4.64,0,0,0-1.11-2.67,3,3,0,0,0-2.29-.89,3.24,3.24,0,0,0-2.4,1,3.36,3.36,0,0,0,0,4.8,14.69,14.69,0,0,0,2.45,1.79,18.85,18.85,0,0,1,4.24,2.87,6.81,6.81,0,0,1-4.8,11.61,6.48,6.48,0,0,1-4.79-2,6.07,6.07,0,0,1-2-4.36l2.08-.53a4.61,4.61,0,0,0,1.39,3.42,4.5,4.5,0,0,0,3.3,1.38,4.73,4.73,0,0,0,4.72-4.74,4.46,4.46,0,0,0-1.39-3.3A21.36,21.36,0,0,0,328.23,201Z"/><path class="cls-1" d="M363.91,213.29H361.8v-4.67a16.48,16.48,0,0,1-1.32,1.56,12.79,12.79,0,1,1,0-18.09,16.48,16.48,0,0,1,1.32,1.56V190.4h2.11Zm-2.11-10.07v-4.14a10.49,10.49,0,1,0,0,4.14Z"/><path class="cls-1" d="M371,195.52v17.77h-2.11V190.4H371v1.48a9.12,9.12,0,0,1,6.65-2.85,8.81,8.81,0,0,1,9.2,8.94v15.32h-2.08V198.18a6.72,6.72,0,0,0-2.11-5,7.14,7.14,0,0,0-10,0A7.81,7.81,0,0,0,371,195.52Z"/><path class="cls-1" d="M395.08,182.91a2,2,0,0,1,.63,1.46,2.1,2.1,0,0,1-2.09,2.1,2.08,2.08,0,0,1-2.11-2.1,2,2,0,0,1,.62-1.46,2.06,2.06,0,0,1,1.49-.6A2,2,0,0,1,395.08,182.91Zm-.43,7.49v22.89h-2.08V190.4Z"/><path class="cls-1" d="M403.3,190.4v-9.73h2.08v9.73h4.67v2.11h-4.67v20.78H403.3V192.51h-4.67V190.4Z"/><path class="cls-1" d="M438.13,213.29H436v-4.67a14,14,0,0,1-1.32,1.56,12.79,12.79,0,1,1,0-18.09,14,14,0,0,1,1.32,1.56V190.4h2.11ZM436,203.22v-4.14a10.49,10.49,0,1,0,0,4.14Z"/><path class="cls-1" d="M451.18,192.25a7.57,7.57,0,0,0-4.4,2.85,7.74,7.74,0,0,0-2.16,5.06v13.13h-2.11V190.4h2.11v5a9.07,9.07,0,0,1,5.4-5.14Z"/><path class="cls-1" d="M456.84,182.91a2,2,0,0,1,.62,1.46,2.08,2.08,0,0,1-2.09,2.1,2.08,2.08,0,0,1-1.49-.6,2,2,0,0,1-.62-1.5,2,2,0,0,1,.62-1.46,2.08,2.08,0,0,1,1.49-.6A2,2,0,0,1,456.84,182.91Zm-.44,7.49v22.89h-2.08V190.4Z"/><path class="cls-1" d="M486.78,213.29h-2.11v-4.67a16.48,16.48,0,0,1-1.32,1.56,12.79,12.79,0,1,1,0-18.09,16.48,16.48,0,0,1,1.32,1.56V190.4h2.11Zm-2.11-10.07v-4.14a10.58,10.58,0,0,0-21,2.08,10.59,10.59,0,0,0,21,2.06Z"/><path class="cls-1" d="M493.2,210.05a2,2,0,0,1,.62,1.47,2,2,0,0,1-.62,1.48,2.09,2.09,0,0,1-2.95,0,2,2,0,0,1-.62-1.48,1.94,1.94,0,0,1,.62-1.47,2.09,2.09,0,0,1,2.95,0Z"/><path class="cls-2" d="M0,0H873a0,0,0,0,1,0,0V0A276,276,0,0,1,597,276H0a0,0,0,0,1,0,0V0A0,0,0,0,1,0,0Z"/></g></g></svg>