<svg xmlns="http://www.w3.org/2000/svg" viewBox="0 0 678.9 73.39"><defs><style>.cls-1{fill:#444343;}</style></defs><title>Viajar_alaero</title><g id="Capa_2" data-name="Capa 2"><g id="Capa_1-2" data-name="Capa 1"><path class="cls-1" d="M41.61,46.52a53.44,53.44,0,0,0,4.91-9.76q1.89-5,3.35-10.15t2.84-10.32Q54.08,11.1,56,6a10.46,10.46,0,0,1,.48-1.25c.25-.6.54-1.2.86-1.8a9.09,9.09,0,0,1,1.07-1.64A1.71,1.71,0,0,1,59.67.6a1.32,1.32,0,0,1,1.12.6,4.44,4.44,0,0,1,.64,1.51,10,10,0,0,1,.26,2,19.06,19.06,0,0,1,0,2.15,111.89,111.89,0,0,1-4.56,22.78A87.06,87.06,0,0,1,46.77,51.24a32.72,32.72,0,0,1-3.65,4.52,31.31,31.31,0,0,1-4.56,3.91,23.32,23.32,0,0,1-5.16,2.75,15.6,15.6,0,0,1-5.63,1,16.77,16.77,0,0,1-9.11-2.53,26.48,26.48,0,0,1-7.14-6.67,44.3,44.3,0,0,1-5.29-9.33A75.38,75.38,0,0,1,2.67,34.43a81.66,81.66,0,0,1-2-10.18A66.64,66.64,0,0,1,0,15.73c0-.34,0-1,.09-1.93a19.28,19.28,0,0,1,.38-2.88,10.7,10.7,0,0,1,.86-2.58,1.87,1.87,0,0,1,1.42-1.2H3.1c.45,0,.8.33,1,1a10.25,10.25,0,0,1,.47,2.36c.09.92.13,1.88.13,2.88v2.54a54.26,54.26,0,0,0,.64,7.82,73.68,73.68,0,0,0,1.9,8.94,63.46,63.46,0,0,0,3.18,8.94,40.86,40.86,0,0,0,4.47,7.83A23,23,0,0,0,20.59,55a12.11,12.11,0,0,0,6.92,2.11,9.66,9.66,0,0,0,4.22-1,18.77,18.77,0,0,0,3.91-2.53A24.21,24.21,0,0,0,39,50.13C40,48.87,40.87,47.66,41.61,46.52Z"/><path class="cls-1" d="M71,27.43a2.84,2.84,0,0,1-.22,1.76,4.1,4.1,0,0,1-1.16,1.46,6.94,6.94,0,0,1-1.8,1.08,9.94,9.94,0,0,1-2.15.6,9.55,9.55,0,0,1-4.21-.43,3.06,3.06,0,0,1-2.33-2.49,3.31,3.31,0,0,1,1.17-3.23,8.9,8.9,0,0,1,8.46-1.37A3.26,3.26,0,0,1,71,27.43Zm-9.8,11.78a3.3,3.3,0,0,1,1.07-2.84,3.17,3.17,0,0,1,2.37-.6,3.76,3.76,0,0,1,2.23,1.12,2.46,2.46,0,0,1,.69,2.32c-.23,1-.44,2.32-.64,3.87s-.33,3-.39,4.47a20.21,20.21,0,0,0,.13,3.69c.14,1,.47,1.55,1,1.55.34,0,.76-.44,1.24-1.33a24.81,24.81,0,0,0,1.42-3.14c.46-1.2.89-2.41,1.29-3.61A23.31,23.31,0,0,0,72.4,42a1.75,1.75,0,0,1,.86-1.16,1.66,1.66,0,0,1,1.16-.17,1.61,1.61,0,0,1,.94.64,1.33,1.33,0,0,1,.13,1.29c-.11.34-.3,1-.56,1.93s-.59,2-1,3.14S73.07,50,72.52,51.2a16.11,16.11,0,0,1-1.89,3.27,8.34,8.34,0,0,1-2.36,2.19,3.46,3.46,0,0,1-2.84.34,5.2,5.2,0,0,1-3.31-2.53A10.67,10.67,0,0,1,61,50.17a38.2,38.2,0,0,1,0-5.33C61.15,42.92,61.22,41,61.22,39.21Z"/><path class="cls-1" d="M82.54,33.62a4.26,4.26,0,0,1,2.11,1.12,8.43,8.43,0,0,1,1.5,1.89,2.49,2.49,0,0,1,1.72-.86,4.17,4.17,0,0,1,2,.3,3.66,3.66,0,0,1,1.55,1.2,2.53,2.53,0,0,1,.43,1.94c-.23,1-.45,2.32-.65,3.87s-.33,3-.39,4.47a22.18,22.18,0,0,0,.13,3.69c.15,1,.45,1.55.91,1.55s.76-.44,1.24-1.33a27.68,27.68,0,0,0,1.46-3.14c.49-1.2.94-2.41,1.34-3.61A21.09,21.09,0,0,0,96.64,42a1.78,1.78,0,0,1,.86-1.16,1.67,1.67,0,0,1,1.16-.17,1.63,1.63,0,0,1,1,.64,1.33,1.33,0,0,1,.13,1.29c-.12.34-.3,1-.56,1.93s-.59,2-1,3.14S97.31,50,96.77,51.2a17.1,17.1,0,0,1-1.89,3.27,8.24,8.24,0,0,1-2.41,2.19,3.57,3.57,0,0,1-2.88.34A5.42,5.42,0,0,1,86,54a14.14,14.14,0,0,1-1.89,3.74A7.1,7.1,0,0,1,81,60.19a5.68,5.68,0,0,1-3.18.25,6.58,6.58,0,0,1-4-3.09,15.28,15.28,0,0,1-2-5.59,23.59,23.59,0,0,1-.09-6.62A19.76,19.76,0,0,1,73.56,39a11.11,11.11,0,0,1,3.56-4.34A6.81,6.81,0,0,1,82.54,33.62Zm2.24,8.68a13.53,13.53,0,0,0-.65-2.83c-.31-.92-.79-1.44-1.42-1.55a2.51,2.51,0,0,0-2.45,1,9.65,9.65,0,0,0-1.76,3.31,23,23,0,0,0-1,4.51,25.37,25.37,0,0,0-.17,4.64A12.93,12.93,0,0,0,78,55.11c.37,1,.93,1.61,1.67,1.72s1.45-.28,2.11-1.2a13.5,13.5,0,0,0,1.72-3.53,27,27,0,0,0,1.12-4.77A20.34,20.34,0,0,0,84.78,42.3Z"/><path class="cls-1" d="M106.44,27.69a3.35,3.35,0,0,1-2.1,2.88,8.28,8.28,0,0,1-4.17.73,11.66,11.66,0,0,1-2.2-.39,6.54,6.54,0,0,1-1.89-.86,5,5,0,0,1-1.33-1.33A2.6,2.6,0,0,1,94.32,27a3.53,3.53,0,0,1,1.93-2.88,7.54,7.54,0,0,1,4.26-.82,9,9,0,0,1,4.3,1.33A3.14,3.14,0,0,1,106.44,27.69Zm-4.55,41a3.61,3.61,0,0,1-1.17,2.79A6.65,6.65,0,0,1,98.23,73a3.93,3.93,0,0,1-2.41.08A1.16,1.16,0,0,1,95,71.54c.17-.92.33-2.24.47-4s.27-3.68.39-5.89.23-4.51.34-6.92.22-4.77.3-7.09.14-4.46.17-6.41.08-3.55.13-4.81a1.74,1.74,0,0,1,1-1.59,5,5,0,0,1,2.24-.61,4,4,0,0,1,2.15.48,1.49,1.49,0,0,1,.86,1.54c-.12,1.21-.24,2.78-.39,4.73s-.26,4-.34,6.28-.16,4.5-.22,6.79-.1,4.44-.13,6.45-.05,3.74-.08,5.2S101.89,68.18,101.89,68.7Z"/><path class="cls-1" d="M117.62,33.62a4.3,4.3,0,0,1,2.11,1.12,8.43,8.43,0,0,1,1.5,1.89,2.49,2.49,0,0,1,1.72-.86,4.17,4.17,0,0,1,2,.3,3.66,3.66,0,0,1,1.55,1.2,2.53,2.53,0,0,1,.43,1.94c-.23,1-.45,2.32-.65,3.87s-.33,3-.39,4.47a22.18,22.18,0,0,0,.13,3.69c.14,1,.45,1.55.91,1.55s.75-.44,1.24-1.33a27.68,27.68,0,0,0,1.46-3.14c.49-1.2.93-2.41,1.34-3.61a22.84,22.84,0,0,0,.77-2.75,1.78,1.78,0,0,1,.86-1.16,1.67,1.67,0,0,1,1.16-.17,1.63,1.63,0,0,1,.95.64,1.36,1.36,0,0,1,.13,1.29c-.12.34-.31,1-.56,1.93s-.59,2-1,3.14-.88,2.34-1.42,3.57A17.1,17.1,0,0,1,130,54.47a8.24,8.24,0,0,1-2.41,2.19,3.57,3.57,0,0,1-2.88.34,5.42,5.42,0,0,1-3.61-3,14.14,14.14,0,0,1-1.89,3.74,7.15,7.15,0,0,1-3.1,2.45,5.68,5.68,0,0,1-3.18.25,6.58,6.58,0,0,1-4-3.09,15.28,15.28,0,0,1-2-5.59,23.22,23.22,0,0,1-.09-6.62A19.76,19.76,0,0,1,108.64,39a11.11,11.11,0,0,1,3.56-4.34A6.81,6.81,0,0,1,117.62,33.62Zm2.24,8.68a14.19,14.19,0,0,0-.65-2.83c-.32-.92-.79-1.44-1.42-1.55a2.5,2.5,0,0,0-2.45,1,9.65,9.65,0,0,0-1.76,3.31,23,23,0,0,0-1,4.51,25.37,25.37,0,0,0-.17,4.64,12.93,12.93,0,0,0,.69,3.74c.37,1,.93,1.61,1.67,1.72s1.45-.28,2.11-1.2a13.5,13.5,0,0,0,1.72-3.53,27.86,27.86,0,0,0,1.12-4.77A20.34,20.34,0,0,0,119.86,42.3Z"/><path class="cls-1" d="M134.39,43.08a1.45,1.45,0,0,1-.74,1,1.63,1.63,0,0,1-1.16.18,1.55,1.55,0,0,1-.94-.6,1.21,1.21,0,0,1,0-1.25l.51-1.46a2.88,2.88,0,0,1-.86-1.81,3.72,3.72,0,0,1,.35-1.93,4.22,4.22,0,0,1,1.24-1.55,2.94,2.94,0,0,1,1.85-.65c1.21,0,1.87.45,2,1.34a5.77,5.77,0,0,1-.51,3,2.94,2.94,0,0,0,1.67.09c.78-.11,1.51-.19,2.19-.22a3.07,3.07,0,0,1,1.72.39c.46.29.58,1,.35,2s-.48,2.26-.73,3.7-.45,2.79-.56,4.08a15.16,15.16,0,0,0,0,3.31c.11.92.43,1.38.94,1.38.35,0,.79-.51,1.34-1.51s1.1-2.16,1.67-3.48,1.09-2.65,1.55-4a22,22,0,0,0,.86-3,1.74,1.74,0,0,1,.73-1.21,2,2,0,0,1,1.16-.3,1.39,1.39,0,0,1,1,.52,1.74,1.74,0,0,1,.3,1.33c-.06.29-.2.91-.43,1.85s-.54,2-.94,3.18-.89,2.41-1.47,3.7a19,19,0,0,1-2.06,3.57,11,11,0,0,1-2.66,2.62,5.24,5.24,0,0,1-3.27.9,3.32,3.32,0,0,1-3-1.85,11.26,11.26,0,0,1-1.2-4.21,21.27,21.27,0,0,1,.12-5.2A27.66,27.66,0,0,1,136.45,42a4.19,4.19,0,0,1-.86.09h-.86A2.57,2.57,0,0,0,134.39,43.08Z"/><path class="cls-1" d="M160.18,50.56a7.8,7.8,0,0,1-.56,3.31,22.79,22.79,0,0,1-1.93,4.25,13.22,13.22,0,0,1-2.63,3.31c-.94.83-1.82,1-2.62.39-.29-.23-.33-.57-.13-1a15.71,15.71,0,0,0,.69-2.28,21.77,21.77,0,0,0,.47-4.26,32,32,0,0,0-.77-7c-.12-.63.17-1,.86-1.08a5.29,5.29,0,0,1,2.41.39,9.38,9.38,0,0,1,2.66,1.59A4.19,4.19,0,0,1,160.18,50.56Z"/><path class="cls-1" d="M186.49,33.62a4.23,4.23,0,0,1,2.1,1.12,8.21,8.21,0,0,1,1.51,1.89,2.49,2.49,0,0,1,1.72-.86,4.19,4.19,0,0,1,2,.3,3.58,3.58,0,0,1,1.54,1.2,2.49,2.49,0,0,1,.43,1.94c-.23,1-.44,2.32-.64,3.87s-.33,3-.39,4.47a21.14,21.14,0,0,0,.13,3.69c.14,1,.44,1.55.9,1.55s.76-.44,1.25-1.33a29.53,29.53,0,0,0,1.46-3.14c.49-1.2.93-2.41,1.33-3.61a23.31,23.31,0,0,0,.78-2.75,1.78,1.78,0,0,1,.86-1.16,1.66,1.66,0,0,1,1.16-.17,1.58,1.58,0,0,1,.94.64,1.31,1.31,0,0,1,.13,1.29c-.11.34-.3,1-.56,1.93s-.58,2-1,3.14-.88,2.34-1.42,3.57a17.1,17.1,0,0,1-1.89,3.27,8.24,8.24,0,0,1-2.41,2.19,3.57,3.57,0,0,1-2.88.34,5.39,5.39,0,0,1-3.61-3,13.87,13.87,0,0,1-1.9,3.74,7.07,7.07,0,0,1-3.09,2.45,5.68,5.68,0,0,1-3.18.25,6.6,6.6,0,0,1-4-3.09,15.46,15.46,0,0,1-2-5.59,22.86,22.86,0,0,1-.09-6.62A19.75,19.75,0,0,1,177.5,39a11.22,11.22,0,0,1,3.57-4.34A6.81,6.81,0,0,1,186.49,33.62Zm2.23,8.68a13.51,13.51,0,0,0-.64-2.83c-.32-.92-.79-1.44-1.42-1.55a2.5,2.5,0,0,0-2.45,1,9.48,9.48,0,0,0-1.76,3.31,23,23,0,0,0-1,4.51,25.37,25.37,0,0,0-.17,4.64,13.29,13.29,0,0,0,.68,3.74c.38,1,.93,1.61,1.68,1.72s1.45-.28,2.11-1.2a13.82,13.82,0,0,0,1.72-3.53,27,27,0,0,0,1.11-4.77A19.87,19.87,0,0,0,188.72,42.3Z"/><path class="cls-1" d="M202.05,21.15a3.34,3.34,0,0,1,1.12-2.88,3.64,3.64,0,0,1,2.45-.73,3.79,3.79,0,0,1,2.32.95,2.22,2.22,0,0,1,.73,2.23c-.12.69-.3,2-.56,4s-.5,4.32-.73,6.92-.43,5.32-.6,8.13-.27,5.4-.3,7.78a40.69,40.69,0,0,0,.26,5.85c.2,1.52.58,2.28,1.16,2.28.34,0,.81-.63,1.41-1.9s1.21-2.69,1.81-4.29,1.16-3.17,1.68-4.69.86-2.51,1-3a1.34,1.34,0,0,1,.77-1,1.9,1.9,0,0,1,1.16-.13,1.73,1.73,0,0,1,1,.6,1.25,1.25,0,0,1,.13,1.25c-.35,1.15-.81,2.75-1.38,4.82a48.11,48.11,0,0,1-2.15,6.1,22.22,22.22,0,0,1-3.09,5.24,5.4,5.4,0,0,1-4.3,2.24,3.71,3.71,0,0,1-3.48-2.45,19.55,19.55,0,0,1-1.59-6.23,60.7,60.7,0,0,1-.31-8.43q.14-4.65.48-9.07c.23-3,.46-5.65.69-8.08S202.05,22.41,202.05,21.15Z"/><path class="cls-1" d="M286.05,48.84c0-.69,0-1.48,0-2.37s-.07-1.85-.13-2.88q-10.32.44-20.55.69t-20.64.43c-.28,2.12-.5,4.26-.64,6.41s-.3,4.28-.47,6.4c-.12,1.55-.43,2.32-1,2.32a1.64,1.64,0,0,1-1.12-.64,8.71,8.71,0,0,1-1.12-1.55c-.34-.6-.65-1.2-.94-1.81a12,12,0,0,1-.6-1.41,30.24,30.24,0,0,1-1-3.53,17.47,17.47,0,0,1-.39-3.7V46a5.58,5.58,0,0,1,.17-1.29h-3a10.17,10.17,0,0,1-1.16-.09,7.73,7.73,0,0,1-1.46-.3,6.42,6.42,0,0,1-1.29-.51.88.88,0,0,1-.56-.73,1,1,0,0,1,.52-.78,4.55,4.55,0,0,1,1.29-.56,14.15,14.15,0,0,1,1.72-.34,12.16,12.16,0,0,1,1.72-.13h3c.46-2.23,1.07-4.74,1.85-7.52a69.77,69.77,0,0,1,2.92-8.39,68.25,68.25,0,0,1,4.08-8.16,36.86,36.86,0,0,1,5.33-7,24.75,24.75,0,0,1,6.71-4.95,18,18,0,0,1,8.17-1.85A17.5,17.5,0,0,1,275.17,5a18.93,18.93,0,0,1,5.89,4.38,26.42,26.42,0,0,1,4.22,6.32,47.55,47.55,0,0,1,2.83,7.44A53,53,0,0,1,289.75,31a73.2,73.2,0,0,1,.6,7.4,10.1,10.1,0,0,1,2.71,1.24,2.59,2.59,0,0,1,1.24,2.28,1.15,1.15,0,0,1-.43,1,2.73,2.73,0,0,1-1.07.51,6.63,6.63,0,0,1-1.38.22c-.48,0-.93,0-1.33,0-.11,1.21-.29,2.71-.51,4.52s-.53,3.55-.91,5.24a26.74,26.74,0,0,1-1.29,4.34c-.48,1.21-1,1.81-1.59,1.81-.23,0-.34-.32-.34-1a38.39,38.39,0,0,1,.3-4.85A38.67,38.67,0,0,0,286.05,48.84ZM257.16,14.79a38.28,38.28,0,0,0-8.25,12.34,62.15,62.15,0,0,0-3.79,13.62q5-.42,10-1.07c3.35-.43,6.71-.82,10.06-1.16s6.71-.62,10.06-.82a91.94,91.94,0,0,1,10.1,0,87.45,87.45,0,0,0-1.63-9.59,39.75,39.75,0,0,0-3.18-9,21.34,21.34,0,0,0-5.2-6.74,11.36,11.36,0,0,0-7.61-2.67,11.91,11.91,0,0,0-5.63,1.42A19,19,0,0,0,257.16,14.79Z"/><path class="cls-1" d="M311.59,42a5.55,5.55,0,0,1-1.72,1.55,11.62,11.62,0,0,1-2.24,1,13.8,13.8,0,0,1-2.45.56c-.83.11-1.56.2-2.19.26a31,31,0,0,0-.3,3.52,17.61,17.61,0,0,0,.17,3.1,7.66,7.66,0,0,0,.69,2.32,2.17,2.17,0,0,0,1.33,1.2,3,3,0,0,0,2.41-.38,10.58,10.58,0,0,0,2.49-2,22,22,0,0,0,2.32-3c.75-1.15,1.41-2.25,2-3.31s1.06-2,1.46-2.93a15.74,15.74,0,0,0,.77-1.93,1.63,1.63,0,0,1,.82-1,1.83,1.83,0,0,1,1.08-.18,1.35,1.35,0,0,1,.86.56,1.55,1.55,0,0,1,.17,1.25c-.12.34-.32,1-.6,2a30.07,30.07,0,0,1-1.25,3.4,38.91,38.91,0,0,1-2,3.91,18.24,18.24,0,0,1-2.79,3.7,15.15,15.15,0,0,1-3.74,2.79,9.82,9.82,0,0,1-4.69,1.12,5.81,5.81,0,0,1-4.81-2.15,11.92,11.92,0,0,1-2.32-5.42,24.58,24.58,0,0,1-.22-7,29.91,29.91,0,0,1,1.55-7,17.92,17.92,0,0,1,2.92-5.42,5.06,5.06,0,0,1,3.91-2.15,5.32,5.32,0,0,1,3.66,1.42,10,10,0,0,1,2.45,3.31,11.17,11.17,0,0,1,1,3.87A4.49,4.49,0,0,1,311.59,42Zm-5.33-7.65c-.41.17-.84.91-1.29,2.19a39,39,0,0,0-1.29,4.69,8.69,8.69,0,0,0,1.89-.21,2.07,2.07,0,0,0,1.37-.91,3.11,3.11,0,0,0,.43-1.5,9.14,9.14,0,0,0,0-2,6.43,6.43,0,0,0-.43-1.72C306.7,34.45,306.48,34.28,306.26,34.39Z"/><path class="cls-1" d="M319,43.08a1.46,1.46,0,0,1-.73,1,1.63,1.63,0,0,1-1.16.18,1.57,1.57,0,0,1-.95-.6,1.21,1.21,0,0,1,0-1.25l.52-1.46a2.83,2.83,0,0,1-.86-1.81,3.72,3.72,0,0,1,.34-1.93,4.25,4.25,0,0,1,1.25-1.55,2.9,2.9,0,0,1,1.85-.65c1.2,0,1.86.45,2,1.34a5.78,5.78,0,0,1-.52,3,3,3,0,0,0,1.68.09c.77-.11,1.5-.19,2.19-.22a3.07,3.07,0,0,1,1.72.39c.46.29.57,1,.34,2s-.47,2.26-.73,3.7-.44,2.79-.56,4.08a16.53,16.53,0,0,0,0,3.31c.12.92.43,1.38,1,1.38.34,0,.79-.51,1.33-1.51s1.1-2.16,1.68-3.48,1.09-2.65,1.55-4a23.48,23.48,0,0,0,.86-3,1.7,1.7,0,0,1,.73-1.21,2,2,0,0,1,1.16-.3,1.39,1.39,0,0,1,1,.52,1.83,1.83,0,0,1,.3,1.33c-.06.29-.21.91-.43,1.85s-.55,2-.95,3.18-.89,2.41-1.46,3.7A19,19,0,0,1,330,54.6a11.2,11.2,0,0,1-2.67,2.62,5.22,5.22,0,0,1-3.27.9,3.33,3.33,0,0,1-3-1.85,11.26,11.26,0,0,1-1.2-4.21,21.29,21.29,0,0,1,.13-5.2A27.71,27.71,0,0,1,321,42a4.12,4.12,0,0,1-.86.09h-.86A2.76,2.76,0,0,0,319,43.08Z"/><path class="cls-1" d="M339.53,54.86a7.48,7.48,0,0,1-5.07-1.64,8.44,8.44,0,0,1-2.63-4,13.25,13.25,0,0,1-.43-5.24,15.26,15.26,0,0,1,1.47-5.21,11.54,11.54,0,0,1,3.05-3.91,6.13,6.13,0,0,1,4.47-1.37,7.93,7.93,0,0,1,4.9,1.8,9.45,9.45,0,0,1,2.75,4,13.21,13.21,0,0,1,.73,5.12,12.91,12.91,0,0,1-1.25,5,10.56,10.56,0,0,1-3.13,3.87A7.78,7.78,0,0,1,339.53,54.86ZM340.65,51a1.6,1.6,0,0,0,1.54-.91,7,7,0,0,0,.86-2.58,18.25,18.25,0,0,0,.22-3.48,16.87,16.87,0,0,0-.43-3.52,9.28,9.28,0,0,0-1.08-2.75,1.94,1.94,0,0,0-1.63-1.12,1.72,1.72,0,0,0-1.46,1,8.29,8.29,0,0,0-.9,2.58,17,17,0,0,0-.31,3.4,16.13,16.13,0,0,0,.35,3.43,8.47,8.47,0,0,0,1,2.71A2.28,2.28,0,0,0,340.65,51Z"/><path class="cls-1" d="M351.05,32.16a3.46,3.46,0,0,1,1.12-2.67,6.09,6.09,0,0,1,2.4-1.42,3.9,3.9,0,0,1,2.28-.08,1.13,1.13,0,0,1,.82,1.42,23.63,23.63,0,0,0-.3,2.49c-.09,1-.19,2.21-.3,3.52a8.74,8.74,0,0,1,2.19-1.54,5.57,5.57,0,0,1,2.88-.61,5.66,5.66,0,0,1,4.17,2,10.51,10.51,0,0,1,2.11,4.3,14.94,14.94,0,0,1,.25,5.33,17,17,0,0,1-1.46,5.25A11.19,11.19,0,0,1,364.33,54a5.41,5.41,0,0,1-4.08,1.33,5.57,5.57,0,0,1-3.1-1l-.51-.34a3.94,3.94,0,0,1-.52-.43c-.11,2.23-.19,4.31-.21,6.23s-.05,3.45-.05,4.6a1.6,1.6,0,0,1-1,1.46,4.88,4.88,0,0,1-2.11.56,4.2,4.2,0,0,1-2.06-.43,1.3,1.3,0,0,1-.78-1.5c.12-1.15.23-2.67.35-4.56s.21-4,.3-6.19.15-4.53.21-6.88.1-4.53.13-6.54.06-3.74.09-5.2S351.05,32.67,351.05,32.16Zm6.88,7.22a15.15,15.15,0,0,0-1.08,3.87,16.46,16.46,0,0,0-.13,3.87,8.24,8.24,0,0,0,.86,3.09,2.49,2.49,0,0,0,1.72,1.46c.58.12,1.11-.17,1.59-.86a8.87,8.87,0,0,0,1.21-2.62,23.43,23.43,0,0,0,.73-3.52A18.29,18.29,0,0,0,363,41a10,10,0,0,0-.6-2.88,1.72,1.72,0,0,0-1.42-1.24,2.09,2.09,0,0,0-1.72.68A6.76,6.76,0,0,0,357.93,39.38Z"/><path class="cls-1" d="M371.08,37.06a2.45,2.45,0,0,1,1.08-2.19,4.9,4.9,0,0,1,2.36-.86,4.32,4.32,0,0,1,2.32.34,1.36,1.36,0,0,1,1,1.42q-.18,2.74-.52,5.76t-.68,5.59c-.23,1.72-.38,3.17-.43,4.34s.08,1.82.43,1.93.6-.1.94-.64a12.29,12.29,0,0,0,1-2.19c.35-.92.7-2,1.08-3.1s.73-2.29,1.07-3.44.66-2.23,1-3.27.54-1.86.77-2.49a1.57,1.57,0,0,1,1.16-1.59,4.22,4.22,0,0,1,2.28,0,6.31,6.31,0,0,1,2.11,1,1.62,1.62,0,0,1,.81,1.46c-.23,1-.44,2.32-.64,3.87s-.33,3-.39,4.47a21.14,21.14,0,0,0,.13,3.69c.14,1,.47,1.55,1,1.55.34,0,.76-.44,1.25-1.33a26.31,26.31,0,0,0,1.42-3.14c.45-1.2.88-2.41,1.29-3.61a22.84,22.84,0,0,0,.77-2.75,1.52,1.52,0,0,1,.77-1.16,1.78,1.78,0,0,1,1.21-.17,1.63,1.63,0,0,1,1,.64,1.33,1.33,0,0,1,.12,1.29c-.11.46-.35,1.32-.73,2.58s-.86,2.64-1.46,4.13a30.27,30.27,0,0,1-2.15,4.3,8.72,8.72,0,0,1-2.79,3,3.35,3.35,0,0,1-2.11.51,5.73,5.73,0,0,1-5.2-4.81,15.2,15.2,0,0,1-.26-2.93,35.76,35.76,0,0,1-1.8,4.56,13,13,0,0,1-2.41,3.53,3.18,3.18,0,0,1-2,1.07,4,4,0,0,1-2.24-.39,5.61,5.61,0,0,1-1.89-1.5,5.11,5.11,0,0,1-1.07-2.28,16.48,16.48,0,0,1-.26-3.27c0-1.32,0-2.75.13-4.3s.2-3.15.34-4.81S371,38.66,371.08,37.06Z"/><path class="cls-1" d="M407.88,42a5.44,5.44,0,0,1-1.72,1.55,11.53,11.53,0,0,1-2.23,1,14,14,0,0,1-2.45.56c-.84.11-1.57.2-2.2.26a31,31,0,0,0-.3,3.52,17.61,17.61,0,0,0,.17,3.1,8.28,8.28,0,0,0,.69,2.32,2.18,2.18,0,0,0,1.34,1.2,3,3,0,0,0,2.4-.38,10.83,10.83,0,0,0,2.5-2,22.87,22.87,0,0,0,2.32-3c.74-1.15,1.4-2.25,2-3.31s1.06-2,1.46-2.93a15.74,15.74,0,0,0,.77-1.93,1.57,1.57,0,0,1,.82-1,1.81,1.81,0,0,1,1.07-.18,1.33,1.33,0,0,1,.86.56,1.48,1.48,0,0,1,.17,1.25c-.11.34-.31,1-.6,2a29.84,29.84,0,0,1-1.24,3.4,41.14,41.14,0,0,1-2,3.91,18.67,18.67,0,0,1-2.8,3.7,15,15,0,0,1-3.74,2.79,9.75,9.75,0,0,1-4.68,1.12,5.83,5.83,0,0,1-4.82-2.15,12,12,0,0,1-2.32-5.42,24.6,24.6,0,0,1-.21-7,29.9,29.9,0,0,1,1.54-7,17.93,17.93,0,0,1,2.93-5.42,5,5,0,0,1,3.91-2.15,5.29,5.29,0,0,1,3.65,1.42,9.88,9.88,0,0,1,2.45,3.31,10.75,10.75,0,0,1,1,3.87A4.44,4.44,0,0,1,407.88,42Zm-5.33-7.65c-.4.17-.83.91-1.29,2.19A39,39,0,0,0,400,41.27a8.69,8.69,0,0,0,1.89-.21,2.12,2.12,0,0,0,1.38-.91,3.22,3.22,0,0,0,.43-1.5,9.79,9.79,0,0,0,0-2,6.43,6.43,0,0,0-.43-1.72C403,34.45,402.78,34.28,402.55,34.39Z"/><path class="cls-1" d="M415.28,43.08a1.45,1.45,0,0,1-.74,1,1.63,1.63,0,0,1-1.16.18,1.55,1.55,0,0,1-.94-.6,1.21,1.21,0,0,1,0-1.25l.51-1.46a2.88,2.88,0,0,1-.86-1.81,3.72,3.72,0,0,1,.35-1.93,4.25,4.25,0,0,1,1.25-1.55,2.89,2.89,0,0,1,1.84-.65c1.21,0,1.87.45,2,1.34a5.77,5.77,0,0,1-.51,3,2.94,2.94,0,0,0,1.67.09c.78-.11,1.51-.19,2.19-.22a3.07,3.07,0,0,1,1.72.39c.46.29.58,1,.35,2s-.47,2.26-.73,3.7-.45,2.79-.56,4.08a15.16,15.16,0,0,0,0,3.31c.11.92.43,1.38.94,1.38.35,0,.79-.51,1.34-1.51s1.1-2.16,1.67-3.48,1.09-2.65,1.55-4a20.62,20.62,0,0,0,.86-3,1.77,1.77,0,0,1,.73-1.21,2,2,0,0,1,1.16-.3,1.39,1.39,0,0,1,1,.52,1.74,1.74,0,0,1,.3,1.33c-.05.29-.2.91-.43,1.85s-.54,2-.94,3.18-.89,2.41-1.46,3.7a19.58,19.58,0,0,1-2.07,3.57,11,11,0,0,1-2.66,2.62,5.24,5.24,0,0,1-3.27.9,3.32,3.32,0,0,1-3-1.85,11.26,11.26,0,0,1-1.2-4.21,21.27,21.27,0,0,1,.12-5.2A27.66,27.66,0,0,1,417.34,42a4.19,4.19,0,0,1-.86.09h-.86A2.57,2.57,0,0,0,415.28,43.08Z"/><path class="cls-1" d="M429,28.89c0-.4,0-.79,0-1.16s0-.7,0-1a3.32,3.32,0,0,1,1.12-2.88,3.58,3.58,0,0,1,2.41-.73,3.8,3.8,0,0,1,2.28.94,2.26,2.26,0,0,1,.73,2.24l-.43,2.24h2.06a3.92,3.92,0,0,1,2.36.55,1.58,1.58,0,0,1,.74,1.21,1.43,1.43,0,0,1-.78,1.16,3.86,3.86,0,0,1-2.15.51h-2.58q-.35,3.1-.6,6.84c-.17,2.49-.29,4.84-.34,7s0,4,.08,5.5.38,2.2.78,2.2.81-.52,1.41-1.55,1.22-2.22,1.85-3.57,1.21-2.67,1.72-4,.86-2.16,1-2.62a1.34,1.34,0,0,1,.77-1,1.9,1.9,0,0,1,1.16-.13,1.76,1.76,0,0,1,.95.6,1.25,1.25,0,0,1,.12,1.25c-.34,1.15-.8,2.64-1.37,4.47a36.21,36.21,0,0,1-2.15,5.33,18,18,0,0,1-3.1,4.47,5.72,5.72,0,0,1-4.29,1.89,3.29,3.29,0,0,1-2.67-1.28A8.78,8.78,0,0,1,428.6,54a25.48,25.48,0,0,1-.64-4.86c-.09-1.83-.1-3.72,0-5.67s.18-3.92.35-5.89.31-3.8.43-5.46h-2.07a3.66,3.66,0,0,1-2.1-.52,1.57,1.57,0,0,1-.78-1.12,1.31,1.31,0,0,1,.65-1.11,3.72,3.72,0,0,1,2.23-.52Z"/><path class="cls-1" d="M448.46,54.86a7.48,7.48,0,0,1-5.07-1.64,8.42,8.42,0,0,1-2.62-4,13.07,13.07,0,0,1-.43-5.24,15.48,15.48,0,0,1,1.46-5.21,11.54,11.54,0,0,1,3.05-3.91,6.13,6.13,0,0,1,4.47-1.37,7.91,7.91,0,0,1,4.9,1.8,9.45,9.45,0,0,1,2.75,4,13.46,13.46,0,0,1-.51,10.15,10.58,10.58,0,0,1-3.14,3.87A7.78,7.78,0,0,1,448.46,54.86ZM449.58,51a1.61,1.61,0,0,0,1.55-.91A7,7,0,0,0,452,47.5,19.15,19.15,0,0,0,452.2,44a16.87,16.87,0,0,0-.43-3.52,9.28,9.28,0,0,0-1.07-2.75,2,2,0,0,0-1.64-1.12,1.72,1.72,0,0,0-1.46,1,8.29,8.29,0,0,0-.9,2.58,17.85,17.85,0,0,0-.3,3.4,16.15,16.15,0,0,0,.34,3.43,8.71,8.71,0,0,0,1,2.71A2.28,2.28,0,0,0,449.58,51Z"/><path class="cls-1" d="M489.82,20a3.34,3.34,0,0,1,1.12-2.88,3.61,3.61,0,0,1,2.4-.73,3.82,3.82,0,0,1,2.28.95,2.22,2.22,0,0,1,.73,2.23c-.11.69-.29,2-.51,3.92s-.48,4.14-.73,6.66-.48,5.13-.65,7.82-.26,5.19-.26,7.48a43.15,43.15,0,0,0,.3,5.64c.2,1.46.59,2.19,1.16,2.19s1-.49,1.59-1.46a29.52,29.52,0,0,0,1.6-3.4c.51-1.29.95-2.55,1.33-3.78s.61-2.14.73-2.71a1.8,1.8,0,0,1,.82-1.16,1.52,1.52,0,0,1,1.11-.17,1.6,1.6,0,0,1,1,.64,1.64,1.64,0,0,1,.21,1.38c-.11.57-.37,1.69-.77,3.35a27.61,27.61,0,0,1-1.81,5.12,17.35,17.35,0,0,1-3.13,4.68,6.1,6.1,0,0,1-4.6,2.07,3.49,3.49,0,0,1-3.06-1.6A12.63,12.63,0,0,1,489,52.1,10.47,10.47,0,0,1,487.11,55a6.84,6.84,0,0,1-2.88,1.89,4.63,4.63,0,0,1-3.27.17A6.48,6.48,0,0,1,477,54.38a12.8,12.8,0,0,1-2-4.9,16.79,16.79,0,0,1-.13-5.8,15.5,15.5,0,0,1,1.76-5.42,9.81,9.81,0,0,1,3.57-3.74,7.84,7.84,0,0,1,5.41-.82,4.84,4.84,0,0,1,3,1.81c.23-3.27.49-6.3.78-9.11S489.82,21.47,489.82,20Zm-2,21.24a10.93,10.93,0,0,0-.65-2.41,1.92,1.92,0,0,0-1.41-1.37,2.57,2.57,0,0,0-2.45.86,8.49,8.49,0,0,0-1.77,2.88,17.21,17.21,0,0,0-1,3.91,20.33,20.33,0,0,0-.17,4.08,9.63,9.63,0,0,0,.73,3.27A2.31,2.31,0,0,0,482.85,54,2.27,2.27,0,0,0,485,53a11.22,11.22,0,0,0,1.72-3.09,19.63,19.63,0,0,0,1.07-4.21A16.27,16.27,0,0,0,487.84,41.27Z"/><path class="cls-1" d="M515.18,42a5.44,5.44,0,0,1-1.72,1.55,11.53,11.53,0,0,1-2.23,1,14,14,0,0,1-2.45.56c-.84.11-1.57.2-2.2.26a31,31,0,0,0-.3,3.52,17.61,17.61,0,0,0,.17,3.1,8.28,8.28,0,0,0,.69,2.32,2.19,2.19,0,0,0,1.33,1.2,3,3,0,0,0,2.41-.38,10.83,10.83,0,0,0,2.5-2,22.87,22.87,0,0,0,2.32-3c.74-1.15,1.4-2.25,2-3.31s1.06-2,1.47-2.93a17.61,17.61,0,0,0,.77-1.93,1.57,1.57,0,0,1,.82-1,1.81,1.81,0,0,1,1.07-.18,1.33,1.33,0,0,1,.86.56,1.48,1.48,0,0,1,.17,1.25c-.11.34-.31,1-.6,2A28.24,28.24,0,0,1,521,48a38.74,38.74,0,0,1-2,3.91,18.67,18.67,0,0,1-2.8,3.7,15,15,0,0,1-3.74,2.79,9.75,9.75,0,0,1-4.68,1.12A5.83,5.83,0,0,1,503,57.35a11.92,11.92,0,0,1-2.32-5.42,24.6,24.6,0,0,1-.21-7,29.9,29.9,0,0,1,1.54-7,17.93,17.93,0,0,1,2.93-5.42,5,5,0,0,1,3.91-2.15,5.31,5.31,0,0,1,3.65,1.42,9.88,9.88,0,0,1,2.45,3.31,10.75,10.75,0,0,1,1,3.87A4.44,4.44,0,0,1,515.18,42Zm-5.33-7.65c-.4.17-.83.91-1.29,2.19a39,39,0,0,0-1.29,4.69,8.69,8.69,0,0,0,1.89-.21,2.12,2.12,0,0,0,1.38-.91,3.22,3.22,0,0,0,.43-1.5,10.54,10.54,0,0,0,0-2,6.43,6.43,0,0,0-.43-1.72C510.29,34.45,510.08,34.28,509.85,34.39Z"/><path class="cls-1" d="M585.25,57.87a101.45,101.45,0,0,0,13.42,7.65,36.42,36.42,0,0,0,8.51,2.83,9.74,9.74,0,0,0,5.07-.21,17.87,17.87,0,0,0,3-1.51c1.49-.91,2.51-1.13,3-.64s.07,1.48-1.42,3A14.88,14.88,0,0,1,614,71.15a15.53,15.53,0,0,1-4.34,1.68,23.68,23.68,0,0,1-5.76.55,26.37,26.37,0,0,1-7.14-1.2,47.34,47.34,0,0,1-8.55-3.61,66.7,66.7,0,0,1-10-6.66,34.13,34.13,0,0,1-4.68,1.24,27.09,27.09,0,0,1-5.2.48,28.14,28.14,0,0,1-8.3-1.21,28.52,28.52,0,0,1-7.18-3.31A27.15,27.15,0,0,1,547,54a29,29,0,0,1-4.3-6.58,4.82,4.82,0,0,0-1.33.95,15.92,15.92,0,0,1-1.42,1.2,2.37,2.37,0,0,1-1.42.52c-.48,0-.93-.38-1.33-1.12a2.43,2.43,0,0,1-.52-1.89,3.36,3.36,0,0,1,.91-1.72A7.89,7.89,0,0,1,539.3,44a12.43,12.43,0,0,1,1.85-.94,20.76,20.76,0,0,1-.82-3.87,35.82,35.82,0,0,1-.22-4,34,34,0,0,1,.78-6.79,48.75,48.75,0,0,1,2.28-7.74,49.35,49.35,0,0,1,3.69-7.65,37.58,37.58,0,0,1,4.95-6.62,23.26,23.26,0,0,1,6.1-4.69A15.21,15.21,0,0,1,565.05,0,28.9,28.9,0,0,1,578,2.79a29.48,29.48,0,0,1,9.58,7.44A32.27,32.27,0,0,1,593.47,21a40.42,40.42,0,0,1,2,12.72A36.12,36.12,0,0,1,593,47,27,27,0,0,1,585.25,57.87Zm3-23.56a34.78,34.78,0,0,0-1.67-10.75,29.46,29.46,0,0,0-4.86-9.2A25.53,25.53,0,0,0,563.5,4.64a16.4,16.4,0,0,0-7.65,4.26,29.69,29.69,0,0,0-5.63,7.48,40,40,0,0,0-3.49,9,36.56,36.56,0,0,0-1.2,8.9,25.73,25.73,0,0,0,1.2,7.65,30.8,30.8,0,0,1,8.73,1.2,51.28,51.28,0,0,1,7.87,3.05c2.52,1.24,5,2.58,7.35,4s4.8,2.85,7.27,4.17a18.29,18.29,0,0,0,7.52-7.57A25.77,25.77,0,0,0,588.26,34.31ZM548.8,46.86a20.83,20.83,0,0,0,9,8.08,22.93,22.93,0,0,0,12,2c-2-1.32-3.91-2.57-5.72-3.74s-3.54-2.21-5.2-3.1a32.94,32.94,0,0,0-5-2.15A24,24,0,0,0,548.8,46.86Z"/><path class="cls-1" d="M600.21,37.06a2.45,2.45,0,0,1,1.08-2.19,4.94,4.94,0,0,1,2.36-.86,4.37,4.37,0,0,1,2.33.34,1.36,1.36,0,0,1,.94,1.42q-.18,2.74-.52,5.76t-.68,5.59c-.23,1.72-.38,3.17-.43,4.34s.08,1.82.43,1.93.6-.1.94-.64a11.63,11.63,0,0,0,1-2.19c.35-.92.71-2,1.08-3.1s.73-2.29,1.07-3.44.66-2.23.95-3.27.54-1.86.77-2.49a1.58,1.58,0,0,1,1.16-1.59,4.22,4.22,0,0,1,2.28,0,6.22,6.22,0,0,1,2.11,1,1.65,1.65,0,0,1,.82,1.46c-.23,1-.45,2.32-.65,3.87s-.33,3-.39,4.47a22.18,22.18,0,0,0,.13,3.69c.15,1,.48,1.55,1,1.55.35,0,.76-.44,1.25-1.33a24.81,24.81,0,0,0,1.42-3.14c.46-1.2.89-2.41,1.29-3.61a21.09,21.09,0,0,0,.77-2.75,1.55,1.55,0,0,1,.77-1.16,1.79,1.79,0,0,1,1.21-.17,1.63,1.63,0,0,1,1,.64,1.33,1.33,0,0,1,.13,1.29c-.12.46-.36,1.32-.73,2.58s-.86,2.64-1.47,4.13a30.27,30.27,0,0,1-2.15,4.3,8.72,8.72,0,0,1-2.79,3,3.35,3.35,0,0,1-2.11.51,5.76,5.76,0,0,1-2.23-.64,5.85,5.85,0,0,1-3-4.17,15.2,15.2,0,0,1-.26-2.93,34.34,34.34,0,0,1-1.8,4.56,12.81,12.81,0,0,1-2.41,3.53,3.16,3.16,0,0,1-2,1.07,4,4,0,0,1-2.24-.39,5.61,5.61,0,0,1-1.89-1.5,5.11,5.11,0,0,1-1.07-2.28,17.28,17.28,0,0,1-.26-3.27c0-1.32,0-2.75.13-4.3s.2-3.15.34-4.81S600.16,38.66,600.21,37.06Z"/><path class="cls-1" d="M632.63,27.43a2.84,2.84,0,0,1-.22,1.76,4.1,4.1,0,0,1-1.16,1.46,6.94,6.94,0,0,1-1.8,1.08,9.94,9.94,0,0,1-2.15.6,9.54,9.54,0,0,1-4.21-.43,3.06,3.06,0,0,1-2.33-2.49,3.32,3.32,0,0,1,1.16-3.23,8,8,0,0,1,4-1.76,7.89,7.89,0,0,1,4.47.39A3.26,3.26,0,0,1,632.63,27.43Zm-9.8,11.78a3.27,3.27,0,0,1,1.07-2.84,3.17,3.17,0,0,1,2.37-.6,3.76,3.76,0,0,1,2.23,1.12,2.46,2.46,0,0,1,.69,2.32c-.23,1-.45,2.32-.64,3.87a44.8,44.8,0,0,0-.39,4.47,20.21,20.21,0,0,0,.13,3.69c.14,1,.47,1.55,1,1.55.34,0,.76-.44,1.24-1.33a24.81,24.81,0,0,0,1.42-3.14c.46-1.2.89-2.41,1.29-3.61A23.31,23.31,0,0,0,634,42a1.77,1.77,0,0,1,.85-1.16,1.7,1.7,0,0,1,1.17-.17,1.61,1.61,0,0,1,.94.64,1.33,1.33,0,0,1,.13,1.29c-.11.34-.3,1-.56,1.93s-.59,2-1,3.14-.87,2.34-1.42,3.57a16.11,16.11,0,0,1-1.89,3.27,8.34,8.34,0,0,1-2.36,2.19A3.46,3.46,0,0,1,627,57a5.2,5.2,0,0,1-3.31-2.53,10.51,10.51,0,0,1-1.16-4.3,38.2,38.2,0,0,1,0-5.33C622.76,42.92,622.83,41,622.83,39.21Z"/><path class="cls-1" d="M635,28.89c0-.4,0-.79,0-1.16s0-.7,0-1a3.34,3.34,0,0,1,1.11-2.88,3.6,3.6,0,0,1,2.41-.73,3.8,3.8,0,0,1,2.28.94,2.24,2.24,0,0,1,.73,2.24l-.43,2.24h2.06a4,4,0,0,1,2.37.55,1.59,1.59,0,0,1,.73,1.21,1.44,1.44,0,0,1-.77,1.16,3.91,3.91,0,0,1-2.15.51H640.8q-.34,3.1-.61,6.84t-.34,7a52,52,0,0,0,.09,5.5c.11,1.46.37,2.2.77,2.2s.82-.52,1.42-1.55,1.22-2.22,1.85-3.57,1.2-2.67,1.72-4,.86-2.16,1-2.62a1.34,1.34,0,0,1,.77-1,1.9,1.9,0,0,1,1.16-.13,1.73,1.73,0,0,1,1,.6,1.25,1.25,0,0,1,.13,1.25q-.51,1.72-1.38,4.47a35.14,35.14,0,0,1-2.15,5.33,18.28,18.28,0,0,1-3.09,4.47,5.76,5.76,0,0,1-4.3,1.89,3.29,3.29,0,0,1-2.67-1.28,8.78,8.78,0,0,1-1.54-3.4,25.43,25.43,0,0,1-.65-4.86c-.08-1.83-.1-3.72,0-5.67s.17-3.92.34-5.89.32-3.8.43-5.46h-2.06a3.67,3.67,0,0,1-2.11-.52,1.58,1.58,0,0,1-.77-1.12,1.3,1.3,0,0,1,.64-1.11,3.75,3.75,0,0,1,2.24-.52Z"/><path class="cls-1" d="M654.47,54.86a7.51,7.51,0,0,1-5.08-1.64,8.49,8.49,0,0,1-2.62-4,13.25,13.25,0,0,1-.43-5.24,15.48,15.48,0,0,1,1.46-5.21,11.56,11.56,0,0,1,3.06-3.91,6.13,6.13,0,0,1,4.47-1.37,7.93,7.93,0,0,1,4.9,1.8,9.45,9.45,0,0,1,2.75,4,13.21,13.21,0,0,1,.73,5.12,12.91,12.91,0,0,1-1.25,5,10.48,10.48,0,0,1-3.14,3.87A7.73,7.73,0,0,1,654.47,54.86ZM655.58,51a1.61,1.61,0,0,0,1.55-.91A7,7,0,0,0,658,47.5a19.11,19.11,0,0,0,.22-3.48,16.87,16.87,0,0,0-.43-3.52,9.28,9.28,0,0,0-1.08-2.75,1.94,1.94,0,0,0-1.63-1.12,1.7,1.7,0,0,0-1.46,1,8.29,8.29,0,0,0-.91,2.58,17.85,17.85,0,0,0-.3,3.4,16.13,16.13,0,0,0,.35,3.43,8.47,8.47,0,0,0,1,2.71A2.28,2.28,0,0,0,655.58,51Z"/><path class="cls-1" d="M678.88,51.76A3.53,3.53,0,0,1,677,54.81a4.84,4.84,0,0,1-3.49.48,7.06,7.06,0,0,1-3.13-1.77,3.84,3.84,0,0,1-1.25-3.31,3.71,3.71,0,0,1,1.68-3.14,5.27,5.27,0,0,1,3.48-.64,6.4,6.4,0,0,1,3.35,1.89A4.25,4.25,0,0,1,678.88,51.76Z"/></g></g></svg>